<svg width="600" height="369" viewBox="0 0 600 369" fill="none" xmlns="http://www.w3.org/2000/svg">
<rect x="0.56297" y="0.56297" width="597.904" height="366.904" rx="8.44455" fill="white"/>
<rect x="163.562" y="18.5797" width="200.874" height="330.874" rx="6.19267" fill="#F7F8FA" stroke="#DEDEDE" stroke-width="1.12594"/>
<path d="M181.064 56.3356H183.352V51.5256H187.856V49.5619H183.352V46.3373H189.333V44.3736H181.064V56.3356ZM193.328 56.4977C195.905 56.4977 197.742 54.6602 197.742 52.1021C197.742 49.5079 195.941 47.6704 193.382 47.6704C190.806 47.6704 189.005 49.5079 189.005 52.1021C189.005 54.6962 190.77 56.4977 193.328 56.4977ZM193.346 54.6782C192.049 54.6782 191.275 53.7414 191.275 52.1561V52.0841C191.275 50.4627 192.067 49.4899 193.382 49.4899C194.68 49.4899 195.472 50.4627 195.472 52.0841V52.1561C195.472 53.7414 194.662 54.6782 193.346 54.6782ZM198.99 56.3356H201.223V51.976C201.223 50.4987 201.602 49.8862 202.953 49.8862H203.836V47.7424H203.656C202.088 47.7424 201.458 48.427 201.223 49.3998V47.8325H198.99V56.3356ZM212.655 56.5878C215.501 56.5878 217.302 54.9484 217.302 52.2642C217.302 49.7421 215.555 48.1207 212.961 48.1207C211.88 48.1207 210.997 48.481 210.367 49.0936L210.781 46.3373H216.618V44.3736H209.178L208.259 50.2645L210.205 51.3815C210.709 50.5888 211.412 49.9943 212.691 49.9943C214.096 49.9943 214.979 50.859 214.979 52.2462V52.2822C214.979 53.7955 214.114 54.6242 212.601 54.6242C211.105 54.6242 210.403 53.9576 210.277 52.7326H208.061C208.061 55.0565 209.916 56.5878 212.655 56.5878ZM223.29 56.5698C226.479 56.5698 228.299 54.2999 228.299 50.3546C228.299 46.4273 226.461 44.1394 223.29 44.1394C220.102 44.1394 218.282 46.4093 218.282 50.3546C218.264 54.372 220.102 56.5698 223.29 56.5698ZM223.326 54.5881C221.579 54.5881 220.678 53.255 220.678 50.6428V50.0664C220.678 47.4362 221.543 46.1031 223.254 46.1031C225.002 46.1031 225.903 47.4542 225.903 50.0664V50.6428C225.903 53.273 225.038 54.5881 223.326 54.5881ZM231.959 49.7961C233.671 49.7961 234.842 48.6432 234.842 46.9498C234.842 45.2564 233.707 44.1214 232.031 44.1214C230.284 44.1214 229.131 45.2564 229.131 46.9498C229.131 48.6792 230.266 49.7961 231.959 49.7961ZM229.726 56.3356H231.473L240.21 44.3736H238.463L229.726 56.3356ZM231.959 48.5171C231.095 48.5171 230.59 47.9406 230.59 46.9678V46.9318C230.59 46.013 231.149 45.4365 231.995 45.4365C232.86 45.4365 233.383 45.995 233.383 46.9318V46.9678C233.383 47.9406 232.86 48.5171 231.959 48.5171ZM237.994 56.5878C239.706 56.5878 240.859 55.4348 240.859 53.7414C240.859 52.048 239.742 50.9131 238.066 50.9131C236.301 50.9131 235.166 52.048 235.166 53.7414C235.166 55.4709 236.283 56.5878 237.994 56.5878ZM237.994 55.3087C237.112 55.3087 236.607 54.7323 236.607 53.7595V53.7234C236.607 52.8047 237.166 52.2282 238.03 52.2282C238.895 52.2282 239.418 52.7866 239.418 53.7234V53.7595C239.418 54.7323 238.895 55.3087 237.994 55.3087ZM248.081 56.5518C249.342 56.5518 250.315 56.0654 250.855 55.1826V56.3356H252.999V50.9851C252.999 48.6792 251.594 47.6704 249.288 47.6704C246.892 47.6704 245.379 48.9494 245.307 50.877H247.523V50.7509C247.577 49.9943 248.117 49.4178 249.27 49.4178C250.423 49.4178 250.873 49.8862 250.873 50.3906V50.4807C250.819 50.9491 250.027 51.0212 248.459 51.3274C246.55 51.7418 245.127 52.1741 245.127 54.0837C245.127 55.561 246.262 56.5518 248.081 56.5518ZM248.604 54.9484C247.829 54.9484 247.379 54.5521 247.379 53.9756C247.379 53.219 248.027 52.9308 248.892 52.7146C249.594 52.5344 250.387 52.3903 250.873 52.1021V52.8227C250.819 54.408 249.666 54.9484 248.604 54.9484ZM257.917 56.5158C259.015 56.5158 259.934 56.0293 260.529 55.2367V56.3356H262.691V44.2115H260.511V48.9314C259.916 48.1388 259.015 47.6524 257.935 47.6524C255.773 47.6524 254.133 49.4178 254.133 52.1201C254.133 54.8944 255.791 56.5158 257.917 56.5158ZM258.547 54.6962C257.286 54.6962 256.475 53.8675 256.475 52.1921V52.066C256.475 50.3906 257.322 49.4719 258.547 49.4719C259.862 49.4719 260.619 50.4447 260.619 51.976V52.1201C260.619 53.6514 259.826 54.6962 258.547 54.6962ZM266.78 56.3356H268.852L271.951 47.8325H269.717L267.843 53.7595L265.825 47.8325H263.519L266.78 56.3356ZM274.822 56.5518C276.083 56.5518 277.056 56.0654 277.597 55.1826V56.3356H279.74V50.9851C279.74 48.6792 278.335 47.6704 276.029 47.6704C273.633 47.6704 272.12 48.9494 272.048 50.877H274.264V50.7509C274.318 49.9943 274.858 49.4178 276.011 49.4178C277.164 49.4178 277.615 49.8862 277.615 50.3906V50.4807C277.561 50.9491 276.768 51.0212 275.201 51.3274C273.291 51.7418 271.868 52.1741 271.868 54.0837C271.868 55.561 273.003 56.5518 274.822 56.5518ZM275.345 54.9484C274.57 54.9484 274.12 54.5521 274.12 53.9756C274.12 53.219 274.768 52.9308 275.633 52.7146C276.335 52.5344 277.128 52.3903 277.615 52.1021V52.8227C277.561 54.408 276.408 54.9484 275.345 54.9484ZM281.289 56.3356H283.523V52.012C283.523 50.4267 284.171 49.5619 285.234 49.5619C286.279 49.5619 286.729 50.1745 286.729 51.3635V56.3356H288.963V51.2373C288.963 48.8954 287.864 47.6524 286.009 47.6524C284.802 47.6524 283.973 48.2288 283.523 49.2197V47.8325H281.289V56.3356ZM294.291 56.4977C296.435 56.4977 297.696 55.3988 298.291 53.6514L296.183 53.0388C295.931 54.0657 295.462 54.6782 294.255 54.6782C293.012 54.6782 292.292 53.6153 292.292 52.1201V52.048C292.292 50.5528 293.084 49.4899 294.327 49.4899C295.372 49.4899 295.841 50.1024 296.093 51.0392L298.201 50.3906C297.624 48.7513 296.399 47.6704 294.345 47.6704C291.805 47.6704 290.058 49.5079 290.058 52.066C290.058 54.6962 291.661 56.4977 294.291 56.4977ZM303.213 56.4797C305.429 56.4797 306.672 55.4709 307.266 54.1017L305.32 53.4172C305.05 54.1378 304.51 54.7323 303.249 54.7323C302.042 54.7323 301.249 54.0477 301.105 52.8227H307.266V52.066C307.266 49.3818 305.735 47.6704 303.159 47.6704C300.673 47.6704 298.907 49.5079 298.907 52.1381C298.907 54.7863 300.564 56.4797 303.213 56.4797ZM301.069 51.2734C301.231 50.0844 302.024 49.3998 303.105 49.3998C304.258 49.3998 304.924 50.0303 305.014 51.2734H301.069ZM311.856 56.5158C312.955 56.5158 313.874 56.0293 314.468 55.2367V56.3356H316.63V44.2115H314.45V48.9314C313.856 48.1388 312.955 47.6524 311.874 47.6524C309.712 47.6524 308.073 49.4178 308.073 52.1201C308.073 54.8944 309.73 56.5158 311.856 56.5158ZM312.487 54.6962C311.226 54.6962 310.415 53.8675 310.415 52.1921V52.066C310.415 50.3906 311.262 49.4719 312.487 49.4719C313.802 49.4719 314.558 50.4447 314.558 51.976V52.1201C314.558 53.6514 313.766 54.6962 312.487 54.6962Z" fill="#1F325D"/>
<path d="M388.236 56.3356H390.524V51.5256H395.028V49.5619H390.524V46.3373H396.505V44.3736H388.236V56.3356ZM400.5 56.4977C403.076 56.4977 404.914 54.6602 404.914 52.1021C404.914 49.5079 403.112 47.6704 400.554 47.6704C397.978 47.6704 396.177 49.5079 396.177 52.1021C396.177 54.6962 397.942 56.4977 400.5 56.4977ZM400.518 54.6782C399.221 54.6782 398.447 53.7414 398.447 52.1561V52.0841C398.447 50.4627 399.239 49.4899 400.554 49.4899C401.851 49.4899 402.644 50.4627 402.644 52.0841V52.1561C402.644 53.7414 401.833 54.6782 400.518 54.6782ZM406.161 56.3356H408.395V51.976C408.395 50.4987 408.774 49.8862 410.125 49.8862H411.008V47.7424H410.827C409.26 47.7424 408.63 48.427 408.395 49.3998V47.8325H406.161V56.3356ZM419.826 56.5158C422.961 56.5158 424.799 54.372 424.799 50.3186C424.799 46.3553 422.997 44.1214 419.844 44.1214C417.25 44.1214 415.395 46.013 415.395 48.391C415.395 50.7149 417.106 52.2642 419.664 52.2642C420.907 52.2642 421.916 51.7418 422.565 50.769V51.2193C422.529 53.4352 421.592 54.5881 419.917 54.5881C418.421 54.5881 417.899 54.1017 417.755 53.237H415.539C415.683 54.9665 416.944 56.5158 419.826 56.5158ZM419.989 50.4807C418.583 50.4807 417.665 49.598 417.665 48.3549V48.3009C417.665 47.0759 418.565 46.031 419.917 46.031C421.286 46.031 422.349 47.0038 422.349 48.2108V48.2649C422.349 49.4358 421.34 50.4807 419.989 50.4807ZM431.096 56.5698C434.284 56.5698 436.104 54.2999 436.104 50.3546C436.104 46.4273 434.266 44.1394 431.096 44.1394C427.907 44.1394 426.087 46.4093 426.087 50.3546C426.069 54.372 427.907 56.5698 431.096 56.5698ZM431.132 54.5881C429.384 54.5881 428.483 53.255 428.483 50.6428V50.0664C428.483 47.4362 429.348 46.1031 431.06 46.1031C432.807 46.1031 433.708 47.4542 433.708 50.0664V50.6428C433.708 53.273 432.843 54.5881 431.132 54.5881ZM439.765 49.7961C441.476 49.7961 442.647 48.6432 442.647 46.9498C442.647 45.2564 441.512 44.1214 439.837 44.1214C438.089 44.1214 436.936 45.2564 436.936 46.9498C436.936 48.6792 438.071 49.7961 439.765 49.7961ZM437.531 56.3356H439.278L448.015 44.3736H446.268L437.531 56.3356ZM439.765 48.5171C438.9 48.5171 438.395 47.9406 438.395 46.9678V46.9318C438.395 46.013 438.954 45.4365 439.801 45.4365C440.665 45.4365 441.188 45.995 441.188 46.9318V46.9678C441.188 47.9406 440.665 48.5171 439.765 48.5171ZM445.8 56.5878C447.511 56.5878 448.664 55.4348 448.664 53.7414C448.664 52.048 447.547 50.9131 445.872 50.9131C444.106 50.9131 442.971 52.048 442.971 53.7414C442.971 55.4709 444.088 56.5878 445.8 56.5878ZM445.8 55.3087C444.917 55.3087 444.412 54.7323 444.412 53.7595V53.7234C444.412 52.8047 444.971 52.2282 445.836 52.2282C446.7 52.2282 447.223 52.7866 447.223 53.7234V53.7595C447.223 54.7323 446.7 55.3087 445.8 55.3087ZM455.886 56.5518C457.147 56.5518 458.12 56.0654 458.661 55.1826V56.3356H460.804V50.9851C460.804 48.6792 459.399 47.6704 457.093 47.6704C454.697 47.6704 453.184 48.9494 453.112 50.877H455.328V50.7509C455.382 49.9943 455.922 49.4178 457.075 49.4178C458.228 49.4178 458.679 49.8862 458.679 50.3906V50.4807C458.625 50.9491 457.832 51.0212 456.265 51.3274C454.355 51.7418 452.932 52.1741 452.932 54.0837C452.932 55.561 454.067 56.5518 455.886 56.5518ZM456.409 54.9484C455.634 54.9484 455.184 54.5521 455.184 53.9756C455.184 53.219 455.832 52.9308 456.697 52.7146C457.4 52.5344 458.192 52.3903 458.679 52.1021V52.8227C458.625 54.408 457.472 54.9484 456.409 54.9484ZM465.722 56.5158C466.821 56.5158 467.739 56.0293 468.334 55.2367V56.3356H470.496V44.2115H468.316V48.9314C467.721 48.1388 466.821 47.6524 465.74 47.6524C463.578 47.6524 461.939 49.4178 461.939 52.1201C461.939 54.8944 463.596 56.5158 465.722 56.5158ZM466.352 54.6962C465.091 54.6962 464.281 53.8675 464.281 52.1921V52.066C464.281 50.3906 465.127 49.4719 466.352 49.4719C467.667 49.4719 468.424 50.4447 468.424 51.976V52.1201C468.424 53.6514 467.631 54.6962 466.352 54.6962ZM474.585 56.3356H476.657L479.756 47.8325H477.522L475.648 53.7595L473.631 47.8325H471.325L474.585 56.3356ZM482.627 56.5518C483.888 56.5518 484.861 56.0654 485.402 55.1826V56.3356H487.546V50.9851C487.546 48.6792 486.14 47.6704 483.834 47.6704C481.438 47.6704 479.925 48.9494 479.853 50.877H482.069V50.7509C482.123 49.9943 482.663 49.4178 483.816 49.4178C484.969 49.4178 485.42 49.8862 485.42 50.3906V50.4807C485.366 50.9491 484.573 51.0212 483.006 51.3274C481.096 51.7418 479.673 52.1741 479.673 54.0837C479.673 55.561 480.808 56.5518 482.627 56.5518ZM483.15 54.9484C482.375 54.9484 481.925 54.5521 481.925 53.9756C481.925 53.219 482.573 52.9308 483.438 52.7146C484.141 52.5344 484.933 52.3903 485.42 52.1021V52.8227C485.366 54.408 484.213 54.9484 483.15 54.9484ZM489.094 56.3356H491.328V52.012C491.328 50.4267 491.976 49.5619 493.039 49.5619C494.084 49.5619 494.535 50.1745 494.535 51.3635V56.3356H496.768V51.2373C496.768 48.8954 495.669 47.6524 493.814 47.6524C492.607 47.6524 491.778 48.2288 491.328 49.2197V47.8325H489.094V56.3356ZM502.097 56.4977C504.24 56.4977 505.501 55.3988 506.096 53.6514L503.988 53.0388C503.736 54.0657 503.268 54.6782 502.061 54.6782C500.818 54.6782 500.097 53.6153 500.097 52.1201V52.048C500.097 50.5528 500.89 49.4899 502.133 49.4899C503.178 49.4899 503.646 50.1024 503.898 51.0392L506.006 50.3906C505.429 48.7513 504.204 47.6704 502.151 47.6704C499.611 47.6704 497.863 49.5079 497.863 52.066C497.863 54.6962 499.466 56.4977 502.097 56.4977ZM511.018 56.4797C513.234 56.4797 514.477 55.4709 515.071 54.1017L513.126 53.4172C512.855 54.1378 512.315 54.7323 511.054 54.7323C509.847 54.7323 509.054 54.0477 508.91 52.8227H515.071V52.066C515.071 49.3818 513.54 47.6704 510.964 47.6704C508.478 47.6704 506.712 49.5079 506.712 52.1381C506.712 54.7863 508.37 56.4797 511.018 56.4797ZM508.874 51.2734C509.036 50.0844 509.829 49.3998 510.91 49.3998C512.063 49.3998 512.729 50.0303 512.819 51.2734H508.874ZM519.661 56.5158C520.76 56.5158 521.679 56.0293 522.273 55.2367V56.3356H524.435V44.2115H522.255V48.9314C521.661 48.1388 520.76 47.6524 519.679 47.6524C517.518 47.6524 515.878 49.4178 515.878 52.1201C515.878 54.8944 517.536 56.5158 519.661 56.5158ZM520.292 54.6962C519.031 54.6962 518.22 53.8675 518.22 52.1921V52.066C518.22 50.3906 519.067 49.4719 520.292 49.4719C521.607 49.4719 522.364 50.4447 522.364 51.976V52.1201C522.364 53.6514 521.571 54.6962 520.292 54.6962Z" fill="#1F325D"/>
<path d="M20.576 106.325H18.9752V116.955H20.576V106.325ZM23.9339 109.399H22.365V116.955H23.9339V113.337C23.9339 111.608 24.6062 110.632 25.7749 110.632C26.7994 110.632 27.2957 111.256 27.2957 112.441V116.955H28.8805V112.361C28.8805 110.343 27.888 109.239 26.2551 109.239C25.1025 109.239 24.3341 109.815 23.9339 110.824V109.399ZM30.907 109.399H29.2741L32.1877 116.971H33.6445L36.462 109.399H34.8131L32.9081 115.082L30.907 109.399ZM40.2496 115.754C38.9048 115.754 38.0724 114.794 38.0724 113.241V113.177C38.0724 111.592 38.9369 110.6 40.2816 110.6C41.6263 110.6 42.4748 111.592 42.4748 113.177V113.241C42.4748 114.778 41.6103 115.754 40.2496 115.754ZM40.2496 117.083C42.4748 117.083 44.0596 115.466 44.0596 113.193C44.0596 110.888 42.5068 109.271 40.2816 109.271C38.0564 109.271 36.4875 110.888 36.4875 113.193C36.4875 115.498 38.0244 117.083 40.2496 117.083ZM46.8842 109.399H45.2993V116.955H46.8842V109.399ZM46.9482 106.517H45.2513V108.182H46.9482V106.517ZM51.8325 117.083C53.6735 117.083 54.8101 116.107 55.3063 114.57L53.8015 114.105C53.5454 115.13 53.0171 115.754 51.8004 115.754C50.4877 115.754 49.7193 114.698 49.7193 113.209V113.145C49.7193 111.64 50.5358 110.6 51.8485 110.6C52.9371 110.6 53.4813 111.208 53.7375 112.168L55.2423 111.704C54.778 110.231 53.6574 109.271 51.8805 109.271C49.6713 109.271 48.1345 110.904 48.1345 113.161C48.1345 115.466 49.5752 117.083 51.8325 117.083ZM59.6976 117.083C61.6346 117.083 62.7072 116.155 63.2195 114.986L61.8267 114.442C61.5386 115.178 60.9783 115.802 59.6976 115.802C58.4169 115.802 57.6004 115.018 57.5044 113.721H63.1875V113.145C63.1875 110.76 61.8588 109.271 59.6335 109.271C57.4884 109.271 55.9355 110.888 55.9355 113.225C55.9355 115.546 57.3763 117.083 59.6976 117.083ZM59.6015 110.552C60.7862 110.552 61.5066 111.24 61.5706 112.537H57.4724C57.6325 111.304 58.4649 110.552 59.6015 110.552ZM69.7705 117.147C70.8591 117.147 71.8036 116.715 72.3159 115.818V116.955H73.8367L73.8207 115.786V112.056C73.8207 110.135 72.6681 109.271 70.7311 109.271C68.73 109.271 67.3852 110.295 67.3372 111.992H68.9221V111.896C68.9861 111.048 69.5944 110.536 70.715 110.536C71.8677 110.536 72.3319 111.016 72.3319 111.64V111.752C72.1718 112.168 71.3874 112.248 70.1067 112.521C68.4258 112.889 67.1611 113.273 67.1611 114.97C67.1611 116.267 68.1537 117.147 69.7705 117.147ZM70.0587 115.946C69.2262 115.946 68.762 115.53 68.762 114.906C68.762 114.105 69.4664 113.833 70.3308 113.609C71.0672 113.433 71.8677 113.305 72.3319 112.985V113.913C72.2038 115.386 71.1633 115.946 70.0587 115.946ZM76.9625 109.399H75.3937V116.955H76.9625V112.729C76.9625 111.368 77.6349 110.632 78.5474 110.632C79.4439 110.632 79.9241 111.176 79.9241 112.296V116.955H81.509V112.729C81.509 111.416 82.0853 110.632 83.0939 110.632C83.9903 110.632 84.4706 111.176 84.4706 112.296V116.955H86.0555V112.216C86.0555 110.343 85.143 109.239 83.7022 109.239C82.4215 109.239 81.6211 109.895 81.2529 110.888C80.9007 109.687 80.0522 109.239 79.1717 109.239C78.0832 109.239 77.3468 109.783 76.9625 110.728V109.399ZM90.9176 115.754C89.5729 115.754 88.7404 114.794 88.7404 113.241V113.177C88.7404 111.592 89.6049 110.6 90.9496 110.6C92.2943 110.6 93.1428 111.592 93.1428 113.177V113.241C93.1428 114.778 92.2783 115.754 90.9176 115.754ZM90.9176 117.083C93.1428 117.083 94.7277 115.466 94.7277 113.193C94.7277 110.888 93.1748 109.271 90.9496 109.271C88.7244 109.271 87.1556 110.888 87.1556 113.193C87.1556 115.498 88.6924 117.083 90.9176 117.083ZM98.5291 117.083C99.6177 117.083 100.354 116.587 100.77 115.658V116.955H102.339V109.399H100.77V113.017C100.77 114.65 100.194 115.722 98.9453 115.722C97.9208 115.722 97.4085 115.082 97.4085 113.913V109.399H95.8236V113.993C95.8236 115.914 96.8322 117.083 98.5291 117.083ZM105.572 109.399H104.003V116.955H105.572V113.337C105.572 111.608 106.244 110.632 107.413 110.632C108.437 110.632 108.934 111.256 108.934 112.441V116.955H110.518V112.361C110.518 110.343 109.526 109.239 107.893 109.239C106.74 109.239 105.972 109.815 105.572 110.824V109.399ZM115.502 116.955V115.578H114.605C114.125 115.578 113.933 115.354 113.933 114.874V110.744H115.566V109.399H113.933V106.982L112.412 107.926V109.399H111.211V110.744H112.412V115.066C112.428 116.267 112.78 116.891 114.157 116.955H115.502Z" fill="#ACACAC"/>
<path d="M25.928 161.971H27.457V151.488H25.9122V159.307L20.7262 151.488H18.8976V161.955H20.4424V153.758L25.928 161.971ZM32.4429 162.081C34.3502 162.081 35.4063 161.167 35.9108 160.016L34.5394 159.48C34.2556 160.205 33.7039 160.82 32.4429 160.82C31.1818 160.82 30.3779 160.048 30.2833 158.771H35.8792V158.203C35.8792 155.855 34.5709 154.389 32.3798 154.389C30.2676 154.389 28.7385 155.981 28.7385 158.282C28.7385 160.568 30.1572 162.081 32.4429 162.081ZM30.2518 157.604C30.4094 156.391 31.2291 155.65 32.3483 155.65C33.5148 155.65 34.2241 156.328 34.2872 157.604H30.2518ZM39.2548 161.955H40.5789V160.599H39.6961C39.2232 160.599 39.0341 160.379 39.0341 159.906V155.839H40.6419V154.515H39.0341V152.135L37.5366 153.065V154.515H36.3544V155.839H37.5366V160.095C37.5524 161.277 37.8991 161.892 39.2548 161.955ZM47.0594 161.955H48.3835V160.599H47.5008C47.0279 160.599 46.8387 160.379 46.8387 159.906V155.839H48.4465V154.515H46.8387V152.135L45.3412 153.065V154.515H44.159V155.839H45.3412V160.095C45.357 161.277 45.7038 161.892 47.0594 161.955ZM52.6086 162.081C54.516 162.081 55.5721 161.167 56.0765 160.016L54.7051 159.48C54.4214 160.205 53.8697 160.82 52.6086 160.82C51.3476 160.82 50.5437 160.048 50.4491 158.771H56.045V158.203C56.045 155.855 54.7367 154.389 52.5456 154.389C50.4333 154.389 48.9043 155.981 48.9043 158.282C48.9043 160.568 50.323 162.081 52.6086 162.081ZM50.4176 157.604C50.5752 156.391 51.3949 155.65 52.5141 155.65C53.6805 155.65 54.3899 156.328 54.4529 157.604H50.4176ZM57.2884 161.955H58.8332V158.14C58.8332 156.627 59.1958 155.965 60.5199 155.965H61.2292V154.452H60.9928C59.6372 154.452 59.0539 155.019 58.8332 155.886V154.515H57.2884V161.955ZM62.3222 161.955H63.867V157.794C63.867 156.454 64.529 155.729 65.4275 155.729C66.3103 155.729 66.7832 156.264 66.7832 157.368V161.955H68.3437V157.794C68.3437 156.501 68.9112 155.729 69.9043 155.729C70.787 155.729 71.2599 156.264 71.2599 157.368V161.955H72.8204V157.289C72.8204 155.445 71.9219 154.357 70.5033 154.357C69.2422 154.357 68.4541 155.003 68.0915 155.981C67.7447 154.799 66.9093 154.357 66.0423 154.357C64.9704 154.357 64.2453 154.893 63.867 155.823V154.515H62.3222V161.955ZM77.1197 162.16C78.8064 162.16 80.0201 161.151 80.0201 159.78C80.0201 158.314 78.6172 157.825 77.2616 157.557C75.906 157.289 75.4015 157.179 75.4015 156.564C75.4015 155.997 75.9217 155.618 76.7256 155.618C77.498 155.618 78.1759 155.965 78.6015 156.611L79.9413 155.949C79.2162 154.988 78.1286 154.357 76.7256 154.357C75.1493 154.357 73.9198 155.35 73.9198 156.659C73.9198 158.093 75.1336 158.566 76.4892 158.85C77.6557 159.102 78.5226 159.244 78.5226 159.89C78.5226 160.505 78.0182 160.883 77.1828 160.883C76.3946 160.883 75.6222 160.552 75.1651 159.89L73.8252 160.599C74.503 161.545 75.6853 162.16 77.1197 162.16Z" fill="#ACACAC"/>
<path d="M18.8976 208.955H22.3655C25.865 208.955 27.7723 207.142 27.7723 203.753C27.7723 200.301 25.928 198.488 22.5232 198.488H18.8976V208.955ZM20.474 207.568V199.875H22.5232C24.9665 199.875 26.1172 201.073 26.1172 203.69V203.785C26.1172 206.323 24.8876 207.568 22.4128 207.568H20.474ZM31.0162 209.144C32.0881 209.144 33.0181 208.719 33.5225 207.836V208.955H35.02L35.0043 207.804V204.131C35.0043 202.24 33.8693 201.389 31.962 201.389C29.9916 201.389 28.6675 202.398 28.6202 204.068H30.1807V203.974C30.2438 203.138 30.8428 202.634 31.9462 202.634C33.0812 202.634 33.5383 203.107 33.5383 203.722V203.832C33.3807 204.242 32.6083 204.321 31.3472 204.589C29.6921 204.951 28.4468 205.329 28.4468 207C28.4468 208.277 29.4241 209.144 31.0162 209.144ZM31.2999 207.962C30.4802 207.962 30.0231 207.552 30.0231 206.937C30.0231 206.149 30.7167 205.881 31.5679 205.66C32.293 205.487 33.0812 205.361 33.5383 205.046V205.96C33.4122 207.41 32.3876 207.962 31.2999 207.962ZM35.7731 211.95H36.5612C38.3425 211.95 38.9888 211.256 39.6666 209.491L42.5197 201.515H40.8804L39.0676 207.063L37.0814 201.515H35.4578L38.3267 208.813C37.7435 210.326 37.507 210.547 36.4824 210.547H35.7731V211.95ZM49.0127 208.955H50.5575V198.472H49.0442C48.6501 200.285 47.4206 201.294 45.86 201.877V203.375C47.2157 202.965 48.2403 202.177 49.0127 201.168V208.955Z" fill="#ACACAC"/>
<path d="M18.8976 255.955H22.3655C25.865 255.955 27.7723 254.142 27.7723 250.753C27.7723 247.301 25.928 245.488 22.5232 245.488H18.8976V255.955ZM20.474 254.568V246.875H22.5232C24.9665 246.875 26.1172 248.073 26.1172 250.69V250.785C26.1172 253.323 24.8876 254.568 22.4128 254.568H20.474ZM31.0162 256.144C32.0881 256.144 33.0181 255.719 33.5225 254.836V255.955H35.02L35.0043 254.804V251.131C35.0043 249.24 33.8693 248.389 31.962 248.389C29.9916 248.389 28.6675 249.398 28.6202 251.068H30.1807V250.974C30.2438 250.138 30.8428 249.634 31.9462 249.634C33.0812 249.634 33.5383 250.107 33.5383 250.722V250.832C33.3807 251.242 32.6083 251.321 31.3472 251.589C29.6921 251.951 28.4468 252.329 28.4468 254C28.4468 255.277 29.4241 256.144 31.0162 256.144ZM31.2999 254.962C30.4802 254.962 30.0231 254.552 30.0231 253.937C30.0231 253.149 30.7167 252.881 31.5679 252.66C32.293 252.487 33.0812 252.361 33.5383 252.046V252.96C33.4122 254.41 32.3876 254.962 31.2999 254.962ZM35.7731 258.95H36.5612C38.3425 258.95 38.9888 258.256 39.6666 256.491L42.5197 248.515H40.8804L39.0676 254.063L37.0814 248.515H35.4578L38.3267 255.813C37.7435 257.326 37.507 257.547 36.4824 257.547H35.7731V258.95ZM50.0024 256.144C52.493 256.144 53.9274 254.978 53.9274 252.992C53.9274 251.683 53.2339 250.769 51.957 250.406C53.155 250.06 53.7068 249.287 53.7068 248.247C53.7068 246.371 52.4142 245.299 50.0024 245.299C47.7798 245.299 46.3769 246.481 46.1877 248.641H47.7483C47.8902 247.427 48.4734 246.686 49.9867 246.686C51.3423 246.686 52.0989 247.285 52.0989 248.294V248.326C52.0989 249.319 51.4369 249.855 50.1128 249.855H49.2143V251.258H50.1285C51.6891 251.258 52.3038 251.778 52.3038 252.944V252.992C52.3038 254.126 51.5157 254.757 50.0182 254.757C48.4261 254.757 47.7325 254.095 47.6222 252.865H46.0301C46.172 255.214 47.701 256.144 50.0024 256.144ZM57.8333 255.955H59.378V245.472H57.8648C57.4707 247.285 56.2412 248.294 54.6806 248.877V250.375C56.0363 249.965 57.0609 249.177 57.8333 248.168V255.955Z" fill="#ACACAC"/>
<path d="M183.884 118.869H184.782V117.561C186.674 117.451 188.171 116.426 188.171 114.692C188.171 112.722 186.169 112.296 184.64 111.949C182.985 111.602 181.976 111.303 181.976 110.373C181.976 109.537 182.827 109.065 184.104 109.065C185.239 109.065 186.106 109.522 187.052 110.373L188.029 109.348C187.084 108.403 185.964 107.898 184.814 107.772V106.479H183.915V107.74C182.039 107.819 180.526 108.938 180.526 110.531C180.526 112.406 182.433 112.895 183.962 113.258C185.586 113.652 186.611 113.809 186.611 114.834C186.611 115.701 185.775 116.19 184.546 116.205C183.269 116.237 182.197 115.717 181.188 114.755L180.227 115.795C181.172 116.773 182.37 117.419 183.884 117.545V118.869ZM192.196 117.955H193.741V107.472H192.227C191.833 109.285 190.604 110.294 189.043 110.877V112.375C190.399 111.965 191.423 111.177 192.196 110.168V117.955ZM195.833 120.43C197.331 120.115 197.93 119.058 197.93 117.687V115.985H195.944V117.829H196.889C196.889 118.885 196.59 119.547 195.613 119.815L195.833 120.43ZM203.459 118.144C206.202 118.144 207.747 116.19 207.747 112.722C207.747 109.269 206.202 107.299 203.491 107.299C200.748 107.299 199.203 109.254 199.203 112.722C199.187 116.253 200.716 118.144 203.459 118.144ZM203.491 116.741C201.741 116.741 200.842 115.433 200.842 112.863V112.58C200.842 110.01 201.725 108.702 203.459 108.702C205.209 108.702 206.092 110.026 206.092 112.58V112.863C206.092 115.433 205.225 116.741 203.491 116.741ZM213.096 118.144C215.838 118.144 217.383 116.19 217.383 112.722C217.383 109.269 215.838 107.299 213.127 107.299C210.384 107.299 208.839 109.254 208.839 112.722C208.824 116.253 210.353 118.144 213.096 118.144ZM213.127 116.741C211.377 116.741 210.479 115.433 210.479 112.863V112.58C210.479 110.01 211.362 108.702 213.096 108.702C214.845 108.702 215.728 110.026 215.728 112.58V112.863C215.728 115.433 214.861 116.741 213.127 116.741ZM222.732 118.144C225.475 118.144 227.02 116.19 227.02 112.722C227.02 109.269 225.475 107.299 222.764 107.299C220.021 107.299 218.476 109.254 218.476 112.722C218.46 116.253 219.989 118.144 222.732 118.144ZM222.764 116.741C221.014 116.741 220.115 115.433 220.115 112.863V112.58C220.115 110.01 220.998 108.702 222.732 108.702C224.482 108.702 225.364 110.026 225.364 112.58V112.863C225.364 115.433 224.497 116.741 222.764 116.741Z" fill="#1F325D"/>
<path d="M184.719 165.144C187.21 165.144 188.644 163.978 188.644 161.992C188.644 160.683 187.95 159.769 186.674 159.406C187.872 159.06 188.423 158.287 188.423 157.247C188.423 155.371 187.131 154.299 184.719 154.299C182.496 154.299 181.094 155.481 180.904 157.641H182.465C182.607 156.427 183.19 155.686 184.703 155.686C186.059 155.686 186.816 156.285 186.816 157.294V157.326C186.816 158.319 186.153 158.855 184.829 158.855H183.931V160.258H184.845C186.406 160.258 187.02 160.778 187.02 161.944V161.992C187.02 163.126 186.232 163.757 184.735 163.757C183.143 163.757 182.449 163.095 182.339 161.865H180.747C180.889 164.214 182.418 165.144 184.719 165.144ZM193.9 165.144C196.642 165.144 198.187 163.19 198.187 159.722C198.187 156.269 196.642 154.299 193.931 154.299C191.188 154.299 189.644 156.254 189.644 159.722C189.628 163.253 191.157 165.144 193.9 165.144ZM193.931 163.741C192.181 163.741 191.283 162.433 191.283 159.863V159.58C191.283 157.01 192.166 155.702 193.9 155.702C195.649 155.702 196.532 157.026 196.532 159.58V159.863C196.532 162.433 195.665 163.741 193.931 163.741ZM205.528 165.113C206.568 165.113 207.419 164.655 207.939 163.867V164.955H209.453V154.331H207.939V158.634C207.403 157.846 206.568 157.357 205.543 157.357C203.604 157.357 202.186 158.902 202.186 161.266C202.186 163.678 203.62 165.113 205.528 165.113ZM205.922 163.789C204.645 163.789 203.809 162.922 203.809 161.329V161.219C203.809 159.611 204.661 158.681 205.922 158.681C207.23 158.681 208.018 159.674 208.018 161.14V161.266C208.018 162.748 207.198 163.789 205.922 163.789ZM213.238 165.144C214.31 165.144 215.24 164.719 215.744 163.836V164.955H217.242L217.226 163.804V160.131C217.226 158.24 216.091 157.389 214.184 157.389C212.213 157.389 210.889 158.398 210.842 160.068H212.402V159.974C212.465 159.138 213.064 158.634 214.168 158.634C215.303 158.634 215.76 159.107 215.76 159.722V159.832C215.602 160.242 214.83 160.321 213.569 160.589C211.914 160.951 210.668 161.329 210.668 163C210.668 164.277 211.646 165.144 213.238 165.144ZM213.522 163.962C212.702 163.962 212.245 163.552 212.245 162.937C212.245 162.149 212.938 161.881 213.789 161.66C214.515 161.487 215.303 161.361 215.76 161.046V161.96C215.634 163.41 214.609 163.962 213.522 163.962ZM217.995 166.547V167.95H218.783C220.564 167.95 221.21 167.256 221.888 165.491L224.741 157.515H223.102L221.289 163.063L219.303 157.515H217.679L220.548 164.813C219.965 166.326 219.729 166.547 218.704 166.547H217.995ZM228.215 165.16C229.902 165.16 231.116 164.151 231.116 162.78C231.116 161.314 229.713 160.825 228.357 160.557C227.001 160.289 226.497 160.179 226.497 159.564C226.497 158.997 227.017 158.618 227.821 158.618C228.594 158.618 229.271 158.965 229.697 159.611L231.037 158.949C230.312 157.988 229.224 157.357 227.821 157.357C226.245 157.357 225.015 158.35 225.015 159.659C225.015 161.093 226.229 161.566 227.585 161.85C228.751 162.102 229.618 162.244 229.618 162.89C229.618 163.505 229.114 163.883 228.278 163.883C227.49 163.883 226.718 163.552 226.261 162.89L224.921 163.599C225.599 164.545 226.781 165.16 228.215 165.16Z" fill="#1F325D"/>
<path d="M180.416 211.955H182.039L183.174 208.913H187.273L188.36 211.955H190.031L186.201 201.488H184.356L180.416 211.955ZM183.647 207.526L185.239 203.206L186.784 207.526H183.647ZM193.597 212.113C194.638 212.113 195.489 211.655 196.009 210.867V211.955H197.522V201.331H196.009V205.634C195.473 204.846 194.638 204.357 193.613 204.357C191.674 204.357 190.256 205.902 190.256 208.266C190.256 210.678 191.69 212.113 193.597 212.113ZM193.991 210.789C192.715 210.789 191.879 209.922 191.879 208.329V208.219C191.879 206.611 192.73 205.681 193.991 205.681C195.3 205.681 196.088 206.674 196.088 208.14V208.266C196.088 209.748 195.268 210.789 193.991 210.789ZM201.231 211.971H202.665L205.439 204.515H203.816L201.94 210.111L199.97 204.515H198.362L201.231 211.971ZM208.05 212.144C209.122 212.144 210.052 211.719 210.556 210.836V211.955H212.054L212.038 210.804V207.131C212.038 205.24 210.903 204.389 208.996 204.389C207.026 204.389 205.701 205.398 205.654 207.068H207.215V206.974C207.278 206.138 207.877 205.634 208.98 205.634C210.115 205.634 210.572 206.107 210.572 206.722V206.832C210.415 207.242 209.642 207.321 208.381 207.589C206.726 207.951 205.481 208.329 205.481 210C205.481 211.277 206.458 212.144 208.05 212.144ZM208.334 210.962C207.514 210.962 207.057 210.552 207.057 209.937C207.057 209.149 207.751 208.881 208.602 208.66C209.327 208.487 210.115 208.361 210.572 208.046V208.96C210.446 210.41 209.422 210.962 208.334 210.962ZM213.587 211.955H215.132V208.393C215.132 206.69 215.794 205.729 216.945 205.729C217.953 205.729 218.442 206.343 218.442 207.51V211.955H220.003V207.431C220.003 205.445 219.025 204.357 217.417 204.357C216.283 204.357 215.526 204.925 215.132 205.918V204.515H213.587V211.955ZM224.73 212.081C226.543 212.081 227.662 211.12 228.151 209.606L226.669 209.149C226.417 210.158 225.897 210.773 224.699 210.773C223.406 210.773 222.65 209.732 222.65 208.266V208.203C222.65 206.722 223.454 205.697 224.746 205.697C225.818 205.697 226.354 206.296 226.606 207.242L228.088 206.785C227.631 205.334 226.527 204.389 224.778 204.389C222.602 204.389 221.089 205.997 221.089 208.219C221.089 210.489 222.508 212.081 224.73 212.081ZM232.475 212.081C234.382 212.081 235.438 211.167 235.943 210.016L234.571 209.48C234.288 210.205 233.736 210.82 232.475 210.82C231.214 210.82 230.41 210.048 230.315 208.771H235.911V208.203C235.911 205.855 234.603 204.389 232.412 204.389C230.3 204.389 228.771 205.981 228.771 208.282C228.771 210.568 230.189 212.081 232.475 212.081ZM230.284 207.604C230.442 206.391 231.261 205.65 232.38 205.65C233.547 205.65 234.256 206.328 234.319 207.604H230.284ZM240.218 214.887H241.747V210.883C242.267 211.64 243.103 212.113 244.127 212.113C246.051 212.113 247.485 210.599 247.485 208.203V208.188C247.485 205.807 246.051 204.357 244.143 204.357C243.103 204.357 242.252 204.83 241.731 205.618V204.515H240.218V214.887ZM243.749 210.789C242.441 210.789 241.653 209.795 241.653 208.329V208.203C241.653 206.722 242.457 205.681 243.749 205.681C245.026 205.681 245.861 206.548 245.861 208.14V208.251C245.861 209.858 245.01 210.789 243.749 210.789ZM250.798 212.144C251.87 212.144 252.8 211.719 253.305 210.836V211.955H254.802L254.787 210.804V207.131C254.787 205.24 253.652 204.389 251.744 204.389C249.774 204.389 248.45 205.398 248.402 207.068H249.963V206.974C250.026 206.138 250.625 205.634 251.728 205.634C252.863 205.634 253.321 206.107 253.321 206.722V206.832C253.163 207.242 252.391 207.321 251.129 207.589C249.474 207.951 248.229 208.329 248.229 210C248.229 211.277 249.206 212.144 250.798 212.144ZM251.082 210.962C250.262 210.962 249.805 210.552 249.805 209.937C249.805 209.149 250.499 208.881 251.35 208.66C252.075 208.487 252.863 208.361 253.321 208.046V208.96C253.194 210.41 252.17 210.962 251.082 210.962ZM256.288 203.317H257.959V201.677H256.288V203.317ZM256.335 211.955H257.896V204.515H256.335V211.955ZM262.469 212.113C263.509 212.113 264.36 211.655 264.881 210.867V211.955H266.394V201.331H264.881V205.634C264.345 204.846 263.509 204.357 262.485 204.357C260.546 204.357 259.127 205.902 259.127 208.266C259.127 210.678 260.561 212.113 262.469 212.113ZM262.863 210.789C261.586 210.789 260.751 209.922 260.751 208.329V208.219C260.751 206.611 261.602 205.681 262.863 205.681C264.171 205.681 264.959 206.674 264.959 208.14V208.266C264.959 209.748 264.14 210.789 262.863 210.789ZM274.361 212.081C276.552 212.081 278.113 210.489 278.113 208.251C278.113 205.981 276.584 204.389 274.393 204.389C272.202 204.389 270.657 205.981 270.657 208.251C270.657 210.521 272.17 212.081 274.361 212.081ZM274.361 210.773C273.037 210.773 272.217 209.827 272.217 208.298V208.235C272.217 206.674 273.069 205.697 274.393 205.697C275.717 205.697 276.552 206.674 276.552 208.235V208.298C276.552 209.811 275.701 210.773 274.361 210.773ZM279.642 211.955H281.171V205.839H282.684V204.515H281.171V203.868C281.171 202.812 281.297 202.734 282.29 202.734H282.858V201.315H281.66C280.131 201.409 279.642 202.04 279.642 203.758V204.515H278.397V205.839H279.642V211.955ZM289.5 212.869H290.398V211.561C292.29 211.451 293.787 210.426 293.787 208.692C293.787 206.722 291.785 206.296 290.256 205.949C288.601 205.602 287.592 205.303 287.592 204.373C287.592 203.537 288.444 203.065 289.721 203.065C290.855 203.065 291.722 203.522 292.668 204.373L293.646 203.348C292.7 202.403 291.581 201.898 290.43 201.772V200.479H289.531V201.74C287.656 201.819 286.142 202.938 286.142 204.531C286.142 206.406 288.05 206.895 289.579 207.258C291.202 207.652 292.227 207.809 292.227 208.834C292.227 209.701 291.391 210.19 290.162 210.205C288.885 210.237 287.813 209.717 286.804 208.755L285.843 209.795C286.789 210.773 287.987 211.419 289.5 211.545V212.869ZM299.782 211.955H301.296V209.512H302.982V208.172H301.296V205.114L299.782 206.075V208.172H295.905L301.248 201.488H299.325L294.549 207.92V209.512H299.782V211.955ZM308.038 212.144C310.639 212.144 312.168 210.978 312.168 208.96C312.168 207.794 311.458 206.911 310.26 206.454C311.253 206.044 311.789 205.287 311.789 204.247C311.789 202.434 310.339 201.299 308.038 201.299C305.736 201.299 304.286 202.434 304.286 204.247C304.286 205.287 304.806 206.044 305.799 206.469C304.617 206.927 303.908 207.809 303.908 208.96C303.908 210.978 305.437 212.144 308.038 212.144ZM308.038 205.886C306.635 205.886 305.91 205.35 305.91 204.278C305.91 203.269 306.698 202.686 308.038 202.686C309.393 202.686 310.181 203.269 310.181 204.278C310.181 205.35 309.441 205.886 308.038 205.886ZM308.038 210.757C306.524 210.757 305.547 210.063 305.547 208.976C305.547 207.794 306.43 207.131 308.038 207.131C309.63 207.131 310.528 207.794 310.528 208.976C310.528 210.079 309.551 210.757 308.038 210.757ZM316.962 212.16C319.39 212.16 320.935 210.741 320.935 208.408C320.935 206.186 319.406 204.799 317.136 204.799C316.158 204.799 315.339 205.13 314.771 205.729L315.197 202.891H320.336V201.488H314.078L313.274 206.706L314.629 207.526C315.071 206.785 315.749 206.154 317.025 206.154C318.428 206.154 319.311 206.974 319.311 208.393V208.424C319.311 209.937 318.444 210.757 316.947 210.757C315.496 210.757 314.771 210.095 314.677 208.944H313.116C313.116 210.852 314.692 212.16 316.962 212.16ZM322.157 211.955H324.064V209.985H322.157V211.955ZM329.17 212.16C331.597 212.16 333.142 210.741 333.142 208.408C333.142 206.186 331.613 204.799 329.343 204.799C328.366 204.799 327.546 205.13 326.978 205.729L327.404 202.891H332.543V201.488H326.285L325.481 206.706L326.837 207.526C327.278 206.785 327.956 206.154 329.233 206.154C330.636 206.154 331.518 206.974 331.518 208.393V208.424C331.518 209.937 330.651 210.757 329.154 210.757C327.704 210.757 326.978 210.095 326.884 208.944H325.323C325.323 210.852 326.9 212.16 329.17 212.16ZM338.354 212.144C341.097 212.144 342.642 210.19 342.642 206.722C342.642 203.269 341.097 201.299 338.386 201.299C335.643 201.299 334.098 203.254 334.098 206.722C334.082 210.253 335.611 212.144 338.354 212.144ZM338.386 210.741C336.636 210.741 335.737 209.433 335.737 206.863V206.58C335.737 204.01 336.62 202.702 338.354 202.702C340.104 202.702 340.987 204.026 340.987 206.58V206.863C340.987 209.433 340.12 210.741 338.386 210.741Z" fill="#1F325D"/>
<path d="M181.03 258.955H182.591V254.92H183.994C186.248 254.92 187.084 256.37 187.367 258.624L187.383 258.955H189.054L189.007 258.561C188.707 256.086 187.95 254.73 186.264 254.242C187.95 253.958 188.817 252.807 188.817 251.341C188.817 249.592 187.588 248.488 184.814 248.488H181.03V258.955ZM182.591 253.611V249.828H184.782C186.5 249.828 187.225 250.364 187.225 251.499C187.225 252.524 186.532 253.611 184.577 253.611H182.591ZM193.283 259.081C195.19 259.081 196.246 258.167 196.751 257.016L195.379 256.48C195.095 257.205 194.544 257.82 193.283 257.82C192.022 257.82 191.218 257.048 191.123 255.771H196.719V255.203C196.719 252.855 195.411 251.389 193.22 251.389C191.107 251.389 189.578 252.981 189.578 255.282C189.578 257.568 190.997 259.081 193.283 259.081ZM191.092 254.604C191.249 253.391 192.069 252.65 193.188 252.65C194.355 252.65 195.064 253.328 195.127 254.604H191.092ZM197.962 258.955H199.507V254.794C199.507 253.454 200.169 252.729 201.068 252.729C201.951 252.729 202.423 253.264 202.423 254.368V258.955H203.984V254.794C203.984 253.501 204.551 252.729 205.545 252.729C206.427 252.729 206.9 253.264 206.9 254.368V258.955H208.461V254.289C208.461 252.445 207.562 251.357 206.144 251.357C204.882 251.357 204.094 252.003 203.732 252.981C203.385 251.799 202.55 251.357 201.683 251.357C200.611 251.357 199.886 251.893 199.507 252.823V251.515H197.962V258.955ZM212.145 259.144C213.217 259.144 214.147 258.719 214.651 257.836V258.955H216.149L216.133 257.804V254.131C216.133 252.24 214.998 251.389 213.091 251.389C211.12 251.389 209.796 252.398 209.749 254.068H211.309V253.974C211.372 253.138 211.971 252.634 213.075 252.634C214.21 252.634 214.667 253.107 214.667 253.722V253.832C214.509 254.242 213.737 254.321 212.476 254.589C210.821 254.951 209.575 255.329 209.575 257C209.575 258.277 210.553 259.144 212.145 259.144ZM212.429 257.962C211.609 257.962 211.152 257.552 211.152 256.937C211.152 256.149 211.845 255.881 212.697 255.66C213.422 255.487 214.21 255.361 214.667 255.046V255.96C214.541 257.41 213.516 257.962 212.429 257.962ZM217.634 250.317H219.305V248.677H217.634V250.317ZM217.682 258.955H219.242V251.515H217.682V258.955ZM220.899 258.955H222.444V255.393C222.444 253.69 223.106 252.729 224.257 252.729C225.265 252.729 225.754 253.343 225.754 254.51V258.955H227.315V254.431C227.315 252.445 226.337 251.357 224.73 251.357C223.595 251.357 222.838 251.925 222.444 252.918V251.515H220.899V258.955ZM231.743 259.113C232.783 259.113 233.635 258.655 234.155 257.867V258.955H235.668V248.331H234.155V252.634C233.619 251.846 232.783 251.357 231.759 251.357C229.82 251.357 228.401 252.902 228.401 255.266C228.401 257.678 229.836 259.113 231.743 259.113ZM232.137 257.789C230.86 257.789 230.025 256.922 230.025 255.329V255.219C230.025 253.611 230.876 252.681 232.137 252.681C233.445 252.681 234.234 253.674 234.234 255.14V255.266C234.234 256.748 233.414 257.789 232.137 257.789ZM240.572 259.081C242.479 259.081 243.536 258.167 244.04 257.016L242.669 256.48C242.385 257.205 241.833 257.82 240.572 257.82C239.311 257.82 238.507 257.048 238.413 255.771H244.008V255.203C244.008 252.855 242.7 251.389 240.509 251.389C238.397 251.389 236.868 252.981 236.868 255.282C236.868 257.568 238.286 259.081 240.572 259.081ZM238.381 254.604C238.539 253.391 239.358 252.65 240.478 252.65C241.644 252.65 242.353 253.328 242.416 254.604H238.381ZM245.252 258.955H246.797V255.14C246.797 253.627 247.159 252.965 248.483 252.965H249.193V251.452H248.956C247.601 251.452 247.017 252.019 246.797 252.886V251.515H245.252V258.955ZM253.21 261.887H254.739V257.883C255.26 258.64 256.095 259.113 257.12 259.113C259.043 259.113 260.477 257.599 260.477 255.203V255.188C260.477 252.807 259.043 251.357 257.135 251.357C256.095 251.357 255.244 251.83 254.724 252.618V251.515H253.21V261.887ZM256.741 257.789C255.433 257.789 254.645 256.795 254.645 255.329V255.203C254.645 253.722 255.449 252.681 256.741 252.681C258.018 252.681 258.854 253.548 258.854 255.14V255.251C258.854 256.858 258.002 257.789 256.741 257.789ZM263.791 259.144C264.863 259.144 265.793 258.719 266.297 257.836V258.955H267.795L267.779 257.804V254.131C267.779 252.24 266.644 251.389 264.737 251.389C262.766 251.389 261.442 252.398 261.395 254.068H262.955V253.974C263.018 253.138 263.617 252.634 264.721 252.634C265.856 252.634 266.313 253.107 266.313 253.722V253.832C266.155 254.242 265.383 254.321 264.122 254.589C262.467 254.951 261.221 255.329 261.221 257C261.221 258.277 262.199 259.144 263.791 259.144ZM264.074 257.962C263.255 257.962 262.798 257.552 262.798 256.937C262.798 256.149 263.491 255.881 264.342 255.66C265.068 255.487 265.856 255.361 266.313 255.046V255.96C266.187 257.41 265.162 257.962 264.074 257.962ZM269.28 250.317H270.951V248.677H269.28V250.317ZM269.328 258.955H270.888V251.515H269.328V258.955ZM275.461 259.113C276.501 259.113 277.353 258.655 277.873 257.867V258.955H279.386V248.331H277.873V252.634C277.337 251.846 276.501 251.357 275.477 251.357C273.538 251.357 272.119 252.902 272.119 255.266C272.119 257.678 273.554 259.113 275.461 259.113ZM275.855 257.789C274.578 257.789 273.743 256.922 273.743 255.329V255.219C273.743 253.611 274.594 252.681 275.855 252.681C277.164 252.681 277.952 253.674 277.952 255.14V255.266C277.952 256.748 277.132 257.789 275.855 257.789ZM287.354 259.081C289.545 259.081 291.105 257.489 291.105 255.251C291.105 252.981 289.576 251.389 287.385 251.389C285.194 251.389 283.649 252.981 283.649 255.251C283.649 257.521 285.162 259.081 287.354 259.081ZM287.354 257.773C286.029 257.773 285.21 256.827 285.21 255.298V255.235C285.21 253.674 286.061 252.697 287.385 252.697C288.709 252.697 289.545 253.674 289.545 255.235V255.298C289.545 256.811 288.693 257.773 287.354 257.773ZM292.634 258.955H294.163V252.839H295.677V251.515H294.163V250.868C294.163 249.812 294.289 249.734 295.282 249.734H295.85V248.315H294.652C293.123 248.409 292.634 249.04 292.634 250.758V251.515H291.389V252.839H292.634V258.955ZM302.492 259.869H303.391V258.561C305.282 258.451 306.78 257.426 306.78 255.692C306.78 253.722 304.778 253.296 303.249 252.949C301.594 252.602 300.585 252.303 300.585 251.373C300.585 250.537 301.436 250.065 302.713 250.065C303.848 250.065 304.715 250.522 305.661 251.373L306.638 250.348C305.692 249.403 304.573 248.898 303.422 248.772V247.479H302.524V248.74C300.648 248.819 299.135 249.938 299.135 251.531C299.135 253.406 301.042 253.895 302.571 254.258C304.195 254.652 305.219 254.809 305.219 255.834C305.219 256.701 304.384 257.19 303.154 257.205C301.877 257.237 300.805 256.717 299.797 255.755L298.835 256.795C299.781 257.773 300.979 258.419 302.492 258.545V259.869ZM311.482 259.16C313.91 259.16 315.454 257.741 315.454 255.408C315.454 253.186 313.925 251.799 311.656 251.799C310.678 251.799 309.859 252.13 309.291 252.729L309.717 249.891H314.855V248.488H308.597L307.794 253.706L309.149 254.526C309.591 253.785 310.268 253.154 311.545 253.154C312.948 253.154 313.831 253.974 313.831 255.393V255.424C313.831 256.937 312.964 257.757 311.466 257.757C310.016 257.757 309.291 257.095 309.196 255.944H307.636C307.636 257.852 309.212 259.16 311.482 259.16ZM320.667 259.144C323.41 259.144 324.954 257.19 324.954 253.722C324.954 250.269 323.41 248.299 320.698 248.299C317.956 248.299 316.411 250.254 316.411 253.722C316.395 257.253 317.924 259.144 320.667 259.144ZM320.698 257.741C318.949 257.741 318.05 256.433 318.05 253.863V253.58C318.05 251.01 318.933 249.702 320.667 249.702C322.416 249.702 323.299 251.026 323.299 253.58V253.863C323.299 256.433 322.432 257.741 320.698 257.741ZM330.303 259.144C333.046 259.144 334.591 257.19 334.591 253.722C334.591 250.269 333.046 248.299 330.335 248.299C327.592 248.299 326.047 250.254 326.047 253.722C326.031 257.253 327.56 259.144 330.303 259.144ZM330.335 257.741C328.585 257.741 327.687 256.433 327.687 253.863V253.58C327.687 251.01 328.569 249.702 330.303 249.702C332.053 249.702 332.936 251.026 332.936 253.58V253.863C332.936 256.433 332.069 257.741 330.335 257.741Z" fill="#1F325D"/>
<path d="M391.055 118.869H391.954V117.561C393.846 117.451 395.343 116.426 395.343 114.692C395.343 112.722 393.341 112.296 391.812 111.949C390.157 111.602 389.148 111.303 389.148 110.373C389.148 109.537 389.999 109.065 391.276 109.065C392.411 109.065 393.278 109.522 394.224 110.373L395.201 109.348C394.255 108.403 393.136 107.898 391.985 107.772V106.479H391.087V107.74C389.211 107.819 387.698 108.938 387.698 110.531C387.698 112.406 389.605 112.895 391.134 113.258C392.758 113.652 393.782 113.809 393.782 114.834C393.782 115.701 392.947 116.19 391.718 116.205C390.441 116.237 389.369 115.717 388.36 114.755L387.398 115.795C388.344 116.773 389.542 117.419 391.055 117.545V118.869ZM399.368 117.955H400.912V107.472H399.399C399.005 109.285 397.776 110.294 396.215 110.877V112.375C397.571 111.965 398.595 111.177 399.368 110.168V117.955ZM403.005 120.43C404.503 120.115 405.102 119.058 405.102 117.687V115.985H403.116V117.829H404.061C404.061 118.885 403.762 119.547 402.784 119.815L403.005 120.43ZM410.631 118.144C413.374 118.144 414.919 116.19 414.919 112.722C414.919 109.269 413.374 107.299 410.662 107.299C407.92 107.299 406.375 109.254 406.375 112.722C406.359 116.253 407.888 118.144 410.631 118.144ZM410.662 116.741C408.913 116.741 408.014 115.433 408.014 112.863V112.58C408.014 110.01 408.897 108.702 410.631 108.702C412.381 108.702 413.263 110.026 413.263 112.58V112.863C413.263 115.433 412.396 116.741 410.662 116.741ZM420.267 118.144C423.01 118.144 424.555 116.19 424.555 112.722C424.555 109.269 423.01 107.299 420.299 107.299C417.556 107.299 416.011 109.254 416.011 112.722C415.996 116.253 417.525 118.144 420.267 118.144ZM420.299 116.741C418.549 116.741 417.651 115.433 417.651 112.863V112.58C417.651 110.01 418.533 108.702 420.267 108.702C422.017 108.702 422.9 110.026 422.9 112.58V112.863C422.9 115.433 422.033 116.741 420.299 116.741ZM429.904 118.144C432.647 118.144 434.191 116.19 434.191 112.722C434.191 109.269 432.647 107.299 429.935 107.299C427.193 107.299 425.648 109.254 425.648 112.722C425.632 116.253 427.161 118.144 429.904 118.144ZM429.935 116.741C428.186 116.741 427.287 115.433 427.287 112.863V112.58C427.287 110.01 428.17 108.702 429.904 108.702C431.654 108.702 432.536 110.026 432.536 112.58V112.863C432.536 115.433 431.669 116.741 429.935 116.741Z" fill="#1F325D"/>
<path d="M391.891 165.144C394.381 165.144 395.816 163.978 395.816 161.992C395.816 160.683 395.122 159.769 393.846 159.406C395.044 159.06 395.595 158.287 395.595 157.247C395.595 155.371 394.303 154.299 391.891 154.299C389.668 154.299 388.265 155.481 388.076 157.641H389.637C389.779 156.427 390.362 155.686 391.875 155.686C393.231 155.686 393.987 156.285 393.987 157.294V157.326C393.987 158.319 393.325 158.855 392.001 158.855H391.103V160.258H392.017C393.578 160.258 394.192 160.778 394.192 161.944V161.992C394.192 163.126 393.404 163.757 391.907 163.757C390.315 163.757 389.621 163.095 389.511 161.865H387.919C388.06 164.214 389.589 165.144 391.891 165.144ZM401.071 165.144C403.814 165.144 405.359 163.19 405.359 159.722C405.359 156.269 403.814 154.299 401.103 154.299C398.36 154.299 396.815 156.254 396.815 159.722C396.8 163.253 398.329 165.144 401.071 165.144ZM401.103 163.741C399.353 163.741 398.455 162.433 398.455 159.863V159.58C398.455 157.01 399.338 155.702 401.071 155.702C402.821 155.702 403.704 157.026 403.704 159.58V159.863C403.704 162.433 402.837 163.741 401.103 163.741ZM412.699 165.113C413.74 165.113 414.591 164.655 415.111 163.867V164.955H416.624V154.331H415.111V158.634C414.575 157.846 413.74 157.357 412.715 157.357C410.776 157.357 409.358 158.902 409.358 161.266C409.358 163.678 410.792 165.113 412.699 165.113ZM413.093 163.789C411.817 163.789 410.981 162.922 410.981 161.329V161.219C410.981 159.611 411.832 158.681 413.093 158.681C414.402 158.681 415.19 159.674 415.19 161.14V161.266C415.19 162.748 414.37 163.789 413.093 163.789ZM420.41 165.144C421.482 165.144 422.412 164.719 422.916 163.836V164.955H424.414L424.398 163.804V160.131C424.398 158.24 423.263 157.389 421.355 157.389C419.385 157.389 418.061 158.398 418.014 160.068H419.574V159.974C419.637 159.138 420.236 158.634 421.34 158.634C422.475 158.634 422.932 159.107 422.932 159.722V159.832C422.774 160.242 422.002 160.321 420.741 160.589C419.086 160.951 417.84 161.329 417.84 163C417.84 164.277 418.818 165.144 420.41 165.144ZM420.693 163.962C419.874 163.962 419.417 163.552 419.417 162.937C419.417 162.149 420.11 161.881 420.961 161.66C421.686 161.487 422.475 161.361 422.932 161.046V161.96C422.806 163.41 421.781 163.962 420.693 163.962ZM425.167 166.547V167.95H425.955C427.736 167.95 428.382 167.256 429.06 165.491L431.913 157.515H430.274L428.461 163.063L426.475 157.515H424.851L427.72 164.813C427.137 166.326 426.901 166.547 425.876 166.547H425.167ZM435.387 165.16C437.074 165.16 438.288 164.151 438.288 162.78C438.288 161.314 436.885 160.825 435.529 160.557C434.173 160.289 433.669 160.179 433.669 159.564C433.669 158.997 434.189 158.618 434.993 158.618C435.765 158.618 436.443 158.965 436.869 159.611L438.209 158.949C437.484 157.988 436.396 157.357 434.993 157.357C433.417 157.357 432.187 158.35 432.187 159.659C432.187 161.093 433.401 161.566 434.757 161.85C435.923 162.102 436.79 162.244 436.79 162.89C436.79 163.505 436.286 163.883 435.45 163.883C434.662 163.883 433.89 163.552 433.432 162.89L432.093 163.599C432.77 164.545 433.953 165.16 435.387 165.16Z" fill="#1F325D"/>
<path d="M387.588 211.955H389.211L390.346 208.913H394.445L395.532 211.955H397.203L393.373 201.488H391.528L387.588 211.955ZM390.819 207.526L392.411 203.206L393.956 207.526H390.819ZM400.769 212.113C401.81 212.113 402.661 211.655 403.181 210.867V211.955H404.694V201.331H403.181V205.634C402.645 204.846 401.81 204.357 400.785 204.357C398.846 204.357 397.427 205.902 397.427 208.266C397.427 210.678 398.862 212.113 400.769 212.113ZM401.163 210.789C399.887 210.789 399.051 209.922 399.051 208.329V208.219C399.051 206.611 399.902 205.681 401.163 205.681C402.472 205.681 403.26 206.674 403.26 208.14V208.266C403.26 209.748 402.44 210.789 401.163 210.789ZM408.403 211.971H409.837L412.611 204.515H410.988L409.112 210.111L407.142 204.515H405.534L408.403 211.971ZM415.222 212.144C416.294 212.144 417.224 211.719 417.728 210.836V211.955H419.226L419.21 210.804V207.131C419.21 205.24 418.075 204.389 416.168 204.389C414.197 204.389 412.873 205.398 412.826 207.068H414.387V206.974C414.45 206.138 415.049 205.634 416.152 205.634C417.287 205.634 417.744 206.107 417.744 206.722V206.832C417.586 207.242 416.814 207.321 415.553 207.589C413.898 207.951 412.653 208.329 412.653 210C412.653 211.277 413.63 212.144 415.222 212.144ZM415.506 210.962C414.686 210.962 414.229 210.552 414.229 209.937C414.229 209.149 414.922 208.881 415.774 208.66C416.499 208.487 417.287 208.361 417.744 208.046V208.96C417.618 210.41 416.593 210.962 415.506 210.962ZM420.759 211.955H422.304V208.393C422.304 206.69 422.966 205.729 424.116 205.729C425.125 205.729 425.614 206.343 425.614 207.51V211.955H427.175V207.431C427.175 205.445 426.197 204.357 424.589 204.357C423.454 204.357 422.698 204.925 422.304 205.918V204.515H420.759V211.955ZM431.902 212.081C433.715 212.081 434.834 211.12 435.323 209.606L433.841 209.149C433.589 210.158 433.069 210.773 431.871 210.773C430.578 210.773 429.822 209.732 429.822 208.266V208.203C429.822 206.722 430.626 205.697 431.918 205.697C432.99 205.697 433.526 206.296 433.778 207.242L435.26 206.785C434.803 205.334 433.699 204.389 431.95 204.389C429.774 204.389 428.261 205.997 428.261 208.219C428.261 210.489 429.68 212.081 431.902 212.081ZM439.647 212.081C441.554 212.081 442.61 211.167 443.115 210.016L441.743 209.48C441.46 210.205 440.908 210.82 439.647 210.82C438.386 210.82 437.582 210.048 437.487 208.771H443.083V208.203C443.083 205.855 441.775 204.389 439.584 204.389C437.472 204.389 435.943 205.981 435.943 208.282C435.943 210.568 437.361 212.081 439.647 212.081ZM437.456 207.604C437.613 206.391 438.433 205.65 439.552 205.65C440.719 205.65 441.428 206.328 441.491 207.604H437.456ZM447.39 214.887H448.919V210.883C449.439 211.64 450.275 212.113 451.299 212.113C453.222 212.113 454.657 210.599 454.657 208.203V208.188C454.657 205.807 453.222 204.357 451.315 204.357C450.275 204.357 449.423 204.83 448.903 205.618V204.515H447.39V214.887ZM450.921 210.789C449.613 210.789 448.824 209.795 448.824 208.329V208.203C448.824 206.722 449.628 205.681 450.921 205.681C452.198 205.681 453.033 206.548 453.033 208.14V208.251C453.033 209.858 452.182 210.789 450.921 210.789ZM457.97 212.144C459.042 212.144 459.972 211.719 460.477 210.836V211.955H461.974L461.958 210.804V207.131C461.958 205.24 460.823 204.389 458.916 204.389C456.946 204.389 455.622 205.398 455.574 207.068H457.135V206.974C457.198 206.138 457.797 205.634 458.9 205.634C460.035 205.634 460.492 206.107 460.492 206.722V206.832C460.335 207.242 459.562 207.321 458.301 207.589C456.646 207.951 455.401 208.329 455.401 210C455.401 211.277 456.378 212.144 457.97 212.144ZM458.254 210.962C457.434 210.962 456.977 210.552 456.977 209.937C456.977 209.149 457.671 208.881 458.522 208.66C459.247 208.487 460.035 208.361 460.492 208.046V208.96C460.366 210.41 459.342 210.962 458.254 210.962ZM463.46 203.317H465.131V201.677H463.46V203.317ZM463.507 211.955H465.068V204.515H463.507V211.955ZM469.641 212.113C470.681 212.113 471.532 211.655 472.052 210.867V211.955H473.566V201.331H472.052V205.634C471.517 204.846 470.681 204.357 469.656 204.357C467.718 204.357 466.299 205.902 466.299 208.266C466.299 210.678 467.733 212.113 469.641 212.113ZM470.035 210.789C468.758 210.789 467.923 209.922 467.923 208.329V208.219C467.923 206.611 468.774 205.681 470.035 205.681C471.343 205.681 472.131 206.674 472.131 208.14V208.266C472.131 209.748 471.312 210.789 470.035 210.789ZM481.533 212.081C483.724 212.081 485.285 210.489 485.285 208.251C485.285 205.981 483.756 204.389 481.565 204.389C479.374 204.389 477.829 205.981 477.829 208.251C477.829 210.521 479.342 212.081 481.533 212.081ZM481.533 210.773C480.209 210.773 479.389 209.827 479.389 208.298V208.235C479.389 206.674 480.241 205.697 481.565 205.697C482.889 205.697 483.724 206.674 483.724 208.235V208.298C483.724 209.811 482.873 210.773 481.533 210.773ZM486.814 211.955H488.343V205.839H489.856V204.515H488.343V203.868C488.343 202.812 488.469 202.734 489.462 202.734H490.029V201.315H488.831C487.302 201.409 486.814 202.04 486.814 203.758V204.515H485.569V205.839H486.814V211.955ZM496.672 212.869H497.57V211.561C499.462 211.451 500.959 210.426 500.959 208.692C500.959 206.722 498.957 206.296 497.428 205.949C495.773 205.602 494.764 205.303 494.764 204.373C494.764 203.537 495.616 203.065 496.892 203.065C498.027 203.065 498.894 203.522 499.84 204.373L500.817 203.348C499.872 202.403 498.752 201.898 497.602 201.772V200.479H496.703V201.74C494.827 201.819 493.314 202.938 493.314 204.531C493.314 206.406 495.221 206.895 496.751 207.258C498.374 207.652 499.399 207.809 499.399 208.834C499.399 209.701 498.563 210.19 497.334 210.205C496.057 210.237 494.985 209.717 493.976 208.755L493.015 209.795C493.96 210.773 495.158 211.419 496.672 211.545V212.869ZM505.819 212.144C508.42 212.144 509.949 210.978 509.949 208.96C509.949 207.794 509.24 206.911 508.042 206.454C509.035 206.044 509.571 205.287 509.571 204.247C509.571 202.434 508.121 201.299 505.819 201.299C503.518 201.299 502.068 202.434 502.068 204.247C502.068 205.287 502.588 206.044 503.581 206.469C502.399 206.927 501.689 207.809 501.689 208.96C501.689 210.978 503.218 212.144 505.819 212.144ZM505.819 205.886C504.416 205.886 503.691 205.35 503.691 204.278C503.691 203.269 504.48 202.686 505.819 202.686C507.175 202.686 507.963 203.269 507.963 204.278C507.963 205.35 507.222 205.886 505.819 205.886ZM505.819 210.757C504.306 210.757 503.329 210.063 503.329 208.976C503.329 207.794 504.212 207.131 505.819 207.131C507.411 207.131 508.31 207.794 508.31 208.976C508.31 210.079 507.333 210.757 505.819 210.757ZM511.623 211.955H513.294L518.165 203.017V201.488H510.866V202.891H516.683L511.623 211.955ZM523.091 212.144C525.582 212.144 527.017 210.978 527.017 208.992C527.017 207.683 526.323 206.769 525.046 206.406C526.244 206.06 526.796 205.287 526.796 204.247C526.796 202.371 525.503 201.299 523.091 201.299C520.869 201.299 519.466 202.481 519.277 204.641H520.837C520.979 203.427 521.562 202.686 523.076 202.686C524.431 202.686 525.188 203.285 525.188 204.294V204.326C525.188 205.319 524.526 205.855 523.202 205.855H522.303V207.258H523.218C524.778 207.258 525.393 207.778 525.393 208.944V208.992C525.393 210.126 524.605 210.757 523.107 210.757C521.515 210.757 520.822 210.095 520.711 208.865H519.119C519.261 211.214 520.79 212.144 523.091 212.144ZM528.359 211.955H530.266V209.985H528.359V211.955ZM535.403 212.113C538.099 212.113 539.675 210.237 539.675 206.674C539.675 203.254 538.146 201.283 535.45 201.283C533.244 201.283 531.667 202.891 531.667 204.956C531.667 206.974 533.165 208.345 535.372 208.345C536.664 208.345 537.626 207.73 538.114 206.659V207.258C538.099 209.559 537.184 210.741 535.482 210.741C534.142 210.741 533.48 210.284 533.37 209.259H531.793C531.904 210.773 533.023 212.113 535.403 212.113ZM535.529 207.053C534.142 207.053 533.244 206.17 533.244 204.925V204.877C533.244 203.648 534.126 202.655 535.498 202.655C536.869 202.655 537.862 203.585 537.862 204.799V204.846C537.862 206.012 536.885 207.053 535.529 207.053ZM545.141 212.144C547.884 212.144 549.429 210.19 549.429 206.722C549.429 203.269 547.884 201.299 545.173 201.299C542.43 201.299 540.885 203.254 540.885 206.722C540.869 210.253 542.398 212.144 545.141 212.144ZM545.173 210.741C543.423 210.741 542.524 209.433 542.524 206.863V206.58C542.524 204.01 543.407 202.702 545.141 202.702C546.891 202.702 547.774 204.026 547.774 206.58V206.863C547.774 209.433 546.907 210.741 545.173 210.741Z" fill="#1F325D"/>
<path d="M388.202 258.955H389.763V254.92H391.166C393.42 254.92 394.255 256.37 394.539 258.624L394.555 258.955H396.226L396.178 258.561C395.879 256.086 395.122 254.73 393.436 254.242C395.122 253.958 395.989 252.807 395.989 251.341C395.989 249.592 394.76 248.488 391.985 248.488H388.202V258.955ZM389.763 253.611V249.828H391.954C393.672 249.828 394.397 250.364 394.397 251.499C394.397 252.524 393.704 253.611 391.749 253.611H389.763ZM400.454 259.081C402.362 259.081 403.418 258.167 403.922 257.016L402.551 256.48C402.267 257.205 401.716 257.82 400.454 257.82C399.193 257.82 398.39 257.048 398.295 255.771H403.891V255.203C403.891 252.855 402.583 251.389 400.391 251.389C398.279 251.389 396.75 252.981 396.75 255.282C396.75 257.568 398.169 259.081 400.454 259.081ZM398.263 254.604C398.421 253.391 399.241 252.65 400.36 252.65C401.526 252.65 402.236 253.328 402.299 254.604H398.263ZM405.134 258.955H406.679V254.794C406.679 253.454 407.341 252.729 408.24 252.729C409.122 252.729 409.595 253.264 409.595 254.368V258.955H411.156V254.794C411.156 253.501 411.723 252.729 412.716 252.729C413.599 252.729 414.072 253.264 414.072 254.368V258.955H415.633V254.289C415.633 252.445 414.734 251.357 413.315 251.357C412.054 251.357 411.266 252.003 410.904 252.981C410.557 251.799 409.721 251.357 408.854 251.357C407.783 251.357 407.057 251.893 406.679 252.823V251.515H405.134V258.955ZM419.317 259.144C420.389 259.144 421.319 258.719 421.823 257.836V258.955H423.321L423.305 257.804V254.131C423.305 252.24 422.17 251.389 420.262 251.389C418.292 251.389 416.968 252.398 416.921 254.068H418.481V253.974C418.544 253.138 419.143 252.634 420.247 252.634C421.382 252.634 421.839 253.107 421.839 253.722V253.832C421.681 254.242 420.909 254.321 419.648 254.589C417.993 254.951 416.747 255.329 416.747 257C416.747 258.277 417.725 259.144 419.317 259.144ZM419.6 257.962C418.781 257.962 418.324 257.552 418.324 256.937C418.324 256.149 419.017 255.881 419.868 255.66C420.594 255.487 421.382 255.361 421.839 255.046V255.96C421.713 257.41 420.688 257.962 419.6 257.962ZM424.806 250.317H426.477V248.677H424.806V250.317ZM424.854 258.955H426.414V251.515H424.854V258.955ZM428.071 258.955H429.616V255.393C429.616 253.69 430.278 252.729 431.428 252.729C432.437 252.729 432.926 253.343 432.926 254.51V258.955H434.487V254.431C434.487 252.445 433.509 251.357 431.901 251.357C430.766 251.357 430.01 251.925 429.616 252.918V251.515H428.071V258.955ZM438.915 259.113C439.955 259.113 440.806 258.655 441.327 257.867V258.955H442.84V248.331H441.327V252.634C440.791 251.846 439.955 251.357 438.931 251.357C436.992 251.357 435.573 252.902 435.573 255.266C435.573 257.678 437.008 259.113 438.915 259.113ZM439.309 257.789C438.032 257.789 437.197 256.922 437.197 255.329V255.219C437.197 253.611 438.048 252.681 439.309 252.681C440.617 252.681 441.405 253.674 441.405 255.14V255.266C441.405 256.748 440.586 257.789 439.309 257.789ZM447.744 259.081C449.651 259.081 450.707 258.167 451.212 257.016L449.84 256.48C449.557 257.205 449.005 257.82 447.744 257.82C446.483 257.82 445.679 257.048 445.584 255.771H451.18V255.203C451.18 252.855 449.872 251.389 447.681 251.389C445.569 251.389 444.04 252.981 444.04 255.282C444.04 257.568 445.458 259.081 447.744 259.081ZM445.553 254.604C445.711 253.391 446.53 252.65 447.649 252.65C448.816 252.65 449.525 253.328 449.588 254.604H445.553ZM452.424 258.955H453.969V255.14C453.969 253.627 454.331 252.965 455.655 252.965H456.365V251.452H456.128C454.772 251.452 454.189 252.019 453.969 252.886V251.515H452.424V258.955ZM460.382 261.887H461.911V257.883C462.432 258.64 463.267 259.113 464.292 259.113C466.215 259.113 467.649 257.599 467.649 255.203V255.188C467.649 252.807 466.215 251.357 464.307 251.357C463.267 251.357 462.416 251.83 461.896 252.618V251.515H460.382V261.887ZM463.913 257.789C462.605 257.789 461.817 256.795 461.817 255.329V255.203C461.817 253.722 462.621 252.681 463.913 252.681C465.19 252.681 466.026 253.548 466.026 255.14V255.251C466.026 256.858 465.174 257.789 463.913 257.789ZM470.963 259.144C472.034 259.144 472.965 258.719 473.469 257.836V258.955H474.966L474.951 257.804V254.131C474.951 252.24 473.816 251.389 471.908 251.389C469.938 251.389 468.614 252.398 468.567 254.068H470.127V253.974C470.19 253.138 470.789 252.634 471.893 252.634C473.028 252.634 473.485 253.107 473.485 253.722V253.832C473.327 254.242 472.555 254.321 471.294 254.589C469.638 254.951 468.393 255.329 468.393 257C468.393 258.277 469.371 259.144 470.963 259.144ZM471.246 257.962C470.427 257.962 469.97 257.552 469.97 256.937C469.97 256.149 470.663 255.881 471.514 255.66C472.239 255.487 473.028 255.361 473.485 255.046V255.96C473.359 257.41 472.334 257.962 471.246 257.962ZM476.452 250.317H478.123V248.677H476.452V250.317ZM476.5 258.955H478.06V251.515H476.5V258.955ZM482.633 259.113C483.673 259.113 484.525 258.655 485.045 257.867V258.955H486.558V248.331H485.045V252.634C484.509 251.846 483.673 251.357 482.649 251.357C480.71 251.357 479.291 252.902 479.291 255.266C479.291 257.678 480.726 259.113 482.633 259.113ZM483.027 257.789C481.75 257.789 480.915 256.922 480.915 255.329V255.219C480.915 253.611 481.766 252.681 483.027 252.681C484.335 252.681 485.124 253.674 485.124 255.14V255.266C485.124 256.748 484.304 257.789 483.027 257.789ZM494.525 259.081C496.717 259.081 498.277 257.489 498.277 255.251C498.277 252.981 496.748 251.389 494.557 251.389C492.366 251.389 490.821 252.981 490.821 255.251C490.821 257.521 492.334 259.081 494.525 259.081ZM494.525 257.773C493.201 257.773 492.382 256.827 492.382 255.298V255.235C492.382 253.674 493.233 252.697 494.557 252.697C495.881 252.697 496.717 253.674 496.717 255.235V255.298C496.717 256.811 495.865 257.773 494.525 257.773ZM499.806 258.955H501.335V252.839H502.848V251.515H501.335V250.868C501.335 249.812 501.461 249.734 502.454 249.734H503.022V248.315H501.824C500.295 248.409 499.806 249.04 499.806 250.758V251.515H498.561V252.839H499.806V258.955ZM509.664 259.869H510.562V258.561C512.454 258.451 513.952 257.426 513.952 255.692C513.952 253.722 511.95 253.296 510.421 252.949C508.765 252.602 507.757 252.303 507.757 251.373C507.757 250.537 508.608 250.065 509.885 250.065C511.02 250.065 511.887 250.522 512.832 251.373L513.81 250.348C512.864 249.403 511.745 248.898 510.594 248.772V247.479H509.696V248.74C507.82 248.819 506.306 249.938 506.306 251.531C506.306 253.406 508.214 253.895 509.743 254.258C511.366 254.652 512.391 254.809 512.391 255.834C512.391 256.701 511.556 257.19 510.326 257.205C509.049 257.237 507.977 256.717 506.968 255.755L506.007 256.795C506.953 257.773 508.151 258.419 509.664 258.545V259.869ZM517.976 258.955H519.521V248.472H518.008C517.614 250.285 516.384 251.294 514.824 251.877V253.375C516.179 252.965 517.204 252.177 517.976 251.168V258.955ZM525.807 259.144C528.549 259.144 530.094 257.19 530.094 253.722C530.094 250.269 528.549 248.299 525.838 248.299C523.095 248.299 521.551 250.254 521.551 253.722C521.535 257.253 523.064 259.144 525.807 259.144ZM525.838 257.741C524.089 257.741 523.19 256.433 523.19 253.863V253.58C523.19 251.01 524.073 249.702 525.807 249.702C527.556 249.702 528.439 251.026 528.439 253.58V253.863C528.439 256.433 527.572 257.741 525.838 257.741ZM535.443 259.144C538.186 259.144 539.731 257.19 539.731 253.722C539.731 250.269 538.186 248.299 535.475 248.299C532.732 248.299 531.187 250.254 531.187 253.722C531.171 257.253 532.7 259.144 535.443 259.144ZM535.475 257.741C533.725 257.741 532.826 256.433 532.826 253.863V253.58C532.826 251.01 533.709 249.702 535.443 249.702C537.193 249.702 538.076 251.026 538.076 253.58V253.863C538.076 256.433 537.209 257.741 535.475 257.741Z" fill="#1F325D"/>
<rect x="18.0307" y="284.015" width="562.97" height="1.12594" fill="#9FA3AD"/>
<rect x="18.0307" y="81.8141" width="562.97" height="1.12594" fill="#9FA3AD"/>
<path d="M26.6058 308.55H18.3617V309.953H21.6877V319.017H23.264V309.953H26.6058V308.55ZM29.2872 317.835C27.9631 317.835 27.1434 316.889 27.1434 315.36V315.297C27.1434 313.736 27.9946 312.759 29.3187 312.759C30.6428 312.759 31.4782 313.736 31.4782 315.297V315.36C31.4782 316.873 30.627 317.835 29.2872 317.835ZM29.2872 319.143C31.4782 319.143 33.0388 317.551 33.0388 315.312C33.0388 313.043 31.5098 311.45 29.3187 311.45C27.1276 311.45 25.5828 313.043 25.5828 315.312C25.5828 317.582 27.0961 319.143 29.2872 319.143ZM37.5155 319.017V317.661H36.6328C36.1599 317.661 35.9707 317.44 35.9707 316.968V312.901H37.5786V311.577H35.9707V309.196L34.4732 310.126V311.577H33.291V312.901H34.4732V317.157C34.489 318.339 34.8358 318.954 36.1914 319.017H37.5155ZM40.8836 319.206C41.9554 319.206 42.8855 318.78 43.3899 317.898V319.017H44.8874L44.8716 317.866V314.193C44.8716 312.302 43.7367 311.45 41.8293 311.45C39.8589 311.45 38.5348 312.459 38.4876 314.13H40.0481V314.036C40.1112 313.2 40.7102 312.696 41.8136 312.696C42.9485 312.696 43.4057 313.169 43.4057 313.783V313.894C43.248 314.304 42.4756 314.382 41.2146 314.65C39.5594 315.013 38.3142 315.391 38.3142 317.062C38.3142 318.339 39.2915 319.206 40.8836 319.206ZM41.1673 318.024C40.3476 318.024 39.8905 317.614 39.8905 316.999C39.8905 316.211 40.5841 315.943 41.4353 315.722C42.1604 315.549 42.9485 315.423 43.4057 315.107V316.022C43.2796 317.472 42.2549 318.024 41.1673 318.024ZM47.981 308.392H46.4205V319.017H47.981V308.392ZM54.861 319.206C55.9329 319.206 56.863 318.78 57.3674 317.898V319.017H58.8649L58.8491 317.866V314.193C58.8491 312.302 57.7142 311.45 55.8068 311.45C53.8364 311.45 52.5123 312.459 52.465 314.13H54.0256V314.036C54.0886 313.2 54.6876 312.696 55.7911 312.696C56.926 312.696 57.3831 313.169 57.3831 313.783V313.894C57.2255 314.304 56.4531 314.382 55.1921 314.65C53.5369 315.013 52.2916 315.391 52.2916 317.062C52.2916 318.339 53.269 319.206 54.861 319.206ZM55.1448 318.024C54.3251 318.024 53.868 317.614 53.868 316.999C53.868 316.211 54.5615 315.943 55.4127 315.722C56.1379 315.549 56.926 315.423 57.3831 315.107V316.022C57.257 317.472 56.2324 318.024 55.1448 318.024ZM63.3142 319.174C64.3545 319.174 65.2057 318.717 65.7259 317.929V319.017H67.2392V308.392H65.7259V312.696C65.19 311.908 64.3545 311.419 63.3299 311.419C61.3911 311.419 59.9724 312.964 59.9724 315.328C59.9724 317.74 61.4068 319.174 63.3142 319.174ZM63.7082 317.85C62.4314 317.85 61.596 316.983 61.596 315.391V315.281C61.596 313.673 62.4472 312.743 63.7082 312.743C65.0166 312.743 65.8047 313.736 65.8047 315.202V315.328C65.8047 316.81 64.9851 317.85 63.7082 317.85ZM69.6864 311.577H68.0786L70.9475 319.033H72.3819L75.1562 311.577H73.5326L71.6568 317.172L69.6864 311.577ZM77.7669 319.206C78.8388 319.206 79.7688 318.78 80.2732 317.898V319.017H81.7707L81.755 317.866V314.193C81.755 312.302 80.62 311.45 78.7127 311.45C76.7423 311.45 75.4182 312.459 75.3709 314.13H76.9314V314.036C76.9945 313.2 77.5935 312.696 78.6969 312.696C79.8319 312.696 80.289 313.169 80.289 313.783V313.894C80.1314 314.304 79.359 314.382 78.0979 314.65C76.4428 315.013 75.1975 315.391 75.1975 317.062C75.1975 318.339 76.1748 319.206 77.7669 319.206ZM78.0506 318.024C77.2309 318.024 76.7738 317.614 76.7738 316.999C76.7738 316.211 77.4674 315.943 78.3186 315.722C79.0437 315.549 79.8319 315.423 80.289 315.107V316.022C80.1629 317.472 79.1383 318.024 78.0506 318.024ZM84.8486 311.577H83.3038V319.017H84.8486V315.454C84.8486 313.752 85.5106 312.79 86.6614 312.79C87.6702 312.79 88.1589 313.405 88.1589 314.572V319.017H89.7194V314.493C89.7194 312.507 88.7421 311.419 87.1343 311.419C85.9993 311.419 85.2427 311.986 84.8486 312.979V311.577ZM94.4473 319.143C96.26 319.143 97.3792 318.181 97.8679 316.668L96.3861 316.211C96.1339 317.22 95.6137 317.835 94.4157 317.835C93.1232 317.835 92.3665 316.794 92.3665 315.328V315.265C92.3665 313.783 93.1704 312.759 94.463 312.759C95.5349 312.759 96.0709 313.358 96.3231 314.304L97.8048 313.846C97.3477 312.396 96.2443 311.45 94.4945 311.45C92.3192 311.45 90.806 313.058 90.806 315.281C90.806 317.551 92.2247 319.143 94.4473 319.143ZM102.192 319.143C104.099 319.143 105.155 318.229 105.66 317.078L104.288 316.542C104.005 317.267 103.453 317.882 102.192 317.882C100.931 317.882 100.127 317.109 100.032 315.833H105.628V315.265C105.628 312.916 104.32 311.45 102.129 311.45C100.016 311.45 98.4874 313.043 98.4874 315.344C98.4874 317.63 99.9061 319.143 102.192 319.143ZM102.097 312.711C103.264 312.711 103.973 313.389 104.036 314.666H100.001C100.158 313.452 100.978 312.711 102.097 312.711ZM110.536 319.017H112.065V312.901H113.578V311.577H112.065V310.93C112.065 309.874 112.191 309.795 113.184 309.795H113.751V308.377H112.553C111.024 308.471 110.536 309.102 110.536 310.82V311.577H109.29V312.901H110.536V319.017ZM117.601 319.143C119.508 319.143 120.564 318.229 121.069 317.078L119.697 316.542C119.414 317.267 118.862 317.882 117.601 317.882C116.34 317.882 115.536 317.109 115.441 315.833H121.037V315.265C121.037 312.916 119.729 311.45 117.538 311.45C115.426 311.45 113.897 313.043 113.897 315.344C113.897 317.63 115.315 319.143 117.601 319.143ZM117.506 312.711C118.673 312.711 119.382 313.389 119.445 314.666H115.41C115.567 313.452 116.387 312.711 117.506 312.711ZM125.59 319.143C127.498 319.143 128.554 318.229 129.058 317.078L127.687 316.542C127.403 317.267 126.851 317.882 125.59 317.882C124.329 317.882 123.525 317.109 123.431 315.833H129.027V315.265C129.027 312.916 127.718 311.45 125.527 311.45C123.415 311.45 121.886 313.043 121.886 315.344C121.886 317.63 123.305 319.143 125.59 319.143ZM125.496 312.711C126.662 312.711 127.371 313.389 127.434 314.666H123.399C123.557 313.452 124.376 312.711 125.496 312.711Z" fill="#ACACAC"/>
<path d="M239.856 323.369H240.883V321.874C243.045 321.748 244.756 320.577 244.756 318.595C244.756 316.343 242.468 315.857 240.721 315.46C238.829 315.064 237.676 314.722 237.676 313.659C237.676 312.704 238.649 312.164 240.108 312.164C241.405 312.164 242.396 312.686 243.477 313.659L244.594 312.488C243.513 311.407 242.234 310.831 240.919 310.686V309.209H239.892V310.65C237.748 310.74 236.019 312.02 236.019 313.839C236.019 315.983 238.199 316.541 239.946 316.956C241.802 317.406 242.973 317.586 242.973 318.757C242.973 319.748 242.018 320.306 240.613 320.324C239.153 320.36 237.928 319.766 236.775 318.667L235.677 319.856C236.757 320.973 238.127 321.712 239.856 321.856V323.369ZM249.356 322.324H251.121V310.344H249.392C248.941 312.416 247.536 313.569 245.753 314.235V315.947C247.302 315.478 248.473 314.578 249.356 313.425V322.324ZM259.12 322.324H260.849V319.532H262.777V318.001H260.849V314.506L259.12 315.605V318.001H254.688L260.795 310.362H258.597L253.139 317.712V319.532H259.12V322.324ZM264.037 322.324H266.217V320.072H264.037V322.324ZM272.051 322.558C274.825 322.558 276.591 320.937 276.591 318.271C276.591 315.731 274.843 314.145 272.249 314.145C271.132 314.145 270.195 314.524 269.547 315.208L270.033 311.965H275.906V310.362H268.754L267.835 316.325L269.385 317.262C269.889 316.415 270.664 315.695 272.123 315.695C273.726 315.695 274.735 316.631 274.735 318.253V318.289C274.735 320.018 273.744 320.955 272.033 320.955C270.376 320.955 269.547 320.198 269.439 318.883H267.655C267.655 321.063 269.457 322.558 272.051 322.558ZM282.548 322.54C285.682 322.54 287.448 320.306 287.448 316.343C287.448 312.398 285.682 310.146 282.584 310.146C279.449 310.146 277.684 312.38 277.684 316.343C277.666 320.379 279.413 322.54 282.548 322.54ZM282.584 320.937C280.584 320.937 279.557 319.442 279.557 316.505V316.181C279.557 313.245 280.566 311.749 282.548 311.749C284.547 311.749 285.556 313.263 285.556 316.181V316.505C285.556 319.442 284.565 320.937 282.584 320.937Z" fill="#31D673"/>
<path d="M447.243 323.369H448.27V321.874C450.432 321.748 452.143 320.577 452.143 318.595C452.143 316.343 449.855 315.857 448.108 315.46C446.216 315.064 445.063 314.722 445.063 313.659C445.063 312.704 446.036 312.164 447.495 312.164C448.792 312.164 449.783 312.686 450.864 313.659L451.981 312.488C450.9 311.407 449.621 310.831 448.306 310.686V309.209H447.279V310.65C445.135 310.74 443.406 312.02 443.406 313.839C443.406 315.983 445.586 316.541 447.333 316.956C449.189 317.406 450.36 317.586 450.36 318.757C450.36 319.748 449.405 320.306 448 320.324C446.54 320.36 445.315 319.766 444.162 318.667L443.063 319.856C444.144 320.973 445.513 321.712 447.243 321.856V323.369ZM453.104 322.324H461.589V320.667H455.103C455.734 317.478 461.625 317.604 461.625 313.749C461.625 311.533 459.985 310.146 457.589 310.146C455.428 310.146 453.968 311.191 453.086 313.335L454.725 314.019C455.355 312.452 456.184 311.821 457.571 311.821C459.049 311.821 459.751 312.632 459.751 313.785C459.751 316.559 453.104 316.343 453.104 321.856V322.324ZM467.507 322.522C470.011 322.522 471.812 320.847 471.812 318.505C471.812 316.199 470.155 314.65 467.615 314.65C466.246 314.65 464.985 315.352 464.39 316.469C464.408 316.199 464.444 315.911 464.444 315.839C464.444 313.209 465.525 311.713 467.471 311.713C468.984 311.713 469.759 312.38 469.867 313.605H471.668C471.542 311.803 470.281 310.146 467.561 310.146C464.48 310.146 462.679 312.344 462.679 316.433C462.679 320.36 464.444 322.522 467.507 322.522ZM467.435 320.955C465.903 320.955 464.75 319.892 464.75 318.523V318.469C464.75 317.136 465.867 316.145 467.399 316.145C468.984 316.145 469.993 317.082 469.993 318.505V318.559C469.993 319.982 469.02 320.955 467.435 320.955ZM473.324 322.324H475.503V320.072H473.324V322.324ZM480.563 322.324H482.329V310.344H480.599C480.149 312.416 478.744 313.569 476.96 314.235V315.947C478.51 315.478 479.681 314.578 480.563 313.425V322.324ZM489.512 322.54C492.647 322.54 494.412 320.306 494.412 316.343C494.412 312.398 492.647 310.146 489.548 310.146C486.414 310.146 484.648 312.38 484.648 316.343C484.63 320.379 486.378 322.54 489.512 322.54ZM489.548 320.937C487.549 320.937 486.522 319.442 486.522 316.505V316.181C486.522 313.245 487.531 311.749 489.512 311.749C491.512 311.749 492.521 313.263 492.521 316.181V316.505C492.521 319.442 491.53 320.937 489.548 320.937Z" fill="#31D673"/>
<rect x="0.56297" y="0.56297" width="597.904" height="366.904" rx="8.44455" stroke="#DEDEDE" stroke-width="1.12594"/>
</svg>
