<svg width="371" height="209" viewBox="0 0 371 209" fill="none" xmlns="http://www.w3.org/2000/svg">
<g clip-path="url(#clip0_980_15722)">
<rect width="371" height="208.82" fill="#D7DAE4"/>
<g clip-path="url(#clip1_980_15722)">
<path d="M45.5654 23.6022C45.5654 19.9338 48.5392 16.96 52.2076 16.96H318.792C322.461 16.96 325.435 19.9338 325.435 23.6022V208.82H45.5654V23.6022Z" fill="white"/>
<ellipse cx="59.6468" cy="31.0414" rx="3.52037" ry="3.52037" fill="#E5E9F5"/>
<ellipse cx="70.2079" cy="31.0414" rx="3.52037" ry="3.52037" fill="#E5E9F5"/>
<ellipse cx="80.7689" cy="31.0414" rx="3.52037" ry="3.52037" fill="#E5E9F5"/>
<rect x="112.452" y="26.6409" width="146.975" height="8.80092" rx="4.40046" fill="#E5E9F5"/>
<path d="M83.5541 66.403C85.8557 66.403 87.6042 65.2373 87.9928 62.592H86.4086C86.1097 64.4003 85.0188 65.0131 83.584 65.0131C81.7757 65.0131 80.5652 63.6382 80.5652 61.3217V61.2021C80.5652 58.9006 81.7906 57.5107 83.6139 57.5107C85.0038 57.5107 86.05 58.0786 86.3787 59.8122H87.9779C87.5444 57.2567 85.8557 56.1208 83.6289 56.1208C80.9238 56.1208 79.0258 58.1534 79.0258 61.2619C79.0258 64.3555 80.9089 66.403 83.5541 66.403ZM89.0743 66.2236H90.509V62.8461C90.509 61.232 91.1218 60.3204 92.2128 60.3204C93.1692 60.3204 93.6325 60.9032 93.6325 62.0092V66.2236H95.1121V61.9344C95.1121 60.0514 94.1855 59.0501 92.6611 59.0501C91.5701 59.0501 90.8677 59.5881 90.509 60.5595V56.1507H89.0743V66.2236ZM99.6553 66.3432C101.464 66.3432 102.465 65.4764 102.943 64.3854L101.643 63.8773C101.374 64.5647 100.851 65.1476 99.6553 65.1476C98.4598 65.1476 97.6976 64.4153 97.6079 63.2048H102.913V62.6667C102.913 60.4399 101.673 59.0501 99.5956 59.0501C97.5929 59.0501 96.1433 60.5595 96.1433 62.7415C96.1433 64.9085 97.4883 66.3432 99.6553 66.3432ZM97.578 62.0988C97.7275 60.9481 98.5046 60.2457 99.5657 60.2457C100.672 60.2457 101.344 60.8883 101.404 62.0988H97.578ZM107.17 66.3432C108.889 66.3432 109.95 65.4316 110.413 63.9968L109.008 63.5634C108.769 64.5199 108.276 65.1028 107.14 65.1028C105.915 65.1028 105.197 64.1164 105.197 62.7265V62.6667C105.197 61.2619 105.96 60.2905 107.185 60.2905C108.201 60.2905 108.71 60.8584 108.949 61.7551L110.353 61.3217C109.92 59.9468 108.874 59.0501 107.215 59.0501C105.153 59.0501 103.718 60.5744 103.718 62.6817C103.718 64.8338 105.063 66.3432 107.17 66.3432ZM111.404 66.2236H112.839V64.0865L113.945 62.8311L115.962 66.2236H117.576L114.916 61.8149L117.412 59.1696H115.708L112.839 62.4575V56.1507H111.404V66.2236ZM121.095 66.3432C123.172 66.3432 124.652 64.8338 124.652 62.7116C124.652 60.5595 123.202 59.0501 121.125 59.0501C119.047 59.0501 117.583 60.5595 117.583 62.7116C117.583 64.8636 119.018 66.3432 121.095 66.3432ZM121.095 65.1028C119.84 65.1028 119.062 64.2061 119.062 62.7564V62.6966C119.062 61.2171 119.869 60.2905 121.125 60.2905C122.38 60.2905 123.172 61.2171 123.172 62.6966V62.7564C123.172 64.1911 122.365 65.1028 121.095 65.1028ZM128.201 66.3432C129.217 66.3432 129.904 65.8799 130.293 65.0131V66.2236H131.758V59.1696H130.293V62.5472C130.293 64.0716 129.755 65.0729 128.589 65.0729C127.633 65.0729 127.155 64.4751 127.155 63.3841V59.1696H125.675V63.4588C125.675 65.2522 126.617 66.3432 128.201 66.3432ZM135.478 66.2236H136.734V64.9384H135.897C135.448 64.9384 135.269 64.7291 135.269 64.2808V60.425H136.793V59.1696H135.269V56.9129L133.849 57.7947V59.1696H132.728V60.425H133.849V64.4601C133.864 65.581 134.193 66.1639 135.478 66.2236Z" fill="#1F325D"/>
<rect x="76.3687" y="78.5664" width="218.263" height="63.3666" rx="6.6422" fill="#FB835E"/>
<ellipse cx="93.9704" cy="92.6479" rx="7.04074" ry="7.04073" fill="white"/>
<ellipse cx="93.9703" cy="92.6478" rx="4.40046" ry="4.40046" fill="#16C270"/>
<path d="M108.691 95.7271H109.853V92.8792H111.097C113.213 92.8792 114.271 92.0888 114.271 90.4266C114.271 88.7992 113.248 88.0088 111.132 88.0088H108.691V95.7271ZM109.853 91.8912V88.9968H111.132C112.527 88.9968 113.085 89.4037 113.085 90.4266C113.085 91.4843 112.492 91.8912 111.097 91.8912H109.853ZM116.492 95.8665C117.283 95.8665 117.968 95.5527 118.34 94.9018V95.7271H119.445L119.433 94.8785V92.1702C119.433 90.7753 118.596 90.1476 117.19 90.1476C115.737 90.1476 114.76 90.8915 114.725 92.1237H115.876V92.0539C115.923 91.4378 116.364 91.0659 117.178 91.0659C118.015 91.0659 118.352 91.4146 118.352 91.8679V91.9493C118.236 92.2515 117.666 92.3096 116.736 92.5072C115.516 92.7746 114.598 93.0536 114.598 94.2857C114.598 95.2272 115.318 95.8665 116.492 95.8665ZM116.701 94.9947C116.097 94.9947 115.76 94.6925 115.76 94.2392C115.76 93.658 116.271 93.4604 116.899 93.2977C117.434 93.1698 118.015 93.0768 118.352 92.8443V93.5185C118.259 94.5879 117.503 94.9947 116.701 94.9947ZM120 97.9356H120.581C121.895 97.9356 122.371 97.4241 122.871 96.1223L124.975 90.2406H123.766L122.429 94.3322L120.965 90.2406H119.768L121.883 95.6224C121.453 96.7383 121.279 96.9011 120.523 96.9011H120V97.9356ZM129.028 95.7271H130.051L131.236 91.6355L132.434 95.7271H133.457L135.165 90.2406H133.991L132.945 94.0881L131.794 90.2406H130.69L129.539 94.0765L128.482 90.2406H127.296L129.028 95.7271ZM135.808 89.3572H137.04V88.1483H135.808V89.3572ZM135.843 95.7271H136.994V90.2406H135.843V95.7271ZM139.912 95.7271H140.889V94.7274H140.238C139.889 94.7274 139.75 94.5647 139.75 94.2159V91.217H140.935V90.2406H139.75V88.4854L138.645 89.1712V90.2406H137.774V91.217H138.645V94.3554C138.657 95.2272 138.913 95.6806 139.912 95.7271ZM141.836 95.7271H142.952V93.1001C142.952 91.8447 143.429 91.1356 144.277 91.1356C145.021 91.1356 145.382 91.589 145.382 92.4491V95.7271H146.532V92.391C146.532 90.9264 145.812 90.1476 144.626 90.1476C143.778 90.1476 143.231 90.5661 142.952 91.3216V87.8926H141.836V95.7271ZM155.126 95.7387H156.254V88.0088H155.115V93.7742L151.29 88.0088H149.942V95.7271H151.081V89.6826L155.126 95.7387ZM157.548 95.7271H163.104V94.6925H158.698V92.2283H161.523V91.1937H158.698V89.0433H162.929V88.0088H157.548V95.7271ZM166.064 95.7271H167.226V89.0433H169.691V88.0088H163.611V89.0433H166.064V95.7271ZM175.217 95.8665C177.054 95.8665 178.112 95.0064 178.112 93.5418C178.112 92.577 177.6 91.9028 176.659 91.6355C177.542 91.3797 177.949 90.8102 177.949 90.043C177.949 88.6597 176.996 87.8693 175.217 87.8693C173.578 87.8693 172.544 88.7411 172.404 90.3336H173.555C173.66 89.4385 174.09 88.8922 175.206 88.8922C176.205 88.8922 176.763 89.3339 176.763 90.0779V90.1011C176.763 90.8334 176.275 91.2286 175.299 91.2286H174.636V92.2631H175.31C176.461 92.2631 176.914 92.6467 176.914 93.5069V93.5418C176.914 94.3787 176.333 94.8436 175.229 94.8436C174.055 94.8436 173.544 94.3554 173.462 93.4488H172.288C172.393 95.1807 173.52 95.8665 175.217 95.8665ZM181.987 95.8665C184.01 95.8665 185.149 94.4252 185.149 91.8679C185.149 89.3223 184.01 87.8693 182.01 87.8693C179.988 87.8693 178.849 89.3107 178.849 91.8679C178.837 94.4717 179.965 95.8665 181.987 95.8665ZM182.01 94.832C180.72 94.832 180.058 93.8672 180.058 91.9725V91.7633C180.058 89.8686 180.709 88.9038 181.987 88.9038C183.277 88.9038 183.928 89.8803 183.928 91.7633V91.9725C183.928 93.8672 183.289 94.832 182.01 94.832ZM190.052 95.7271H191.028V94.7274H190.377C190.028 94.7274 189.889 94.5647 189.889 94.2159V91.217H191.074V90.2406H189.889V88.4854L188.785 89.1712V90.2406H187.913V91.217H188.785V94.3554C188.796 95.2272 189.052 95.6806 190.052 95.7271ZM194.144 95.82C195.55 95.82 196.329 95.1459 196.701 94.2973L195.69 93.9021C195.48 94.4368 195.074 94.8901 194.144 94.8901C193.214 94.8901 192.621 94.3206 192.551 93.379H196.678V92.9606C196.678 91.2286 195.713 90.1476 194.097 90.1476C192.54 90.1476 191.412 91.3216 191.412 93.0187C191.412 94.7042 192.458 95.82 194.144 95.82ZM192.528 92.5189C192.644 91.6238 193.249 91.0775 194.074 91.0775C194.934 91.0775 195.457 91.5773 195.504 92.5189H192.528ZM197.595 95.7271H198.734V92.9141C198.734 91.7982 199.001 91.31 199.977 91.31H200.501V90.1941H200.326C199.327 90.1941 198.896 90.6126 198.734 91.2519V90.2406H197.595V95.7271ZM201.306 95.7271H202.446V92.6584C202.446 91.6703 202.934 91.1356 203.596 91.1356C204.247 91.1356 204.596 91.5308 204.596 92.3445V95.7271H205.747V92.6584C205.747 91.7052 206.165 91.1356 206.898 91.1356C207.548 91.1356 207.897 91.5308 207.897 92.3445V95.7271H209.048V92.2864C209.048 90.9264 208.385 90.1244 207.339 90.1244C206.409 90.1244 205.828 90.6009 205.561 91.3216C205.305 90.4498 204.689 90.1244 204.05 90.1244C203.259 90.1244 202.725 90.5196 202.446 91.2054V90.2406H201.306V95.7271ZM212.218 95.8782C213.462 95.8782 214.357 95.1342 214.357 94.123C214.357 93.0419 213.323 92.6816 212.323 92.484C211.323 92.2864 210.951 92.205 210.951 91.7517C210.951 91.3332 211.335 91.0543 211.928 91.0543C212.497 91.0543 212.997 91.31 213.311 91.7866L214.299 91.2984C213.764 90.5893 212.962 90.1244 211.928 90.1244C210.765 90.1244 209.859 90.8567 209.859 91.8214C209.859 92.8792 210.754 93.2279 211.753 93.4372C212.613 93.6231 213.253 93.7277 213.253 94.2043C213.253 94.6577 212.881 94.9366 212.265 94.9366C211.684 94.9366 211.114 94.6925 210.777 94.2043L209.789 94.7274C210.289 95.4248 211.161 95.8782 212.218 95.8782ZM219.706 97.7264H220.857V88.0088H219.706V97.7264ZM226.564 95.7271H227.715V92.7513H228.749C230.412 92.7513 231.028 93.8207 231.237 95.4829L231.249 95.7271H232.481L232.446 95.4365C232.225 93.6115 231.667 92.6119 230.423 92.2515C231.667 92.0423 232.306 91.1937 232.306 90.1127C232.306 88.8225 231.4 88.0088 229.354 88.0088H226.564V95.7271ZM227.715 91.7866V88.9968H229.331C230.598 88.9968 231.132 89.3921 231.132 90.229C231.132 90.9845 230.621 91.7866 229.18 91.7866H227.715ZM235.599 95.82C237.006 95.82 237.784 95.1459 238.156 94.2973L237.145 93.9021C236.936 94.4368 236.529 94.8901 235.599 94.8901C234.669 94.8901 234.076 94.3206 234.007 93.379H238.133V92.9606C238.133 91.2286 237.168 90.1476 235.553 90.1476C233.995 90.1476 232.867 91.3216 232.867 93.0187C232.867 94.7042 233.914 95.82 235.599 95.82ZM233.983 92.5189C234.1 91.6238 234.704 91.0775 235.529 91.0775C236.389 91.0775 236.913 91.5773 236.959 92.5189H233.983ZM241.085 95.8782C242.329 95.8782 243.224 95.1342 243.224 94.123C243.224 93.0419 242.189 92.6816 241.19 92.484C240.19 92.2864 239.818 92.205 239.818 91.7517C239.818 91.3332 240.202 91.0543 240.794 91.0543C241.364 91.0543 241.864 91.31 242.178 91.7866L243.166 91.2984C242.631 90.5893 241.829 90.1244 240.794 90.1244C239.632 90.1244 238.725 90.8567 238.725 91.8214C238.725 92.8792 239.62 93.2279 240.62 93.4372C241.48 93.6231 242.119 93.7277 242.119 94.2043C242.119 94.6577 241.747 94.9366 241.131 94.9366C240.55 94.9366 239.981 94.6925 239.644 94.2043L238.656 94.7274C239.155 95.4248 240.027 95.8782 241.085 95.8782ZM246.462 95.82C248.078 95.82 249.229 94.646 249.229 92.9954C249.229 91.3216 248.101 90.1476 246.486 90.1476C244.87 90.1476 243.731 91.3216 243.731 92.9954C243.731 94.6693 244.847 95.82 246.462 95.82ZM246.462 94.8553C245.486 94.8553 244.881 94.1578 244.881 93.0303V92.9838C244.881 91.8331 245.509 91.1124 246.486 91.1124C247.462 91.1124 248.078 91.8331 248.078 92.9838V93.0303C248.078 94.1462 247.45 94.8553 246.462 94.8553ZM250.129 95.7271H251.28V87.8926H250.129V95.7271ZM253.969 95.7387H255.027L257.073 90.2406H255.876L254.492 94.3671L253.039 90.2406H251.854L253.969 95.7387ZM259.823 95.82C261.229 95.82 262.008 95.1459 262.38 94.2973L261.369 93.9021C261.16 94.4368 260.753 94.8901 259.823 94.8901C258.893 94.8901 258.3 94.3206 258.231 93.379H262.357V92.9606C262.357 91.2286 261.392 90.1476 259.776 90.1476C258.219 90.1476 257.091 91.3216 257.091 93.0187C257.091 94.7042 258.138 95.82 259.823 95.82ZM258.207 92.5189C258.323 91.6238 258.928 91.0775 259.753 91.0775C260.613 91.0775 261.136 91.5773 261.183 92.5189H258.207Z" fill="white"/>
<rect x="76.7838" y="149.389" width="217.433" height="27.3327" rx="6.22706" stroke="#D7DAE4" stroke-width="0.830275"/>
<path d="M100.596 163.055C100.596 166.714 97.6296 169.681 93.9704 169.681C90.3112 169.681 87.3448 166.714 87.3448 163.055C87.3448 159.396 90.3112 156.43 93.9704 156.43C97.6296 156.43 100.596 159.396 100.596 163.055Z" stroke="#D7DAE4" stroke-width="0.830275"/>
<path d="M108.691 166.134H109.853V163.286H111.097C113.213 163.286 114.271 162.496 114.271 160.834C114.271 159.206 113.248 158.416 111.132 158.416H108.691V166.134ZM109.853 162.298V159.404H111.132C112.527 159.404 113.085 159.811 113.085 160.834C113.085 161.892 112.492 162.298 111.097 162.298H109.853ZM116.492 166.274C117.283 166.274 117.968 165.96 118.34 165.309V166.134H119.445L119.433 165.286V162.577C119.433 161.183 118.596 160.555 117.19 160.555C115.737 160.555 114.76 161.299 114.725 162.531H115.876V162.461C115.923 161.845 116.364 161.473 117.178 161.473C118.015 161.473 118.352 161.822 118.352 162.275V162.357C118.236 162.659 117.666 162.717 116.736 162.914C115.516 163.182 114.598 163.461 114.598 164.693C114.598 165.634 115.318 166.274 116.492 166.274ZM116.701 165.402C116.097 165.402 115.76 165.1 115.76 164.646C115.76 164.065 116.271 163.868 116.899 163.705C117.434 163.577 118.015 163.484 118.352 163.252V163.926C118.259 164.995 117.503 165.402 116.701 165.402ZM120 168.343H120.581C121.895 168.343 122.371 167.831 122.871 166.529L124.975 160.648H123.766L122.429 164.739L120.965 160.648H119.768L121.883 166.03C121.453 167.146 121.279 167.308 120.523 167.308H120V168.343ZM129.028 166.134H130.051L131.236 162.043L132.434 166.134H133.457L135.165 160.648H133.991L132.945 164.495L131.794 160.648H130.69L129.539 164.484L128.482 160.648H127.296L129.028 166.134ZM135.808 159.764H137.04V158.556H135.808V159.764ZM135.843 166.134H136.994V160.648H135.843V166.134ZM139.912 166.134H140.889V165.135H140.238C139.889 165.135 139.75 164.972 139.75 164.623V161.624H140.935V160.648H139.75V158.893L138.645 159.578V160.648H137.774V161.624H138.645V164.763C138.657 165.634 138.913 166.088 139.912 166.134ZM141.836 166.134H142.952V163.507C142.952 162.252 143.429 161.543 144.277 161.543C145.021 161.543 145.382 161.996 145.382 162.856V166.134H146.532V162.798C146.532 161.334 145.812 160.555 144.626 160.555C143.778 160.555 143.231 160.973 142.952 161.729V158.3H141.836V166.134ZM153.185 166.274C154.975 166.274 156.335 165.367 156.637 163.31H155.405C155.173 164.716 154.324 165.193 153.208 165.193C151.802 165.193 150.86 164.123 150.86 162.322V162.229C150.86 160.439 151.814 159.358 153.232 159.358C154.313 159.358 155.126 159.799 155.382 161.148H156.626C156.289 159.16 154.975 158.277 153.243 158.277C151.139 158.277 149.663 159.857 149.663 162.275C149.663 164.681 151.128 166.274 153.185 166.274ZM157.479 166.134H158.618V163.321C158.618 162.205 158.885 161.717 159.862 161.717H160.385V160.601H160.21C159.211 160.601 158.781 161.02 158.618 161.659V160.648H157.479V166.134ZM163.302 166.227C164.708 166.227 165.487 165.553 165.859 164.705L164.848 164.309C164.639 164.844 164.232 165.297 163.302 165.297C162.372 165.297 161.779 164.728 161.709 163.786H165.836V163.368C165.836 161.636 164.871 160.555 163.255 160.555C161.698 160.555 160.57 161.729 160.57 163.426C160.57 165.111 161.616 166.227 163.302 166.227ZM161.686 162.926C161.802 162.031 162.407 161.485 163.232 161.485C164.092 161.485 164.615 161.985 164.662 162.926H161.686ZM168.903 166.251C169.67 166.251 170.298 165.913 170.682 165.332V166.134H171.798V158.3H170.682V161.473C170.286 160.892 169.67 160.532 168.915 160.532C167.485 160.532 166.439 161.671 166.439 163.414C166.439 165.193 167.497 166.251 168.903 166.251ZM169.194 165.274C168.252 165.274 167.636 164.635 167.636 163.461V163.379C167.636 162.194 168.264 161.508 169.194 161.508C170.159 161.508 170.74 162.24 170.74 163.321V163.414C170.74 164.507 170.135 165.274 169.194 165.274ZM172.961 159.764H174.193V158.556H172.961V159.764ZM172.996 166.134H174.147V160.648H172.996V166.134ZM177.066 166.134H178.042V165.135H177.391C177.042 165.135 176.903 164.972 176.903 164.623V161.624H178.088V160.648H176.903V158.893L175.799 159.578V160.648H174.927V161.624H175.799V164.763C175.81 165.634 176.066 166.088 177.066 166.134ZM184.458 166.274C186.248 166.274 187.608 165.367 187.911 163.31H186.679C186.446 164.716 185.597 165.193 184.482 165.193C183.075 165.193 182.134 164.123 182.134 162.322V162.229C182.134 160.439 183.087 159.358 184.505 159.358C185.586 159.358 186.4 159.799 186.655 161.148H187.899C187.562 159.16 186.248 158.277 184.516 158.277C182.413 158.277 180.936 159.857 180.936 162.275C180.936 164.681 182.401 166.274 184.458 166.274ZM190.299 166.274C191.09 166.274 191.775 165.96 192.147 165.309V166.134H193.252L193.24 165.286V162.577C193.24 161.183 192.403 160.555 190.997 160.555C189.544 160.555 188.567 161.299 188.532 162.531H189.683V162.461C189.73 161.845 190.171 161.473 190.985 161.473C191.822 161.473 192.159 161.822 192.159 162.275V162.357C192.043 162.659 191.473 162.717 190.543 162.914C189.323 163.182 188.404 163.461 188.404 164.693C188.404 165.634 189.125 166.274 190.299 166.274ZM190.508 165.402C189.904 165.402 189.567 165.1 189.567 164.646C189.567 164.065 190.078 163.868 190.706 163.705C191.241 163.577 191.822 163.484 192.159 163.252V163.926C192.066 164.995 191.31 165.402 190.508 165.402ZM194.382 166.134H195.521V163.321C195.521 162.205 195.789 161.717 196.765 161.717H197.288V160.601H197.114C196.114 160.601 195.684 161.02 195.521 161.659V160.648H194.382V166.134ZM199.972 166.251C200.739 166.251 201.367 165.913 201.75 165.332V166.134H202.866V158.3H201.75V161.473C201.355 160.892 200.739 160.532 199.984 160.532C198.554 160.532 197.508 161.671 197.508 163.414C197.508 165.193 198.566 166.251 199.972 166.251ZM200.263 165.274C199.321 165.274 198.705 164.635 198.705 163.461V163.379C198.705 162.194 199.333 161.508 200.263 161.508C201.227 161.508 201.809 162.24 201.809 163.321V163.414C201.809 164.507 201.204 165.274 200.263 165.274Z" fill="#1F325D"/>
<rect x="76.7838" y="184.593" width="217.433" height="27.3327" rx="6.22706" stroke="#D7DAE4" stroke-width="0.830275"/>
<path d="M100.596 198.259C100.596 201.918 97.6296 204.885 93.9704 204.885C90.3112 204.885 87.3448 201.918 87.3448 198.259C87.3448 194.6 90.3112 191.633 93.9704 191.633C97.6296 191.633 100.596 194.6 100.596 198.259Z" stroke="#D7DAE4" stroke-width="0.830275"/>
<path d="M108.691 201.338H109.853V198.49H111.097C113.213 198.49 114.271 197.7 114.271 196.038C114.271 194.41 113.248 193.62 111.132 193.62H108.691V201.338ZM109.853 197.502V194.608H111.132C112.527 194.608 113.085 195.015 113.085 196.038C113.085 197.095 112.492 197.502 111.097 197.502H109.853ZM116.492 201.478C117.283 201.478 117.968 201.164 118.34 200.513V201.338H119.445L119.433 200.49V197.781C119.433 196.386 118.596 195.759 117.19 195.759C115.737 195.759 114.76 196.503 114.725 197.735H115.876V197.665C115.923 197.049 116.364 196.677 117.178 196.677C118.015 196.677 118.352 197.026 118.352 197.479V197.56C118.236 197.863 117.666 197.921 116.736 198.118C115.516 198.386 114.598 198.665 114.598 199.897C114.598 200.838 115.318 201.478 116.492 201.478ZM116.701 200.606C116.097 200.606 115.76 200.304 115.76 199.85C115.76 199.269 116.271 199.071 116.899 198.909C117.434 198.781 118.015 198.688 118.352 198.455V199.13C118.259 200.199 117.503 200.606 116.701 200.606ZM120 203.547H120.581C121.895 203.547 122.371 203.035 122.871 201.733L124.975 195.852H123.766L122.429 199.943L120.965 195.852H119.768L121.883 201.234C121.453 202.349 121.279 202.512 120.523 202.512H120V203.547ZM129.028 201.338H130.051L131.236 197.247L132.434 201.338H133.457L135.165 195.852H133.991L132.945 199.699L131.794 195.852H130.69L129.539 199.688L128.482 195.852H127.296L129.028 201.338ZM135.808 194.968H137.04V193.759H135.808V194.968ZM135.843 201.338H136.994V195.852H135.843V201.338ZM139.912 201.338H140.889V200.338H140.238C139.889 200.338 139.75 200.176 139.75 199.827V196.828H140.935V195.852H139.75V194.096L138.645 194.782V195.852H137.774V196.828H138.645V199.967C138.657 200.838 138.913 201.292 139.912 201.338ZM141.836 201.338H142.952V198.711C142.952 197.456 143.429 196.747 144.277 196.747C145.021 196.747 145.382 197.2 145.382 198.06V201.338H146.532V198.002C146.532 196.537 145.812 195.759 144.626 195.759C143.778 195.759 143.231 196.177 142.952 196.933V193.504H141.836V201.338ZM149.942 201.338H151.105V198.49H152.348C154.464 198.49 155.522 197.7 155.522 196.038C155.522 194.41 154.499 193.62 152.383 193.62H149.942V201.338ZM151.105 197.502V194.608H152.383C153.778 194.608 154.336 195.015 154.336 196.038C154.336 197.095 153.743 197.502 152.348 197.502H151.105ZM157.743 201.478C158.534 201.478 159.22 201.164 159.591 200.513V201.338H160.696L160.684 200.49V197.781C160.684 196.386 159.847 195.759 158.441 195.759C156.988 195.759 156.011 196.503 155.976 197.735H157.127V197.665C157.174 197.049 157.615 196.677 158.429 196.677C159.266 196.677 159.603 197.026 159.603 197.479V197.56C159.487 197.863 158.917 197.921 157.987 198.118C156.767 198.386 155.849 198.665 155.849 199.897C155.849 200.838 156.569 201.478 157.743 201.478ZM157.953 200.606C157.348 200.606 157.011 200.304 157.011 199.85C157.011 199.269 157.522 199.071 158.15 198.909C158.685 198.781 159.266 198.688 159.603 198.455V199.13C159.51 200.199 158.755 200.606 157.953 200.606ZM161.251 203.547H161.832C163.146 203.547 163.622 203.035 164.122 201.733L166.226 195.852H165.017L163.68 199.943L162.216 195.852H161.019L163.134 201.234C162.704 202.349 162.53 202.512 161.774 202.512H161.251V203.547ZM166.901 201.338H168.064V198.49H169.307C171.423 198.49 172.481 197.7 172.481 196.038C172.481 194.41 171.458 193.62 169.342 193.62H166.901V201.338ZM168.064 197.502V194.608H169.342C170.737 194.608 171.295 195.015 171.295 196.038C171.295 197.095 170.702 197.502 169.307 197.502H168.064ZM174.702 201.478C175.493 201.478 176.179 201.164 176.55 200.513V201.338H177.655L177.643 200.49V197.781C177.643 196.386 176.806 195.759 175.4 195.759C173.947 195.759 172.97 196.503 172.935 197.735H174.086V197.665C174.133 197.049 174.574 196.677 175.388 196.677C176.225 196.677 176.562 197.026 176.562 197.479V197.56C176.446 197.863 175.876 197.921 174.946 198.118C173.726 198.386 172.808 198.665 172.808 199.897C172.808 200.838 173.528 201.478 174.702 201.478ZM174.912 200.606C174.307 200.606 173.97 200.304 173.97 199.85C173.97 199.269 174.481 199.071 175.109 198.909C175.644 198.781 176.225 198.688 176.562 198.455V199.13C176.469 200.199 175.714 200.606 174.912 200.606ZM178.785 201.338H179.936V193.504H178.785V201.338Z" fill="#1F325D"/>
<rect x="108.052" y="106.729" width="157.536" height="8.80092" rx="4.40046" fill="#FFB199"/>
<rect x="108.052" y="120.811" width="102.971" height="8.80092" rx="4.40046" fill="#FFB199"/>
</g>
</g>
<defs>
<clipPath id="clip0_980_15722">
<rect width="371" height="208.82" fill="white"/>
</clipPath>
<clipPath id="clip1_980_15722">
<rect width="279.869" height="191.86" fill="white" transform="translate(45.5654 16.96)"/>
</clipPath>
</defs>
</svg>
