<svg width="371" height="209" viewBox="0 0 371 209" fill="none" xmlns="http://www.w3.org/2000/svg">
<g clip-path="url(#clip0_980_15643)">
<rect width="371" height="208.82" fill="#D7DAE4"/>
<rect x="62.7803" y="19.0801" width="245.44" height="215.18" rx="6.34375" fill="white"/>
<circle cx="185.5" cy="130.873" r="15.1298" fill="#E5E9F5"/>
<circle cx="215.76" cy="130.873" r="15.1298" fill="#FB835E"/>
<path d="M94.9475 45.1034C96.8507 45.1034 97.9799 44.0377 97.9799 42.5025C97.9799 40.8531 96.5589 40.4217 95.1759 40.1553C93.9706 39.9269 92.8668 39.7493 92.8668 38.8485C92.8668 38.0365 93.5139 37.5036 94.5542 37.5036C95.7088 37.5036 96.4066 37.9731 96.5842 39.2037H97.9418C97.688 37.3133 96.4574 36.3871 94.5669 36.3871C92.8414 36.3871 91.6107 37.4529 91.6107 38.9119C91.6107 40.5359 93.0952 40.9927 94.4908 41.2718C95.7088 41.5002 96.7111 41.7286 96.7111 42.5659C96.7111 43.4541 96.0514 43.9869 94.9095 43.9869C93.6154 43.9869 92.9556 43.5175 92.7019 42.2741H91.3316C91.6615 44.1011 92.8034 45.1034 94.9475 45.1034Z" fill="#1F325D"/>
<path d="M120.624 44.9639H121.867V37.7447L124.366 44.9639H125.483L128.096 37.6686V44.9639H129.34V36.5394H127.259L124.95 43.213L122.78 36.5394H120.624V44.9639Z" fill="#1F325D"/>
<path d="M154.597 44.9639H155.866V37.6686H158.555V36.5394H151.92V37.6686H154.597V44.9639Z" fill="#1F325D"/>
<path d="M182.319 44.9639H183.575L185.453 38.3791L187.331 44.9639H188.587L190.985 36.5394H189.589L187.965 43.0861L186.113 36.5394H184.831L182.966 43.0734L181.406 36.5394H179.997L182.319 44.9639Z" fill="#1F325D"/>
<path d="M215.116 44.9639H216.385V37.6686H219.075V36.5394H212.439V37.6686H215.116V44.9639Z" fill="#1F325D"/>
<path d="M243.341 44.9639H244.61V41.3352H247.934V40.2061H244.61V37.6686H248.987V36.5394H243.341V44.9639Z" fill="#1F325D"/>
<path d="M276.506 45.1034C278.409 45.1034 279.538 44.0377 279.538 42.5025C279.538 40.8531 278.117 40.4217 276.734 40.1553C275.529 39.9269 274.425 39.7493 274.425 38.8485C274.425 38.0365 275.072 37.5036 276.112 37.5036C277.267 37.5036 277.965 37.9731 278.142 39.2037H279.5C279.246 37.3133 278.015 36.3871 276.125 36.3871C274.4 36.3871 273.169 37.4529 273.169 38.9119C273.169 40.5359 274.653 40.9927 276.049 41.2718C277.267 41.5002 278.269 41.7286 278.269 42.5659C278.269 43.4541 277.609 43.9869 276.468 43.9869C275.173 43.9869 274.514 43.5175 274.26 42.2741H272.89C273.22 44.1011 274.361 45.1034 276.506 45.1034Z" fill="#1F325D"/>
<circle cx="94.721" cy="70.3533" r="5.04328" fill="white"/>
<ellipse cx="124.981" cy="70.3533" rx="5.04328" ry="5.04328" fill="white"/>
<circle cx="155.241" cy="70.3533" r="5.04328" fill="white"/>
<circle cx="185.5" cy="70.3533" r="5.04328" fill="white"/>
<circle cx="215.76" cy="70.3533" r="5.04328" fill="#E5E9F5"/>
<circle cx="246.019" cy="70.3533" r="5.04328" fill="#E5E9F5"/>
<circle cx="276.279" cy="70.3533" r="5.04328" fill="#E5E9F5"/>
<circle cx="94.721" cy="100.613" r="5.04328" fill="#E5E9F5"/>
<ellipse cx="124.981" cy="100.613" rx="5.04328" ry="5.04328" fill="#E5E9F5"/>
<circle cx="155.241" cy="100.613" r="5.04328" fill="#E5E9F5"/>
<circle cx="185.5" cy="100.613" r="5.04328" fill="#E5E9F5"/>
<circle cx="215.76" cy="100.613" r="5.04328" fill="#E5E9F5"/>
<circle cx="246.019" cy="100.613" r="5.04328" fill="#E5E9F5"/>
<circle cx="276.279" cy="100.613" r="5.04328" fill="#E5E9F5"/>
<circle cx="94.721" cy="130.873" r="5.04328" fill="#E5E9F5"/>
<ellipse cx="124.981" cy="130.873" rx="5.04328" ry="5.04328" fill="#E5E9F5"/>
<circle cx="155.241" cy="130.873" r="5.04328" fill="#E5E9F5"/>
<circle cx="246.019" cy="130.873" r="5.04328" fill="#E5E9F5"/>
<circle cx="276.279" cy="130.873" r="5.04328" fill="#E5E9F5"/>
<circle cx="94.721" cy="161.132" r="5.04328" fill="#E5E9F5"/>
<ellipse cx="124.981" cy="161.132" rx="5.04328" ry="5.04328" fill="#E5E9F5"/>
<circle cx="155.241" cy="161.132" r="5.04328" fill="#E5E9F5"/>
<circle cx="185.5" cy="161.132" r="5.04328" fill="#E5E9F5"/>
<circle cx="215.76" cy="161.132" r="5.04328" fill="#E5E9F5"/>
<circle cx="246.019" cy="161.132" r="5.04328" fill="#E5E9F5"/>
<circle cx="276.279" cy="161.132" r="5.04328" fill="#E5E9F5"/>
<circle cx="94.721" cy="191.392" r="5.04328" fill="#E5E9F5"/>
<ellipse cx="124.981" cy="191.392" rx="5.04328" ry="5.04328" fill="#E5E9F5"/>
<circle cx="155.241" cy="191.392" r="5.04328" fill="#E5E9F5"/>
<circle cx="185.5" cy="191.392" r="5.04328" fill="#E5E9F5"/>
<circle cx="215.76" cy="191.392" r="5.04328" fill="#E5E9F5"/>
<circle cx="246.019" cy="191.392" r="5.04328" fill="white"/>
<circle cx="276.279" cy="191.392" r="5.04328" fill="white"/>
<path d="M182.218 135.743H183.462V127.306H182.244C181.926 128.765 180.937 129.577 179.681 130.046V131.252C180.772 130.922 181.597 130.287 182.218 129.475V135.743ZM188.178 135.908C190.132 135.908 191.376 134.766 191.376 132.888C191.376 131.099 190.145 129.983 188.318 129.983C187.531 129.983 186.872 130.249 186.415 130.731L186.757 128.448H190.893V127.318H185.857L185.209 131.518L186.301 132.178C186.656 131.581 187.201 131.074 188.229 131.074C189.358 131.074 190.069 131.734 190.069 132.876V132.901C190.069 134.119 189.371 134.779 188.166 134.779C186.998 134.779 186.415 134.246 186.339 133.32H185.083C185.083 134.855 186.351 135.908 188.178 135.908Z" fill="#1F325D"/>
<path d="M212.385 135.743H213.629V127.306H212.411C212.093 128.765 211.104 129.577 209.848 130.046V131.252C210.939 130.922 211.763 130.287 212.385 129.475V135.743ZM218.616 135.882C220.379 135.882 221.648 134.703 221.648 133.053C221.648 131.429 220.481 130.338 218.692 130.338C217.727 130.338 216.839 130.833 216.421 131.619C216.433 131.429 216.459 131.226 216.459 131.175C216.459 129.323 217.22 128.27 218.59 128.27C219.656 128.27 220.201 128.739 220.278 129.602H221.546C221.458 128.333 220.569 127.166 218.654 127.166C216.484 127.166 215.215 128.714 215.215 131.594C215.215 134.36 216.459 135.882 218.616 135.882ZM218.565 134.779C217.486 134.779 216.674 134.03 216.674 133.066V133.028C216.674 132.089 217.461 131.391 218.539 131.391C219.656 131.391 220.366 132.051 220.366 133.053V133.091C220.366 134.094 219.681 134.779 218.565 134.779Z" fill="white"/>
<path d="M215.308 150.205L220.352 155.249H210.265L215.308 150.205Z" fill="#FB835E"/>
<rect x="172.892" y="155.249" width="84.8331" height="27.4855" rx="13.7427" fill="#FB835E"/>
<path d="M185.663 172.392H186.931V163.967H185.663V172.392ZM188.349 172.392H189.592V169.524C189.592 168.154 190.125 167.38 191.052 167.38C191.864 167.38 192.257 167.875 192.257 168.814V172.392H193.513V168.75C193.513 167.152 192.726 166.276 191.432 166.276C190.519 166.276 189.91 166.733 189.592 167.532V166.403H188.349V172.392ZM196.134 172.404H197.289L199.522 166.403H198.215L196.705 170.907L195.119 166.403H193.825L196.134 172.404ZM202.523 172.493C204.287 172.493 205.543 171.212 205.543 169.41C205.543 167.583 204.312 166.302 202.549 166.302C200.785 166.302 199.542 167.583 199.542 169.41C199.542 171.237 200.76 172.493 202.523 172.493ZM202.523 171.44C201.458 171.44 200.798 170.679 200.798 169.448V169.397C200.798 168.141 201.483 167.355 202.549 167.355C203.614 167.355 204.287 168.141 204.287 169.397V169.448C204.287 170.666 203.602 171.44 202.523 171.44ZM206.487 165.439H207.832V164.119H206.487V165.439ZM206.525 172.392H207.782V166.403H206.525V172.392ZM211.703 172.493C213.162 172.493 214.063 171.719 214.456 170.501L213.264 170.133C213.061 170.945 212.642 171.44 211.678 171.44C210.637 171.44 210.028 170.603 210.028 169.423V169.372C210.028 168.179 210.676 167.355 211.716 167.355C212.579 167.355 213.01 167.837 213.213 168.598L214.406 168.23C214.038 167.063 213.15 166.302 211.741 166.302C209.99 166.302 208.772 167.596 208.772 169.385C208.772 171.212 209.914 172.493 211.703 172.493ZM217.937 172.493C219.472 172.493 220.322 171.757 220.728 170.831L219.624 170.4C219.396 170.983 218.952 171.478 217.937 171.478C216.922 171.478 216.275 170.856 216.198 169.829H220.703V169.372C220.703 167.482 219.649 166.302 217.886 166.302C216.186 166.302 214.955 167.583 214.955 169.435C214.955 171.275 216.097 172.493 217.937 172.493ZM216.173 168.89C216.3 167.913 216.96 167.317 217.861 167.317C218.799 167.317 219.37 167.862 219.421 168.89H216.173ZM224.169 174.751H225.4V171.529C225.818 172.138 226.491 172.518 227.315 172.518C228.863 172.518 230.018 171.3 230.018 169.372V169.359C230.018 167.443 228.863 166.276 227.328 166.276C226.491 166.276 225.806 166.657 225.387 167.291V166.403H224.169V174.751ZM227.011 171.453C225.958 171.453 225.324 170.653 225.324 169.473V169.372C225.324 168.179 225.971 167.342 227.011 167.342C228.039 167.342 228.711 168.04 228.711 169.321V169.41C228.711 170.704 228.026 171.453 227.011 171.453ZM232.685 172.544C233.548 172.544 234.296 172.201 234.702 171.491V172.392H235.908L235.895 171.465V168.509C235.895 166.987 234.981 166.302 233.446 166.302C231.86 166.302 230.794 167.114 230.756 168.458H232.012V168.382C232.063 167.71 232.545 167.304 233.433 167.304C234.347 167.304 234.715 167.685 234.715 168.179V168.268C234.588 168.598 233.966 168.661 232.951 168.877C231.619 169.169 230.617 169.473 230.617 170.818C230.617 171.846 231.403 172.544 232.685 172.544ZM232.913 171.592C232.254 171.592 231.886 171.262 231.886 170.768C231.886 170.133 232.444 169.918 233.129 169.74C233.713 169.6 234.347 169.499 234.715 169.245V169.981C234.613 171.148 233.789 171.592 232.913 171.592ZM237.103 165.439H238.448V164.119H237.103V165.439ZM237.141 172.392H238.398V166.403H237.141V172.392ZM242.078 172.518C242.916 172.518 243.601 172.151 244.019 171.516V172.392H245.237V163.84H244.019V167.304C243.588 166.67 242.916 166.276 242.091 166.276C240.53 166.276 239.388 167.52 239.388 169.423C239.388 171.364 240.543 172.518 242.078 172.518ZM242.395 171.453C241.368 171.453 240.695 170.755 240.695 169.473V169.385C240.695 168.091 241.38 167.342 242.395 167.342C243.448 167.342 244.083 168.141 244.083 169.321V169.423C244.083 170.615 243.423 171.453 242.395 171.453Z" fill="white"/>
<rect x="142.632" y="79.5994" width="84.8331" height="27.4855" rx="13.7427" fill="#E5E9F5"/>
<path d="M155.564 96.7422H156.833V88.3177H155.564V96.7422ZM158.25 96.7422H159.494V93.8748C159.494 92.5046 160.027 91.7306 160.953 91.7306C161.765 91.7306 162.158 92.2254 162.158 93.1643V96.7422H163.414V93.1009C163.414 91.5022 162.628 90.6268 161.333 90.6268C160.42 90.6268 159.811 91.0836 159.494 91.8829V90.7537H158.25V96.7422ZM166.035 96.7549H167.19L169.423 90.7537H168.116L166.606 95.2577L165.02 90.7537H163.726L166.035 96.7549ZM172.425 96.8437C174.188 96.8437 175.444 95.5622 175.444 93.7606C175.444 91.9336 174.214 90.6522 172.45 90.6522C170.686 90.6522 169.443 91.9336 169.443 93.7606C169.443 95.5876 170.661 96.8437 172.425 96.8437ZM172.425 95.7906C171.359 95.7906 170.699 95.0294 170.699 93.7987V93.7479C170.699 92.4919 171.384 91.7052 172.45 91.7052C173.516 91.7052 174.188 92.4919 174.188 93.7479V93.7987C174.188 95.0167 173.503 95.7906 172.425 95.7906ZM176.389 89.7894H177.734V88.4699H176.389V89.7894ZM176.427 96.7422H177.683V90.7537H176.427V96.7422ZM181.605 96.8437C183.064 96.8437 183.964 96.0697 184.358 94.8517L183.165 94.4838C182.962 95.2958 182.543 95.7906 181.579 95.7906C180.539 95.7906 179.93 94.9532 179.93 93.7733V93.7226C179.93 92.5299 180.577 91.7052 181.617 91.7052C182.48 91.7052 182.911 92.1874 183.114 92.9486L184.307 92.5807C183.939 91.4134 183.051 90.6522 181.643 90.6522C179.892 90.6522 178.674 91.9463 178.674 93.7352C178.674 95.5622 179.816 96.8437 181.605 96.8437ZM187.838 96.8437C189.373 96.8437 190.223 96.1078 190.629 95.1816L189.525 94.7502C189.297 95.3339 188.853 95.8287 187.838 95.8287C186.823 95.8287 186.176 95.207 186.1 94.1793H190.604V93.7226C190.604 91.8321 189.551 90.6522 187.787 90.6522C186.087 90.6522 184.856 91.9336 184.856 93.786C184.856 95.6257 185.998 96.8437 187.838 96.8437ZM186.074 93.2404C186.201 92.2635 186.861 91.6672 187.762 91.6672C188.701 91.6672 189.272 92.2127 189.322 93.2404H186.074ZM196.329 96.9071C197.686 96.9071 198.663 96.0951 198.663 94.9913C198.663 93.8114 197.534 93.4181 196.443 93.2024C195.352 92.9867 194.946 92.8979 194.946 92.4031C194.946 91.9463 195.364 91.6418 196.011 91.6418C196.633 91.6418 197.179 91.9209 197.521 92.4411L198.6 91.9082C198.016 91.1343 197.141 90.6268 196.011 90.6268C194.743 90.6268 193.753 91.4261 193.753 92.4792C193.753 93.6337 194.73 94.0144 195.821 94.2427C196.76 94.4457 197.458 94.5599 197.458 95.0801C197.458 95.5749 197.052 95.8794 196.379 95.8794C195.745 95.8794 195.123 95.613 194.755 95.0801L193.677 95.6511C194.223 96.4123 195.174 96.9071 196.329 96.9071ZM202.211 96.8437C203.746 96.8437 204.596 96.1078 205.002 95.1816L203.898 94.7502C203.67 95.3339 203.226 95.8287 202.211 95.8287C201.196 95.8287 200.548 95.207 200.472 94.1793H204.976V93.7226C204.976 91.8321 203.923 90.6522 202.16 90.6522C200.46 90.6522 199.229 91.9336 199.229 93.786C199.229 95.6257 200.371 96.8437 202.211 96.8437ZM200.447 93.2404C200.574 92.2635 201.234 91.6672 202.134 91.6672C203.073 91.6672 203.644 92.2127 203.695 93.2404H200.447ZM205.977 96.7422H207.221V93.8748C207.221 92.5046 207.753 91.7306 208.68 91.7306C209.492 91.7306 209.885 92.2254 209.885 93.1643V96.7422H211.141V93.1009C211.141 91.5022 210.354 90.6268 209.06 90.6268C208.147 90.6268 207.538 91.0836 207.221 91.8829V90.7537H205.977V96.7422ZM214.025 96.7422H215.09V95.6511H214.38C213.999 95.6511 213.847 95.4734 213.847 95.0928V91.8194H215.141V90.7537H213.847V88.8379L212.642 89.5864V90.7537H211.69V91.8194H212.642V95.2451C212.654 96.1966 212.934 96.6914 214.025 96.7422Z" fill="#1F325D"/>
<path d="M185.049 112.128L180.006 107.085L190.092 107.085L185.049 112.128Z" fill="#E5E9F5"/>
</g>
<defs>
<clipPath id="clip0_980_15643">
<rect width="371" height="208.82" fill="white"/>
</clipPath>
</defs>
</svg>
