<svg width="371" height="209" viewBox="0 0 371 209" fill="none" xmlns="http://www.w3.org/2000/svg">
<g clip-path="url(#clip0_650_27169)">
<rect width="371" height="208.82" fill="#D7DAE4"/>
<rect width="226.971" height="284.186" transform="translate(58.2451 -28.5818) rotate(-4.56338)" fill="white"/>
<path d="M83.7884 71.0848L85.1112 70.9793L84.4982 63.299L87.7703 70.767L88.9581 70.6722L91.1192 62.689L91.7387 70.4503L93.0615 70.3447L92.3461 61.3821L90.1325 61.5588L88.2425 68.8548L85.3677 61.9391L83.0731 62.1222L83.7884 71.0848ZM97.3202 70.1135C98.9535 69.9831 99.7954 69.1281 100.149 68.1082L98.9377 67.743C98.7443 68.3833 98.3139 68.9475 97.2341 69.0336C96.1542 69.1198 95.413 68.5134 95.2448 67.4265L100.037 67.0441L99.9978 66.5581C99.8372 64.5469 98.6167 63.3811 96.7405 63.5308C94.9318 63.6752 93.7313 65.143 93.8886 67.1137C94.0448 69.0708 95.363 70.2697 97.3202 70.1135ZM95.1381 66.4298C95.1901 65.3797 95.8414 64.6893 96.7997 64.6128C97.7985 64.5331 98.4523 65.065 98.5935 66.154L95.1381 66.4298ZM103.145 69.5399L104.278 69.4494L104.186 68.2886L103.43 68.3489C103.025 68.3813 102.848 68.2052 102.816 67.8003L102.538 64.3178L103.914 64.2079L103.824 63.0741L102.447 63.184L102.284 61.1458L101.066 62.0446L101.165 63.2864L100.152 63.3672L100.243 64.501L101.255 64.4202L101.546 68.0646C101.641 69.0759 101.979 69.5786 103.145 69.5399ZM105.379 69.3616L106.702 69.256L106.441 65.9895C106.337 64.6937 106.603 64.1021 107.736 64.0116L108.344 63.9631L108.24 62.6673L108.038 62.6834C106.877 62.7761 106.417 63.3019 106.287 64.0593L106.193 62.885L104.87 62.9906L105.379 69.3616ZM109.071 61.6229L110.502 61.5087L110.39 60.1049L108.959 60.2191L109.071 61.6229ZM109.702 69.0165L111.039 68.9099L110.53 62.5389L109.194 62.6455L109.702 69.0165ZM115.219 68.6848C116.772 68.5609 117.664 67.6611 117.979 66.3319L116.679 66.0417C116.532 66.9228 116.129 67.4848 115.103 67.5667C113.996 67.655 113.277 66.8159 113.177 65.5606L113.173 65.5066C113.071 64.2378 113.69 63.3055 114.797 63.2171C115.715 63.1439 116.214 63.6202 116.495 64.4128L117.733 63.9201C117.242 62.7095 116.232 61.9751 114.734 62.0946C112.872 62.2433 111.686 63.7235 111.838 65.6267C111.993 67.5704 113.316 68.8367 115.219 68.6848Z" fill="#1F325D"/>
<path d="M233.056 59.1709L234.392 59.0643L234.116 55.6088L235.318 55.5129C237.248 55.3589 238.062 56.5436 238.459 58.4544L238.496 58.7368L239.926 58.6226L239.859 58.2884C239.433 56.1897 238.693 55.0806 237.215 54.7774C238.64 54.4192 239.304 53.3746 239.203 52.1193C239.084 50.621 237.956 49.7602 235.58 49.9498L232.341 50.2083L233.056 59.1709ZM234.027 54.4885L233.768 51.249L235.645 51.0993C237.116 50.9818 237.773 51.3912 237.851 52.363C237.921 53.2404 237.401 54.2192 235.728 54.3528L234.027 54.4885ZM240.438 51.1377L241.869 51.0235L241.757 49.6198L240.326 49.734L240.438 51.1377ZM241.069 58.5313L242.406 58.4247L241.897 52.0537L240.561 52.1603L241.069 58.5313ZM246.162 58.3015C247.606 58.1862 248.576 57.2394 248.483 56.0651C248.383 54.8098 247.148 54.4872 245.969 54.3504C244.79 54.2136 244.35 54.1536 244.308 53.6272C244.269 53.1412 244.689 52.7817 245.377 52.7268C246.039 52.674 246.643 52.9246 247.051 53.449L248.153 52.7905C247.467 52.0167 246.492 51.5511 245.291 51.647C243.941 51.7547 242.956 52.6891 243.046 53.8094C243.144 55.0377 244.215 55.3597 245.396 55.51C246.412 55.6463 247.164 55.7085 247.208 56.2619C247.25 56.7883 246.844 57.1467 246.129 57.2038C245.454 57.2577 244.77 57.027 244.333 56.4914L243.234 57.1904C243.879 57.9539 244.933 58.3995 246.162 58.3015ZM249.571 57.8528L250.867 57.7493L250.713 55.8191L251.621 54.6056L253.688 57.5242L255.146 57.4078L252.426 53.6177L254.489 51.0487L252.95 51.1715L250.596 54.3479L250.141 48.6518L248.845 48.7552L249.571 57.8528Z" fill="#1F325D"/>
<rect x="84.1519" y="85.0022" width="93.9393" height="11.8482" rx="5.9241" transform="rotate(-4.56338 84.1519 85.0022)" fill="#E5E9F5"/>
<path d="M234.545 83.0638L240.12 82.6189L240.023 81.4041L235.798 81.7413L235.18 73.9935L233.83 74.1012L234.545 83.0638ZM243.661 82.4449C245.537 82.2952 246.765 80.8252 246.612 78.9085C246.457 76.9648 245.039 75.706 243.163 75.8558C241.286 76.0055 240.072 77.4744 240.227 79.4181C240.383 81.3618 241.785 82.5947 243.661 82.4449ZM243.572 81.3246C242.438 81.4151 241.671 80.6612 241.567 79.3519L241.563 79.298C241.456 77.9617 242.118 77.0666 243.252 76.9761C244.386 76.8856 245.168 77.6654 245.275 79.0017L245.279 79.0557C245.382 80.3515 244.719 81.233 243.572 81.3246ZM249.105 81.9017L250.293 81.8069L251.291 76.9458L253.06 81.5861L254.248 81.4913L255.724 74.9619L254.36 75.0707L253.502 79.6355L251.809 75.2743L250.527 75.3767L249.546 79.9376L247.962 75.5814L246.585 75.6913L249.105 81.9017Z" fill="#16C270"/>
<rect x="86.0566" y="108.861" width="58.3947" height="11.8482" rx="5.9241" transform="rotate(-4.56338 86.0566 108.861)" fill="#E5E9F5"/>
<path d="M234.336 107.093L235.686 106.985L235.37 103.03L239.906 102.668L240.221 106.623L241.571 106.515L240.856 97.5529L239.506 97.6606L239.81 101.467L235.275 101.829L234.971 98.0226L233.621 98.1303L234.336 107.093ZM242.391 99.006L243.822 98.8918L243.71 97.4881L242.279 97.6023L242.391 99.006ZM243.022 106.4L244.358 106.293L243.85 99.922L242.513 100.029L243.022 106.4ZM248.717 109.151C250.85 108.981 252.069 108.082 251.963 106.759C251.86 105.463 250.781 104.884 248.756 105.045L247.434 105.151C246.84 105.198 246.432 105.027 246.407 104.717C246.386 104.447 246.638 104.209 247.126 104.197L247.221 104.19C247.497 104.249 247.784 104.267 248.081 104.244C249.701 104.114 250.693 103.098 250.578 101.654C250.559 101.424 250.501 101.211 250.43 101C250.689 100.667 251.092 100.607 251.439 100.702L251.329 99.325C250.654 99.3789 250.252 99.7913 250.068 100.377C249.57 99.7507 248.74 99.3958 247.768 99.4734C246.229 99.5962 245.164 100.714 245.274 102.09C245.333 102.833 245.735 103.439 246.323 103.827C245.607 104.047 245.222 104.499 245.266 105.052C245.308 105.579 245.746 105.965 246.407 106.075C245.7 106.403 245.294 106.938 245.345 107.573C245.44 108.76 246.625 109.318 248.717 109.151ZM248.04 103.214C247.176 103.283 246.566 102.789 246.503 102.006L246.499 101.952C246.437 101.169 246.999 100.554 247.822 100.488C248.672 100.42 249.325 100.938 249.388 101.721L249.392 101.775C249.455 102.572 248.931 103.143 248.04 103.214ZM248.678 108.149C247.315 108.258 246.544 107.966 246.497 107.372C246.446 106.738 247.146 106.315 248.01 106.246L248.806 106.182C250.143 106.076 250.732 106.314 250.783 106.948C250.833 107.583 250.028 108.041 248.678 108.149ZM252.644 105.632L253.94 105.528L253.697 102.478C253.58 101.02 254.068 100.152 255.053 100.074C255.917 100.005 256.378 100.498 256.458 101.497L256.761 105.303L258.098 105.196L257.788 101.322C257.653 99.6218 256.744 98.7842 255.367 98.8941C254.381 98.9727 253.786 99.5093 253.532 100.413L253.214 96.4306L251.918 96.5341L252.644 105.632Z" fill="#EB5757"/>
<rect x="87.9614" y="132.721" width="93.9393" height="11.8482" rx="5.9241" transform="rotate(-4.56338 87.9614 132.721)" fill="#E5E9F5"/>
<path d="M238.354 130.783L243.928 130.338L243.832 129.124L239.607 129.461L238.988 121.713L237.639 121.821L238.354 130.783ZM247.47 130.164C249.346 130.015 250.574 128.545 250.421 126.628C250.265 124.684 248.847 123.426 246.971 123.575C245.095 123.725 243.881 125.194 244.036 127.138C244.191 129.081 245.594 130.314 247.47 130.164ZM247.38 129.044C246.247 129.135 245.48 128.381 245.376 127.071L245.371 127.017C245.265 125.681 245.927 124.786 247.061 124.696C248.194 124.605 248.977 125.385 249.083 126.721L249.088 126.775C249.191 128.071 248.528 128.953 247.38 129.044ZM252.914 129.621L254.102 129.526L255.099 124.665L256.869 129.306L258.056 129.211L259.532 122.681L258.169 122.79L257.311 127.355L255.618 122.994L254.335 123.096L253.355 127.657L251.771 123.301L250.394 123.411L252.914 129.621Z" fill="#16C270"/>
<rect x="89.8652" y="156.581" width="80.3985" height="11.8482" rx="5.9241" transform="rotate(-4.56338 89.8652 156.581)" fill="#E5E9F5"/>
<path d="M209.616 157.089L210.938 156.983L210.325 149.303L213.597 156.771L214.785 156.676L216.946 148.693L217.566 156.454L218.889 156.349L218.173 147.386L215.96 147.563L214.07 154.859L211.195 147.943L208.9 148.126L209.616 157.089ZM223.081 156.123C224.958 155.973 226.185 154.503 226.032 152.586C225.877 150.643 224.459 149.384 222.583 149.534C220.707 149.683 219.493 151.152 219.648 153.096C219.803 155.04 221.205 156.272 223.081 156.123ZM222.992 155.002C221.858 155.093 221.092 154.339 220.987 153.03L220.983 152.976C220.876 151.639 221.538 150.744 222.672 150.654C223.806 150.563 224.588 151.343 224.695 152.679L224.699 152.733C224.803 154.029 224.139 154.911 222.992 155.002ZM229.838 155.61C230.729 155.539 231.427 155.09 231.819 154.379L231.893 155.311L233.189 155.207L232.463 146.11L231.167 146.213L231.461 149.898C230.948 149.26 230.199 148.898 229.322 148.968C227.662 149.101 226.552 150.521 226.714 152.545C226.879 154.611 228.205 155.741 229.838 155.61ZM230.085 154.45C228.992 154.537 228.217 153.852 228.109 152.488L228.101 152.394C227.991 151.017 228.657 150.163 229.736 150.076C230.857 149.987 231.599 150.784 231.7 152.039L231.708 152.147C231.81 153.416 231.179 154.362 230.085 154.45ZM237.397 154.98C239.03 154.85 239.872 153.995 240.225 152.975L239.014 152.61C238.821 153.25 238.39 153.814 237.31 153.9C236.231 153.986 235.489 153.38 235.321 152.293L240.113 151.911L240.074 151.425C239.914 149.414 238.693 148.248 236.817 148.397C235.008 148.542 233.808 150.01 233.965 151.98C234.121 153.937 235.439 155.136 237.397 154.98ZM235.214 151.296C235.266 150.246 235.918 149.556 236.876 149.479C237.875 149.4 238.529 149.932 238.67 151.021L235.214 151.296ZM241.395 154.552L242.718 154.447L242.457 151.18C242.354 149.884 242.619 149.293 243.753 149.202L244.36 149.154L244.257 147.858L244.054 147.874C242.894 147.967 242.433 148.493 242.303 149.25L242.21 148.076L240.887 148.181L241.395 154.552ZM247.278 154.246C248.196 154.172 248.963 153.744 249.335 152.954L249.411 153.912L250.694 153.81L250.601 152.826L250.35 149.681C250.221 148.061 249.191 147.41 247.558 147.54C245.871 147.675 244.806 148.629 244.88 150.063L246.216 149.957L246.209 149.876C246.206 149.156 246.685 148.683 247.63 148.608C248.601 148.53 249.025 148.904 249.067 149.43L249.075 149.525C248.968 149.886 248.312 150.007 247.25 150.322C245.858 150.746 244.817 151.155 244.931 152.586C245.019 153.679 245.915 154.355 247.278 154.246ZM247.44 153.214C246.738 153.27 246.319 152.95 246.277 152.424C246.223 151.749 246.799 151.472 247.512 151.225C248.121 151.027 248.788 150.865 249.158 150.564L249.22 151.347C249.211 152.597 248.372 153.14 247.44 153.214ZM253.885 153.555L255.019 153.465L254.926 152.304L254.17 152.364C253.765 152.397 253.588 152.221 253.556 151.816L253.278 148.333L254.655 148.223L254.564 147.09L253.187 147.199L253.025 145.161L251.806 146.06L251.905 147.302L250.893 147.383L250.983 148.516L251.996 148.436L252.286 152.08C252.381 153.091 252.72 153.594 253.885 153.555ZM258.645 153.284C260.278 153.154 261.12 152.299 261.474 151.279L260.263 150.914C260.069 151.554 259.639 152.118 258.559 152.204C257.479 152.29 256.738 151.684 256.57 150.597L261.362 150.215L261.323 149.729C261.162 147.718 259.942 146.552 258.065 146.701C256.257 146.846 255.056 148.314 255.214 150.284C255.37 152.241 256.688 153.44 258.645 153.284ZM256.463 149.6C256.515 148.55 257.166 147.86 258.125 147.783C259.124 147.704 259.777 148.236 259.919 149.325L256.463 149.6Z" fill="#FFA800"/>
<rect x="91.7695" y="180.44" width="69.3966" height="11.8482" rx="5.9241" transform="rotate(-4.56338 91.7695 180.44)" fill="#E5E9F5"/>
<path d="M240.049 178.672L241.399 178.564L241.083 174.609L245.619 174.247L245.934 178.202L247.284 178.094L246.569 169.132L245.219 169.239L245.523 173.046L240.987 173.408L240.684 169.601L239.334 169.709L240.049 178.672ZM248.104 170.585L249.535 170.471L249.423 169.067L247.992 169.181L248.104 170.585ZM248.735 177.979L250.071 177.872L249.563 171.501L248.226 171.608L248.735 177.979ZM254.43 180.73C256.563 180.56 257.782 179.661 257.676 178.338C257.573 177.042 256.494 176.463 254.469 176.624L253.146 176.73C252.553 176.777 252.145 176.606 252.12 176.296C252.099 176.026 252.351 175.788 252.839 175.776L252.934 175.769C253.21 175.828 253.497 175.846 253.794 175.822C255.414 175.693 256.406 174.677 256.29 173.232C256.272 173.003 256.214 172.79 256.143 172.579C256.402 172.245 256.805 172.186 257.152 172.281L257.042 170.904C256.367 170.958 255.965 171.37 255.781 171.955C255.283 171.33 254.453 170.975 253.481 171.052C251.942 171.175 250.877 172.292 250.987 173.669C251.046 174.412 251.448 175.018 252.036 175.406C251.32 175.626 250.935 176.078 250.979 176.631C251.021 177.158 251.459 177.544 252.12 177.654C251.413 177.982 251.007 178.517 251.058 179.151C251.152 180.339 252.338 180.897 254.43 180.73ZM253.753 174.793C252.889 174.862 252.279 174.368 252.216 173.585L252.212 173.531C252.149 172.748 252.712 172.132 253.535 172.067C254.385 171.999 255.038 172.517 255.1 173.3L255.105 173.354C255.168 174.151 254.643 174.722 253.753 174.793ZM254.391 179.728C253.028 179.836 252.257 179.545 252.21 178.951C252.159 178.316 252.859 177.894 253.723 177.825L254.519 177.761C255.855 177.655 256.445 177.893 256.496 178.527C256.546 179.162 255.741 179.62 254.391 179.728ZM258.357 177.21L259.653 177.107L259.41 174.057C259.293 172.599 259.781 171.731 260.766 171.653C261.63 171.584 262.091 172.077 262.17 173.075L262.474 176.882L263.811 176.775L263.501 172.901C263.366 171.201 262.457 170.363 261.08 170.473C260.094 170.552 259.499 171.088 259.245 171.991L258.927 168.009L257.631 168.113L258.357 177.21Z" fill="#EB5757"/>
<path d="M86.0187 37.337C88.6171 37.1296 90.4861 35.656 90.6864 32.6346L88.8979 32.7773C88.7234 34.8458 87.547 35.6359 85.9272 35.7652C83.8857 35.9281 82.3951 34.4849 82.1864 31.8697L82.1756 31.7347C81.9682 29.1364 83.2265 27.4568 85.2849 27.2925C86.8541 27.1673 88.0863 27.7142 88.6137 29.6417L90.4191 29.4977C89.6995 26.6515 87.6906 25.5214 85.1766 25.7221C82.1227 25.9658 80.163 28.4315 80.4431 31.9409C80.7219 35.4335 83.0323 37.5753 86.0187 37.337ZM92.2347 36.6371L93.8881 36.5051L93.5623 32.422C93.433 30.8023 93.7645 30.0627 95.1818 29.9495L95.941 29.8889L95.8117 28.2692L95.5586 28.2894C94.1076 28.4052 93.5318 29.0624 93.3697 30.0093L93.2525 28.5414L91.599 28.6733L92.2347 36.6371ZM100.698 36.0974C102.739 35.9345 103.792 34.8657 104.233 33.5909L102.72 33.1344C102.478 33.9348 101.94 34.6399 100.59 34.7476C99.2404 34.8554 98.3139 34.0973 98.1036 32.7387L104.093 32.2607L104.045 31.6533C103.844 29.1393 102.319 27.6819 99.9733 27.8691C97.7124 28.0496 96.2118 29.8843 96.4084 32.3477C96.6037 34.7942 98.2515 36.2927 100.698 36.0974ZM97.9702 31.4929C98.0353 30.1802 98.8493 29.3172 100.047 29.2216C101.296 29.1219 102.113 29.7869 102.29 31.1481L97.9702 31.4929ZM108.831 35.4822C109.945 35.3934 110.817 34.8313 111.306 33.9433L111.399 35.1075L113.019 34.9782L112.111 23.6062L110.491 23.7355L110.859 28.3417C110.218 27.5438 109.282 27.0922 108.185 27.1797C106.11 27.3453 104.724 29.12 104.926 31.6509C105.132 34.2324 106.79 35.6452 108.831 35.4822ZM109.14 34.0313C107.773 34.1404 106.805 33.2838 106.669 31.5797L106.659 31.4616C106.522 29.7406 107.354 28.6724 108.704 28.5647C110.104 28.4529 111.032 29.4485 111.158 31.0176L111.168 31.1526C111.295 32.7386 110.506 33.9222 109.14 34.0313ZM113.97 25.5973L115.758 25.4546L115.618 23.6999L113.83 23.8426L113.97 25.5973ZM114.759 34.8394L116.429 34.706L115.793 26.7423L114.123 26.8756L114.759 34.8394ZM120.666 34.3679L122.083 34.2548L121.967 32.8037L121.022 32.8792C120.516 32.9196 120.295 32.6995 120.254 32.1933L119.907 27.8403L121.628 27.7029L121.515 26.2856L119.794 26.423L119.59 23.8753L118.067 24.9987L118.191 26.5509L116.925 26.6519L117.039 28.0692L118.304 27.9682L118.668 32.5237C118.785 33.7878 119.209 34.4162 120.666 34.3679ZM130.091 33.7514C132.031 33.5966 133.147 32.4717 133.541 30.8102L131.916 30.4475C131.732 31.5489 131.228 32.2514 129.946 32.3537C128.562 32.4641 127.663 31.4152 127.538 29.8461L127.533 29.7786C127.406 28.1926 128.179 27.0272 129.563 26.9168C130.71 26.8252 131.335 27.4206 131.686 28.4114L133.232 27.7955C132.619 26.2823 131.357 25.3642 129.485 25.5137C127.156 25.6995 125.674 27.5498 125.864 29.9288C126.058 32.3584 127.712 33.9413 130.091 33.7514ZM134.86 33.2349L136.48 33.1056L136.176 29.2925C136.03 27.4703 136.64 26.3859 137.872 26.2876C138.951 26.2014 139.527 26.8176 139.627 28.0662L140.006 32.8242L141.677 32.6909L141.29 27.8485C141.121 25.7226 139.984 24.6756 138.263 24.813C137.032 24.9113 136.287 25.582 135.97 26.711L135.572 21.7337L133.953 21.863L134.86 33.2349ZM146.817 32.4165C148.858 32.2535 149.911 31.1847 150.352 29.9099L148.839 29.4534C148.597 30.2538 148.059 30.9589 146.709 31.0667C145.359 31.1744 144.433 30.4163 144.222 29.0578L150.212 28.5797L150.164 27.9723C149.963 25.4583 148.437 24.001 146.092 24.1882C143.831 24.3686 142.331 26.2033 142.527 28.6667C142.723 31.1132 144.37 32.6117 146.817 32.4165ZM144.089 27.8119C144.154 26.4993 144.968 25.6362 146.166 25.5406C147.415 25.441 148.232 26.1059 148.408 27.4672L144.089 27.8119ZM155.301 31.7393C157.241 31.5845 158.357 30.4596 158.751 28.7981L157.126 28.4354C156.942 29.5368 156.438 30.2393 155.155 30.3416C153.772 30.452 152.873 29.4031 152.748 27.834L152.742 27.7665C152.616 26.1805 153.389 25.0151 154.772 24.9047C155.92 24.8131 156.544 25.4085 156.895 26.3993L158.442 25.7834C157.829 24.2702 156.567 23.3521 154.694 23.5016C152.366 23.6874 150.883 25.5377 151.073 27.9167C151.267 30.3463 152.922 31.9292 155.301 31.7393ZM160.07 31.2228L161.69 31.0935L161.497 28.6808L162.633 27.1639L165.216 30.8121L167.038 30.6667L163.638 25.929L166.217 22.7177L164.294 22.8712L161.35 26.8417L160.782 19.7216L159.162 19.8509L160.07 31.2228ZM174.228 30.2626C175.342 30.1737 176.214 29.6117 176.703 28.7237L176.796 29.8879L178.416 29.7586L177.508 18.3866L175.888 18.5159L176.256 23.122C175.615 22.3242 174.679 21.8725 173.582 21.9601C171.507 22.1257 170.12 23.9004 170.322 26.4313C170.528 29.0127 172.186 30.4256 174.228 30.2626ZM174.537 28.8117C173.17 28.9207 172.202 28.0641 172.066 26.36L172.056 26.2419C171.919 24.521 172.751 23.4528 174.1 23.345C175.501 23.2333 176.429 24.2289 176.554 25.798L176.565 25.933C176.692 27.519 175.903 28.7026 174.537 28.8117ZM183.676 29.4746C185.717 29.3116 186.77 28.2428 187.211 26.968L185.697 26.5115C185.456 27.3119 184.918 28.0171 183.568 28.1248C182.218 28.2325 181.292 27.4745 181.081 26.1159L187.071 25.6378L187.023 25.0304C186.822 22.5164 185.296 21.0591 182.951 21.2463C180.69 21.4267 179.189 23.2615 179.386 25.7248C179.581 28.1713 181.229 29.6699 183.676 29.4746ZM180.948 24.87C181.013 23.5574 181.827 22.6944 183.025 22.5988C184.274 22.4991 185.091 23.164 185.267 24.5253L180.948 24.87ZM190.956 28.7577L192.373 28.6445L192.258 27.1935L191.313 27.2689C190.807 27.3093 190.585 27.0893 190.545 26.5831L190.197 22.23L191.918 22.0927L191.805 20.6754L190.084 20.8128L189.881 18.265L188.357 19.3884L188.481 20.9407L187.216 21.0417L187.329 22.459L188.594 22.358L188.958 26.9135C189.076 28.1776 189.5 28.806 190.956 28.7577ZM195.995 28.5593C197.142 28.4677 198.101 27.9327 198.565 26.9448L198.661 28.1427L200.264 28.0148L200.149 26.7844L199.835 22.8532C199.673 20.8285 198.386 20.0143 196.344 20.1773C194.235 20.3456 192.904 21.5386 192.996 23.3311L194.667 23.1978L194.659 23.0965C194.655 22.1969 195.253 21.6058 196.434 21.5115C197.649 21.4146 198.178 21.8817 198.231 22.5397L198.24 22.6578C198.107 23.11 197.287 23.2603 195.96 23.6549C194.219 24.1844 192.918 24.6957 193.061 26.4841C193.17 27.8508 194.29 28.6953 195.995 28.5593ZM196.197 27.2696C195.32 27.3396 194.796 26.94 194.743 26.282C194.676 25.4384 195.395 25.0923 196.287 24.7834C197.049 24.5358 197.882 24.3335 198.344 23.957L198.422 24.9356C198.411 26.4986 197.361 27.1767 196.197 27.2696ZM201.116 18.6418L202.905 18.499L202.765 16.7443L200.976 16.8871L201.116 18.6418ZM201.905 27.8838L203.575 27.7505L202.94 19.7867L201.269 19.92L201.905 27.8838ZM205.349 27.6089L207.019 27.4756L206.111 16.1036L204.441 16.237L205.349 27.6089ZM211.797 27.315C213.602 27.1709 214.815 25.9874 214.698 24.5195C214.572 22.9504 213.029 22.5472 211.555 22.3762C210.081 22.2052 209.532 22.1301 209.479 21.4721C209.431 20.8647 209.955 20.4153 210.816 20.3467C211.643 20.2807 212.398 20.594 212.909 21.2494L214.286 20.4263C213.428 19.459 212.21 18.877 210.708 18.9969C209.021 19.1315 207.79 20.2995 207.901 21.6999C208.024 23.2353 209.364 23.6378 210.839 23.8257C212.109 23.996 213.049 24.0738 213.104 24.7656C213.157 25.4236 212.649 25.8716 211.755 25.943C210.911 26.0103 210.056 25.722 209.51 25.0524L208.137 25.9261C208.943 26.8805 210.261 27.4376 211.797 27.315Z" fill="#1F325D"/>
<path d="M282.12 161.381C277.461 161.753 273.986 165.831 274.358 170.491C274.73 175.15 278.808 178.625 283.467 178.253C288.126 177.882 291.602 173.803 291.23 169.144C290.858 164.485 286.78 161.009 282.12 161.381Z" fill="#EB5757"/>
<path d="M282.287 174.103C282.324 174.569 282.732 174.916 283.198 174.879C283.663 174.842 284.011 174.434 283.974 173.968C283.937 173.502 283.529 173.155 283.063 173.192C282.597 173.229 282.249 173.637 282.287 174.103Z" fill="white"/>
<path d="M282.904 171.192L282.423 165.169" stroke="white" stroke-width="1.26945" stroke-miterlimit="10"/>
<path d="M276.464 90.5161C271.805 90.8879 268.329 94.9664 268.701 99.6256C269.073 104.285 273.151 107.76 277.81 107.388C282.47 107.017 285.945 102.938 285.573 98.2789C285.201 93.6197 281.123 90.1442 276.464 90.5161Z" fill="#EB5757"/>
<path d="M276.63 103.238C276.667 103.704 277.075 104.051 277.541 104.014C278.007 103.977 278.354 103.569 278.317 103.103C278.28 102.637 277.872 102.29 277.406 102.327C276.94 102.364 276.593 102.772 276.63 103.238Z" fill="white"/>
<path d="M277.246 100.327L276.765 94.3037" stroke="white" stroke-width="1.26945" stroke-miterlimit="10"/>
</g>
<defs>
<clipPath id="clip0_650_27169">
<rect width="371" height="208.82" fill="white"/>
</clipPath>
</defs>
</svg>
