<svg width="283" height="293" viewBox="0 0 283 293" fill="none" xmlns="http://www.w3.org/2000/svg">
<g filter="url(#filter0_b_2115_27930)">
<rect width="282.532" height="292.601" rx="12.0291" fill="white" fill-opacity="0.96"/>
<path d="M30.5274 39.727C32.9931 39.727 34.456 38.3462 34.456 36.3573C34.456 34.2204 32.615 33.6615 30.8233 33.3163C29.2617 33.0205 27.8317 32.7903 27.8317 31.6233C27.8317 30.5713 28.67 29.8809 30.0179 29.8809C31.5137 29.8809 32.4177 30.4891 32.6479 32.0835H34.4067C34.0779 29.6343 32.4835 28.4344 30.0343 28.4344C27.7988 28.4344 26.2044 29.8151 26.2044 31.7055C26.2044 33.8095 28.1276 34.4012 29.9357 34.7628C31.5137 35.0587 32.8122 35.3546 32.8122 36.4395C32.8122 37.5901 31.9575 38.2805 30.4781 38.2805C28.8015 38.2805 27.9467 37.6723 27.618 36.0614H25.8427C26.2701 38.4284 27.7495 39.727 30.5274 39.727ZM39.1951 39.6776C41.1841 39.6776 42.2854 38.7243 42.8114 37.5243L41.3813 36.9655C41.0854 37.7216 40.5101 38.3626 39.1951 38.3626C37.8801 38.3626 37.0418 37.5572 36.9432 36.2258H42.7785V35.634C42.7785 33.1848 41.4142 31.6561 39.1294 31.6561C36.9268 31.6561 35.3323 33.3163 35.3323 35.7162C35.3323 38.0996 36.8117 39.6776 39.1951 39.6776ZM36.9103 35.0094C37.0747 33.7437 37.9294 32.9711 39.0965 32.9711C40.3129 32.9711 41.0526 33.678 41.1183 35.0094H36.9103ZM44.0751 39.5461H45.686V35.8313C45.686 34.056 46.3764 33.0533 47.5763 33.0533C48.6283 33.0533 49.1379 33.6944 49.1379 34.9108V39.5461H50.7652V34.8286C50.7652 32.7575 49.7461 31.6233 48.0695 31.6233C46.886 31.6233 46.097 32.215 45.686 33.2506V31.7876H44.0751V39.5461ZM55.383 39.7105C56.4679 39.7105 57.3555 39.2338 57.8979 38.412V39.5461H59.4759V28.4673H57.8979V32.9547C57.3391 32.1328 56.4679 31.6233 55.3994 31.6233C53.3776 31.6233 51.8982 33.2341 51.8982 35.6998C51.8982 38.2147 53.3941 39.7105 55.383 39.7105ZM55.7939 38.3298C54.4625 38.3298 53.5913 37.4257 53.5913 35.7655V35.6505C53.5913 33.9738 54.4789 33.004 55.7939 33.004C57.1582 33.004 57.9801 34.0396 57.9801 35.5683V35.6998C57.9801 37.2449 57.1254 38.3298 55.7939 38.3298ZM64.3159 30.5384H66.0582V28.8289H64.3159V30.5384ZM64.3652 39.5461H65.9925V31.7876H64.3652V39.5461ZM67.7201 39.5461H69.331V35.8313C69.331 34.056 70.0214 33.0533 71.2213 33.0533C72.2733 33.0533 72.7829 33.6944 72.7829 34.9108V39.5461H74.4102V34.8286C74.4102 32.7575 73.391 31.6233 71.7144 31.6233C70.5309 31.6233 69.7419 32.215 69.331 33.2506V31.7876H67.7201V39.5461ZM77.8059 39.5626H79.3017L82.1947 31.7876H80.5017L78.5456 37.623L76.4909 31.7876H74.8143L77.8059 39.5626ZM86.0837 39.6776C88.3686 39.6776 89.9959 38.0175 89.9959 35.6833C89.9959 33.3163 88.4014 31.6561 86.1166 31.6561C83.8318 31.6561 82.2209 33.3163 82.2209 35.6833C82.2209 38.0503 83.7989 39.6776 86.0837 39.6776ZM86.0837 38.3133C84.703 38.3133 83.8482 37.3271 83.8482 35.7326V35.6669C83.8482 34.0396 84.7359 33.0205 86.1166 33.0205C87.4974 33.0205 88.3686 34.0396 88.3686 35.6669V35.7326C88.3686 37.3106 87.4809 38.3133 86.0837 38.3133ZM91.2194 30.5384H92.9618V28.8289H91.2194V30.5384ZM91.2687 39.5461H92.8961V31.7876H91.2687V39.5461ZM97.9769 39.6776C99.8672 39.6776 101.034 38.675 101.544 37.097L99.9987 36.6203C99.7357 37.6723 99.1933 38.3133 97.944 38.3133C96.5962 38.3133 95.8072 37.2285 95.8072 35.6998V35.634C95.8072 34.0889 96.6455 33.0205 97.9934 33.0205C99.1111 33.0205 99.67 33.6451 99.933 34.6313L101.478 34.1546C101.001 32.6424 99.8508 31.6561 98.0262 31.6561C95.7579 31.6561 94.1799 33.3328 94.1799 35.6505C94.1799 38.0175 95.6592 39.6776 97.9769 39.6776ZM106.053 39.6776C108.042 39.6776 109.143 38.7243 109.669 37.5243L108.239 36.9655C107.943 37.7216 107.368 38.3626 106.053 38.3626C104.738 38.3626 103.899 37.5572 103.801 36.2258H109.636V35.634C109.636 33.1848 108.272 31.6561 105.987 31.6561C103.784 31.6561 102.19 33.3163 102.19 35.7162C102.19 38.0996 103.669 39.6776 106.053 39.6776ZM103.768 35.0094C103.932 33.7437 104.787 32.9711 105.954 32.9711C107.17 32.9711 107.91 33.678 107.976 35.0094H103.768Z" fill="#1F325D"/>
<path fill-rule="evenodd" clip-rule="evenodd" d="M121.859 33.0557H125.015L120.281 40.6689V33.817H117.125L121.859 26.2039V33.0557Z" fill="#0F2454"/>
<rect x="25.5469" y="54.6962" width="231.44" height="0.45945" fill="#9FA3AD"/>
<path d="M29.3422 73.1819C31.0922 73.1819 32.4217 72.2956 32.7171 70.2842H31.5126C31.2854 71.6592 30.4558 72.1251 29.365 72.1251C27.99 72.1251 27.0696 71.0797 27.0696 69.3184V69.2275C27.0696 67.4775 28.0014 66.4207 29.3877 66.4207C30.4445 66.4207 31.2399 66.8525 31.4899 68.1707H32.7058C32.3762 66.2275 31.0922 65.3639 29.399 65.3639C27.3423 65.3639 25.8991 66.9093 25.8991 69.2729C25.8991 71.6251 27.3309 73.1819 29.3422 73.1819ZM33.5395 73.0455H34.6303V70.4774C34.6303 69.2502 35.0962 68.557 35.9258 68.557C36.653 68.557 37.0053 69.0002 37.0053 69.8411V73.0455H38.1303V69.7843C38.1303 68.3525 37.4257 67.5911 36.2667 67.5911C35.4371 67.5911 34.9031 68.0002 34.6303 68.7388V65.3866H33.5395V73.0455ZM40.7893 73.1819C41.562 73.1819 42.2324 72.8751 42.596 72.2387V73.0455H43.6756L43.6642 72.216V69.5684C43.6642 68.2048 42.846 67.5911 41.4711 67.5911C40.0507 67.5911 39.0961 68.3184 39.062 69.5229H40.187V69.4547C40.2325 68.8525 40.6643 68.4888 41.4597 68.4888C42.2779 68.4888 42.6074 68.8297 42.6074 69.2729V69.3524C42.4938 69.6479 41.937 69.7047 41.0279 69.8979C39.8348 70.1592 38.9371 70.432 38.9371 71.6365C38.9371 72.5569 39.6416 73.1819 40.7893 73.1819ZM40.9938 72.3296C40.4029 72.3296 40.0734 72.0342 40.0734 71.591C40.0734 71.0229 40.5734 70.8297 41.187 70.6706C41.7097 70.5456 42.2779 70.4547 42.6074 70.2274V70.8865C42.5165 71.9319 41.7779 72.3296 40.9938 72.3296ZM44.7807 73.0455H45.8943V70.2956C45.8943 69.2047 46.1557 68.7275 47.1102 68.7275H47.6216V67.6366H47.4511C46.4739 67.6366 46.0534 68.0457 45.8943 68.6706V67.682H44.7807V73.0455ZM50.3378 75.7273C52.1333 75.7273 53.2128 75.0568 53.2128 73.9432C53.2128 72.8524 52.3492 72.2956 50.6447 72.2956H49.5311C49.0311 72.2956 48.7015 72.1251 48.7015 71.8637C48.7015 71.6365 48.9288 71.4547 49.3379 71.4774H49.4174C49.6447 71.5456 49.8833 71.5797 50.1333 71.5797C51.4969 71.5797 52.3946 70.7956 52.3946 69.5797C52.3946 69.3865 52.3605 69.2047 52.3151 69.0229C52.5537 68.7616 52.8946 68.7388 53.1787 68.8411V67.682C52.6105 67.682 52.2469 68.0002 52.0537 68.4775C51.6787 67.9207 51.0083 67.5684 50.1901 67.5684C48.8947 67.5684 47.9288 68.432 47.9288 69.5911C47.9288 70.2161 48.2243 70.7501 48.6902 71.1138C48.0765 71.2501 47.7243 71.6024 47.7243 72.0683C47.7243 72.5115 48.0652 72.8637 48.6106 73.0001C47.997 73.2273 47.622 73.6478 47.622 74.1819C47.622 75.1818 48.5765 75.7273 50.3378 75.7273ZM50.1674 70.716C49.4401 70.716 48.9629 70.2615 48.9629 69.6024V69.557C48.9629 68.8979 49.4742 68.4207 50.1674 68.4207C50.8833 68.4207 51.3946 68.8979 51.3946 69.557V69.6024C51.3946 70.2729 50.9174 70.716 50.1674 70.716ZM50.3719 74.8864C49.2242 74.8864 48.5993 74.5909 48.5993 74.091C48.5993 73.5569 49.2129 73.2501 49.9401 73.2501H50.6106C51.7355 73.2501 52.2128 73.4887 52.2128 74.0228C52.2128 74.5569 51.5083 74.8864 50.3719 74.8864ZM56.0885 73.1364C57.4635 73.1364 58.2248 72.4774 58.5884 71.6478L57.5998 71.2615C57.3953 71.7842 56.9976 72.2274 56.0885 72.2274C55.1794 72.2274 54.5999 71.6706 54.5317 70.7501H58.5657V70.3411C58.5657 68.6479 57.6225 67.5911 56.043 67.5911C54.5204 67.5911 53.4181 68.7388 53.4181 70.3979C53.4181 72.0456 54.4408 73.1364 56.0885 73.1364ZM54.509 69.9093C54.6226 69.0343 55.2135 68.5002 56.0203 68.5002C56.8612 68.5002 57.3725 68.9888 57.418 69.9093H54.509ZM64.0339 73.1364C65.6135 73.1364 66.7384 71.9887 66.7384 70.3751C66.7384 68.7388 65.6362 67.5911 64.0567 67.5911C62.4772 67.5911 61.3636 68.7388 61.3636 70.3751C61.3636 72.0115 62.4544 73.1364 64.0339 73.1364ZM64.0339 72.1933C63.0794 72.1933 62.4885 71.5115 62.4885 70.4092V70.3638C62.4885 69.2388 63.1022 68.5343 64.0567 68.5343C65.0112 68.5343 65.6135 69.2388 65.6135 70.3638V70.4092C65.6135 71.5001 64.9998 72.1933 64.0339 72.1933ZM67.6184 75.1591H68.7206V72.2728C69.0956 72.8183 69.6979 73.1592 70.4365 73.1592C71.8228 73.1592 72.8569 72.0683 72.8569 70.3411V70.3297C72.8569 68.6138 71.8228 67.5684 70.4478 67.5684C69.6979 67.5684 69.0842 67.9093 68.7092 68.4775V67.682H67.6184V75.1591ZM70.1638 72.2046C69.2206 72.2046 68.6524 71.4888 68.6524 70.432V70.3411C68.6524 69.2729 69.232 68.5229 70.1638 68.5229C71.0842 68.5229 71.6864 69.1479 71.6864 70.2956V70.3751C71.6864 71.5342 71.0728 72.2046 70.1638 72.2046ZM75.1921 73.0455H76.1466V72.0683H75.5103C75.1694 72.0683 75.033 71.9092 75.033 71.5683V68.6366H76.1921V67.682H75.033V65.9662L73.9535 66.6366V67.682H73.1013V68.6366H73.9535V71.7047C73.9649 72.5569 74.2149 73.0001 75.1921 73.0455ZM77.0389 66.8184H78.2434V65.6366H77.0389V66.8184ZM77.073 73.0455H78.198V67.682H77.073V73.0455ZM81.7559 73.1364C83.3354 73.1364 84.4603 71.9887 84.4603 70.3751C84.4603 68.7388 83.3581 67.5911 81.7786 67.5911C80.1991 67.5911 79.0855 68.7388 79.0855 70.3751C79.0855 72.0115 80.1764 73.1364 81.7559 73.1364ZM81.7559 72.1933C80.8013 72.1933 80.2104 71.5115 80.2104 70.4092V70.3638C80.2104 69.2388 80.8241 68.5343 81.7786 68.5343C82.7331 68.5343 83.3354 69.2388 83.3354 70.3638V70.4092C83.3354 71.5001 82.7217 72.1933 81.7559 72.1933ZM85.3403 73.0455H86.4539V70.4774C86.4539 69.2502 86.9311 68.557 87.7607 68.557C88.4879 68.557 88.8402 69.0002 88.8402 69.8411V73.0455H89.9652V69.7843C89.9652 68.3525 89.2606 67.5684 88.1016 67.5684C87.2834 67.5684 86.738 67.9775 86.4539 68.6934V67.682H85.3403V73.0455ZM93.0668 73.1933C94.2827 73.1933 95.1577 72.466 95.1577 71.4774C95.1577 70.4206 94.1463 70.0683 93.1691 69.8752C92.1918 69.682 91.8282 69.6024 91.8282 69.1593C91.8282 68.7502 92.2032 68.4775 92.7827 68.4775C93.3395 68.4775 93.8282 68.7275 94.135 69.1934L95.1008 68.7161C94.5781 68.0229 93.7941 67.5684 92.7827 67.5684C91.6464 67.5684 90.7601 68.2843 90.7601 69.2275C90.7601 70.2615 91.635 70.6024 92.6123 70.807C93.4532 70.9888 94.0781 71.091 94.0781 71.5569C94.0781 72.0001 93.7145 72.2728 93.1123 72.2728C92.5441 72.2728 91.9873 72.0342 91.6578 71.5569L90.6919 72.0683C91.1805 72.7501 92.0328 73.1933 93.0668 73.1933Z" fill="#C8C8C8"/>
<rect x="25.5469" y="82.9355" width="21.04" height="10.52" rx="5.26" fill="#16C270"/>
<circle cx="41.3259" cy="88.1957" r="3.945" fill="white"/>
<path d="M55.1015 92.9355H56.2265V90.0265H57.2379C58.8628 90.0265 59.4651 91.072 59.6696 92.6969L59.681 92.9355H60.8855L60.8514 92.6515C60.6355 90.8674 60.09 89.8902 58.8742 89.5379C60.09 89.3334 60.715 88.5038 60.715 87.4471C60.715 86.1857 59.8287 85.3903 57.8287 85.3903H55.1015V92.9355ZM56.2265 89.0834V86.3562H57.806C59.0446 86.3562 59.5673 86.7425 59.5673 87.5607C59.5673 88.2993 59.0673 89.0834 57.6583 89.0834H56.2265ZM63.9339 93.0265C65.3088 93.0265 66.0702 92.3674 66.4338 91.5379L65.4452 91.1515C65.2407 91.6742 64.8429 92.1174 63.9339 92.1174C63.0248 92.1174 62.4453 91.5606 62.3771 90.6402H66.4111V90.2311C66.4111 88.5379 65.4679 87.4811 63.8884 87.4811C62.3657 87.4811 61.2635 88.6288 61.2635 90.2879C61.2635 91.9356 62.2862 93.0265 63.9339 93.0265ZM62.3544 89.7993C62.468 88.9243 63.0589 88.3902 63.8657 88.3902C64.7066 88.3902 65.2179 88.8788 65.2634 89.7993H62.3544ZM69.6478 93.0265C70.9545 93.0265 71.7613 92.3333 72.1136 91.2424L71.0455 90.9129C70.8636 91.6401 70.4887 92.0833 69.625 92.0833C68.6932 92.0833 68.1478 91.3333 68.1478 90.2765V90.2311C68.1478 89.1629 68.7273 88.4243 69.6591 88.4243C70.4318 88.4243 70.8182 88.8561 71 89.5379L72.0682 89.2084C71.7386 88.1629 70.9432 87.4811 69.6819 87.4811C68.1137 87.4811 67.0228 88.6402 67.0228 90.2424C67.0228 91.8788 68.0455 93.0265 69.6478 93.0265ZM75.2306 93.0265C76.6056 93.0265 77.3669 92.3674 77.7306 91.5379L76.7419 91.1515C76.5374 91.6742 76.1397 92.1174 75.2306 92.1174C74.3216 92.1174 73.742 91.5606 73.6738 90.6402H77.7078V90.2311C77.7078 88.5379 76.7647 87.4811 75.1852 87.4811C73.6625 87.4811 72.5602 88.6288 72.5602 90.2879C72.5602 91.9356 73.5829 93.0265 75.2306 93.0265ZM73.6511 89.7993C73.7648 88.9243 74.3556 88.3902 75.1624 88.3902C76.0033 88.3902 76.5147 88.8788 76.5601 89.7993H73.6511ZM78.5701 86.7084H79.7746V85.5267H78.5701V86.7084ZM78.6042 92.9355H79.7292V87.5721H78.6042V92.9355ZM82.4139 92.9469H83.448L85.4479 87.5721H84.2775L82.9253 91.606L81.5049 87.5721H80.3458L82.4139 92.9469ZM88.1364 93.0265C89.5114 93.0265 90.2727 92.3674 90.6364 91.5379L89.6478 91.1515C89.4432 91.6742 89.0455 92.1174 88.1364 92.1174C87.2274 92.1174 86.6478 91.5606 86.5797 90.6402H90.6136V90.2311C90.6136 88.5379 89.6705 87.4811 88.091 87.4811C86.5683 87.4811 85.4661 88.6288 85.4661 90.2879C85.4661 91.9356 86.4888 93.0265 88.1364 93.0265ZM86.5569 89.7993C86.6706 88.9243 87.2615 88.3902 88.0683 88.3902C88.9091 88.3902 89.4205 88.8788 89.4659 89.7993H86.5569ZM95.2865 93.0719C96.0592 93.0719 96.7296 92.7651 97.0932 92.1288V92.9355H98.1727L98.1614 92.106V89.4584C98.1614 88.0948 97.3432 87.4811 95.9683 87.4811C94.5478 87.4811 93.5933 88.2084 93.5592 89.4129H94.6842V89.3447C94.7297 88.7425 95.1615 88.3789 95.9569 88.3789C96.7751 88.3789 97.1046 88.7198 97.1046 89.1629V89.2425C96.991 89.5379 96.4342 89.5947 95.5251 89.7879C94.3319 90.0493 93.4342 90.322 93.4342 91.5265C93.4342 92.4469 94.1388 93.0719 95.2865 93.0719ZM95.491 92.2197C94.9001 92.2197 94.5706 91.9242 94.5706 91.481C94.5706 90.9129 95.0706 90.7197 95.6842 90.5606C96.2069 90.4356 96.7751 90.3447 97.1046 90.1174V90.7765C97.0137 91.8219 96.2751 92.2197 95.491 92.2197ZM99.2779 92.9355H100.392V90.3674C100.392 89.1402 100.869 88.447 101.698 88.447C102.426 88.447 102.778 88.8902 102.778 89.7311V92.9355H103.903V89.6743C103.903 88.2425 103.198 87.4584 102.039 87.4584C101.221 87.4584 100.676 87.8675 100.392 88.5834V87.5721H99.2779V92.9355ZM108.769 93.0719C109.542 93.0719 110.212 92.7651 110.576 92.1288V92.9355H111.656L111.644 92.106V89.4584C111.644 88.0948 110.826 87.4811 109.451 87.4811C108.031 87.4811 107.076 88.2084 107.042 89.4129H108.167V89.3447C108.213 88.7425 108.644 88.3789 109.44 88.3789C110.258 88.3789 110.587 88.7198 110.587 89.1629V89.2425C110.474 89.5379 109.917 89.5947 109.008 89.7879C107.815 90.0493 106.917 90.322 106.917 91.5265C106.917 92.4469 107.622 93.0719 108.769 93.0719ZM108.974 92.2197C108.383 92.2197 108.053 91.9242 108.053 91.481C108.053 90.9129 108.553 90.7197 109.167 90.5606C109.69 90.4356 110.258 90.3447 110.587 90.1174V90.7765C110.497 91.8219 109.758 92.2197 108.974 92.2197ZM114.863 93.0492C115.613 93.0492 116.227 92.7196 116.602 92.1515V92.9355H117.692V85.2767H116.602V88.3789C116.215 87.8107 115.613 87.4584 114.874 87.4584C113.477 87.4584 112.454 88.572 112.454 90.2765C112.454 92.0151 113.488 93.0492 114.863 93.0492ZM115.147 92.0947C114.227 92.0947 113.624 91.4697 113.624 90.322V90.2424C113.624 89.0834 114.238 88.4129 115.147 88.4129C116.09 88.4129 116.658 89.1288 116.658 90.1856V90.2765C116.658 91.3447 116.068 92.0947 115.147 92.0947ZM120.366 92.9469H121.4L123.4 87.5721H122.229L120.877 91.606L119.457 87.5721H118.298L120.366 92.9469ZM125.282 93.0719C126.054 93.0719 126.725 92.7651 127.088 92.1288V92.9355H128.168L128.157 92.106V89.4584C128.157 88.0948 127.338 87.4811 125.963 87.4811C124.543 87.4811 123.589 88.2084 123.554 89.4129H124.679V89.3447C124.725 88.7425 125.157 88.3789 125.952 88.3789C126.77 88.3789 127.1 88.7198 127.1 89.1629V89.2425C126.986 89.5379 126.429 89.5947 125.52 89.7879C124.327 90.0493 123.429 90.322 123.429 91.5265C123.429 92.4469 124.134 93.0719 125.282 93.0719ZM125.486 92.2197C124.895 92.2197 124.566 91.9242 124.566 91.481C124.566 90.9129 125.066 90.7197 125.679 90.5606C126.202 90.4356 126.77 90.3447 127.1 90.1174V90.7765C127.009 91.8219 126.27 92.2197 125.486 92.2197ZM129.273 92.9355H130.387V90.3674C130.387 89.1402 130.864 88.447 131.694 88.447C132.421 88.447 132.773 88.8902 132.773 89.7311V92.9355H133.898V89.6743C133.898 88.2425 133.193 87.4584 132.034 87.4584C131.216 87.4584 130.671 87.8675 130.387 88.5834V87.5721H129.273V92.9355ZM137.306 93.0265C138.613 93.0265 139.42 92.3333 139.772 91.2424L138.704 90.9129C138.522 91.6401 138.147 92.0833 137.283 92.0833C136.352 92.0833 135.806 91.3333 135.806 90.2765V90.2311C135.806 89.1629 136.386 88.4243 137.318 88.4243C138.09 88.4243 138.477 88.8561 138.658 89.5379L139.727 89.2084C139.397 88.1629 138.602 87.4811 137.34 87.4811C135.772 87.4811 134.681 88.6402 134.681 90.2424C134.681 91.8788 135.704 93.0265 137.306 93.0265ZM142.889 93.0265C144.264 93.0265 145.025 92.3674 145.389 91.5379L144.4 91.1515C144.196 91.6742 143.798 92.1174 142.889 92.1174C141.98 92.1174 141.4 91.5606 141.332 90.6402H145.366V90.2311C145.366 88.5379 144.423 87.4811 142.844 87.4811C141.321 87.4811 140.219 88.6288 140.219 90.2879C140.219 91.9356 141.241 93.0265 142.889 93.0265ZM141.31 89.7993C141.423 88.9243 142.014 88.3902 142.821 88.3902C143.662 88.3902 144.173 88.8788 144.219 89.7993H141.31ZM150.835 93.0265C152.414 93.0265 153.539 91.8788 153.539 90.2652C153.539 88.6288 152.437 87.4811 150.857 87.4811C149.278 87.4811 148.164 88.6288 148.164 90.2652C148.164 91.9015 149.255 93.0265 150.835 93.0265ZM150.835 92.0833C149.88 92.0833 149.289 91.4015 149.289 90.2993V90.2538C149.289 89.1288 149.903 88.4243 150.857 88.4243C151.812 88.4243 152.414 89.1288 152.414 90.2538V90.2993C152.414 91.3901 151.8 92.0833 150.835 92.0833ZM154.641 92.9355H155.743V88.5266H156.834V87.5721H155.743V87.1062C155.743 86.3448 155.834 86.288 156.55 86.288H156.959V85.2653H156.096C154.993 85.3335 154.641 85.788 154.641 87.0266V87.5721H153.744V88.5266H154.641V92.9355ZM161.748 93.5946H162.395V92.6515C163.759 92.5719 164.838 91.8333 164.838 90.5833C164.838 89.1629 163.395 88.8561 162.293 88.6061C161.1 88.3561 160.373 88.1402 160.373 87.4698C160.373 86.8675 160.986 86.5266 161.907 86.5266C162.725 86.5266 163.35 86.8562 164.032 87.4698L164.736 86.7312C164.054 86.0494 163.248 85.6857 162.418 85.5948V84.663H161.77V85.5721C160.418 85.6289 159.327 86.4357 159.327 87.5834C159.327 88.9357 160.702 89.2879 161.804 89.5493C162.975 89.8334 163.713 89.947 163.713 90.6856C163.713 91.3106 163.111 91.6629 162.225 91.6742C161.304 91.6969 160.532 91.322 159.804 90.6288L159.111 91.3788C159.793 92.0833 160.657 92.5492 161.748 92.6401V93.5946ZM168.251 93.0492C170.194 93.0492 171.331 91.6969 171.331 89.1288C171.331 86.663 170.228 85.2426 168.285 85.2426C166.694 85.2426 165.558 86.4016 165.558 87.8902C165.558 89.3447 166.637 90.3333 168.228 90.3333C169.16 90.3333 169.853 89.8902 170.206 89.1175V89.5493C170.194 91.2083 169.535 92.0606 168.308 92.0606C167.342 92.0606 166.865 91.731 166.785 90.9924H165.649C165.728 92.0833 166.535 93.0492 168.251 93.0492ZM168.342 89.4016C167.342 89.4016 166.694 88.7652 166.694 87.8675V87.8334C166.694 86.9471 167.331 86.2312 168.319 86.2312C169.308 86.2312 170.024 86.9016 170.024 87.7766V87.8107C170.024 88.6516 169.319 89.4016 168.342 89.4016ZM175.271 93.0719C177.248 93.0719 178.362 91.6629 178.362 89.1629C178.362 86.6744 177.248 85.2539 175.294 85.2539C173.317 85.2539 172.203 86.663 172.203 89.1629C172.192 91.7083 173.294 93.0719 175.271 93.0719ZM175.294 92.0606C174.032 92.0606 173.385 91.1174 173.385 89.2652V89.0607C173.385 87.2084 174.021 86.2653 175.271 86.2653C176.532 86.2653 177.169 87.2198 177.169 89.0607V89.2652C177.169 91.1174 176.544 92.0606 175.294 92.0606ZM182.218 93.0719C184.195 93.0719 185.309 91.6629 185.309 89.1629C185.309 86.6744 184.195 85.2539 182.24 85.2539C180.263 85.2539 179.15 86.663 179.15 89.1629C179.138 91.7083 180.241 93.0719 182.218 93.0719ZM182.24 92.0606C180.979 92.0606 180.331 91.1174 180.331 89.2652V89.0607C180.331 87.2084 180.968 86.2653 182.218 86.2653C183.479 86.2653 184.115 87.2198 184.115 89.0607V89.2652C184.115 91.1174 183.49 92.0606 182.24 92.0606ZM186.233 92.9355H187.608V91.5151H186.233V92.9355ZM191.595 93.0719C193.572 93.0719 194.686 91.6629 194.686 89.1629C194.686 86.6744 193.572 85.2539 191.617 85.2539C189.64 85.2539 188.527 86.663 188.527 89.1629C188.515 91.7083 189.617 93.0719 191.595 93.0719ZM191.617 92.0606C190.356 92.0606 189.708 91.1174 189.708 89.2652V89.0607C189.708 87.2084 190.345 86.2653 191.595 86.2653C192.856 86.2653 193.492 87.2198 193.492 89.0607V89.2652C193.492 91.1174 192.867 92.0606 191.617 92.0606ZM198.541 93.0719C200.519 93.0719 201.632 91.6629 201.632 89.1629C201.632 86.6744 200.519 85.2539 198.564 85.2539C196.587 85.2539 195.473 86.663 195.473 89.1629C195.462 91.7083 196.564 93.0719 198.541 93.0719ZM198.564 92.0606C197.303 92.0606 196.655 91.1174 196.655 89.2652V89.0607C196.655 87.2084 197.291 86.2653 198.541 86.2653C199.803 86.2653 200.439 87.2198 200.439 89.0607V89.2652C200.439 91.1174 199.814 92.0606 198.564 92.0606ZM202.465 94.7196C203.545 94.4923 203.977 93.731 203.977 92.7424V91.5151H202.545V92.8446H203.227C203.227 93.606 203.011 94.0832 202.306 94.2764L202.465 94.7196ZM207.041 92.9355H208.166V85.2767H207.041V92.9355ZM211.713 93.0265C213.088 93.0265 213.849 92.3674 214.213 91.5379L213.224 91.1515C213.019 91.6742 212.622 92.1174 211.713 92.1174C210.804 92.1174 210.224 91.5606 210.156 90.6402H214.19V90.2311C214.19 88.5379 213.247 87.4811 211.667 87.4811C210.145 87.4811 209.042 88.6288 209.042 90.2879C209.042 91.9356 210.065 93.0265 211.713 93.0265ZM210.133 89.7993C210.247 88.9243 210.838 88.3902 211.644 88.3902C212.485 88.3902 212.997 88.8788 213.042 89.7993H210.133ZM217.076 93.0833C218.292 93.0833 219.166 92.356 219.166 91.3674C219.166 90.3106 218.155 89.9584 217.178 89.7652C216.201 89.572 215.837 89.4925 215.837 89.0493C215.837 88.6402 216.212 88.3675 216.792 88.3675C217.348 88.3675 217.837 88.6175 218.144 89.0834L219.11 88.6061C218.587 87.913 217.803 87.4584 216.792 87.4584C215.655 87.4584 214.769 88.1743 214.769 89.1175C214.769 90.1515 215.644 90.4924 216.621 90.697C217.462 90.8788 218.087 90.9811 218.087 91.447C218.087 91.8901 217.723 92.1628 217.121 92.1628C216.553 92.1628 215.996 91.9242 215.667 91.447L214.701 91.9583C215.189 92.6401 216.042 93.0833 217.076 93.0833ZM221.936 93.0833C223.152 93.0833 224.027 92.356 224.027 91.3674C224.027 90.3106 223.016 89.9584 222.038 89.7652C221.061 89.572 220.698 89.4925 220.698 89.0493C220.698 88.6402 221.073 88.3675 221.652 88.3675C222.209 88.3675 222.697 88.6175 223.004 89.0834L223.97 88.6061C223.447 87.913 222.663 87.4584 221.652 87.4584C220.516 87.4584 219.629 88.1743 219.629 89.1175C219.629 90.1515 220.504 90.4924 221.482 90.697C222.322 90.8788 222.947 90.9811 222.947 91.447C222.947 91.8901 222.584 92.1628 221.982 92.1628C221.413 92.1628 220.857 91.9242 220.527 91.447L219.561 91.9583C220.05 92.6401 220.902 93.0833 221.936 93.0833ZM227.537 92.9355H228.64V88.5266H229.731V87.5721H228.64V87.1062C228.64 86.3448 228.731 86.288 229.446 86.288H229.856V85.2653H228.992C227.89 85.3335 227.537 85.788 227.537 87.0266V87.5721H226.64V88.5266H227.537V92.9355ZM232.631 93.0265C234.005 93.0265 234.767 92.3674 235.13 91.5379L234.142 91.1515C233.937 91.6742 233.54 92.1174 232.631 92.1174C231.721 92.1174 231.142 91.5606 231.074 90.6402H235.108V90.2311C235.108 88.5379 234.165 87.4811 232.585 87.4811C231.062 87.4811 229.96 88.6288 229.96 90.2879C229.96 91.9356 230.983 93.0265 232.631 93.0265ZM231.051 89.7993C231.165 88.9243 231.756 88.3902 232.562 88.3902C233.403 88.3902 233.915 88.8788 233.96 89.7993H231.051ZM238.39 93.0265C239.765 93.0265 240.526 92.3674 240.89 91.5379L239.901 91.1515C239.697 91.6742 239.299 92.1174 238.39 92.1174C237.481 92.1174 236.901 91.5606 236.833 90.6402H240.867V90.2311C240.867 88.5379 239.924 87.4811 238.344 87.4811C236.822 87.4811 235.719 88.6288 235.719 90.2879C235.719 91.9356 236.742 93.0265 238.39 93.0265ZM236.81 89.7993C236.924 88.9243 237.515 88.3902 238.322 88.3902C239.163 88.3902 239.674 88.8788 239.719 89.7993H236.81ZM243.753 93.0833C244.969 93.0833 245.844 92.356 245.844 91.3674C245.844 90.3106 244.832 89.9584 243.855 89.7652C242.878 89.572 242.514 89.4925 242.514 89.0493C242.514 88.6402 242.889 88.3675 243.469 88.3675C244.026 88.3675 244.514 88.6175 244.821 89.0834L245.787 88.6061C245.264 87.913 244.48 87.4584 243.469 87.4584C242.332 87.4584 241.446 88.1743 241.446 89.1175C241.446 90.1515 242.321 90.4924 243.298 90.697C244.139 90.8788 244.764 90.9811 244.764 91.447C244.764 91.8901 244.401 92.1628 243.798 92.1628C243.23 92.1628 242.673 91.9242 242.344 91.447L241.378 91.9583C241.867 92.6401 242.719 93.0833 243.753 93.0833Z" fill="#1F325D"/>
<path d="M56.9935 105.986V105.291C55.9678 105.039 55.3524 104.092 55.3524 102.672V102.601C55.3524 101.181 55.9678 100.266 56.9935 100.013V99.3187C55.3366 99.6106 54.6107 101.11 54.6107 102.601V102.68C54.6107 104.171 55.3366 105.694 56.9935 105.986ZM59.2516 104.644C60.6007 104.644 61.3897 103.706 61.3897 101.922C61.3897 100.21 60.6244 99.224 59.2752 99.224C58.1706 99.224 57.3816 100.029 57.3816 101.062C57.3816 102.072 58.1312 102.759 59.2358 102.759C59.8828 102.759 60.364 102.451 60.6086 101.915V102.214C60.6007 103.366 60.1431 103.958 59.291 103.958C58.6204 103.958 58.289 103.729 58.2337 103.216H57.4447C57.5 103.974 58.0602 104.644 59.2516 104.644ZM59.3147 102.112C58.6204 102.112 58.1706 101.67 58.1706 101.047V101.023C58.1706 100.408 58.6125 99.9105 59.2989 99.9105C59.9853 99.9105 60.4824 100.376 60.4824 100.983V101.007C60.4824 101.591 59.9932 102.112 59.3147 102.112ZM64.1258 104.66C65.4986 104.66 66.2719 103.682 66.2719 101.946C66.2719 100.218 65.4986 99.2319 64.1416 99.2319C62.7687 99.2319 61.9955 100.21 61.9955 101.946C61.9876 103.713 62.7529 104.66 64.1258 104.66ZM64.1416 103.958C63.2658 103.958 62.816 103.303 62.816 102.017V101.875C62.816 100.589 63.2579 99.9341 64.1258 99.9341C65.0016 99.9341 65.4434 100.597 65.4434 101.875V102.017C65.4434 103.303 65.0095 103.958 64.1416 103.958ZM67.884 101.67C68.6099 101.67 69.107 101.165 69.107 100.447C69.107 99.7211 68.6257 99.224 67.9156 99.224C67.166 99.224 66.6768 99.7211 66.6768 100.447C66.6768 101.181 67.1581 101.67 67.884 101.67ZM66.9293 104.566H67.5763L71.4108 99.3266H70.7639L66.9293 104.566ZM67.884 101.197C67.458 101.197 67.2055 100.905 67.2055 100.455V100.431C67.2055 99.9972 67.4816 99.7053 67.8998 99.7053C68.318 99.7053 68.5704 99.9894 68.5704 100.431V100.455C68.5704 100.912 68.3101 101.197 67.884 101.197ZM70.464 104.668C71.1899 104.668 71.687 104.171 71.687 103.445C71.687 102.719 71.2057 102.222 70.4956 102.222C69.7461 102.222 69.2569 102.719 69.2569 103.445C69.2569 104.179 69.7382 104.668 70.464 104.668ZM70.464 104.195C70.0459 104.195 69.7934 103.911 69.7934 103.453V103.429C69.7934 102.995 70.0617 102.711 70.4798 102.711C70.898 102.711 71.1505 102.988 71.1505 103.429V103.453C71.1505 103.911 70.898 104.195 70.464 104.195ZM74.8608 104.66C75.3973 104.66 75.8628 104.447 76.1153 104.005V104.566H76.8649L76.857 103.99V102.151C76.857 101.204 76.2889 100.778 75.3342 100.778C74.348 100.778 73.6852 101.283 73.6615 102.12H74.4426V102.072C74.4742 101.654 74.774 101.402 75.3263 101.402C75.8944 101.402 76.1232 101.638 76.1232 101.946V102.001C76.0443 102.206 75.6577 102.246 75.0265 102.38C74.198 102.561 73.5747 102.751 73.5747 103.587C73.5747 104.226 74.0639 104.66 74.8608 104.66ZM75.0028 104.068C74.5925 104.068 74.3637 103.863 74.3637 103.556C74.3637 103.161 74.7109 103.027 75.137 102.917C75.4999 102.83 75.8944 102.767 76.1232 102.609V103.066C76.0601 103.792 75.5472 104.068 75.0028 104.068ZM79.0919 104.644C79.6126 104.644 80.0387 104.416 80.2991 104.021V104.566H81.0565V99.2477H80.2991V101.402C80.0308 101.007 79.6126 100.763 79.0998 100.763C78.1293 100.763 77.4192 101.536 77.4192 102.719C77.4192 103.926 78.1372 104.644 79.0919 104.644ZM79.2891 103.982C78.65 103.982 78.2319 103.548 78.2319 102.751V102.696C78.2319 101.891 78.6579 101.425 79.2891 101.425C79.944 101.425 80.3385 101.922 80.3385 102.656V102.719C80.3385 103.461 79.9282 103.982 79.2891 103.982ZM82.9126 104.573H83.6306L85.0192 100.841H84.2066L83.2677 103.642L82.2814 100.841H81.4766L82.9126 104.573ZM86.326 104.66C86.8625 104.66 87.328 104.447 87.5805 104.005V104.566H88.33L88.3221 103.99V102.151C88.3221 101.204 87.7541 100.778 86.7994 100.778C85.8131 100.778 85.1504 101.283 85.1267 102.12H85.9078V102.072C85.9394 101.654 86.2392 101.402 86.7915 101.402C87.3596 101.402 87.5884 101.638 87.5884 101.946V102.001C87.5095 102.206 87.1229 102.246 86.4917 102.38C85.6632 102.561 85.0399 102.751 85.0399 103.587C85.0399 104.226 85.5291 104.66 86.326 104.66ZM86.468 104.068C86.0577 104.068 85.8289 103.863 85.8289 103.556C85.8289 103.161 86.1761 103.027 86.6021 102.917C86.9651 102.83 87.3596 102.767 87.5884 102.609V103.066C87.5252 103.792 87.0124 104.068 86.468 104.068ZM89.0974 104.566H89.8706V102.782C89.8706 101.93 90.202 101.449 90.778 101.449C91.2829 101.449 91.5275 101.757 91.5275 102.341V104.566H92.3086V102.301C92.3086 101.307 91.8194 100.763 91.0147 100.763C90.4466 100.763 90.0679 101.047 89.8706 101.544V100.841H89.0974V104.566ZM94.6751 104.629C95.5824 104.629 96.1426 104.147 96.3872 103.39L95.6455 103.161C95.5193 103.666 95.2589 103.974 94.6593 103.974C94.0123 103.974 93.6336 103.453 93.6336 102.719V102.688C93.6336 101.946 94.036 101.433 94.6829 101.433C95.2195 101.433 95.4877 101.733 95.614 102.206L96.3556 101.978C96.1268 101.252 95.5745 100.778 94.6987 100.778C93.6099 100.778 92.8525 101.583 92.8525 102.696C92.8525 103.832 93.5626 104.629 94.6751 104.629ZM98.5515 104.629C99.5061 104.629 100.035 104.171 100.287 103.595L99.6008 103.327C99.4588 103.69 99.1827 103.997 98.5515 103.997C97.9203 103.997 97.5179 103.611 97.4705 102.972H100.271V102.688C100.271 101.512 99.6166 100.778 98.5199 100.778C97.4626 100.778 96.6973 101.575 96.6973 102.727C96.6973 103.871 97.4074 104.629 98.5515 104.629ZM97.4547 102.388C97.5336 101.78 97.9439 101.41 98.5041 101.41C99.088 101.41 99.443 101.749 99.4746 102.388H97.4547ZM100.415 105.986C102.072 105.694 102.806 104.171 102.806 102.68V102.601C102.806 101.11 102.072 99.6106 100.415 99.3187V100.013C101.433 100.266 102.064 101.181 102.064 102.601V102.672C102.064 104.092 101.433 105.039 100.415 105.291V105.986Z" fill="#1F325D"/>
<path d="M28.1832 124.456H29.3195V117.922H31.7285V116.91H25.7855V117.922H28.1832V124.456ZM33.5949 124.546C34.9698 124.546 35.7312 123.887 36.0948 123.058L35.1062 122.672C34.9016 123.194 34.5039 123.637 33.5949 123.637C32.6858 123.637 32.1063 123.081 32.0381 122.16H36.0721V121.751C36.0721 120.058 35.1289 119.001 33.5494 119.001C32.0267 119.001 30.9245 120.149 30.9245 121.808C30.9245 123.456 31.9472 124.546 33.5949 124.546ZM32.0154 121.319C32.129 120.444 32.7199 119.91 33.5267 119.91C34.3676 119.91 34.8789 120.399 34.9244 121.319H32.0154ZM36.9684 124.456H38.0821V121.706C38.0821 120.615 38.3434 120.138 39.2979 120.138H39.8093V119.047H39.6388C38.6616 119.047 38.2411 119.456 38.0821 120.081V119.092H36.9684V124.456ZM40.5972 124.456H41.7108V121.456C41.7108 120.49 42.188 119.967 42.8357 119.967C43.4721 119.967 43.813 120.353 43.813 121.149V124.456H44.938V121.456C44.938 120.524 45.347 119.967 46.0629 119.967C46.6993 119.967 47.0402 120.353 47.0402 121.149V124.456H48.1651V121.092C48.1651 119.763 47.5174 118.978 46.4947 118.978C45.5857 118.978 45.0175 119.444 44.7561 120.149C44.5062 119.297 43.9039 118.978 43.2789 118.978C42.5062 118.978 41.9835 119.365 41.7108 120.035V119.092H40.5972V124.456ZM51.2644 124.603C52.4803 124.603 53.3553 123.876 53.3553 122.887C53.3553 121.831 52.3439 121.478 51.3667 121.285C50.3894 121.092 50.0258 121.012 50.0258 120.569C50.0258 120.16 50.4008 119.888 50.9803 119.888C51.5371 119.888 52.0257 120.138 52.3326 120.603L53.2984 120.126C52.7757 119.433 51.9917 118.978 50.9803 118.978C49.844 118.978 48.9576 119.694 48.9576 120.637C48.9576 121.672 49.8326 122.012 50.8099 122.217C51.6508 122.399 52.2757 122.501 52.2757 122.967C52.2757 123.41 51.9121 123.683 51.3099 123.683C50.7417 123.683 50.1849 123.444 49.8554 122.967L48.8895 123.478C49.3781 124.16 50.2303 124.603 51.2644 124.603Z" fill="#C8C8C8"/>
<path d="M130.521 145.648H131.623V138.091H130.51V143.727L126.771 138.091H125.453V145.636H126.567V139.728L130.521 145.648ZM135.218 145.727C136.593 145.727 137.354 145.068 137.718 144.239L136.729 143.852C136.524 144.375 136.127 144.818 135.218 144.818C134.309 144.818 133.729 144.262 133.661 143.341H137.695V142.932C137.695 141.239 136.752 140.182 135.172 140.182C133.649 140.182 132.547 141.33 132.547 142.989C132.547 144.637 133.57 145.727 135.218 145.727ZM133.638 142.5C133.752 141.625 134.343 141.091 135.149 141.091C135.99 141.091 136.502 141.58 136.547 142.5H133.638ZM140.128 145.636H141.083V144.659H140.446C140.105 144.659 139.969 144.5 139.969 144.159V141.228H141.128V140.273H139.969V138.557L138.89 139.228V140.273H138.037V141.228H138.89V144.296C138.901 145.148 139.151 145.591 140.128 145.636ZM146.766 145.773C148.562 145.773 149.596 144.932 149.596 143.5C149.596 142.557 149.096 141.898 148.175 141.637C149.039 141.387 149.437 140.83 149.437 140.08C149.437 138.728 148.505 137.955 146.766 137.955C145.164 137.955 144.153 138.807 144.016 140.364H145.141C145.244 139.489 145.664 138.955 146.755 138.955C147.732 138.955 148.278 139.387 148.278 140.114V140.137C148.278 140.853 147.8 141.239 146.846 141.239H146.198V142.25H146.857C147.982 142.25 148.425 142.625 148.425 143.466V143.5C148.425 144.318 147.857 144.773 146.778 144.773C145.63 144.773 145.13 144.296 145.05 143.409H143.903C144.005 145.102 145.107 145.773 146.766 145.773ZM153.384 145.773C155.361 145.773 156.475 144.364 156.475 141.864C156.475 139.375 155.361 137.955 153.407 137.955C151.43 137.955 150.316 139.364 150.316 141.864C150.305 144.409 151.407 145.773 153.384 145.773ZM153.407 144.761C152.146 144.761 151.498 143.818 151.498 141.966V141.762C151.498 139.909 152.134 138.966 153.384 138.966C154.646 138.966 155.282 139.921 155.282 141.762V141.966C155.282 143.818 154.657 144.761 153.407 144.761Z" fill="#1F325D"/>
<rect x="25.8756" y="130.88" width="230.783" height="21.6975" rx="10.8488" stroke="#ACACAC" stroke-width="0.6575"/>
<rect x="25.5469" y="162.633" width="80.8725" height="7.89" rx="3.945" fill="#F0F0F0"/>
<rect x="141.266" y="162.962" width="67.065" height="7.2325" rx="3.61625" fill="#F0F0F0"/>
<rect x="25.5469" y="176.116" width="61.1475" height="7.2325" rx="3.61625" fill="#F0F0F0"/>
<rect x="141.266" y="176.116" width="87.4475" height="7.2325" rx="3.61625" fill="#F0F0F0"/>
<path d="M26.3227 205.132H27.6377V196.4H26.3227V205.132ZM29.1072 205.132H30.3959V202.16C30.3959 200.74 30.9482 199.938 31.9082 199.938C32.7498 199.938 33.1574 200.45 33.1574 201.424V205.132H34.4593V201.358C34.4593 199.701 33.644 198.794 32.3027 198.794C31.3559 198.794 30.7247 199.267 30.3959 200.095V198.925H29.1072V205.132ZM37.1759 205.145H38.3725L40.6869 198.925H39.3325L37.7676 203.593L36.1239 198.925H34.7826L37.1759 205.145ZM43.7981 205.237C45.626 205.237 46.9278 203.909 46.9278 202.042C46.9278 200.148 45.6523 198.82 43.8244 198.82C41.9966 198.82 40.7079 200.148 40.7079 202.042C40.7079 203.935 41.9703 205.237 43.7981 205.237ZM43.7981 204.146C42.6935 204.146 42.0097 203.357 42.0097 202.081V202.028C42.0097 200.727 42.7198 199.911 43.8244 199.911C44.929 199.911 45.626 200.727 45.626 202.028V202.081C45.626 203.343 44.9159 204.146 43.7981 204.146ZM47.9067 197.926H49.3006V196.558H47.9067V197.926ZM47.9462 205.132H49.248V198.925H47.9462V205.132ZM53.3127 205.237C54.8249 205.237 55.7586 204.435 56.1662 203.172L54.9301 202.791C54.7197 203.633 54.2858 204.146 53.2864 204.146C52.2081 204.146 51.5769 203.278 51.5769 202.055V202.002C51.5769 200.766 52.2475 199.911 53.3258 199.911C54.22 199.911 54.6671 200.411 54.8775 201.2L56.1136 200.819C55.7323 199.609 54.8118 198.82 53.3521 198.82C51.5374 198.82 50.275 200.161 50.275 202.015C50.275 203.909 51.4585 205.237 53.3127 205.237ZM59.7733 205.237C61.3645 205.237 62.2455 204.474 62.6663 203.514L61.5223 203.067C61.2856 203.672 60.8253 204.185 59.7733 204.185C58.7213 204.185 58.0507 203.541 57.9718 202.476H62.64V202.002C62.64 200.043 61.5486 198.82 59.7207 198.82C57.9586 198.82 56.6831 200.148 56.6831 202.068C56.6831 203.975 57.8666 205.237 59.7733 205.237ZM57.9455 201.502C58.077 200.49 58.7608 199.872 59.6944 199.872C60.6675 199.872 61.2593 200.437 61.3119 201.502H57.9455ZM68.0886 205.132H69.1932V204.001H68.4568C68.0623 204.001 67.9045 203.817 67.9045 203.422V200.03H69.2458V198.925H67.9045V196.939L66.6552 197.715V198.925H65.669V200.03H66.6552V203.58C66.6684 204.566 66.9577 205.079 68.0886 205.132ZM72.705 205.237C74.5329 205.237 75.8347 203.909 75.8347 202.042C75.8347 200.148 74.5592 198.82 72.7313 198.82C70.9035 198.82 69.6148 200.148 69.6148 202.042C69.6148 203.935 70.8772 205.237 72.705 205.237ZM72.705 204.146C71.6004 204.146 70.9166 203.357 70.9166 202.081V202.028C70.9166 200.727 71.6267 199.911 72.7313 199.911C73.8359 199.911 74.5329 200.727 74.5329 202.028V202.081C74.5329 203.343 73.8228 204.146 72.705 204.146ZM78.4647 205.132H79.5693V204.001H78.8329C78.4384 204.001 78.2806 203.817 78.2806 203.422V200.03H79.6219V198.925H78.2806V196.939L77.0314 197.715V198.925H76.0451V200.03H77.0314V203.58C77.0445 204.566 77.3338 205.079 78.4647 205.132ZM82.379 205.29C83.2732 205.29 84.0491 204.935 84.4699 204.198V205.132H85.7191L85.706 204.172V201.108C85.706 199.53 84.7592 198.82 83.168 198.82C81.5243 198.82 80.4197 199.661 80.3802 201.055H81.6821V200.976C81.7347 200.279 82.2344 199.859 83.1549 199.859C84.1017 199.859 84.483 200.253 84.483 200.766V200.858C84.3515 201.2 83.7072 201.266 82.6552 201.489C81.2744 201.792 80.2356 202.107 80.2356 203.501C80.2356 204.566 81.0509 205.29 82.379 205.29ZM82.6157 204.303C81.9319 204.303 81.5506 203.961 81.5506 203.449C81.5506 202.791 82.1292 202.568 82.8393 202.383C83.4442 202.239 84.1017 202.134 84.483 201.871V202.633C84.3778 203.843 83.5231 204.303 82.6157 204.303ZM86.9981 205.132H88.2999V196.269H86.9981V205.132Z" fill="#1F325D"/>
<path d="M201.09 205.895H201.839V204.803C203.417 204.711 204.667 203.856 204.667 202.41C204.667 200.766 202.996 200.411 201.721 200.122C200.34 199.832 199.499 199.583 199.499 198.807C199.499 198.11 200.209 197.715 201.274 197.715C202.221 197.715 202.944 198.097 203.733 198.807L204.548 197.952C203.759 197.163 202.826 196.742 201.866 196.637V195.559H201.116V196.611C199.551 196.676 198.289 197.61 198.289 198.938C198.289 200.503 199.88 200.911 201.155 201.213C202.51 201.542 203.365 201.673 203.365 202.528C203.365 203.251 202.668 203.659 201.642 203.672C200.577 203.698 199.683 203.265 198.841 202.462L198.039 203.33C198.828 204.146 199.827 204.685 201.09 204.79V205.895ZM208.024 205.132H209.313V196.387H208.05C207.722 197.899 206.696 198.741 205.394 199.227V200.477C206.525 200.135 207.38 199.477 208.024 198.636V205.132ZM211.058 207.196C212.308 206.933 212.807 206.052 212.807 204.908V203.488H211.151V205.027H211.94C211.94 205.908 211.69 206.46 210.874 206.684L211.058 207.196ZM217.42 205.29C219.708 205.29 220.997 203.659 220.997 200.766C220.997 197.886 219.708 196.242 217.446 196.242C215.158 196.242 213.87 197.873 213.87 200.766C213.856 203.712 215.132 205.29 217.42 205.29ZM217.446 204.119C215.987 204.119 215.237 203.028 215.237 200.884V200.648C215.237 198.504 215.974 197.413 217.42 197.413C218.88 197.413 219.616 198.517 219.616 200.648V200.884C219.616 203.028 218.893 204.119 217.446 204.119ZM225.459 205.29C227.747 205.29 229.036 203.659 229.036 200.766C229.036 197.886 227.747 196.242 225.485 196.242C223.197 196.242 221.909 197.873 221.909 200.766C221.895 203.712 223.171 205.29 225.459 205.29ZM225.485 204.119C224.026 204.119 223.276 203.028 223.276 200.884V200.648C223.276 198.504 224.013 197.413 225.459 197.413C226.919 197.413 227.655 198.517 227.655 200.648V200.884C227.655 203.028 226.932 204.119 225.485 204.119ZM233.498 205.29C235.786 205.29 237.075 203.659 237.075 200.766C237.075 197.886 235.786 196.242 233.524 196.242C231.236 196.242 229.948 197.873 229.948 200.766C229.934 203.712 231.21 205.29 233.498 205.29ZM233.524 204.119C232.065 204.119 231.315 203.028 231.315 200.884V200.648C231.315 198.504 232.052 197.413 233.498 197.413C234.958 197.413 235.694 198.517 235.694 200.648V200.884C235.694 203.028 234.971 204.119 233.524 204.119ZM238.144 205.132H239.735V203.488H238.144V205.132ZM244.349 205.29C246.637 205.29 247.926 203.659 247.926 200.766C247.926 197.886 246.637 196.242 244.376 196.242C242.088 196.242 240.799 197.873 240.799 200.766C240.786 203.712 242.061 205.29 244.349 205.29ZM244.376 204.119C242.916 204.119 242.166 203.028 242.166 200.884V200.648C242.166 198.504 242.903 197.413 244.349 197.413C245.809 197.413 246.545 198.517 246.545 200.648V200.884C246.545 203.028 245.822 204.119 244.376 204.119ZM252.388 205.29C254.676 205.29 255.965 203.659 255.965 200.766C255.965 197.886 254.676 196.242 252.415 196.242C250.126 196.242 248.838 197.873 248.838 200.766C248.825 203.712 250.1 205.29 252.388 205.29ZM252.415 204.119C250.955 204.119 250.205 203.028 250.205 200.884V200.648C250.205 198.504 250.942 197.413 252.388 197.413C253.848 197.413 254.584 198.517 254.584 200.648V200.884C254.584 203.028 253.861 204.119 252.415 204.119Z" fill="#1F325D"/>
<path d="M26.0531 221.392H28.0782C30.1218 221.392 31.2356 220.333 31.2356 218.354C31.2356 216.338 30.1586 215.28 28.1703 215.28H26.0531V221.392ZM26.9736 220.582V216.09H28.1703C29.5971 216.09 30.269 216.789 30.269 218.317V218.373C30.269 219.855 29.551 220.582 28.1059 220.582H26.9736ZM33.4674 221.465C34.0934 221.465 34.5168 221.18 34.7561 220.646V221.392H35.6582V217.047H34.7561V219.127C34.7561 220.066 34.4247 220.683 33.7067 220.683C33.1176 220.683 32.8231 220.315 32.8231 219.643V217.047H31.9118V219.689C31.9118 220.794 32.4917 221.465 33.4674 221.465ZM38.5295 221.465C39.6433 221.465 40.2601 220.932 40.5546 220.26L39.7538 219.947C39.5881 220.37 39.2659 220.729 38.5295 220.729C37.7931 220.729 37.3237 220.278 37.2684 219.532H40.5362V219.201C40.5362 217.83 39.7722 216.973 38.4927 216.973C37.2592 216.973 36.3663 217.903 36.3663 219.247C36.3663 220.582 37.1948 221.465 38.5295 221.465ZM37.25 218.851C37.3421 218.142 37.8207 217.71 38.4743 217.71C39.1555 217.71 39.5697 218.106 39.6065 218.851H37.25ZM44.7541 221.484C45.3616 221.484 45.8587 221.217 46.1625 220.757V221.392H47.0462V215.188H46.1625V217.701C45.8495 217.24 45.3616 216.955 44.7633 216.955C43.6311 216.955 42.8027 217.857 42.8027 219.238C42.8027 220.646 43.6403 221.484 44.7541 221.484ZM44.9842 220.711C44.2386 220.711 43.7508 220.204 43.7508 219.275V219.21C43.7508 218.271 44.2478 217.728 44.9842 217.728C45.7483 217.728 46.2085 218.308 46.2085 219.164V219.238C46.2085 220.103 45.7298 220.711 44.9842 220.711ZM49.2566 221.502C49.8825 221.502 50.4256 221.254 50.7202 220.738V221.392H51.5946L51.5854 220.72V218.575C51.5854 217.471 50.9227 216.973 49.8089 216.973C48.6583 216.973 47.885 217.563 47.8574 218.538H48.7687V218.483C48.8055 217.995 49.1553 217.701 49.7997 217.701C50.4624 217.701 50.7294 217.977 50.7294 218.336V218.4C50.6373 218.64 50.1863 218.686 49.4499 218.842C48.4834 219.054 47.7562 219.275 47.7562 220.25C47.7562 220.996 48.3269 221.502 49.2566 221.502ZM49.4223 220.812C48.9436 220.812 48.6767 220.573 48.6767 220.214C48.6767 219.753 49.0817 219.597 49.5788 219.468C50.0022 219.367 50.4624 219.293 50.7294 219.109V219.643C50.6557 220.49 50.0574 220.812 49.4223 220.812ZM53.7709 221.392H54.5441V220.6H54.0287C53.7525 220.6 53.642 220.471 53.642 220.195V217.82H54.581V217.047H53.642V215.657L52.7676 216.2V217.047H52.0772V217.82H52.7676V220.306C52.7768 220.996 52.9793 221.355 53.7709 221.392ZM57.0114 221.465C58.1252 221.465 58.742 220.932 59.0365 220.26L58.2357 219.947C58.07 220.37 57.7478 220.729 57.0114 220.729C56.275 220.729 55.8056 220.278 55.7503 219.532H59.0181V219.201C59.0181 217.83 58.2541 216.973 56.9746 216.973C55.7411 216.973 54.8483 217.903 54.8483 219.247C54.8483 220.582 55.6767 221.465 57.0114 221.465ZM55.7319 218.851C55.824 218.142 56.3026 217.71 56.9562 217.71C57.6374 217.71 58.0516 218.106 58.0884 218.851H55.7319Z" fill="#1F325D"/>
<path d="M212.493 221.392H213.395V216.154L215.208 221.392H216.018L217.914 216.099V221.392H218.816V215.28H217.307L215.632 220.122L214.057 215.28H212.493V221.392ZM221.026 221.502C221.652 221.502 222.195 221.254 222.489 220.738V221.392H223.364L223.354 220.72V218.575C223.354 217.471 222.692 216.973 221.578 216.973C220.427 216.973 219.654 217.563 219.626 218.538H220.538V218.483C220.575 217.995 220.924 217.701 221.569 217.701C222.231 217.701 222.498 217.977 222.498 218.336V218.4C222.406 218.64 221.955 218.686 221.219 218.842C220.252 219.054 219.525 219.275 219.525 220.25C219.525 220.996 220.096 221.502 221.026 221.502ZM221.191 220.812C220.713 220.812 220.446 220.573 220.446 220.214C220.446 219.753 220.851 219.597 221.348 219.468C221.771 219.367 222.231 219.293 222.498 219.109V219.643C222.425 220.49 221.826 220.812 221.191 220.812ZM223.803 223.141H224.264C225.304 223.141 225.681 222.736 226.077 221.705L227.743 217.047H226.786L225.727 220.287L224.567 217.047H223.619L225.295 221.309C224.954 222.193 224.816 222.322 224.218 222.322H223.803V223.141ZM230.045 221.392H231.021L233.865 216.173V215.28H229.603V216.099H233L230.045 221.392ZM234.441 222.837C235.315 222.653 235.665 222.036 235.665 221.235V220.241H234.505V221.318H235.058C235.058 221.935 234.883 222.322 234.312 222.478L234.441 222.837ZM237.865 221.392H242.2V220.545H238.886C239.208 218.916 242.218 218.98 242.218 217.01C242.218 215.878 241.381 215.169 240.157 215.169C239.052 215.169 238.306 215.703 237.855 216.799L238.693 217.148C239.015 216.348 239.439 216.025 240.147 216.025C240.902 216.025 241.261 216.44 241.261 217.029C241.261 218.446 237.865 218.336 237.865 221.153V221.392ZM245.205 221.502C246.806 221.502 247.708 220.361 247.708 218.336C247.708 216.32 246.806 215.169 245.223 215.169C243.621 215.169 242.719 216.311 242.719 218.336C242.71 220.398 243.603 221.502 245.205 221.502ZM245.223 220.683C244.201 220.683 243.676 219.919 243.676 218.419V218.253C243.676 216.753 244.192 215.989 245.205 215.989C246.226 215.989 246.742 216.762 246.742 218.253V218.419C246.742 219.919 246.235 220.683 245.223 220.683ZM248.094 221.392H252.43V220.545H249.116C249.438 218.916 252.448 218.98 252.448 217.01C252.448 215.878 251.611 215.169 250.386 215.169C249.282 215.169 248.536 215.703 248.085 216.799L248.923 217.148C249.245 216.348 249.668 216.025 250.377 216.025C251.132 216.025 251.491 216.44 251.491 217.029C251.491 218.446 248.094 218.336 248.094 221.153V221.392ZM254.7 221.392H255.602V215.271H254.718C254.488 216.329 253.77 216.918 252.859 217.259V218.133C253.651 217.894 254.249 217.434 254.7 216.845V221.392Z" fill="#1F325D"/>
<rect x="25.5469" y="236.542" width="112.541" height="30.5131" rx="3.78778" fill="#F0F0F0"/>
<path d="M68.3244 256.616C70.1724 256.616 71.5764 255.68 71.8884 253.556H70.6164C70.3764 255.008 69.5004 255.5 68.3484 255.5C66.8964 255.5 65.9244 254.396 65.9244 252.536V252.44C65.9244 250.592 66.9084 249.476 68.3724 249.476C69.4884 249.476 70.3284 249.932 70.5924 251.324H71.8764C71.5284 249.272 70.1724 248.36 68.3844 248.36C66.2124 248.36 64.6884 249.992 64.6884 252.488C64.6884 254.972 66.2004 256.616 68.3244 256.616ZM74.3542 256.616C75.1702 256.616 75.8782 256.292 76.2622 255.62V256.472H77.4022L77.3902 255.596V252.8C77.3902 251.36 76.5262 250.712 75.0742 250.712C73.5742 250.712 72.5662 251.48 72.5302 252.752H73.7182V252.68C73.7662 252.044 74.2222 251.66 75.0622 251.66C75.9262 251.66 76.2742 252.02 76.2742 252.488V252.572C76.1542 252.884 75.5662 252.944 74.6062 253.148C73.3462 253.424 72.3982 253.712 72.3982 254.984C72.3982 255.956 73.1422 256.616 74.3542 256.616ZM74.5702 255.716C73.9462 255.716 73.5982 255.404 73.5982 254.936C73.5982 254.336 74.1262 254.132 74.7742 253.964C75.3262 253.832 75.9262 253.736 76.2742 253.496V254.192C76.1782 255.296 75.3982 255.716 74.5702 255.716ZM78.5693 256.472H79.7453V253.76C79.7453 252.464 80.2493 251.732 81.1253 251.732C81.8933 251.732 82.2653 252.2 82.2653 253.088V256.472H83.4533V253.028C83.4533 251.516 82.7093 250.688 81.4853 250.688C80.6213 250.688 80.0453 251.12 79.7453 251.876V250.808H78.5693V256.472ZM87.0525 256.568C88.4325 256.568 89.2845 255.836 89.6565 254.684L88.5285 254.336C88.3365 255.104 87.9405 255.572 87.0285 255.572C86.0445 255.572 85.4685 254.78 85.4685 253.664V253.616C85.4685 252.488 86.0805 251.708 87.0645 251.708C87.8805 251.708 88.2885 252.164 88.4805 252.884L89.6085 252.536C89.2605 251.432 88.4205 250.712 87.0885 250.712C85.4325 250.712 84.2805 251.936 84.2805 253.628C84.2805 255.356 85.3605 256.568 87.0525 256.568ZM92.9481 256.568C94.4001 256.568 95.2041 255.872 95.5881 254.996L94.5441 254.588C94.3281 255.14 93.9081 255.608 92.9481 255.608C91.9881 255.608 91.3761 255.02 91.3041 254.048H95.5641V253.616C95.5641 251.828 94.5681 250.712 92.9001 250.712C91.2921 250.712 90.1281 251.924 90.1281 253.676C90.1281 255.416 91.2081 256.568 92.9481 256.568ZM91.2801 253.16C91.4001 252.236 92.0241 251.672 92.8761 251.672C93.7641 251.672 94.3041 252.188 94.3521 253.16H91.2801ZM96.5107 256.472H97.6987V248.384H96.5107V256.472Z" fill="#747474"/>
<rect x="144.445" y="236.542" width="112.541" height="30.5131" rx="3.78778" fill="#16C270"/>
<path d="M191.351 256.604C193.151 256.604 194.219 255.596 194.219 254.144C194.219 252.584 192.875 252.176 191.567 251.924C190.427 251.708 189.383 251.54 189.383 250.688C189.383 249.92 189.995 249.416 190.979 249.416C192.071 249.416 192.731 249.86 192.899 251.024H194.183C193.943 249.236 192.779 248.36 190.991 248.36C189.359 248.36 188.195 249.368 188.195 250.748C188.195 252.284 189.599 252.716 190.919 252.98C192.071 253.196 193.019 253.412 193.019 254.204C193.019 255.044 192.395 255.548 191.315 255.548C190.091 255.548 189.467 255.104 189.227 253.928H187.931C188.243 255.656 189.323 256.604 191.351 256.604ZM197.679 256.568C199.131 256.568 199.935 255.872 200.319 254.996L199.275 254.588C199.059 255.14 198.639 255.608 197.679 255.608C196.719 255.608 196.107 255.02 196.035 254.048H200.295V253.616C200.295 251.828 199.299 250.712 197.631 250.712C196.023 250.712 194.859 251.924 194.859 253.676C194.859 255.416 195.939 256.568 197.679 256.568ZM196.011 253.16C196.131 252.236 196.755 251.672 197.607 251.672C198.495 251.672 199.035 252.188 199.083 253.16H196.011ZM201.241 256.472H202.417V253.76C202.417 252.464 202.921 251.732 203.797 251.732C204.565 251.732 204.937 252.2 204.937 253.088V256.472H206.125V253.028C206.125 251.516 205.381 250.688 204.157 250.688C203.293 250.688 202.717 251.12 202.417 251.876V250.808H201.241V256.472ZM209.496 256.592C210.288 256.592 210.936 256.244 211.332 255.644V256.472H212.484V248.384H211.332V251.66C210.924 251.06 210.288 250.688 209.508 250.688C208.032 250.688 206.952 251.864 206.952 253.664C206.952 255.5 208.044 256.592 209.496 256.592ZM209.796 255.584C208.824 255.584 208.188 254.924 208.188 253.712V253.628C208.188 252.404 208.836 251.696 209.796 251.696C210.792 251.696 211.392 252.452 211.392 253.568V253.664C211.392 254.792 210.768 255.584 209.796 255.584Z" fill="white"/>
<rect x="144.445" y="236.542" width="112.541" height="30.5131" rx="3.78778" stroke="#16C270" stroke-width="0.924126"/>
<rect x="8.5" y="8.5" width="265.532" height="275.601" rx="9.12325" stroke="#DEDEDE"/>
</g>
<defs>
<filter id="filter0_b_2115_27930" x="-20" y="-20" width="322.533" height="332.601" filterUnits="userSpaceOnUse" color-interpolation-filters="sRGB">
<feFlood flood-opacity="0" result="BackgroundImageFix"/>
<feGaussianBlur in="BackgroundImageFix" stdDeviation="10"/>
<feComposite in2="SourceAlpha" operator="in" result="effect1_backgroundBlur_2115_27930"/>
<feBlend mode="normal" in="SourceGraphic" in2="effect1_backgroundBlur_2115_27930" result="shape"/>
</filter>
</defs>
</svg>
