<svg width="577" height="463" viewBox="0 0 577 463" fill="none" xmlns="http://www.w3.org/2000/svg">
<rect x="0.5" y="0.908081" width="576" height="325.934" rx="5.91636" stroke="#3A5080"/>
<rect x="0.5" y="368.709" width="576" height="93.3828" rx="5.91636" stroke="#3A5080"/>
<path d="M200.075 421.346H202.554L204.286 416.702H210.542L212.202 421.346H214.753L208.906 405.369H206.091L200.075 421.346ZM205.008 414.584L207.438 407.992L209.796 414.584H205.008ZM220.606 421.538C223.373 421.538 225.082 420.07 225.828 417.761L223.566 417.063C223.181 418.603 222.387 419.541 220.558 419.541C218.585 419.541 217.43 417.953 217.43 415.715V415.619C217.43 413.357 218.657 411.793 220.63 411.793C222.267 411.793 223.085 412.708 223.47 414.151L225.731 413.454C225.034 411.24 223.349 409.796 220.679 409.796C217.358 409.796 215.048 412.251 215.048 415.643C215.048 419.108 217.214 421.538 220.606 421.538ZM232.332 421.538C235.099 421.538 236.807 420.07 237.553 417.761L235.291 417.063C234.906 418.603 234.112 419.541 232.283 419.541C230.31 419.541 229.156 417.953 229.156 415.715V415.619C229.156 413.357 230.383 411.793 232.356 411.793C233.992 411.793 234.81 412.708 235.195 414.151L237.457 413.454C236.759 411.24 235.075 409.796 232.404 409.796C229.083 409.796 226.773 412.251 226.773 415.643C226.773 419.108 228.939 421.538 232.332 421.538ZM244.059 421.538C247.404 421.538 249.786 419.108 249.786 415.691C249.786 412.226 247.452 409.796 244.107 409.796C240.763 409.796 238.405 412.226 238.405 415.691C238.405 419.156 240.715 421.538 244.059 421.538ZM244.059 419.541C242.038 419.541 240.787 418.097 240.787 415.763V415.667C240.787 413.285 242.086 411.793 244.107 411.793C246.128 411.793 247.404 413.285 247.404 415.667V415.763C247.404 418.073 246.104 419.541 244.059 419.541ZM255.499 421.538C257.135 421.538 258.242 420.792 258.868 419.397V421.346H261.226V409.989H258.868V415.427C258.868 417.881 258.002 419.493 256.125 419.493C254.585 419.493 253.815 418.531 253.815 416.774V409.989H251.433V416.894C251.433 419.782 252.949 421.538 255.499 421.538ZM263.727 421.346H266.085V415.908C266.085 413.309 267.095 411.841 268.852 411.841C270.392 411.841 271.137 412.78 271.137 414.56V421.346H273.52V414.44C273.52 411.408 272.028 409.748 269.574 409.748C267.841 409.748 266.686 410.614 266.085 412.13V409.989H263.727V421.346ZM278.988 421.346H281.009V419.276H279.662C278.94 419.276 278.651 418.94 278.651 418.218V412.01H281.106V409.989H278.651V406.355L276.366 407.775V409.989H274.561V412.01H276.366V418.506C276.39 420.311 276.919 421.249 278.988 421.346ZM282.899 408.16H285.449V405.658H282.899V408.16ZM282.971 421.346H285.353V409.989H282.971V421.346ZM287.882 421.346H290.24V415.908C290.24 413.309 291.251 411.841 293.007 411.841C294.547 411.841 295.293 412.78 295.293 414.56V421.346H297.675V414.44C297.675 411.408 296.183 409.748 293.729 409.748C291.996 409.748 290.841 410.614 290.24 412.13V409.989H287.882V421.346ZM304.795 427.024C308.597 427.024 310.882 425.605 310.882 423.247C310.882 420.937 309.054 419.758 305.444 419.758H303.086C302.028 419.758 301.33 419.397 301.33 418.843C301.33 418.362 301.811 417.977 302.677 418.025H302.846C303.327 418.17 303.832 418.242 304.362 418.242C307.249 418.242 309.15 416.582 309.15 414.007C309.15 413.598 309.078 413.213 308.982 412.828C309.487 412.275 310.209 412.226 310.81 412.443V409.989C309.607 409.989 308.837 410.662 308.428 411.673C307.634 410.494 306.214 409.748 304.482 409.748C301.739 409.748 299.694 411.577 299.694 414.031C299.694 415.354 300.319 416.485 301.306 417.255C300.007 417.544 299.261 418.29 299.261 419.276C299.261 420.215 299.983 420.961 301.137 421.249C299.838 421.731 299.044 422.621 299.044 423.752C299.044 425.869 301.065 427.024 304.795 427.024ZM304.434 416.413C302.894 416.413 301.883 415.451 301.883 414.055V413.959C301.883 412.563 302.966 411.553 304.434 411.553C305.95 411.553 307.033 412.563 307.033 413.959V414.055C307.033 415.475 306.022 416.413 304.434 416.413ZM304.867 425.244C302.437 425.244 301.113 424.618 301.113 423.559C301.113 422.428 302.413 421.779 303.953 421.779H305.372C307.754 421.779 308.765 422.284 308.765 423.415C308.765 424.546 307.273 425.244 304.867 425.244ZM321.646 421.659C323.716 421.659 325.52 420.84 327.06 419.493L328.72 421.346H331.608C331.608 421.346 330.068 419.661 328.528 417.953C329.899 416.269 330.958 414.175 331.728 411.962H329.298C328.72 413.718 327.999 415.234 327.132 416.413L325.544 414.633C324.967 413.983 324.462 413.405 324.053 412.9C326.579 412.202 328.047 410.831 328.047 408.713C328.047 406.476 326.218 404.984 323.98 404.984C321.478 404.984 319.649 406.644 319.649 408.978C319.649 409.989 320.01 410.951 320.612 411.914C318.109 412.563 316.136 414.007 316.136 416.774C316.136 419.541 318.278 421.659 321.646 421.659ZM322.946 411.505C322.2 410.47 321.911 409.748 321.911 408.93C321.911 407.655 322.729 406.813 323.932 406.813C325.015 406.813 325.785 407.583 325.785 408.713C325.785 410.109 324.798 411.072 322.946 411.505ZM321.863 419.565C319.842 419.565 318.543 418.314 318.543 416.63C318.543 414.753 319.938 413.79 321.695 413.357C321.935 413.67 322.2 413.959 322.489 414.272L325.761 418.001C324.606 419.012 323.283 419.565 321.863 419.565ZM338.098 421.346H349.599V419.204H340.48V414.103H346.327V411.962H340.48V407.51H349.238V405.369H338.098V421.346ZM351.562 421.346H353.944V415.186H356.085C359.526 415.186 360.801 417.4 361.234 420.84L361.258 421.346H363.809L363.737 420.744C363.28 416.967 362.125 414.897 359.55 414.151C362.125 413.718 363.448 411.962 363.448 409.724C363.448 407.053 361.571 405.369 357.336 405.369H351.562V421.346ZM353.944 413.189V407.414H357.288C359.911 407.414 361.018 408.232 361.018 409.965C361.018 411.529 359.959 413.189 356.975 413.189H353.944ZM365.848 421.346H368.254V415.451H370.829C375.208 415.451 377.398 413.814 377.398 410.374C377.398 407.005 375.28 405.369 370.901 405.369H365.848V421.346ZM368.254 413.405V407.414H370.901C373.788 407.414 374.943 408.256 374.943 410.374C374.943 412.563 373.716 413.405 370.829 413.405H368.254Z" fill="white"/>
<rect x="15.9684" y="151.645" width="164.954" height="44.1125" rx="6.01534" fill="#1F325D"/>
<path d="M29.6743 174.196L31.8757 176.549L36.7771 171.028" stroke="#FB835E" stroke-width="1.00256" stroke-miterlimit="10" stroke-linecap="square"/>
<circle cx="33.2123" cy="173.701" r="7.51917" stroke="#FB835E" stroke-width="1.00256"/>
<path d="M54.0786 178.214H55.3234V169.68H54.0658V176.045L49.8438 169.68H48.3552V178.201H49.6128V171.528L54.0786 178.214ZM59.3823 178.304C60.9351 178.304 61.7949 177.56 62.2055 176.623L61.0891 176.187C60.8581 176.777 60.409 177.277 59.3823 177.277C58.3557 177.277 57.7012 176.649 57.6243 175.609H62.1799V175.147C62.1799 173.235 61.1148 172.042 59.331 172.042C57.6114 172.042 56.3666 173.338 56.3666 175.211C56.3666 177.072 57.5216 178.304 59.3823 178.304ZM57.5986 174.659C57.7269 173.671 58.3942 173.068 59.3053 173.068C60.255 173.068 60.8324 173.62 60.8838 174.659H57.5986ZM64.9279 178.201H66.0058V177.098H65.2872C64.9022 177.098 64.7482 176.918 64.7482 176.533V173.222H66.0572V172.144H64.7482V170.207L63.5291 170.964V172.144H62.5667V173.222H63.5291V176.687C63.5419 177.649 63.8243 178.15 64.9279 178.201ZM71.2816 178.201H72.3595V177.098H71.6409C71.2559 177.098 71.1019 176.918 71.1019 176.533V173.222H72.4109V172.144H71.1019V170.207L69.8828 170.964V172.144H68.9204V173.222H69.8828V176.687C69.8956 177.649 70.178 178.15 71.2816 178.201ZM75.7992 178.304C77.352 178.304 78.2117 177.56 78.6224 176.623L77.5059 176.187C77.275 176.777 76.8258 177.277 75.7992 177.277C74.7726 177.277 74.1181 176.649 74.0411 175.609H78.5967V175.147C78.5967 173.235 77.5316 172.042 75.7479 172.042C74.0283 172.042 72.7835 173.338 72.7835 175.211C72.7835 177.072 73.9385 178.304 75.7992 178.304ZM74.0154 174.659C74.1438 173.671 74.8111 173.068 75.7222 173.068C76.6718 173.068 77.2493 173.62 77.3006 174.659H74.0154ZM79.609 178.201H80.8666V175.096C80.8666 173.864 81.1618 173.325 82.2397 173.325H82.8172V172.093H82.6247C81.5211 172.093 81.0463 172.555 80.8666 173.261V172.144H79.609V178.201ZM83.707 178.201H84.9646V174.813C84.9646 173.723 85.5035 173.132 86.235 173.132C86.9536 173.132 87.3386 173.569 87.3386 174.467V178.201H88.6091V174.813C88.6091 173.761 89.071 173.132 89.8795 173.132C90.5981 173.132 90.9831 173.569 90.9831 174.467V178.201H92.2536V174.403C92.2536 172.901 91.5221 172.016 90.3671 172.016C89.3405 172.016 88.6989 172.542 88.4037 173.338C88.1214 172.375 87.4413 172.016 86.7355 172.016C85.8629 172.016 85.2726 172.452 84.9646 173.209V172.144H83.707V178.201ZM95.7536 178.368C97.1267 178.368 98.1148 177.547 98.1148 176.43C98.1148 175.237 96.9727 174.839 95.8691 174.621C94.7655 174.403 94.3548 174.313 94.3548 173.813C94.3548 173.351 94.7783 173.043 95.4328 173.043C96.0616 173.043 96.6134 173.325 96.9599 173.851L98.0506 173.312C97.4603 172.529 96.5749 172.016 95.4328 172.016C94.1495 172.016 93.1485 172.824 93.1485 173.889C93.1485 175.057 94.1367 175.442 95.2403 175.673C96.1899 175.879 96.8957 175.994 96.8957 176.52C96.8957 177.021 96.485 177.329 95.8049 177.329C95.1633 177.329 94.5345 177.059 94.1623 176.52L93.0715 177.098C93.6233 177.868 94.5858 178.368 95.7536 178.368ZM101.552 171.169H102.912V169.834H101.552V171.169ZM101.59 178.201H102.861V172.144H101.59V178.201ZM104.209 178.201H105.467V175.301C105.467 173.915 106.006 173.132 106.943 173.132C107.764 173.132 108.162 173.633 108.162 174.582V178.201H109.432V174.518C109.432 172.901 108.637 172.016 107.328 172.016C106.404 172.016 105.788 172.478 105.467 173.286V172.144H104.209V178.201ZM112.083 178.214H113.251L115.51 172.144H114.188L112.661 176.7L111.057 172.144H109.748L112.083 178.214ZM118.546 178.304C120.329 178.304 121.6 177.008 121.6 175.186C121.6 173.338 120.355 172.042 118.571 172.042C116.788 172.042 115.53 173.338 115.53 175.186C115.53 177.034 116.762 178.304 118.546 178.304ZM118.546 177.239C117.468 177.239 116.8 176.469 116.8 175.224V175.173C116.8 173.902 117.493 173.107 118.571 173.107C119.649 173.107 120.329 173.902 120.329 175.173V175.224C120.329 176.456 119.636 177.239 118.546 177.239ZM122.555 171.169H123.915V169.834H122.555V171.169ZM122.594 178.201H123.864V172.144H122.594V178.201ZM127.831 178.304C129.306 178.304 130.218 177.521 130.615 176.289L129.409 175.917C129.204 176.738 128.78 177.239 127.805 177.239C126.753 177.239 126.137 176.392 126.137 175.198V175.147C126.137 173.941 126.791 173.107 127.844 173.107C128.716 173.107 129.152 173.594 129.358 174.364L130.564 173.992C130.192 172.812 129.294 172.042 127.869 172.042C126.098 172.042 124.866 173.351 124.866 175.16C124.866 177.008 126.021 178.304 127.831 178.304ZM131.428 171.169H132.788V169.834H131.428V171.169ZM131.466 178.201H132.737V172.144H131.466V178.201ZM134.085 178.201H135.343V175.301C135.343 173.915 135.882 173.132 136.819 173.132C137.64 173.132 138.038 173.633 138.038 174.582V178.201H139.308V174.518C139.308 172.901 138.513 172.016 137.204 172.016C136.28 172.016 135.664 172.478 135.343 173.286V172.144H134.085V178.201ZM143.106 181.23C145.133 181.23 146.352 180.473 146.352 179.215C146.352 177.983 145.377 177.354 143.452 177.354H142.195C141.63 177.354 141.258 177.162 141.258 176.867C141.258 176.61 141.514 176.405 141.976 176.43H142.066C142.323 176.507 142.592 176.546 142.875 176.546C144.415 176.546 145.428 175.66 145.428 174.287C145.428 174.069 145.39 173.864 145.339 173.659C145.608 173.363 145.993 173.338 146.314 173.453V172.144C145.672 172.144 145.262 172.504 145.043 173.043C144.62 172.414 143.863 172.016 142.939 172.016C141.476 172.016 140.385 172.991 140.385 174.3C140.385 175.006 140.719 175.609 141.245 176.02C140.552 176.174 140.154 176.572 140.154 177.098C140.154 177.598 140.539 177.996 141.155 178.15C140.462 178.407 140.039 178.881 140.039 179.485C140.039 180.614 141.117 181.23 143.106 181.23ZM142.913 175.571C142.092 175.571 141.553 175.057 141.553 174.313V174.262C141.553 173.517 142.13 172.978 142.913 172.978C143.722 172.978 144.299 173.517 144.299 174.262V174.313C144.299 175.07 143.76 175.571 142.913 175.571ZM143.144 180.28C141.848 180.28 141.142 179.947 141.142 179.382C141.142 178.779 141.835 178.432 142.656 178.432H143.414C144.684 178.432 145.223 178.702 145.223 179.305C145.223 179.908 144.427 180.28 143.144 180.28Z" fill="white"/>
<rect x="15.9684" y="151.645" width="164.954" height="44.1125" rx="6.01534" stroke="#7795DA" stroke-width="0.802045"/>
<rect x="15.9684" y="209.209" width="164.954" height="44.1125" rx="6.01534" fill="#1F325D"/>
<path d="M29.6743 231.76L31.8757 234.112L36.7771 228.592" stroke="#FB835E" stroke-width="1.00256" stroke-miterlimit="10" stroke-linecap="square"/>
<circle cx="33.2123" cy="231.265" r="7.51917" stroke="#FB835E" stroke-width="1.00256"/>
<path d="M51.9355 235.919C53.9118 235.919 55.4132 234.918 55.7469 232.647H54.3866C54.1299 234.199 53.1932 234.726 51.9612 234.726C50.4084 234.726 49.369 233.545 49.369 231.556V231.453C49.369 229.477 50.4213 228.284 51.9869 228.284C53.1803 228.284 54.0786 228.771 54.3609 230.26H55.734C55.3619 228.065 53.9118 227.09 51.9997 227.09C49.677 227.09 48.0472 228.835 48.0472 231.505C48.0472 234.161 49.6642 235.919 51.9355 235.919ZM56.6755 235.765H57.9331V232.66C57.9331 231.428 58.2283 230.889 59.3062 230.889H59.8837V229.657H59.6912C58.5876 229.657 58.1128 230.119 57.9331 230.824V229.708H56.6755V235.765ZM63.1043 235.868C64.6571 235.868 65.5169 235.123 65.9275 234.187L64.8111 233.75C64.5801 234.341 64.1309 234.841 63.1043 234.841C62.0777 234.841 61.4232 234.212 61.3462 233.173H65.9019V232.711C65.9019 230.799 64.8367 229.605 63.053 229.605C61.3334 229.605 60.0886 230.901 60.0886 232.775C60.0886 234.636 61.2436 235.868 63.1043 235.868ZM61.3206 232.223C61.4489 231.235 62.1162 230.632 63.0273 230.632C63.977 230.632 64.5544 231.184 64.6058 232.223H61.3206ZM69.2882 235.893C70.1352 235.893 70.8281 235.521 71.2516 234.88V235.765H72.4835V227.116H71.2516V230.619C70.8153 229.978 70.1352 229.58 69.301 229.58C67.7226 229.58 66.5677 230.837 66.5677 232.762C66.5677 234.726 67.7354 235.893 69.2882 235.893ZM69.609 234.815C68.5696 234.815 67.8894 234.11 67.8894 232.814V232.724C67.8894 231.415 68.5824 230.658 69.609 230.658C70.6741 230.658 71.3158 231.466 71.3158 232.66V232.762C71.3158 233.968 70.6485 234.815 69.609 234.815ZM73.7682 228.733H75.1285V227.398H73.7682V228.733ZM73.8067 235.765H75.0772V229.708H73.8067V235.765ZM78.2995 235.765H79.3774V234.661H78.6588C78.2738 234.661 78.1198 234.482 78.1198 234.097V230.786H79.4288V229.708H78.1198V227.77L76.9007 228.527V229.708H75.9383V230.786H76.9007V234.251C76.9135 235.213 77.1959 235.714 78.2995 235.765ZM82.8423 235.765H84.1127V227.116H82.8423V235.765ZM85.4104 228.733H86.7707V227.398H85.4104V228.733ZM85.4489 235.765H86.7193V229.708H85.4489V235.765ZM88.0681 235.765H89.3257V232.865C89.3257 231.479 89.8647 230.696 90.8015 230.696C91.6227 230.696 92.0206 231.197 92.0206 232.146V235.765H93.291V232.082C93.291 230.465 92.4954 229.58 91.1864 229.58C90.2625 229.58 89.6465 230.042 89.3257 230.85V229.708H88.0681V235.765ZM97.1912 235.868C98.744 235.868 99.6038 235.123 100.014 234.187L98.898 233.75C98.667 234.341 98.2179 234.841 97.1912 234.841C96.1646 234.841 95.5102 234.212 95.4332 233.173H99.9888V232.711C99.9888 230.799 98.9237 229.605 97.1399 229.605C95.4203 229.605 94.1756 230.901 94.1756 232.775C94.1756 234.636 95.3305 235.868 97.1912 235.868ZM95.4075 232.223C95.5358 231.235 96.2031 230.632 97.1143 230.632C98.0639 230.632 98.6413 231.184 98.6927 232.223H95.4075ZM103.495 235.765H104.753V232.377C104.753 231.286 105.292 230.696 106.023 230.696C106.742 230.696 107.127 231.132 107.127 232.031V235.765H108.397V232.377C108.397 231.325 108.859 230.696 109.667 230.696C110.386 230.696 110.771 231.132 110.771 232.031V235.765H112.042V231.967C112.042 230.465 111.31 229.58 110.155 229.58C109.128 229.58 108.487 230.106 108.192 230.901C107.909 229.939 107.229 229.58 106.523 229.58C105.651 229.58 105.061 230.016 104.753 230.773V229.708H103.495V235.765ZM115.041 235.919C115.913 235.919 116.671 235.573 117.081 234.854V235.765H118.3L118.287 234.828V231.838C118.287 230.298 117.363 229.605 115.811 229.605C114.207 229.605 113.129 230.427 113.09 231.787H114.361V231.71C114.412 231.03 114.9 230.619 115.798 230.619C116.722 230.619 117.094 231.004 117.094 231.505V231.594C116.966 231.928 116.337 231.992 115.31 232.21C113.963 232.506 112.949 232.814 112.949 234.174C112.949 235.213 113.745 235.919 115.041 235.919ZM115.272 234.957C114.604 234.957 114.232 234.623 114.232 234.122C114.232 233.481 114.797 233.263 115.49 233.083C116.08 232.942 116.722 232.839 117.094 232.583V233.327C116.991 234.507 116.157 234.957 115.272 234.957ZM119.548 235.765H120.806V232.865C120.806 231.479 121.345 230.696 122.282 230.696C123.103 230.696 123.501 231.197 123.501 232.146V235.765H124.771V232.082C124.771 230.465 123.976 229.58 122.667 229.58C121.743 229.58 121.127 230.042 120.806 230.85V229.708H119.548V235.765ZM127.773 235.919C128.646 235.919 129.403 235.573 129.814 234.854V235.765H131.033L131.02 234.828V231.838C131.02 230.298 130.096 229.605 128.543 229.605C126.939 229.605 125.861 230.427 125.823 231.787H127.093V231.71C127.144 231.03 127.632 230.619 128.53 230.619C129.454 230.619 129.826 231.004 129.826 231.505V231.594C129.698 231.928 129.069 231.992 128.043 232.21C126.695 232.506 125.681 232.814 125.681 234.174C125.681 235.213 126.477 235.919 127.773 235.919ZM128.004 234.957C127.337 234.957 126.965 234.623 126.965 234.122C126.965 233.481 127.529 233.263 128.222 233.083C128.813 232.942 129.454 232.839 129.826 232.583V233.327C129.724 234.507 128.89 234.957 128.004 234.957ZM134.835 238.794C136.862 238.794 138.081 238.036 138.081 236.779C138.081 235.547 137.106 234.918 135.181 234.918H133.923C133.359 234.918 132.987 234.726 132.987 234.43C132.987 234.174 133.243 233.968 133.705 233.994H133.795C134.052 234.071 134.321 234.11 134.604 234.11C136.143 234.11 137.157 233.224 137.157 231.851C137.157 231.633 137.119 231.428 137.067 231.222C137.337 230.927 137.722 230.901 138.043 231.017V229.708C137.401 229.708 136.99 230.067 136.772 230.606C136.349 229.978 135.592 229.58 134.668 229.58C133.205 229.58 132.114 230.555 132.114 231.864C132.114 232.57 132.448 233.173 132.974 233.584C132.281 233.738 131.883 234.135 131.883 234.661C131.883 235.162 132.268 235.56 132.884 235.714C132.191 235.97 131.768 236.445 131.768 237.048C131.768 238.178 132.845 238.794 134.835 238.794ZM134.642 233.134C133.821 233.134 133.282 232.621 133.282 231.877V231.825C133.282 231.081 133.859 230.542 134.642 230.542C135.451 230.542 136.028 231.081 136.028 231.825V231.877C136.028 232.634 135.489 233.134 134.642 233.134ZM134.873 237.844C133.577 237.844 132.871 237.51 132.871 236.946C132.871 236.343 133.564 235.996 134.385 235.996H135.143C136.413 235.996 136.952 236.266 136.952 236.869C136.952 237.472 136.156 237.844 134.873 237.844ZM141.329 235.868C142.882 235.868 143.741 235.123 144.152 234.187L143.036 233.75C142.805 234.341 142.355 234.841 141.329 234.841C140.302 234.841 139.648 234.212 139.571 233.173H144.126V232.711C144.126 230.799 143.061 229.605 141.277 229.605C139.558 229.605 138.313 230.901 138.313 232.775C138.313 234.636 139.468 235.868 141.329 235.868ZM139.545 232.223C139.673 231.235 140.341 230.632 141.252 230.632C142.201 230.632 142.779 231.184 142.83 232.223H139.545ZM145.139 235.765H146.396V232.377C146.396 231.286 146.935 230.696 147.667 230.696C148.385 230.696 148.77 231.132 148.77 232.031V235.765H150.041V232.377C150.041 231.325 150.503 230.696 151.311 230.696C152.03 230.696 152.415 231.132 152.415 232.031V235.765H153.685V231.967C153.685 230.465 152.954 229.58 151.799 229.58C150.772 229.58 150.131 230.106 149.835 230.901C149.553 229.939 148.873 229.58 148.167 229.58C147.295 229.58 146.704 230.016 146.396 230.773V229.708H145.139V235.765ZM157.583 235.868C159.136 235.868 159.995 235.123 160.406 234.187L159.289 233.75C159.059 234.341 158.609 234.841 157.583 234.841C156.556 234.841 155.902 234.212 155.825 233.173H160.38V232.711C160.38 230.799 159.315 229.605 157.531 229.605C155.812 229.605 154.567 230.901 154.567 232.775C154.567 234.636 155.722 235.868 157.583 235.868ZM155.799 232.223C155.927 231.235 156.595 230.632 157.506 230.632C158.455 230.632 159.033 231.184 159.084 232.223H155.799ZM161.393 235.765H162.65V232.865C162.65 231.479 163.189 230.696 164.126 230.696C164.947 230.696 165.345 231.197 165.345 232.146V235.765H166.615V232.082C166.615 230.465 165.82 229.58 164.511 229.58C163.587 229.58 162.971 230.042 162.65 230.85V229.708H161.393V235.765ZM169.532 235.765H170.61V234.661H169.891C169.506 234.661 169.352 234.482 169.352 234.097V230.786H170.661V229.708H169.352V227.77L168.133 228.527V229.708H167.171V230.786H168.133V234.251C168.146 235.213 168.428 235.714 169.532 235.765Z" fill="white"/>
<rect x="15.9684" y="209.209" width="164.954" height="44.1125" rx="6.01534" stroke="#7795DA" stroke-width="0.802045"/>
<rect x="15.9684" y="266.773" width="164.954" height="44.1125" rx="6.01534" fill="#1F325D"/>
<path d="M29.6743 289.323L31.8757 291.676L36.7771 286.155" stroke="#FB835E" stroke-width="1.00256" stroke-miterlimit="10" stroke-linecap="square"/>
<circle cx="33.2123" cy="288.829" r="7.51917" stroke="#FB835E" stroke-width="1.00256"/>
<path d="M47.8547 293.329H49.1765L50.1005 290.852H53.437L54.3224 293.329H55.6827L52.5643 284.808H51.0629L47.8547 293.329ZM50.4854 289.723L51.7816 286.207L53.0392 289.723H50.4854ZM58.5859 293.457C59.4329 293.457 60.1258 293.085 60.5493 292.443V293.329H61.7813V284.68H60.5493V288.183C60.113 287.541 59.4329 287.143 58.5987 287.143C57.0203 287.143 55.8654 288.401 55.8654 290.326C55.8654 292.289 57.0331 293.457 58.5859 293.457ZM58.9067 292.379C57.8673 292.379 57.1871 291.673 57.1871 290.377V290.288C57.1871 288.979 57.8801 288.221 58.9067 288.221C59.9718 288.221 60.6135 289.03 60.6135 290.223V290.326C60.6135 291.532 59.9462 292.379 58.9067 292.379ZM64.8001 293.342H65.9679L68.2265 287.272H66.9047L65.3776 291.827L63.7735 287.272H62.4646L64.8001 293.342ZM70.3518 293.483C71.2244 293.483 71.9816 293.136 72.3922 292.418V293.329H73.6113L73.5985 292.392V289.402C73.5985 287.862 72.6745 287.169 71.1218 287.169C69.5177 287.169 68.4397 287.99 68.4012 289.351H69.6717V289.274C69.723 288.594 70.2106 288.183 71.1089 288.183C72.0329 288.183 72.405 288.568 72.405 289.068V289.158C72.2767 289.492 71.6479 289.556 70.6213 289.774C69.2739 290.069 68.2601 290.377 68.2601 291.738C68.2601 292.777 69.0557 293.483 70.3518 293.483ZM70.5828 292.52C69.9155 292.52 69.5433 292.187 69.5433 291.686C69.5433 291.045 70.108 290.826 70.801 290.647C71.3913 290.506 72.0329 290.403 72.405 290.146V290.891C72.3024 292.071 71.4683 292.52 70.5828 292.52ZM74.8594 293.329H76.117V290.429C76.117 289.043 76.656 288.26 77.5928 288.26C78.4141 288.26 78.8119 288.76 78.8119 289.71V293.329H80.0823V289.646C80.0823 288.029 79.2867 287.143 77.9778 287.143C77.0538 287.143 76.4378 287.605 76.117 288.414V287.272H74.8594V293.329ZM83.9312 293.432C85.407 293.432 86.3181 292.649 86.7159 291.417L85.5097 291.045C85.3043 291.866 84.8809 292.366 83.9056 292.366C82.8533 292.366 82.2373 291.519 82.2373 290.326V290.275C82.2373 289.068 82.8918 288.234 83.9441 288.234C84.8167 288.234 85.253 288.722 85.4583 289.492L86.6646 289.12C86.2925 287.939 85.3942 287.169 83.9697 287.169C82.1988 287.169 80.9669 288.478 80.9669 290.288C80.9669 292.135 82.1218 293.432 83.9312 293.432ZM90.236 293.432C91.7888 293.432 92.6486 292.687 93.0592 291.75L91.9428 291.314C91.7118 291.904 91.2626 292.405 90.236 292.405C89.2094 292.405 88.5549 291.776 88.4779 290.737H93.0335V290.275C93.0335 288.363 91.9684 287.169 90.1847 287.169C88.4651 287.169 87.2203 288.465 87.2203 290.339C87.2203 292.2 88.3753 293.432 90.236 293.432ZM88.4523 289.787C88.5806 288.799 89.2479 288.196 90.159 288.196C91.1086 288.196 91.6861 288.748 91.7374 289.787H88.4523ZM96.5397 295.716H97.7845V292.456C98.2079 293.072 98.8881 293.457 99.7222 293.457C101.288 293.457 102.456 292.225 102.456 290.275V290.262C102.456 288.324 101.288 287.143 99.735 287.143C98.8881 287.143 98.1951 287.528 97.7716 288.17V287.272H96.5397V295.716ZM99.4142 292.379C98.3491 292.379 97.7075 291.571 97.7075 290.377V290.275C97.7075 289.068 98.3619 288.221 99.4142 288.221C100.454 288.221 101.134 288.927 101.134 290.223V290.313C101.134 291.622 100.441 292.379 99.4142 292.379ZM105.153 293.483C106.026 293.483 106.783 293.136 107.193 292.418V293.329H108.413L108.4 292.392V289.402C108.4 287.862 107.476 287.169 105.923 287.169C104.319 287.169 103.241 287.99 103.202 289.351H104.473V289.274C104.524 288.594 105.012 288.183 105.91 288.183C106.834 288.183 107.206 288.568 107.206 289.068V289.158C107.078 289.492 106.449 289.556 105.423 289.774C104.075 290.069 103.061 290.377 103.061 291.738C103.061 292.777 103.857 293.483 105.153 293.483ZM105.384 292.52C104.717 292.52 104.345 292.187 104.345 291.686C104.345 291.045 104.909 290.826 105.602 290.647C106.193 290.506 106.834 290.403 107.206 290.146V290.891C107.104 292.071 106.269 292.52 105.384 292.52ZM109.026 295.767H109.667C111.117 295.767 111.643 295.202 112.195 293.765L114.518 287.272H113.183L111.708 291.789L110.091 287.272H108.769L111.105 293.213C110.63 294.445 110.437 294.625 109.603 294.625H109.026V295.767Z" fill="white"/>
<rect x="15.9684" y="266.773" width="164.954" height="44.1125" rx="6.01534" stroke="#7795DA" stroke-width="0.802045"/>
<rect x="206.023" y="151.645" width="164.954" height="44.1125" rx="6.01534" fill="#1F325D"/>
<path d="M219.729 174.196L221.93 176.549L226.832 171.028" stroke="#FB835E" stroke-width="1.00256" stroke-miterlimit="10" stroke-linecap="square"/>
<circle cx="223.267" cy="173.701" r="7.51917" stroke="#FB835E" stroke-width="1.00256"/>
<path d="M237.909 178.201H239.231L240.155 175.725H243.492L244.377 178.201H245.737L242.619 169.68H241.118L237.909 178.201ZM240.54 174.595L241.836 171.079L243.094 174.595H240.54ZM248.37 178.304C249.243 178.304 249.833 177.906 250.167 177.162V178.201H251.424V172.144H250.167V175.044C250.167 176.353 249.705 177.213 248.704 177.213C247.883 177.213 247.472 176.7 247.472 175.763V172.144H246.201V175.827C246.201 177.367 247.01 178.304 248.37 178.304ZM254.619 178.201H255.697V177.098H254.978C254.593 177.098 254.439 176.918 254.439 176.533V173.222H255.748V172.144H254.439V170.207L253.22 170.964V172.144H252.258V173.222H253.22V176.687C253.233 177.649 253.516 178.15 254.619 178.201ZM259.124 178.304C260.908 178.304 262.178 177.008 262.178 175.186C262.178 173.338 260.934 172.042 259.15 172.042C257.366 172.042 256.109 173.338 256.109 175.186C256.109 177.034 257.34 178.304 259.124 178.304ZM259.124 177.239C258.046 177.239 257.379 176.469 257.379 175.224V175.173C257.379 173.902 258.072 173.107 259.15 173.107C260.228 173.107 260.908 173.902 260.908 175.173V175.224C260.908 176.456 260.215 177.239 259.124 177.239ZM263.054 175.301H265.826V174.236H263.054V175.301ZM266.932 178.201H268.189V175.096C268.189 173.864 268.484 173.325 269.562 173.325H270.14V172.093H269.947C268.844 172.093 268.369 172.555 268.189 173.261V172.144H266.932V178.201ZM273.361 178.304C274.913 178.304 275.773 177.56 276.184 176.623L275.067 176.187C274.836 176.777 274.387 177.277 273.361 177.277C272.334 177.277 271.679 176.649 271.602 175.609H276.158V175.147C276.158 173.235 275.093 172.042 273.309 172.042C271.59 172.042 270.345 173.338 270.345 175.211C270.345 177.072 271.5 178.304 273.361 178.304ZM271.577 174.659C271.705 173.671 272.372 173.068 273.284 173.068C274.233 173.068 274.811 173.62 274.862 174.659H271.577ZM277.17 178.201H278.428V174.813C278.428 173.723 278.967 173.132 279.698 173.132C280.417 173.132 280.802 173.569 280.802 174.467V178.201H282.072V174.813C282.072 173.761 282.534 173.132 283.343 173.132C284.062 173.132 284.446 173.569 284.446 174.467V178.201H285.717V174.403C285.717 172.901 284.985 172.016 283.831 172.016C282.804 172.016 282.162 172.542 281.867 173.338C281.585 172.375 280.905 172.016 280.199 172.016C279.326 172.016 278.736 172.452 278.428 173.209V172.144H277.17V178.201ZM286.907 171.169H288.267V169.834H286.907V171.169ZM286.945 178.201H288.216V172.144H286.945V178.201ZM289.564 178.201H290.822V175.301C290.822 173.915 291.361 173.132 292.298 173.132C293.119 173.132 293.517 173.633 293.517 174.582V178.201H294.787V174.518C294.787 172.901 293.992 172.016 292.683 172.016C291.759 172.016 291.143 172.478 290.822 173.286V172.144H289.564V178.201ZM298.392 178.33C299.239 178.33 299.932 177.957 300.356 177.316V178.201H301.588V169.552H300.356V173.055C299.92 172.414 299.239 172.016 298.405 172.016C296.827 172.016 295.672 173.274 295.672 175.198C295.672 177.162 296.84 178.33 298.392 178.33ZM298.713 177.252C297.674 177.252 296.994 176.546 296.994 175.25V175.16C296.994 173.851 297.687 173.094 298.713 173.094C299.778 173.094 300.42 173.902 300.42 175.096V175.198C300.42 176.405 299.753 177.252 298.713 177.252ZM305.58 178.304C307.133 178.304 307.993 177.56 308.403 176.623L307.287 176.187C307.056 176.777 306.607 177.277 305.58 177.277C304.554 177.277 303.899 176.649 303.822 175.609H308.378V175.147C308.378 173.235 307.313 172.042 305.529 172.042C303.809 172.042 302.564 173.338 302.564 175.211C302.564 177.072 303.719 178.304 305.58 178.304ZM303.796 174.659C303.925 173.671 304.592 173.068 305.503 173.068C306.453 173.068 307.03 173.62 307.082 174.659H303.796ZM309.39 178.201H310.648V175.096C310.648 173.864 310.943 173.325 312.021 173.325H312.598V172.093H312.406C311.302 172.093 310.827 172.555 310.648 173.261V172.144H309.39V178.201ZM315.659 178.368C317.032 178.368 318.021 177.547 318.021 176.43C318.021 175.237 316.878 174.839 315.775 174.621C314.671 174.403 314.261 174.313 314.261 173.813C314.261 173.351 314.684 173.043 315.339 173.043C315.967 173.043 316.519 173.325 316.866 173.851L317.956 173.312C317.366 172.529 316.481 172.016 315.339 172.016C314.055 172.016 313.054 172.824 313.054 173.889C313.054 175.057 314.042 175.442 315.146 175.673C316.096 175.879 316.802 175.994 316.802 176.52C316.802 177.021 316.391 177.329 315.711 177.329C315.069 177.329 314.44 177.059 314.068 176.52L312.977 177.098C313.529 177.868 314.492 178.368 315.659 178.368Z" fill="white"/>
<rect x="206.023" y="151.645" width="164.954" height="44.1125" rx="6.01534" stroke="#7795DA" stroke-width="0.802045"/>
<rect x="206.023" y="209.209" width="164.954" height="44.1125" rx="6.01534" fill="#1F325D"/>
<path d="M219.729 231.76L221.93 234.112L226.832 228.592" stroke="#FB835E" stroke-width="1.00256" stroke-miterlimit="10" stroke-linecap="square"/>
<circle cx="223.267" cy="231.265" r="7.51917" stroke="#FB835E" stroke-width="1.00256"/>
<path d="M241.99 235.919C243.966 235.919 245.468 234.918 245.802 232.647H244.441C244.185 234.199 243.248 234.726 242.016 234.726C240.463 234.726 239.424 233.545 239.424 231.556V231.453C239.424 229.477 240.476 228.284 242.042 228.284C243.235 228.284 244.133 228.771 244.416 230.26H245.789C245.417 228.065 243.966 227.09 242.054 227.09C239.732 227.09 238.102 228.835 238.102 231.505C238.102 234.161 239.719 235.919 241.99 235.919ZM249.412 235.868C251.196 235.868 252.466 234.572 252.466 232.749C252.466 230.901 251.221 229.605 249.438 229.605C247.654 229.605 246.396 230.901 246.396 232.749C246.396 234.597 247.628 235.868 249.412 235.868ZM249.412 234.803C248.334 234.803 247.667 234.033 247.667 232.788V232.737C247.667 231.466 248.36 230.67 249.438 230.67C250.516 230.67 251.196 231.466 251.196 232.737V232.788C251.196 234.02 250.503 234.803 249.412 234.803ZM253.46 235.765H254.73V227.116H253.46V235.765ZM256.067 235.765H257.337V227.116H256.067V235.765ZM261.342 235.868C262.895 235.868 263.755 235.123 264.166 234.187L263.049 233.75C262.818 234.341 262.369 234.841 261.342 234.841C260.316 234.841 259.661 234.212 259.584 233.173H264.14V232.711C264.14 230.799 263.075 229.605 261.291 229.605C259.571 229.605 258.327 230.901 258.327 232.775C258.327 234.636 259.482 235.868 261.342 235.868ZM259.559 232.223C259.687 231.235 260.354 230.632 261.265 230.632C262.215 230.632 262.792 231.184 262.844 232.223H259.559ZM267.795 235.868C269.271 235.868 270.182 235.085 270.58 233.853L269.374 233.481C269.168 234.302 268.745 234.803 267.769 234.803C266.717 234.803 266.101 233.956 266.101 232.762V232.711C266.101 231.505 266.756 230.67 267.808 230.67C268.681 230.67 269.117 231.158 269.322 231.928L270.529 231.556C270.156 230.375 269.258 229.605 267.834 229.605C266.063 229.605 264.831 230.914 264.831 232.724C264.831 234.572 265.986 235.868 267.795 235.868ZM273.267 235.765H274.345V234.661H273.626C273.241 234.661 273.087 234.482 273.087 234.097V230.786H274.396V229.708H273.087V227.77L271.868 228.527V229.708H270.905V230.786H271.868V234.251C271.881 235.213 272.163 235.714 273.267 235.765ZM275.352 228.733H276.713V227.398H275.352V228.733ZM275.391 235.765H276.661V229.708H275.391V235.765ZM280.679 235.868C282.463 235.868 283.733 234.572 283.733 232.749C283.733 230.901 282.489 229.605 280.705 229.605C278.921 229.605 277.663 230.901 277.663 232.749C277.663 234.597 278.895 235.868 280.679 235.868ZM280.679 234.803C279.601 234.803 278.934 234.033 278.934 232.788V232.737C278.934 231.466 279.627 230.67 280.705 230.67C281.783 230.67 282.463 231.466 282.463 232.737V232.788C282.463 234.02 281.77 234.803 280.679 234.803ZM284.727 235.765H285.985V232.865C285.985 231.479 286.524 230.696 287.46 230.696C288.282 230.696 288.68 231.197 288.68 232.146V235.765H289.95V232.082C289.95 230.465 289.154 229.58 287.845 229.58C286.922 229.58 286.306 230.042 285.985 230.85V229.708H284.727V235.765ZM293.453 235.932C294.826 235.932 295.814 235.111 295.814 233.994C295.814 232.801 294.672 232.403 293.568 232.185C292.465 231.967 292.054 231.877 292.054 231.376C292.054 230.914 292.477 230.606 293.132 230.606C293.761 230.606 294.313 230.889 294.659 231.415L295.75 230.876C295.16 230.093 294.274 229.58 293.132 229.58C291.849 229.58 290.848 230.388 290.848 231.453C290.848 232.621 291.836 233.006 292.939 233.237C293.889 233.442 294.595 233.558 294.595 234.084C294.595 234.584 294.184 234.892 293.504 234.892C292.862 234.892 292.234 234.623 291.862 234.084L290.771 234.661C291.323 235.431 292.285 235.932 293.453 235.932Z" fill="white"/>
<rect x="206.023" y="209.209" width="164.954" height="44.1125" rx="6.01534" stroke="#7795DA" stroke-width="0.802045"/>
<rect x="396.077" y="151.645" width="164.954" height="44.1125" rx="6.01534" fill="#1F325D"/>
<path d="M409.783 174.196L411.984 176.549L416.885 171.028" stroke="#FB835E" stroke-width="1.00256" stroke-miterlimit="10" stroke-linecap="square"/>
<circle cx="413.321" cy="173.701" r="7.51917" stroke="#FB835E" stroke-width="1.00256"/>
<path d="M428.464 178.201H429.747V175.057H431.12C433.456 175.057 434.623 174.185 434.623 172.35C434.623 170.553 433.494 169.68 431.158 169.68H428.464V178.201ZM429.747 173.966V170.771H431.158C432.698 170.771 433.314 171.22 433.314 172.35C433.314 173.517 432.66 173.966 431.12 173.966H429.747ZM437.076 178.355C437.949 178.355 438.706 178.009 439.116 177.29V178.201H440.336L440.323 177.265V174.274C440.323 172.735 439.399 172.042 437.846 172.042C436.242 172.042 435.164 172.863 435.126 174.223H436.396V174.146C436.447 173.466 436.935 173.055 437.833 173.055C438.757 173.055 439.129 173.44 439.129 173.941V174.031C439.001 174.364 438.372 174.428 437.346 174.647C435.998 174.942 434.984 175.25 434.984 176.61C434.984 177.649 435.78 178.355 437.076 178.355ZM437.307 177.393C436.64 177.393 436.268 177.059 436.268 176.559C436.268 175.917 436.832 175.699 437.525 175.519C438.116 175.378 438.757 175.275 439.129 175.019V175.763C439.027 176.944 438.193 177.393 437.307 177.393ZM440.949 180.64H441.59C443.04 180.64 443.567 180.075 444.118 178.638L446.441 172.144H445.106L443.631 176.661L442.014 172.144H440.692L443.028 178.086C442.553 179.318 442.36 179.497 441.526 179.497H440.949V180.64ZM447.073 178.201H448.33V174.813C448.33 173.723 448.869 173.132 449.601 173.132C450.319 173.132 450.704 173.569 450.704 174.467V178.201H451.975V174.813C451.975 173.761 452.437 173.132 453.245 173.132C453.964 173.132 454.349 173.569 454.349 174.467V178.201H455.619V174.403C455.619 172.901 454.888 172.016 453.733 172.016C452.706 172.016 452.065 172.542 451.769 173.338C451.487 172.375 450.807 172.016 450.101 172.016C449.229 172.016 448.638 172.452 448.33 173.209V172.144H447.073V178.201ZM459.517 178.304C461.07 178.304 461.929 177.56 462.34 176.623L461.224 176.187C460.993 176.777 460.543 177.277 459.517 177.277C458.49 177.277 457.836 176.649 457.759 175.609H462.314V175.147C462.314 173.235 461.249 172.042 459.465 172.042C457.746 172.042 456.501 173.338 456.501 175.211C456.501 177.072 457.656 178.304 459.517 178.304ZM457.733 174.659C457.861 173.671 458.529 173.068 459.44 173.068C460.389 173.068 460.967 173.62 461.018 174.659H457.733ZM463.327 178.201H464.584V175.301C464.584 173.915 465.123 173.132 466.06 173.132C466.881 173.132 467.279 173.633 467.279 174.582V178.201H468.55V174.518C468.55 172.901 467.754 172.016 466.445 172.016C465.521 172.016 464.905 172.478 464.584 173.286V172.144H463.327V178.201ZM471.466 178.201H472.544V177.098H471.825C471.441 177.098 471.287 176.918 471.287 176.533V173.222H472.595V172.144H471.287V170.207L470.067 170.964V172.144H469.105V173.222H470.067V176.687C470.08 177.649 470.363 178.15 471.466 178.201ZM476.009 180.588H477.254V177.329C477.677 177.945 478.357 178.33 479.191 178.33C480.757 178.33 481.925 177.098 481.925 175.147V175.134C481.925 173.197 480.757 172.016 479.204 172.016C478.357 172.016 477.664 172.401 477.241 173.043V172.144H476.009V180.588ZM478.883 177.252C477.818 177.252 477.177 176.443 477.177 175.25V175.147C477.177 173.941 477.831 173.094 478.883 173.094C479.923 173.094 480.603 173.8 480.603 175.096V175.186C480.603 176.495 479.91 177.252 478.883 177.252ZM482.914 178.201H484.172V175.096C484.172 173.864 484.467 173.325 485.545 173.325H486.122V172.093H485.93C484.826 172.093 484.351 172.555 484.172 173.261V172.144H482.914V178.201ZM489.268 178.304C491.051 178.304 492.322 177.008 492.322 175.186C492.322 173.338 491.077 172.042 489.293 172.042C487.51 172.042 486.252 173.338 486.252 175.186C486.252 177.034 487.484 178.304 489.268 178.304ZM489.268 177.239C488.19 177.239 487.522 176.469 487.522 175.224V175.173C487.522 173.902 488.215 173.107 489.293 173.107C490.371 173.107 491.051 173.902 491.051 175.173V175.224C491.051 176.456 490.358 177.239 489.268 177.239ZM495.933 178.304C497.409 178.304 498.32 177.521 498.718 176.289L497.512 175.917C497.307 176.738 496.883 177.239 495.908 177.239C494.856 177.239 494.24 176.392 494.24 175.198V175.147C494.24 173.941 494.894 173.107 495.946 173.107C496.819 173.107 497.255 173.594 497.461 174.364L498.667 173.992C498.295 172.812 497.396 172.042 495.972 172.042C494.201 172.042 492.969 173.351 492.969 175.16C492.969 177.008 494.124 178.304 495.933 178.304ZM502.238 178.304C503.791 178.304 504.651 177.56 505.061 176.623L503.945 176.187C503.714 176.777 503.265 177.277 502.238 177.277C501.212 177.277 500.557 176.649 500.48 175.609H505.036V175.147C505.036 173.235 503.971 172.042 502.187 172.042C500.467 172.042 499.223 173.338 499.223 175.211C499.223 177.072 500.377 178.304 502.238 178.304ZM500.454 174.659C500.583 173.671 501.25 173.068 502.161 173.068C503.111 173.068 503.688 173.62 503.74 174.659H500.454ZM508.295 178.368C509.668 178.368 510.656 177.547 510.656 176.43C510.656 175.237 509.514 174.839 508.41 174.621C507.307 174.403 506.896 174.313 506.896 173.813C506.896 173.351 507.319 173.043 507.974 173.043C508.603 173.043 509.154 173.325 509.501 173.851L510.592 173.312C510.001 172.529 509.116 172.016 507.974 172.016C506.691 172.016 505.69 172.824 505.69 173.889C505.69 175.057 506.678 175.442 507.781 175.673C508.731 175.879 509.437 175.994 509.437 176.52C509.437 177.021 509.026 177.329 508.346 177.329C507.704 177.329 507.076 177.059 506.703 176.52L505.613 177.098C506.164 177.868 507.127 178.368 508.295 178.368ZM513.784 178.368C515.157 178.368 516.145 177.547 516.145 176.43C516.145 175.237 515.003 174.839 513.899 174.621C512.796 174.403 512.385 174.313 512.385 173.813C512.385 173.351 512.808 173.043 513.463 173.043C514.092 173.043 514.643 173.325 514.99 173.851L516.081 173.312C515.49 172.529 514.605 172.016 513.463 172.016C512.18 172.016 511.179 172.824 511.179 173.889C511.179 175.057 512.167 175.442 513.27 175.673C514.22 175.879 514.926 175.994 514.926 176.52C514.926 177.021 514.515 177.329 513.835 177.329C513.193 177.329 512.565 177.059 512.192 176.52L511.102 177.098C511.653 177.868 512.616 178.368 513.784 178.368ZM517.025 171.169H518.385V169.834H517.025V171.169ZM517.064 178.201H518.334V172.144H517.064V178.201ZM519.683 178.201H520.94V175.301C520.94 173.915 521.479 173.132 522.416 173.132C523.237 173.132 523.635 173.633 523.635 174.582V178.201H524.906V174.518C524.906 172.901 524.11 172.016 522.801 172.016C521.877 172.016 521.261 172.478 520.94 173.286V172.144H519.683V178.201ZM528.703 181.23C530.731 181.23 531.95 180.473 531.95 179.215C531.95 177.983 530.974 177.354 529.05 177.354H527.792C527.227 177.354 526.855 177.162 526.855 176.867C526.855 176.61 527.112 176.405 527.574 176.43H527.664C527.92 176.507 528.19 176.546 528.472 176.546C530.012 176.546 531.026 175.66 531.026 174.287C531.026 174.069 530.987 173.864 530.936 173.659C531.205 173.363 531.59 173.338 531.911 173.453V172.144C531.27 172.144 530.859 172.504 530.641 173.043C530.217 172.414 529.46 172.016 528.536 172.016C527.073 172.016 525.982 172.991 525.982 174.3C525.982 175.006 526.316 175.609 526.842 176.02C526.149 176.174 525.751 176.572 525.751 177.098C525.751 177.598 526.136 177.996 526.752 178.15C526.059 178.407 525.636 178.881 525.636 179.485C525.636 180.614 526.714 181.23 528.703 181.23ZM528.511 175.571C527.689 175.571 527.15 175.057 527.15 174.313V174.262C527.15 173.517 527.728 172.978 528.511 172.978C529.319 172.978 529.896 173.517 529.896 174.262V174.313C529.896 175.07 529.357 175.571 528.511 175.571ZM528.742 180.28C527.445 180.28 526.74 179.947 526.74 179.382C526.74 178.779 527.433 178.432 528.254 178.432H529.011C530.281 178.432 530.82 178.702 530.82 179.305C530.82 179.908 530.025 180.28 528.742 180.28Z" fill="white"/>
<rect x="396.077" y="151.645" width="164.954" height="44.1125" rx="6.01534" stroke="#7795DA" stroke-width="0.802045"/>
<rect x="396.077" y="209.209" width="164.954" height="44.1125" rx="6.01534" fill="#1F325D"/>
<path d="M409.783 231.76L411.984 234.112L416.885 228.592" stroke="#FB835E" stroke-width="1.00256" stroke-miterlimit="10" stroke-linecap="square"/>
<circle cx="413.321" cy="231.265" r="7.51917" stroke="#FB835E" stroke-width="1.00256"/>
<path d="M432.262 235.919C434.777 235.919 436.433 234.135 436.433 231.505C436.433 228.874 434.79 227.09 432.326 227.09C429.811 227.09 428.156 228.874 428.156 231.505C428.156 234.135 429.798 235.919 432.262 235.919ZM432.275 234.764C430.555 234.764 429.49 233.532 429.49 231.53V231.466C429.49 229.451 430.581 228.245 432.313 228.245C434.033 228.245 435.098 229.477 435.098 231.466V231.53C435.098 233.558 434.007 234.764 432.275 234.764ZM437.448 235.765H438.706V232.865C438.706 231.479 439.245 230.696 440.181 230.696C441.003 230.696 441.401 231.197 441.401 232.146V235.765H442.671V232.082C442.671 230.465 441.875 229.58 440.566 229.58C439.643 229.58 439.027 230.042 438.706 230.85V229.708H437.448V235.765ZM443.902 235.765H445.173V227.116H443.902V235.765ZM446.47 228.733H447.83V227.398H446.47V228.733ZM446.509 235.765H447.779V229.708H446.509V235.765ZM449.128 235.765H450.386V232.865C450.386 231.479 450.924 230.696 451.861 230.696C452.683 230.696 453.08 231.197 453.08 232.146V235.765H454.351V232.082C454.351 230.465 453.555 229.58 452.246 229.58C451.322 229.58 450.706 230.042 450.386 230.85V229.708H449.128V235.765ZM458.251 235.868C459.804 235.868 460.664 235.123 461.074 234.187L459.958 233.75C459.727 234.341 459.278 234.841 458.251 234.841C457.224 234.841 456.57 234.212 456.493 233.173H461.049V232.711C461.049 230.799 459.983 229.605 458.2 229.605C456.48 229.605 455.235 230.901 455.235 232.775C455.235 234.636 456.39 235.868 458.251 235.868ZM456.467 232.223C456.596 231.235 457.263 230.632 458.174 230.632C459.124 230.632 459.701 231.184 459.752 232.223H456.467ZM464.555 238.152H465.8V234.892C466.223 235.508 466.903 235.893 467.737 235.893C469.303 235.893 470.471 234.661 470.471 232.711V232.698C470.471 230.76 469.303 229.58 467.75 229.58C466.903 229.58 466.21 229.965 465.787 230.606V229.708H464.555V238.152ZM467.429 234.815C466.364 234.815 465.723 234.007 465.723 232.814V232.711C465.723 231.505 466.377 230.658 467.429 230.658C468.469 230.658 469.149 231.363 469.149 232.66V232.749C469.149 234.058 468.456 234.815 467.429 234.815ZM473.168 235.919C474.041 235.919 474.798 235.573 475.209 234.854V235.765H476.428L476.415 234.828V231.838C476.415 230.298 475.491 229.605 473.938 229.605C472.334 229.605 471.256 230.427 471.218 231.787H472.488V231.71C472.539 231.03 473.027 230.619 473.925 230.619C474.849 230.619 475.221 231.004 475.221 231.505V231.594C475.093 231.928 474.464 231.992 473.438 232.21C472.09 232.506 471.076 232.814 471.076 234.174C471.076 235.213 471.872 235.919 473.168 235.919ZM473.399 234.957C472.732 234.957 472.36 234.623 472.36 234.122C472.36 233.481 472.924 233.263 473.617 233.083C474.208 232.942 474.849 232.839 475.221 232.583V233.327C475.119 234.507 474.285 234.957 473.399 234.957ZM477.041 238.203H477.682C479.132 238.203 479.659 237.639 480.21 236.201L482.533 229.708H481.198L479.723 234.225L478.106 229.708H476.784L479.12 235.65C478.645 236.882 478.452 237.061 477.618 237.061H477.041V238.203ZM483.165 235.765H484.422V232.377C484.422 231.286 484.961 230.696 485.693 230.696C486.411 230.696 486.796 231.132 486.796 232.031V235.765H488.067V232.377C488.067 231.325 488.529 230.696 489.337 230.696C490.056 230.696 490.441 231.132 490.441 232.031V235.765H491.711V231.967C491.711 230.465 490.98 229.58 489.825 229.58C488.798 229.58 488.157 230.106 487.861 230.901C487.579 229.939 486.899 229.58 486.193 229.58C485.321 229.58 484.73 230.016 484.422 230.773V229.708H483.165V235.765ZM495.609 235.868C497.162 235.868 498.021 235.123 498.432 234.187L497.316 233.75C497.085 234.341 496.635 234.841 495.609 234.841C494.582 234.841 493.928 234.212 493.851 233.173H498.406V232.711C498.406 230.799 497.341 229.605 495.558 229.605C493.838 229.605 492.593 230.901 492.593 232.775C492.593 234.636 493.748 235.868 495.609 235.868ZM493.825 232.223C493.953 231.235 494.621 230.632 495.532 230.632C496.481 230.632 497.059 231.184 497.11 232.223H493.825ZM499.419 235.765H500.676V232.865C500.676 231.479 501.215 230.696 502.152 230.696C502.973 230.696 503.371 231.197 503.371 232.146V235.765H504.642V232.082C504.642 230.465 503.846 229.58 502.537 229.58C501.613 229.58 500.997 230.042 500.676 230.85V229.708H499.419V235.765ZM507.558 235.765H508.636V234.661H507.918C507.533 234.661 507.379 234.482 507.379 234.097V230.786H508.687V229.708H507.379V227.77L506.159 228.527V229.708H505.197V230.786H506.159V234.251C506.172 235.213 506.455 235.714 507.558 235.765ZM512.101 238.152H513.346V234.892C513.769 235.508 514.449 235.893 515.284 235.893C516.849 235.893 518.017 234.661 518.017 232.711V232.698C518.017 230.76 516.849 229.58 515.296 229.58C514.449 229.58 513.756 229.965 513.333 230.606V229.708H512.101V238.152ZM514.976 234.815C513.91 234.815 513.269 234.007 513.269 232.814V232.711C513.269 231.505 513.923 230.658 514.976 230.658C516.015 230.658 516.695 231.363 516.695 232.66V232.749C516.695 234.058 516.002 234.815 514.976 234.815ZM521.675 235.868C523.459 235.868 524.729 234.572 524.729 232.749C524.729 230.901 523.485 229.605 521.701 229.605C519.917 229.605 518.66 230.901 518.66 232.749C518.66 234.597 519.892 235.868 521.675 235.868ZM521.675 234.803C520.597 234.803 519.93 234.033 519.93 232.788V232.737C519.93 231.466 520.623 230.67 521.701 230.67C522.779 230.67 523.459 231.466 523.459 232.737V232.788C523.459 234.02 522.766 234.803 521.675 234.803ZM525.723 235.765H526.981V232.66C526.981 231.428 527.276 230.889 528.354 230.889H528.931V229.657H528.739C527.635 229.657 527.16 230.119 526.981 230.824V229.708H525.723V235.765ZM531.845 235.765H532.923V234.661H532.204C531.819 234.661 531.665 234.482 531.665 234.097V230.786H532.974V229.708H531.665V227.77L530.446 228.527V229.708H529.484V230.786H530.446V234.251C530.459 235.213 530.742 235.714 531.845 235.765ZM535.665 235.919C536.538 235.919 537.295 235.573 537.705 234.854V235.765H538.924L538.912 234.828V231.838C538.912 230.298 537.988 229.605 536.435 229.605C534.831 229.605 533.753 230.427 533.714 231.787H534.985V231.71C535.036 231.03 535.524 230.619 536.422 230.619C537.346 230.619 537.718 231.004 537.718 231.505V231.594C537.59 231.928 536.961 231.992 535.934 232.21C534.587 232.506 533.573 232.814 533.573 234.174C533.573 235.213 534.369 235.919 535.665 235.919ZM535.896 234.957C535.229 234.957 534.857 234.623 534.857 234.122C534.857 233.481 535.421 233.263 536.114 233.083C536.704 232.942 537.346 232.839 537.718 232.583V233.327C537.616 234.507 536.781 234.957 535.896 234.957ZM540.173 235.765H541.443V227.116H540.173V235.765Z" fill="white"/>
<rect x="396.077" y="209.209" width="164.954" height="44.1125" rx="6.01534" stroke="#7795DA" stroke-width="0.802045"/>
<circle cx="288.5" cy="346.498" r="37.9982" fill="#1F325D" stroke="#3A5080"/>
<g clip-path="url(#clip0_1011_18673)">
<path d="M297.802 344.091H307.263C307.377 344.091 307.489 344.123 307.585 344.185C307.682 344.246 307.759 344.334 307.807 344.437C307.856 344.541 307.874 344.656 307.859 344.769C307.844 344.883 307.798 344.989 307.725 345.077L302.994 350.756C302.938 350.823 302.867 350.878 302.787 350.915C302.707 350.953 302.62 350.972 302.532 350.972C302.444 350.972 302.357 350.953 302.277 350.915C302.197 350.878 302.127 350.823 302.07 350.756L297.34 345.077C297.267 344.989 297.22 344.883 297.205 344.769C297.191 344.656 297.209 344.541 297.257 344.437C297.306 344.334 297.383 344.246 297.479 344.185C297.575 344.123 297.687 344.091 297.802 344.091ZM271.334 348.903H280.795C280.909 348.903 281.021 348.87 281.118 348.809C281.214 348.748 281.291 348.66 281.34 348.557C281.388 348.453 281.406 348.338 281.392 348.225C281.377 348.111 281.33 348.004 281.257 347.916L276.527 342.238C276.47 342.17 276.4 342.116 276.32 342.078C276.24 342.041 276.153 342.022 276.065 342.022C275.977 342.022 275.889 342.041 275.81 342.078C275.73 342.116 275.659 342.17 275.603 342.238L270.872 347.916C270.799 348.004 270.752 348.111 270.738 348.225C270.723 348.338 270.741 348.453 270.79 348.557C270.838 348.66 270.915 348.748 271.012 348.809C271.108 348.87 271.22 348.903 271.334 348.903Z" fill="white"/>
<path fill-rule="evenodd" clip-rule="evenodd" d="M289.296 334.467C285.561 334.467 282.222 336.168 280.015 338.841C279.917 338.969 279.794 339.075 279.653 339.155C279.512 339.234 279.357 339.284 279.197 339.302C279.037 339.32 278.875 339.305 278.72 339.259C278.565 339.213 278.422 339.137 278.297 339.034C278.173 338.932 278.07 338.805 277.996 338.662C277.921 338.519 277.876 338.362 277.863 338.202C277.851 338.041 277.87 337.879 277.921 337.726C277.972 337.573 278.053 337.432 278.16 337.311C279.922 335.178 282.259 333.596 284.894 332.753C287.529 331.91 290.351 331.841 293.023 332.556C295.696 333.27 298.107 334.737 299.97 336.782C301.833 338.827 303.07 341.364 303.533 344.091H301.086C300.53 341.374 299.053 338.932 296.905 337.179C294.757 335.425 292.069 334.467 289.296 334.467ZM277.506 348.904C277.961 351.128 279.037 353.179 280.608 354.818C282.18 356.458 284.183 357.619 286.387 358.168C288.59 358.717 290.904 358.631 293.061 357.921C295.218 357.211 297.13 355.905 298.576 354.154C298.675 354.026 298.798 353.919 298.938 353.84C299.079 353.761 299.234 353.711 299.394 353.693C299.555 353.675 299.717 353.689 299.871 353.735C300.026 353.781 300.17 353.858 300.294 353.961C300.419 354.063 300.521 354.19 300.596 354.333C300.67 354.476 300.715 354.632 300.728 354.793C300.741 354.954 300.721 355.116 300.67 355.269C300.619 355.422 300.538 355.563 300.431 355.684C298.67 357.817 296.332 359.399 293.697 360.242C291.062 361.085 288.241 361.154 285.568 360.439C282.895 359.725 280.484 358.258 278.621 356.213C276.758 354.168 275.521 351.631 275.059 348.904H277.506Z" fill="white"/>
</g>
<path d="M117.173 116.3H119.21V112.563H120.654C123.622 112.563 125.129 111.359 125.129 109.082C125.129 106.788 123.702 105.649 120.734 105.649H117.173V116.3ZM119.21 110.942V107.285H120.686C122.402 107.285 123.092 107.814 123.092 109.082C123.092 110.381 122.386 110.926 120.654 110.942H119.21ZM128.144 116.493C129.267 116.493 130.133 116.059 130.614 115.273V116.3H132.523V111.536C132.523 109.483 131.272 108.584 129.219 108.584C127.085 108.584 125.738 109.723 125.674 111.44H127.647V111.327C127.695 110.654 128.176 110.14 129.203 110.14C130.229 110.14 130.63 110.557 130.63 111.007V111.087C130.582 111.504 129.876 111.568 128.481 111.841C126.78 112.21 125.513 112.595 125.513 114.295C125.513 115.61 126.524 116.493 128.144 116.493ZM128.609 115.065C127.919 115.065 127.518 114.712 127.518 114.199C127.518 113.525 128.096 113.268 128.866 113.076C129.491 112.915 130.197 112.787 130.63 112.53V113.172C130.582 114.584 129.555 115.065 128.609 115.065ZM133.205 119.364H134.135C135.964 119.364 136.734 118.674 137.376 117.006L140.263 108.729H138.274L136.622 114.006L134.857 108.729H132.772L135.627 116.236C135.146 117.487 134.905 117.648 133.991 117.648H133.205V119.364ZM140.904 116.3H142.893V111.985C142.893 110.83 143.503 110.269 144.241 110.269C145.059 110.269 145.476 110.75 145.476 111.68V116.3H147.465V111.985C147.465 110.878 147.946 110.269 148.812 110.269C149.614 110.269 150.047 110.75 150.047 111.761V116.3H152.036V111.648C152.036 109.707 151.122 108.568 149.646 108.568C148.331 108.568 147.513 109.226 147.176 110.156C146.791 108.969 145.941 108.568 145.091 108.568C144.016 108.568 143.278 109.066 142.893 109.948V108.729H140.904V116.3ZM156.854 116.428C158.827 116.428 159.934 115.53 160.463 114.311L158.731 113.701C158.49 114.343 158.009 114.872 156.886 114.872C155.811 114.872 155.105 114.263 154.977 113.172H160.463V112.498C160.463 110.108 159.1 108.584 156.806 108.584C154.592 108.584 153.02 110.221 153.02 112.563C153.02 114.921 154.496 116.428 156.854 116.428ZM154.945 111.793C155.089 110.734 155.795 110.124 156.758 110.124C157.784 110.124 158.378 110.686 158.458 111.793H154.945ZM161.55 116.3H163.539V112.45C163.539 111.039 164.117 110.269 165.063 110.269C165.994 110.269 166.395 110.814 166.395 111.873V116.3H168.384V111.761C168.384 109.675 167.405 108.568 165.753 108.568C164.678 108.568 163.941 109.082 163.539 109.964V108.729H161.55V116.3ZM171.929 116.3H173.469V114.648H172.587C172.218 114.632 172.042 114.471 172.042 114.102V110.333H173.549V108.729H172.058V106.21L170.117 107.301V108.729H169.042V110.333H170.117V114.295C170.149 115.546 170.47 116.22 171.929 116.3ZM177.552 116.525C179.333 116.525 180.648 115.45 180.648 114.022C180.648 112.482 179.156 111.969 177.793 111.712C176.477 111.456 176.044 111.376 176.044 110.862C176.044 110.413 176.493 110.108 177.199 110.108C177.953 110.108 178.595 110.429 179.012 111.055L180.584 110.221C179.846 109.226 178.691 108.552 177.183 108.552C175.483 108.552 174.167 109.627 174.167 111.007C174.167 112.514 175.483 113.028 176.798 113.3C177.905 113.541 178.739 113.637 178.739 114.167C178.739 114.664 178.306 114.969 177.6 114.969C176.814 114.969 176.108 114.616 175.691 114.022L174.119 114.921C174.825 115.867 175.996 116.525 177.552 116.525Z" fill="#FB835E"/>
<rect x="15.9684" y="89.3538" width="265.805" height="45.9028" rx="6.01534" stroke="#FB835E" stroke-width="0.802045"/>
<path d="M358.837 116.3H360.859L361.885 113.461H365.879L366.89 116.3H369.055L365.174 105.649H362.848L358.837 116.3ZM362.479 111.777L363.922 107.83L365.318 111.777H362.479ZM372.918 116.444C374.827 116.444 375.95 115.466 376.479 113.91L374.603 113.365C374.378 114.279 373.961 114.824 372.886 114.824C371.779 114.824 371.138 113.878 371.138 112.547V112.482C371.138 111.151 371.844 110.205 372.95 110.205C373.881 110.205 374.298 110.75 374.522 111.584L376.399 111.007C375.886 109.547 374.795 108.584 372.966 108.584C370.705 108.584 369.149 110.221 369.149 112.498C369.149 114.84 370.576 116.444 372.918 116.444ZM380.798 116.444C382.707 116.444 383.83 115.466 384.359 113.91L382.482 113.365C382.258 114.279 381.84 114.824 380.766 114.824C379.659 114.824 379.017 113.878 379.017 112.547V112.482C379.017 111.151 379.723 110.205 380.83 110.205C381.76 110.205 382.177 110.75 382.402 111.584L384.279 111.007C383.765 109.547 382.675 108.584 380.846 108.584C378.584 108.584 377.028 110.221 377.028 112.498C377.028 114.84 378.456 116.444 380.798 116.444ZM388.679 116.444C390.973 116.444 392.609 114.808 392.609 112.53C392.609 110.221 391.005 108.584 388.727 108.584C386.433 108.584 384.829 110.221 384.829 112.53C384.829 114.84 386.401 116.444 388.679 116.444ZM388.695 114.824C387.54 114.824 386.85 113.99 386.85 112.579V112.514C386.85 111.071 387.556 110.205 388.727 110.205C389.882 110.205 390.588 111.071 390.588 112.514V112.579C390.588 113.99 389.866 114.824 388.695 114.824ZM396.351 116.444C397.33 116.444 398.019 116.011 398.42 115.225V116.3H400.409V108.729H398.42V112.579C398.42 113.878 397.987 114.76 396.945 114.76C396.046 114.76 395.565 114.167 395.565 113.156V108.729H393.576V113.268C393.576 115.225 394.635 116.444 396.351 116.444ZM401.881 116.3H403.871V112.45C403.871 111.039 404.448 110.269 405.394 110.269C406.325 110.269 406.726 110.814 406.726 111.873V116.3H408.715V111.761C408.715 109.675 407.736 108.568 406.084 108.568C405.009 108.568 404.272 109.082 403.871 109.964V108.729H401.881V116.3ZM412.26 116.3H413.8V114.648H412.918C412.549 114.632 412.373 114.471 412.373 114.102V110.333H413.88V108.729H412.389V106.21L410.448 107.301V108.729H409.373V110.333H410.448V114.295C410.48 115.546 410.801 116.22 412.26 116.3ZM417.883 116.525C419.664 116.525 420.979 115.45 420.979 114.022C420.979 112.482 419.487 111.969 418.124 111.712C416.808 111.456 416.375 111.376 416.375 110.862C416.375 110.413 416.824 110.108 417.53 110.108C418.284 110.108 418.926 110.429 419.343 111.055L420.915 110.221C420.177 109.226 419.022 108.552 417.514 108.552C415.814 108.552 414.498 109.627 414.498 111.007C414.498 112.514 415.814 113.028 417.129 113.3C418.236 113.541 419.07 113.637 419.07 114.167C419.07 114.664 418.637 114.969 417.931 114.969C417.145 114.969 416.439 114.616 416.022 114.022L414.45 114.921C415.156 115.867 416.327 116.525 417.883 116.525ZM425.239 116.3H427.245V112.402H428.399C430.485 112.418 431.287 113.717 431.543 115.915L431.56 116.3H433.725C433.709 116.268 433.661 115.835 433.661 115.787C433.356 113.284 432.586 112.017 430.95 111.552C432.57 111.263 433.517 110.124 433.517 108.616C433.517 106.868 432.297 105.649 429.298 105.649H425.239V116.3ZM427.245 110.862V107.285H429.169C430.822 107.285 431.463 107.83 431.463 108.857C431.463 109.771 430.854 110.846 429.057 110.846L427.245 110.862ZM438.055 116.428C440.028 116.428 441.135 115.53 441.664 114.311L439.931 113.701C439.691 114.343 439.21 114.872 438.087 114.872C437.012 114.872 436.306 114.263 436.178 113.172H441.664V112.498C441.664 110.108 440.3 108.584 438.007 108.584C435.793 108.584 434.221 110.221 434.221 112.563C434.221 114.921 435.697 116.428 438.055 116.428ZM436.146 111.793C436.29 110.734 436.996 110.124 437.958 110.124C438.985 110.124 439.579 110.686 439.659 111.793H436.146ZM446.183 116.444C448.092 116.444 449.215 115.466 449.744 113.91L447.868 113.365C447.643 114.279 447.226 114.824 446.151 114.824C445.044 114.824 444.403 113.878 444.403 112.547V112.482C444.403 111.151 445.109 110.205 446.215 110.205C447.146 110.205 447.563 110.75 447.787 111.584L449.664 111.007C449.151 109.547 448.06 108.584 446.231 108.584C443.97 108.584 442.414 110.221 442.414 112.498C442.414 114.84 443.841 116.444 446.183 116.444ZM454.127 116.428C456.1 116.428 457.207 115.53 457.736 114.311L456.004 113.701C455.763 114.343 455.282 114.872 454.159 114.872C453.084 114.872 452.378 114.263 452.25 113.172H457.736V112.498C457.736 110.108 456.373 108.584 454.079 108.584C451.865 108.584 450.293 110.221 450.293 112.563C450.293 114.921 451.769 116.428 454.127 116.428ZM452.218 111.793C452.362 110.734 453.068 110.124 454.031 110.124C455.057 110.124 455.651 110.686 455.731 111.793H452.218ZM458.807 107.622H460.877V105.681H458.807V107.622ZM458.84 116.3H460.845V108.729H458.84V116.3ZM464.468 116.3H466.313L469.072 108.729H467.082L465.414 114.006L463.618 108.729H461.564L464.468 116.3ZM471.629 116.493C472.751 116.493 473.618 116.059 474.099 115.273V116.3H476.008V111.536C476.008 109.483 474.757 108.584 472.703 108.584C470.57 108.584 469.222 109.723 469.158 111.44H471.131V111.327C471.179 110.654 471.661 110.14 472.687 110.14C473.714 110.14 474.115 110.557 474.115 111.007V111.087C474.067 111.504 473.361 111.568 471.965 111.841C470.265 112.21 468.998 112.595 468.998 114.295C468.998 115.61 470.008 116.493 471.629 116.493ZM472.094 115.065C471.404 115.065 471.003 114.712 471.003 114.199C471.003 113.525 471.58 113.268 472.35 113.076C472.976 112.915 473.682 112.787 474.115 112.53V113.172C474.067 114.584 473.04 115.065 472.094 115.065ZM481.637 116.46C483.562 116.46 485.006 114.921 485.006 112.466V112.45C485.006 110.028 483.546 108.568 481.653 108.568C480.675 108.568 479.857 108.985 479.343 109.675V105.489H477.386V116.3H479.327V115.322C479.857 116.043 480.675 116.46 481.637 116.46ZM481.092 114.84C479.921 114.84 479.247 113.974 479.247 112.611V112.482C479.247 111.119 479.953 110.188 481.092 110.188C482.199 110.188 482.937 110.926 482.937 112.418V112.53C482.937 114.022 482.167 114.84 481.092 114.84ZM486.144 116.3H488.149V105.505H486.144V116.3ZM493.101 116.428C495.074 116.428 496.181 115.53 496.711 114.311L494.978 113.701C494.737 114.343 494.256 114.872 493.133 114.872C492.059 114.872 491.353 114.263 491.225 113.172H496.711V112.498C496.711 110.108 495.347 108.584 493.053 108.584C490.84 108.584 489.268 110.221 489.268 112.563C489.268 114.921 490.743 116.428 493.101 116.428ZM491.192 111.793C491.337 110.734 492.043 110.124 493.005 110.124C494.032 110.124 494.625 110.686 494.705 111.793H491.192Z" fill="#FB835E"/>
<rect x="295.226" y="89.3538" width="265.805" height="45.9028" rx="6.01534" stroke="#FB835E" stroke-width="0.802045"/>
<path fill-rule="evenodd" clip-rule="evenodd" d="M266.011 51.4061L261.229 43.1799H256.835V51.4061H253.119V28.8244H262.166C266.205 28.8244 269.436 32.0504 269.436 36.0828C269.436 38.9862 267.594 41.5669 264.945 42.6315L270.082 51.4061H266.011ZM256.835 32.3084V39.8571H262.166C264.137 39.8571 265.72 38.1796 265.72 36.0827C265.72 33.9536 264.137 32.3084 262.166 32.3084H256.835ZM274.633 44.8255C275.182 47.3417 277.217 48.6321 279.802 48.6321C281.741 48.6321 283.195 47.7611 283.97 46.632L286.846 48.3095C285.36 50.5032 282.937 51.8258 279.77 51.8258C274.439 51.8258 270.982 48.1805 270.982 43.3415C270.982 38.5671 274.439 34.8573 279.512 34.8573C284.326 34.8573 287.622 38.7284 287.622 43.3738C287.622 43.8577 287.557 44.3738 287.492 44.8255H274.633ZM274.6 41.9861H284.099C283.615 39.2118 281.579 38.0182 279.479 38.0182C276.862 38.0182 275.084 39.5667 274.6 41.9861ZM293.204 39.7285C293.204 42.6641 301.896 40.8898 301.896 46.8578C301.896 50.0838 299.085 51.8258 295.595 51.8258C292.364 51.8258 290.038 50.3741 289.004 48.0514L292.009 46.3094C292.526 47.7611 293.818 48.6321 295.595 48.6321C297.146 48.6321 298.342 48.1159 298.342 46.8256C298.342 43.9545 289.65 45.5674 289.65 39.793C289.65 36.7606 292.267 34.8573 295.563 34.8573C298.213 34.8573 300.41 36.0831 301.541 38.2123L298.6 39.8575C298.019 38.5994 296.888 38.0187 295.563 38.0187C294.303 38.0187 293.204 38.5671 293.204 39.7285ZM312.198 51.8258C307.48 51.8258 303.668 48.1159 303.668 43.3415C303.668 38.5349 307.48 34.8573 312.198 34.8573C316.948 34.8573 320.728 38.5349 320.728 43.3415C320.728 48.1159 316.948 51.8258 312.198 51.8258ZM312.199 48.4389C315.042 48.4389 317.239 46.2775 317.239 43.3419C317.239 40.4063 315.042 38.2449 312.199 38.2449C309.355 38.2449 307.158 40.4063 307.158 43.3419C307.158 46.2775 309.355 48.4389 312.199 48.4389ZM323.217 51.4064V27.8569H326.707V51.4064H323.217ZM341.726 35.2761H345.539L339.238 51.4059H335.199L328.898 35.2761H332.711L337.235 47.5347L341.726 35.2761ZM349.862 44.8255C350.411 47.3417 352.447 48.6321 355.032 48.6321C356.971 48.6321 358.425 47.7611 359.2 46.632L362.076 48.3095C360.589 50.5032 358.166 51.8258 355 51.8258C349.668 51.8258 346.211 48.1805 346.211 43.3415C346.211 38.5671 349.668 34.8573 354.741 34.8573C359.555 34.8573 362.851 38.7284 362.851 43.3738C362.851 43.8577 362.787 44.3738 362.722 44.8255H349.862ZM349.831 41.9861H359.331C358.846 39.2118 356.811 38.0182 354.71 38.0182C352.093 38.0182 350.316 39.5667 349.831 41.9861ZM217.75 47.8477L223.938 41.8203L228.552 46.3124L240.844 34.3452L244.577 37.98C245.23 38.6146 245.598 39.4812 245.598 40.3856C245.598 41.2901 245.23 42.1567 244.577 42.7913L231.021 55.992C229.652 57.3226 227.453 57.3226 226.083 55.992L217.75 47.8477ZM228.536 34.4156L223.957 38.8902L222.454 40.3555L216.248 46.3828L212.529 42.7612C211.874 42.1277 211.505 41.2606 211.505 40.3555C211.505 39.4503 211.874 38.5833 212.529 37.9498L226.085 24.7578C226.742 24.1166 227.63 23.758 228.554 23.7606C229.474 23.7615 230.356 24.1198 231.01 24.7578L239.357 32.8803L233.151 38.9077L228.536 34.4156Z" fill="white"/>
<defs>
<clipPath id="clip0_1011_18673">
<rect width="38.4982" height="38.4982" fill="white" transform="translate(270.053 327.249)"/>
</clipPath>
</defs>
</svg>
