<svg width="298" height="249" viewBox="0 0 298 249" fill="none" xmlns="http://www.w3.org/2000/svg">
<rect width="297.841" height="248.364" rx="25.4421" fill="white"/>
<rect x="9.7157" y="9.7157" width="278.409" height="228.932" rx="20.8147" fill="white"/>
<rect width="240.994" height="191.517" transform="translate(28.4233 28.4233)" fill="white"/>
<circle cx="46.2122" cy="50.9265" r="17.7888" fill="#EFFFEE"/>
<path d="M39.1487 51.9098L43.5421 56.6051L53.3241 45.5869" stroke="#1EA672" stroke-width="1.77855" stroke-miterlimit="10" stroke-linecap="square"/>
<path d="M83.5092 47.4233H85.6322V40.9694L90.7274 33.3266H88.3496L84.5919 39.0587L80.8767 33.3266H78.4564L83.5092 40.927V47.4233ZM93.6943 47.5932C96.6452 47.5932 98.747 45.4489 98.747 42.4343C98.747 39.3772 96.6877 37.2329 93.7367 37.2329C90.7858 37.2329 88.7052 39.3772 88.7052 42.4343C88.7052 45.4914 90.7433 47.5932 93.6943 47.5932ZM93.6943 45.8311C91.9109 45.8311 90.807 44.5573 90.807 42.498V42.4131C90.807 40.3113 91.9534 38.995 93.7367 38.995C95.52 38.995 96.6452 40.3113 96.6452 42.4131V42.498C96.6452 44.5361 95.4988 45.8311 93.6943 45.8311ZM103.788 47.5932C105.232 47.5932 106.209 46.935 106.76 45.7037V47.4233H108.841V37.4028H106.76V42.2008C106.76 44.3662 105.996 45.7886 104.34 45.7886C102.982 45.7886 102.302 44.9394 102.302 43.3896V37.4028H100.2V43.4958C100.2 46.0434 101.538 47.5932 103.788 47.5932ZM111.047 47.4233H113.128V42.2857C113.128 40.2476 113.616 39.3559 115.4 39.3559H116.355V37.3179H116.037C114.211 37.3179 113.425 38.0821 113.128 39.2498V37.4028H111.047V47.4233ZM126.097 47.5932C128.538 47.5932 130.046 46.2981 130.704 44.2601L128.708 43.6444C128.369 45.0031 127.668 45.8311 126.055 45.8311C124.314 45.8311 123.295 44.4299 123.295 42.4555V42.3706C123.295 40.375 124.377 38.995 126.118 38.995C127.562 38.995 128.284 39.8018 128.623 41.0756L130.619 40.4599C130.003 38.5067 128.517 37.2329 126.161 37.2329C123.231 37.2329 121.193 39.3984 121.193 42.3918C121.193 45.4489 123.104 47.5932 126.097 47.5932ZM135.447 47.5932C136.89 47.5932 137.867 46.935 138.419 45.7037V47.4233H140.499V37.4028H138.419V42.2008C138.419 44.3662 137.655 45.7886 135.999 45.7886C134.64 45.7886 133.961 44.9394 133.961 43.3896V37.4028H131.859V43.4958C131.859 46.0434 133.196 47.5932 135.447 47.5932ZM146.443 47.6993C148.715 47.6993 150.35 46.3406 150.35 44.4936C150.35 42.5192 148.46 41.8611 146.634 41.5002C144.809 41.1393 144.129 40.9906 144.129 40.1627C144.129 39.3984 144.83 38.8889 145.913 38.8889C146.953 38.8889 147.866 39.3559 148.439 40.2264L150.244 39.3347C149.267 38.0397 147.802 37.1905 145.913 37.1905C143.79 37.1905 142.134 38.528 142.134 40.2901C142.134 42.222 143.768 42.8589 145.594 43.241C147.165 43.5807 148.333 43.7718 148.333 44.6422C148.333 45.4702 147.653 45.9797 146.528 45.9797C145.467 45.9797 144.426 45.5339 143.811 44.6422L142.006 45.5976C142.919 46.8714 144.511 47.6993 146.443 47.6993ZM154.886 47.4233H156.67V45.5976H155.481C154.844 45.5976 154.589 45.3003 154.589 44.6634V39.1861H156.754V37.4028H154.589V34.197L152.572 35.4496V37.4028H150.98V39.1861H152.572V44.9182C152.593 46.5104 153.06 47.3384 154.886 47.4233ZM162.339 47.5932C165.29 47.5932 167.392 45.4489 167.392 42.4343C167.392 39.3772 165.333 37.2329 162.382 37.2329C159.431 37.2329 157.35 39.3772 157.35 42.4343C157.35 45.4914 159.388 47.5932 162.339 47.5932ZM162.339 45.8311C160.556 45.8311 159.452 44.5573 159.452 42.498V42.4131C159.452 40.3113 160.598 38.995 162.382 38.995C164.165 38.995 165.29 40.3113 165.29 42.4131V42.498C165.29 44.5361 164.144 45.8311 162.339 45.8311ZM169.036 47.4233H171.117V41.8186C171.117 40.0141 172.008 39.0375 173.218 39.0375C174.407 39.0375 175.044 39.7593 175.044 41.2454V47.4233H177.146V41.8186C177.146 40.0778 177.91 39.0375 179.248 39.0375C180.437 39.0375 181.073 39.7593 181.073 41.2454V47.4233H183.175V41.1393C183.175 38.6553 181.965 37.1905 180.054 37.1905C178.356 37.1905 177.295 38.0609 176.806 39.3772C176.339 37.7849 175.214 37.1905 174.046 37.1905C172.603 37.1905 171.626 37.9123 171.117 39.1649V37.4028H169.036V47.4233ZM189.623 47.5932C192.192 47.5932 193.614 46.3618 194.294 44.812L192.447 44.0902C192.065 45.0668 191.322 45.8948 189.623 45.8948C187.925 45.8948 186.842 44.8545 186.715 43.1349H194.251V42.3706C194.251 39.2073 192.489 37.2329 189.538 37.2329C186.693 37.2329 184.634 39.3772 184.634 42.4767C184.634 45.5551 186.545 47.5932 189.623 47.5932ZM186.672 41.5639C186.885 39.9291 187.988 38.9313 189.496 38.9313C191.067 38.9313 192.022 39.8442 192.107 41.5639H186.672ZM195.926 47.4233H198.007V42.2857C198.007 40.2476 198.495 39.3559 200.278 39.3559H201.233V37.3179H200.915C199.089 37.3179 198.304 38.0821 198.007 39.2498V37.4028H195.926V47.4233ZM202.696 39.3135C204.712 38.8889 205.54 37.4665 205.54 35.6195V33.3266H203.078V35.8105H204.118C204.118 37.2329 203.693 38.1246 202.377 38.4855L202.696 39.3135ZM210.797 47.6993C213.068 47.6993 214.703 46.3406 214.703 44.4936C214.703 42.5192 212.814 41.8611 210.988 41.5002C209.162 41.1393 208.483 40.9906 208.483 40.1627C208.483 39.3984 209.183 38.8889 210.266 38.8889C211.306 38.8889 212.219 39.3559 212.792 40.2264L214.597 39.3347C213.62 38.0397 212.156 37.1905 210.266 37.1905C208.143 37.1905 206.487 38.528 206.487 40.2901C206.487 42.222 208.122 42.8589 209.948 43.241C211.519 43.5807 212.686 43.7718 212.686 44.6422C212.686 45.4702 212.007 45.9797 210.882 45.9797C209.82 45.9797 208.78 45.5339 208.164 44.6422L206.36 45.5976C207.273 46.8714 208.865 47.6993 210.797 47.6993ZM220.452 47.4233H222.533V42.6254C222.533 40.3325 223.425 39.0375 224.974 39.0375C226.333 39.0375 226.991 39.8655 226.991 41.4365V47.4233H229.093V41.3303C229.093 38.6553 227.777 37.1905 225.611 37.1905C224.083 37.1905 223.064 37.9548 222.533 39.2922V37.4028H220.452V47.4233ZM235.545 47.5932C238.114 47.5932 239.537 46.3618 240.216 44.812L238.369 44.0902C237.987 45.0668 237.244 45.8948 235.545 45.8948C233.847 45.8948 232.764 44.8545 232.637 43.1349H240.174V42.3706C240.174 39.2073 238.412 37.2329 235.461 37.2329C232.616 37.2329 230.556 39.3772 230.556 42.4767C230.556 45.5551 232.467 47.5932 235.545 47.5932ZM232.595 41.5639C232.807 39.9291 233.911 38.9313 235.418 38.9313C236.989 38.9313 237.944 39.8442 238.029 41.5639H232.595ZM244.72 47.4233H246.503V45.5976H245.314C244.677 45.5976 244.423 45.3003 244.423 44.6634V39.1861H246.588V37.4028H244.423V34.197L242.406 35.4496V37.4028H240.814V39.1861H242.406V44.9182C242.427 46.5104 242.894 47.3384 244.72 47.4233ZM82.4264 70.4233H84.2098V68.5976H83.0209C82.384 68.5976 82.1292 68.3003 82.1292 67.6634V62.1861H84.2947V60.4028H82.1292V57.197L80.1124 58.4496V60.4028H78.5201V62.1861H80.1124V67.9182C80.1336 69.5104 80.6007 70.3384 82.4264 70.4233ZM89.9002 70.5932C92.4691 70.5932 93.8915 69.3618 94.5708 67.812L92.7238 67.0902C92.3417 68.0668 91.5986 68.8948 89.9002 68.8948C88.2018 68.8948 87.1191 67.8545 86.9917 66.1349H94.5284V65.3706C94.5284 62.2073 92.7663 60.2329 89.8153 60.2329C86.9705 60.2329 84.9112 62.3772 84.9112 65.4767C84.9112 68.5551 86.8219 70.5932 89.9002 70.5932ZM86.9493 64.5639C87.1616 62.9291 88.2655 61.9313 89.7728 61.9313C91.3439 61.9313 92.2992 62.8442 92.3841 64.5639H86.9493ZM96.2031 70.4233H98.2836V65.2857C98.2836 63.2476 98.7719 62.3559 100.555 62.3559H101.511V60.3179H101.192C99.3663 60.3179 98.5808 61.0821 98.2836 62.2498V60.4028H96.2031V70.4233ZM102.983 70.4233H105.063V64.8186C105.063 63.0141 105.955 62.0375 107.165 62.0375C108.354 62.0375 108.991 62.7593 108.991 64.2454V70.4233H111.092V64.8186C111.092 63.0778 111.857 62.0375 113.194 62.0375C114.383 62.0375 115.02 62.7593 115.02 64.2454V70.4233H117.122V64.1393C117.122 61.6553 115.912 60.1905 114.001 60.1905C112.303 60.1905 111.241 61.0609 110.753 62.3772C110.286 60.7849 109.16 60.1905 107.993 60.1905C106.549 60.1905 105.573 60.9123 105.063 62.1649V60.4028H102.983V70.4233ZM122.912 70.6993C125.184 70.6993 126.818 69.3406 126.818 67.4936C126.818 65.5192 124.929 64.8611 123.103 64.5002C121.277 64.1393 120.598 63.9906 120.598 63.1627C120.598 62.3984 121.299 61.8889 122.381 61.8889C123.422 61.8889 124.334 62.3559 124.908 63.2264L126.712 62.3347C125.736 61.0397 124.271 60.1905 122.381 60.1905C120.258 60.1905 118.602 61.528 118.602 63.2901C118.602 65.222 120.237 65.8589 122.063 66.241C123.634 66.5807 124.802 66.7718 124.802 67.6422C124.802 68.4702 124.122 68.9797 122.997 68.9797C121.935 68.9797 120.895 68.5339 120.28 67.6422L118.475 68.5976C119.388 69.8714 120.98 70.6993 122.912 70.6993ZM135.497 70.6781C136.941 70.6781 138.194 70.1049 138.873 68.916V70.4233H140.89L140.869 68.8735V63.927C140.869 61.3794 139.34 60.2329 136.771 60.2329C134.118 60.2329 132.334 61.5917 132.271 63.842H134.372V63.7147C134.457 62.5895 135.264 61.9101 136.75 61.9101C138.279 61.9101 138.894 62.547 138.894 63.375V63.5236C138.682 64.0756 137.642 64.1817 135.943 64.5426C133.714 65.0309 132.037 65.5404 132.037 67.7908C132.037 69.5104 133.353 70.6781 135.497 70.6781ZM135.88 69.0858C134.776 69.0858 134.16 68.5339 134.16 67.7059C134.16 66.6444 135.094 66.2835 136.241 65.9863C137.217 65.7527 138.279 65.5829 138.894 65.1583V66.3896C138.724 68.3428 137.344 69.0858 135.88 69.0858ZM142.955 70.4233H145.035V65.2857C145.035 63.2476 145.523 62.3559 147.307 62.3559H148.262V60.3179H147.944C146.118 60.3179 145.332 61.0821 145.035 62.2498V60.4028H142.955V70.4233ZM153.59 70.5932C156.159 70.5932 157.581 69.3618 158.261 67.812L156.414 67.0902C156.032 68.0668 155.289 68.8948 153.59 68.8948C151.892 68.8948 150.809 67.8545 150.682 66.1349H158.218V65.3706C158.218 62.2073 156.456 60.2329 153.505 60.2329C150.66 60.2329 148.601 62.3772 148.601 65.4767C148.601 68.5551 150.512 70.5932 153.59 70.5932ZM150.639 64.5639C150.852 62.9291 151.956 61.9313 153.463 61.9313C155.034 61.9313 155.989 62.8442 156.074 64.5639H150.639ZM166.949 70.6781C168.392 70.6781 169.645 70.1049 170.324 68.916V70.4233H172.341L172.32 68.8735V63.927C172.32 61.3794 170.791 60.2329 168.222 60.2329C165.569 60.2329 163.785 61.5917 163.722 63.842H165.823V63.7147C165.908 62.5895 166.715 61.9101 168.201 61.9101C169.73 61.9101 170.345 62.547 170.345 63.375V63.5236C170.133 64.0756 169.093 64.1817 167.394 64.5426C165.165 65.0309 163.488 65.5404 163.488 67.7908C163.488 69.5104 164.804 70.6781 166.949 70.6781ZM167.331 69.0858C166.227 69.0858 165.611 68.5339 165.611 67.7059C165.611 66.6444 166.545 66.2835 167.692 65.9863C168.668 65.7527 169.73 65.5829 170.345 65.1583V66.3896C170.176 68.3428 168.796 69.0858 167.331 69.0858ZM174.406 74.3721H176.465V68.9797C177.166 69.9987 178.291 70.6356 179.671 70.6356C182.261 70.6356 184.193 68.5976 184.193 65.3706V65.3494C184.193 62.1436 182.261 60.1905 179.692 60.1905C178.291 60.1905 177.144 60.8274 176.444 61.8889V60.4028H174.406V74.3721ZM179.161 68.8523C177.399 68.8523 176.338 67.5148 176.338 65.5404V65.3706C176.338 63.375 177.42 61.9738 179.161 61.9738C180.881 61.9738 182.006 63.1414 182.006 65.2857V65.4343C182.006 67.5997 180.86 68.8523 179.161 68.8523ZM185.829 74.3721H187.889V68.9797C188.589 69.9987 189.714 70.6356 191.094 70.6356C193.684 70.6356 195.616 68.5976 195.616 65.3706V65.3494C195.616 62.1436 193.684 60.1905 191.116 60.1905C189.714 60.1905 188.568 60.8274 187.867 61.8889V60.4028H185.829V74.3721ZM190.585 68.8523C188.823 68.8523 187.761 67.5148 187.761 65.5404V65.3706C187.761 63.375 188.844 61.9738 190.585 61.9738C192.304 61.9738 193.43 63.1414 193.43 65.2857V65.4343C193.43 67.5997 192.283 68.8523 190.585 68.8523ZM197.253 70.4233H199.333V65.2857C199.333 63.2476 199.822 62.3559 201.605 62.3559H202.56V60.3179H202.242C200.416 60.3179 199.631 61.0821 199.333 62.2498V60.4028H197.253V70.4233ZM207.764 70.5932C210.715 70.5932 212.817 68.4489 212.817 65.4343C212.817 62.3772 210.757 60.2329 207.807 60.2329C204.856 60.2329 202.775 62.3772 202.775 65.4343C202.775 68.4914 204.813 70.5932 207.764 70.5932ZM207.764 68.8311C205.981 68.8311 204.877 67.5573 204.877 65.498V65.4131C204.877 63.3113 206.023 61.995 207.807 61.995C209.59 61.995 210.715 63.3113 210.715 65.4131V65.498C210.715 67.5361 209.569 68.8311 207.764 68.8311ZM216.748 70.4446H218.68L222.416 60.4028H220.23L217.703 67.9394L215.049 60.4028H212.884L216.748 70.4446ZM227.439 70.5932C230.008 70.5932 231.43 69.3618 232.11 67.812L230.263 67.0902C229.881 68.0668 229.138 68.8948 227.439 68.8948C225.741 68.8948 224.658 67.8545 224.531 66.1349H232.067V65.3706C232.067 62.2073 230.305 60.2329 227.354 60.2329C224.509 60.2329 222.45 62.3772 222.45 65.4767C222.45 68.5551 224.361 70.5932 227.439 70.5932ZM224.488 64.5639C224.7 62.9291 225.804 61.9313 227.312 61.9313C228.883 61.9313 229.838 62.8442 229.923 64.5639H224.488ZM237.669 70.6356C239.071 70.6356 240.217 70.02 240.918 68.9585V70.4233H242.956V56.1143H240.918V61.9101C240.196 60.8486 239.071 60.1905 237.691 60.1905C235.079 60.1905 233.169 62.271 233.169 65.4555C233.169 68.7037 235.101 70.6356 237.669 70.6356ZM238.2 68.8523C236.481 68.8523 235.355 67.6847 235.355 65.5404V65.3918C235.355 63.2264 236.502 61.9738 238.2 61.9738C239.962 61.9738 241.024 63.3113 241.024 65.2857V65.4555C241.024 67.4511 239.92 68.8523 238.2 68.8523ZM245.994 66.0924H246.695L247.799 55.7746V55.6897H244.848V55.7746L245.994 66.0924ZM245.039 70.4233H247.629V67.7908H245.039V70.4233Z" fill="#1F325D"/>
<rect x="28.4233" y="91.209" width="205.423" height="12.4499" rx="6.22493" fill="#EAEDF2"/>
<path d="M29.2686 135.444H33.2185C35.7236 135.444 37.0146 134.461 37.0146 132.509C37.0146 131.218 36.2769 130.419 35.032 130.019C36.0003 129.65 36.5536 128.959 36.5536 127.929C36.5536 126.161 35.3701 125.239 33.1263 125.239H29.2686V135.444ZM30.8055 129.45V126.592H33.157C34.4634 126.592 34.9859 127.007 34.9398 128.021C34.9398 128.943 34.2175 129.45 32.8343 129.45H30.8055ZM30.8055 134.092V130.772H33.0802C34.5863 130.772 35.3701 131.31 35.3394 132.432C35.3394 133.585 34.5863 134.092 33.1109 134.092H30.8055ZM40.7323 135.567C41.7774 135.567 42.4843 135.091 42.8839 134.199V135.444H44.3901V128.19H42.8839V131.664C42.8839 133.231 42.3306 134.261 41.1319 134.261C40.1482 134.261 39.6564 133.646 39.6564 132.524V128.19H38.1349V132.601C38.1349 134.445 39.1031 135.567 40.7323 135.567ZM45.497 138.364H46.2655C48.0022 138.364 48.6323 137.688 49.2932 135.967L52.075 128.19H50.4766L48.7091 133.6L46.7726 128.19H45.1896L47.9868 135.306C47.4181 136.781 47.1876 136.997 46.1886 136.997H45.497V138.364ZM55.668 135.567C57.5276 135.567 58.5573 134.676 59.0491 133.554L57.712 133.031C57.4354 133.738 56.8975 134.338 55.668 134.338C54.4384 134.338 53.6546 133.585 53.5624 132.34H59.0184V131.787C59.0184 129.497 57.7428 128.067 55.6065 128.067C53.547 128.067 52.0562 129.619 52.0562 131.863C52.0562 134.092 53.4394 135.567 55.668 135.567ZM53.5317 131.202C53.6854 130.019 54.4845 129.297 55.5757 129.297C56.7131 129.297 57.4047 129.958 57.4661 131.202H53.5317ZM60.2308 135.444H61.7369V131.725C61.7369 130.25 62.0904 129.604 63.3814 129.604H64.073V128.129H63.8425C62.5207 128.129 61.9521 128.682 61.7369 129.527V128.19H60.2308V135.444ZM71.1256 135.567C72.893 135.567 73.9842 134.63 74.4607 133.154L73.016 132.709C72.7701 133.692 72.2629 134.292 71.0949 134.292C69.8346 134.292 69.0969 133.277 69.0969 131.848V131.787C69.0969 130.342 69.8807 129.343 71.141 129.343C72.1861 129.343 72.7086 129.927 72.9545 130.849L74.3992 130.403C73.9535 128.989 72.8777 128.067 71.1717 128.067C69.0508 128.067 67.5754 129.635 67.5754 131.802C67.5754 134.015 68.9586 135.567 71.1256 135.567ZM75.4797 135.444H76.9859V131.725C76.9859 130.25 77.3394 129.604 78.6304 129.604H79.322V128.129H79.0914C77.7697 128.129 77.2011 128.682 76.9859 129.527V128.19H75.4797V135.444ZM83.1791 135.567C85.0388 135.567 86.0685 134.676 86.5603 133.554L85.2232 133.031C84.9466 133.738 84.4087 134.338 83.1791 134.338C81.9496 134.338 81.1658 133.585 81.0736 132.34H86.5296V131.787C86.5296 129.497 85.254 128.067 83.1177 128.067C81.0582 128.067 79.5674 129.619 79.5674 131.863C79.5674 134.092 80.9506 135.567 83.1791 135.567ZM81.0428 131.202C81.1965 130.019 81.9957 129.297 83.0869 129.297C84.2242 129.297 84.9158 129.958 84.9773 131.202H81.0428ZM90.5852 135.598C91.5996 135.598 92.4295 135.152 92.9367 134.384V135.444H94.4121V125.086H92.9367V129.281C92.4141 128.513 91.5996 128.036 90.6006 128.036C88.7102 128.036 87.327 129.543 87.327 131.848C87.327 134.199 88.7256 135.598 90.5852 135.598ZM90.9694 134.307C89.7245 134.307 88.91 133.462 88.91 131.909V131.802C88.91 130.234 89.7399 129.327 90.9694 129.327C92.2451 129.327 93.0135 130.296 93.0135 131.725V131.848C93.0135 133.293 92.2143 134.307 90.9694 134.307ZM95.9507 127.022H97.5798V125.424H95.9507V127.022ZM95.9968 135.444H97.5183V128.19H95.9968V135.444ZM101.378 135.444H102.669V134.123H101.808C101.347 134.123 101.162 133.907 101.162 133.446V129.481H102.73V128.19H101.162V125.869L99.7023 126.776V128.19H98.5496V129.481H99.7023V133.631C99.7177 134.783 100.056 135.383 101.378 135.444ZM106.818 135.444H108.34V125.086H106.818V135.444ZM109.894 127.022H111.523V125.424H109.894V127.022ZM109.94 135.444H111.462V128.19H109.94V135.444ZM113.077 135.444H114.583V131.971C114.583 130.311 115.228 129.374 116.35 129.374C117.334 129.374 117.81 129.973 117.81 131.11V135.444H119.332V131.033C119.332 129.097 118.379 128.036 116.812 128.036C115.705 128.036 114.967 128.59 114.583 129.558V128.19H113.077V135.444ZM124.003 135.567C125.863 135.567 126.893 134.676 127.384 133.554L126.047 133.031C125.771 133.738 125.233 134.338 124.003 134.338C122.774 134.338 121.99 133.585 121.898 132.34H127.354V131.787C127.354 129.497 126.078 128.067 123.942 128.067C121.882 128.067 120.391 129.619 120.391 131.863C120.391 134.092 121.775 135.567 124.003 135.567ZM121.867 131.202C122.021 130.019 122.82 129.297 123.911 129.297C125.048 129.297 125.74 129.958 125.801 131.202H121.867Z" fill="#1F325D"/>
<path d="M32.0504 163.007H32.9265V161.731C34.7708 161.624 36.2308 160.625 36.2308 158.934C36.2308 157.013 34.2789 156.598 32.7881 156.26C31.1744 155.922 30.1908 155.63 30.1908 154.723C30.1908 153.909 31.0207 153.448 32.2656 153.448C33.3722 153.448 34.2175 153.893 35.1396 154.723L36.0925 153.724C35.1703 152.802 34.0791 152.31 32.9572 152.187V150.927H32.0812V152.157C30.2523 152.233 28.7768 153.325 28.7768 154.877C28.7768 156.706 30.6365 157.182 32.1273 157.536C33.7103 157.92 34.7093 158.074 34.7093 159.073C34.7093 159.918 33.8947 160.394 32.6959 160.41C31.451 160.44 30.4059 159.933 29.4223 158.996L28.4848 160.01C29.407 160.963 30.575 161.593 32.0504 161.716V163.007ZM40.1548 162.116H41.661V151.895H40.1856C39.8013 153.663 38.6026 154.646 37.081 155.215V156.675C38.4028 156.275 39.4018 155.507 40.1548 154.523V162.116ZM47.3746 162.316C49.7414 162.316 51.2476 160.932 51.2476 158.658C51.2476 156.491 49.7568 155.138 47.5436 155.138C46.5907 155.138 45.7916 155.461 45.2383 156.045L45.6532 153.279H50.6635V151.911H44.562L43.7782 156.998L45.0999 157.797C45.5303 157.075 46.1911 156.46 47.436 156.46C48.8039 156.46 49.6645 157.259 49.6645 158.642V158.673C49.6645 160.148 48.8193 160.948 47.3592 160.948C45.9452 160.948 45.2383 160.302 45.1461 159.18H43.6245C43.6245 161.04 45.1614 162.316 47.3746 162.316ZM52.3164 164.529C53.7765 164.221 54.3605 163.192 54.3605 161.854V160.195H52.424V161.993H53.3462C53.3462 163.022 53.0541 163.668 52.1013 163.929L52.3164 164.529ZM59.7516 162.3C62.4258 162.3 63.9319 160.394 63.9319 157.013C63.9319 153.647 62.4258 151.726 59.7823 151.726C57.1081 151.726 55.6019 153.632 55.6019 157.013C55.5866 160.456 57.0773 162.3 59.7516 162.3ZM59.7823 160.932C58.0763 160.932 57.2003 159.657 57.2003 157.152V156.875C57.2003 154.37 58.061 153.094 59.7516 153.094C61.4575 153.094 62.3182 154.385 62.3182 156.875V157.152C62.3182 159.657 61.4729 160.932 59.7823 160.932ZM69.1471 162.3C71.8213 162.3 73.3275 160.394 73.3275 157.013C73.3275 153.647 71.8213 151.726 69.1778 151.726C66.5036 151.726 64.9974 153.632 64.9974 157.013C64.9821 160.456 66.4729 162.3 69.1471 162.3ZM69.1778 160.932C67.4719 160.932 66.5958 159.657 66.5958 157.152V156.875C66.5958 154.37 67.4565 153.094 69.1471 153.094C70.853 153.094 71.7137 154.385 71.7137 156.875V157.152C71.7137 159.657 70.8684 160.932 69.1778 160.932ZM78.5426 162.3C81.2168 162.3 82.723 160.394 82.723 157.013C82.723 153.647 81.2168 151.726 78.5733 151.726C75.8991 151.726 74.393 153.632 74.393 157.013C74.3776 160.456 75.8684 162.3 78.5426 162.3ZM78.5733 160.932C76.8674 160.932 75.9913 159.657 75.9913 157.152V156.875C75.9913 154.37 76.852 153.094 78.5426 153.094C80.2486 153.094 81.1092 154.385 81.1092 156.875V157.152C81.1092 159.657 80.2639 160.932 78.5733 160.932Z" fill="#16C270"/>
<path d="M154.502 135.444H156.085L157.191 132.478H161.187L162.248 135.444H163.877L160.142 125.239H158.344L154.502 135.444ZM157.652 131.126L159.205 126.915L160.711 131.126H157.652ZM167.354 135.598C168.368 135.598 169.198 135.152 169.705 134.384V135.444H171.181V125.086H169.705V129.281C169.183 128.513 168.368 128.036 167.369 128.036C165.479 128.036 164.096 129.543 164.096 131.848C164.096 134.199 165.494 135.598 167.354 135.598ZM167.738 134.307C166.493 134.307 165.679 133.462 165.679 131.909V131.802C165.679 130.234 166.509 129.327 167.738 129.327C169.014 129.327 169.782 130.296 169.782 131.725V131.848C169.782 133.293 168.983 134.307 167.738 134.307ZM174.796 135.46H176.195L178.9 128.19H177.317L175.488 133.646L173.567 128.19H171.999L174.796 135.46ZM181.445 135.629C182.49 135.629 183.397 135.214 183.889 134.353V135.444H185.349L185.334 134.322V130.741C185.334 128.897 184.227 128.067 182.367 128.067C180.446 128.067 179.155 129.051 179.109 130.68H180.631V130.588C180.692 129.773 181.276 129.281 182.352 129.281C183.459 129.281 183.904 129.742 183.904 130.342V130.449C183.751 130.849 182.998 130.926 181.768 131.187C180.154 131.541 178.94 131.909 178.94 133.539C178.94 134.783 179.893 135.629 181.445 135.629ZM181.722 134.476C180.923 134.476 180.477 134.076 180.477 133.477C180.477 132.709 181.153 132.447 181.983 132.232C182.69 132.063 183.459 131.94 183.904 131.633V132.524C183.781 133.938 182.782 134.476 181.722 134.476ZM186.844 135.444H188.35V131.971C188.35 130.311 188.995 129.374 190.117 129.374C191.101 129.374 191.577 129.973 191.577 131.11V135.444H193.099V131.033C193.099 129.097 192.146 128.036 190.578 128.036C189.472 128.036 188.734 128.59 188.35 129.558V128.19H186.844V135.444ZM197.709 135.567C199.476 135.567 200.567 134.63 201.044 133.154L199.599 132.709C199.353 133.692 198.846 134.292 197.678 134.292C196.418 134.292 195.68 133.277 195.68 131.848V131.787C195.68 130.342 196.464 129.343 197.724 129.343C198.769 129.343 199.292 129.927 199.537 130.849L200.982 130.403C200.536 128.989 199.461 128.067 197.755 128.067C195.634 128.067 194.158 129.635 194.158 131.802C194.158 134.015 195.542 135.567 197.709 135.567ZM205.259 135.567C207.119 135.567 208.149 134.676 208.641 133.554L207.304 133.031C207.027 133.738 206.489 134.338 205.259 134.338C204.03 134.338 203.246 133.585 203.154 132.34H208.61V131.787C208.61 129.497 207.334 128.067 205.198 128.067C203.139 128.067 201.648 129.619 201.648 131.863C201.648 134.092 203.031 135.567 205.259 135.567ZM203.123 131.202C203.277 130.019 204.076 129.297 205.167 129.297C206.305 129.297 206.996 129.958 207.058 131.202H203.123ZM212.809 135.444H214.315V131.725C214.315 130.25 214.669 129.604 215.96 129.604H216.651V128.129H216.421C215.099 128.129 214.53 128.682 214.315 129.527V128.19H212.809V135.444ZM219.493 135.629C220.538 135.629 221.444 135.214 221.936 134.353V135.444H223.396L223.381 134.322V130.741C223.381 128.897 222.274 128.067 220.415 128.067C218.494 128.067 217.203 129.051 217.157 130.68H218.678V130.588C218.74 129.773 219.324 129.281 220.399 129.281C221.506 129.281 221.952 129.742 221.952 130.342V130.449C221.798 130.849 221.045 130.926 219.815 131.187C218.202 131.541 216.987 131.909 216.987 133.539C216.987 134.783 217.94 135.629 219.493 135.629ZM219.769 134.476C218.97 134.476 218.524 134.076 218.524 133.477C218.524 132.709 219.201 132.447 220.031 132.232C220.738 132.063 221.506 131.94 221.952 131.633V132.524C221.829 133.938 220.83 134.476 219.769 134.476ZM227.03 135.444H228.321V134.123H227.46C226.999 134.123 226.815 133.907 226.815 133.446V129.481H228.382V128.19H226.815V125.869L225.355 126.776V128.19H224.202V129.481H225.355V133.631C225.37 134.783 225.708 135.383 227.03 135.444ZM232.44 135.567C234.3 135.567 235.33 134.676 235.822 133.554L234.485 133.031C234.208 133.738 233.67 134.338 232.44 134.338C231.211 134.338 230.427 133.585 230.335 132.34H235.791V131.787C235.791 129.497 234.515 128.067 232.379 128.067C230.319 128.067 228.829 129.619 228.829 131.863C228.829 134.092 230.212 135.567 232.44 135.567ZM230.304 131.202C230.458 130.019 231.257 129.297 232.348 129.297C233.486 129.297 234.177 129.958 234.239 131.202H230.304Z" fill="#1F325D"/>
<path d="M155.485 162.116H157.115L161.864 153.401V151.911H154.748V153.279H160.419L155.485 162.116ZM166.498 162.316C168.865 162.316 170.371 160.932 170.371 158.658C170.371 156.491 168.88 155.138 166.667 155.138C165.714 155.138 164.915 155.461 164.362 156.045L164.777 153.279H169.787V151.911H163.686L162.902 156.998L164.224 157.797C164.654 157.075 165.315 156.46 166.56 156.46C167.927 156.46 168.788 157.259 168.788 158.642V158.673C168.788 160.148 167.943 160.948 166.483 160.948C165.069 160.948 164.362 160.302 164.27 159.18H162.748C162.748 161.04 164.285 162.316 166.498 162.316ZM173.453 156.475C174.867 156.475 175.836 155.492 175.836 154.093C175.836 152.679 174.898 151.711 173.515 151.711C172.055 151.711 171.102 152.679 171.102 154.093C171.102 155.522 172.039 156.475 173.453 156.475ZM171.594 162.116H172.854L180.323 151.911H179.063L171.594 162.116ZM173.453 155.553C172.623 155.553 172.132 154.984 172.132 154.108V154.062C172.132 153.217 172.67 152.648 173.484 152.648C174.299 152.648 174.79 153.202 174.79 154.062V154.108C174.79 155 174.283 155.553 173.453 155.553ZM178.479 162.316C179.893 162.316 180.861 161.347 180.861 159.933C180.861 158.519 179.924 157.551 178.54 157.551C177.08 157.551 176.128 158.519 176.128 159.933C176.128 161.363 177.065 162.316 178.479 162.316ZM178.479 161.393C177.664 161.393 177.173 160.84 177.173 159.949V159.903C177.173 159.057 177.695 158.504 178.51 158.504C179.324 158.504 179.816 159.042 179.816 159.903V159.949C179.816 160.84 179.324 161.393 178.479 161.393Z" fill="#16C270"/>
<rect x="28.4233" y="181.901" width="116.197" height="38.0392" rx="5.12301" fill="#EAEDF2"/>
<path d="M53.8404 205.979H55.1928V202.482H56.4087C58.3623 202.482 59.0863 203.739 59.3322 205.692L59.3459 205.979H60.794L60.753 205.637C60.4934 203.493 59.8377 202.318 58.3759 201.894C59.8377 201.648 60.5891 200.651 60.5891 199.381C60.5891 197.864 59.5235 196.908 57.1191 196.908H53.8404V205.979ZM55.1928 201.348V198.069H57.0918C58.5809 198.069 59.2093 198.534 59.2093 199.517C59.2093 200.405 58.6082 201.348 56.9142 201.348H55.1928ZM64.4589 206.088C66.1119 206.088 67.0272 205.296 67.4644 204.299L66.2758 203.834C66.0299 204.463 65.5518 204.995 64.4589 204.995C63.366 204.995 62.6692 204.326 62.5873 203.219H67.437V202.728C67.437 200.692 66.3032 199.422 64.4042 199.422C62.5736 199.422 61.2484 200.801 61.2484 202.796C61.2484 204.777 62.478 206.088 64.4589 206.088ZM62.5599 202.208C62.6966 201.157 63.4069 200.514 64.3769 200.514C65.3878 200.514 66.0026 201.102 66.0572 202.208H62.5599ZM70.0664 205.993H71.3096L73.714 199.531H72.3069L70.6812 204.381L68.9735 199.531H67.5801L70.0664 205.993ZM74.3838 198.493H75.832V197.072H74.3838V198.493ZM74.4248 205.979H75.7773V199.531H74.4248V205.979ZM80.0547 206.088C81.7077 206.088 82.623 205.296 83.0602 204.299L81.8717 203.834C81.6258 204.463 81.1476 204.995 80.0547 204.995C78.9618 204.995 78.2651 204.326 78.1831 203.219H83.0329V202.728C83.0329 200.692 81.899 199.422 80.0001 199.422C78.1694 199.422 76.8443 200.801 76.8443 202.796C76.8443 204.777 78.0738 206.088 80.0547 206.088ZM78.1558 202.208C78.2924 201.157 79.0028 200.514 79.9727 200.514C80.9837 200.514 81.5984 201.102 81.6531 202.208H78.1558ZM85.3064 205.979H86.5086L87.9021 201.17L89.3092 205.979H90.5114L92.5196 199.531H91.1398L89.9103 204.053L88.5578 199.531H87.26L85.9075 204.039L84.6643 199.531H83.2709L85.3064 205.979ZM95.9842 205.979H97.3367V196.771H95.9842V205.979ZM100.644 206.143C101.573 206.143 102.379 205.774 102.817 205.009V205.979H104.114L104.101 204.982V201.799C104.101 200.159 103.117 199.422 101.464 199.422C99.7564 199.422 98.6089 200.296 98.5679 201.744H99.9204V201.662C99.975 200.938 100.494 200.501 101.45 200.501C102.434 200.501 102.83 200.911 102.83 201.443V201.539C102.694 201.894 102.024 201.963 100.931 202.195C99.4969 202.509 98.4176 202.837 98.4176 204.285C98.4176 205.392 99.2646 206.143 100.644 206.143ZM100.89 205.118C100.18 205.118 99.7837 204.763 99.7837 204.23C99.7837 203.547 100.385 203.315 101.123 203.124C101.751 202.974 102.434 202.864 102.83 202.591V203.383C102.721 204.64 101.833 205.118 100.89 205.118ZM107.344 205.979H108.492V204.804H107.727C107.317 204.804 107.153 204.613 107.153 204.203V200.678H108.546V199.531H107.153V197.468L105.855 198.274V199.531H104.831V200.678H105.855V204.367C105.869 205.392 106.169 205.924 107.344 205.979ZM112.154 206.088C113.807 206.088 114.722 205.296 115.159 204.299L113.971 203.834C113.725 204.463 113.246 204.995 112.154 204.995C111.061 204.995 110.364 204.326 110.282 203.219H115.132V202.728C115.132 200.692 113.998 199.422 112.099 199.422C110.268 199.422 108.943 200.801 108.943 202.796C108.943 204.777 110.173 206.088 112.154 206.088ZM110.255 202.208C110.391 201.157 111.102 200.514 112.072 200.514C113.083 200.514 113.697 201.102 113.752 202.208H110.255ZM116.209 205.979H117.548V202.673C117.548 201.361 117.862 200.788 119.01 200.788H119.625V199.476H119.42C118.245 199.476 117.739 199.968 117.548 200.719V199.531H116.209V205.979Z" fill="#747474"/>
<rect x="153.22" y="181.901" width="116.197" height="38.0392" rx="5.12301" fill="#16C270"/>
<path d="M179.311 205.979H180.663V202.482H181.879C183.833 202.482 184.557 203.739 184.803 205.692L184.816 205.979H186.264L186.223 205.637C185.964 203.493 185.308 202.318 183.846 201.894C185.308 201.648 186.059 200.651 186.059 199.381C186.059 197.864 184.994 196.908 182.589 196.908H179.311V205.979ZM180.663 201.348V198.069H182.562C184.051 198.069 184.68 198.534 184.68 199.517C184.68 200.405 184.079 201.348 182.385 201.348H180.663ZM189.929 206.088C191.582 206.088 192.498 205.296 192.935 204.299L191.746 203.834C191.5 204.463 191.022 204.995 189.929 204.995C188.836 204.995 188.14 204.326 188.058 203.219H192.907V202.728C192.907 200.692 191.774 199.422 189.875 199.422C188.044 199.422 186.719 200.801 186.719 202.796C186.719 204.777 187.948 206.088 189.929 206.088ZM188.03 202.208C188.167 201.157 188.877 200.514 189.847 200.514C190.858 200.514 191.473 201.102 191.528 202.208H188.03ZM195.537 205.993H196.78L199.184 199.531H197.777L196.152 204.381L194.444 199.531H193.05L195.537 205.993ZM199.854 198.493H201.302V197.072H199.854V198.493ZM199.895 205.979H201.248V199.531H199.895V205.979ZM205.525 206.088C207.178 206.088 208.093 205.296 208.531 204.299L207.342 203.834C207.096 204.463 206.618 204.995 205.525 204.995C204.432 204.995 203.735 204.326 203.653 203.219H208.503V202.728C208.503 200.692 207.369 199.422 205.47 199.422C203.64 199.422 202.315 200.801 202.315 202.796C202.315 204.777 203.544 206.088 205.525 206.088ZM203.626 202.208C203.763 201.157 204.473 200.514 205.443 200.514C206.454 200.514 207.069 201.102 207.123 202.208H203.626ZM210.777 205.979H211.979L213.372 201.17L214.78 205.979H215.982L217.99 199.531H216.61L215.381 204.053L214.028 199.531H212.73L211.378 204.039L210.135 199.531H208.741L210.777 205.979ZM221.455 205.979H222.793V202.892C222.793 201.416 223.367 200.583 224.364 200.583C225.239 200.583 225.662 201.116 225.662 202.126V205.979H227.015V202.058C227.015 200.337 226.168 199.394 224.774 199.394C223.791 199.394 223.135 199.886 222.793 200.747V199.531H221.455V205.979ZM231.167 206.088C233.066 206.088 234.418 204.708 234.418 202.769C234.418 200.801 233.093 199.422 231.194 199.422C229.295 199.422 227.956 200.801 227.956 202.769C227.956 204.736 229.268 206.088 231.167 206.088ZM231.167 204.954C230.019 204.954 229.309 204.135 229.309 202.81V202.755C229.309 201.402 230.047 200.555 231.194 200.555C232.342 200.555 233.066 201.402 233.066 202.755V202.81C233.066 204.121 232.328 204.954 231.167 204.954ZM236.685 205.979H237.888L239.281 201.17L240.688 205.979H241.89L243.899 199.531H242.519L241.289 204.053L239.937 199.531H238.639L237.286 204.039L236.043 199.531H234.65L236.685 205.979Z" fill="white"/>
<rect x="153.22" y="181.901" width="116.197" height="38.0392" rx="5.12301" stroke="#16C270" stroke-width="1.24989"/>
<rect x="9.7157" y="9.7157" width="278.409" height="228.932" rx="20.8147" stroke="#BABABA" stroke-width="0.922108"/>
</svg>
