<svg width="244" height="271" viewBox="0 0 244 271" fill="none" xmlns="http://www.w3.org/2000/svg">
<rect width="244" height="270.283" rx="12.0291" fill="white"/>
<path d="M30.1892 40.7665C32.7827 40.7665 34.7531 39.453 35.1909 36.4722H33.4058C33.069 38.5099 31.8396 39.2004 30.2229 39.2004C28.1852 39.2004 26.8211 37.651 26.8211 35.0407V34.906C26.8211 32.3125 28.202 30.7463 30.2566 30.7463C31.8228 30.7463 33.0016 31.3863 33.3721 33.3398H35.1741C34.6857 30.46 32.7827 29.1802 30.2734 29.1802C27.2253 29.1802 25.0865 31.4705 25.0865 34.9733C25.0865 38.4594 27.2084 40.7665 30.1892 40.7665ZM39.121 40.6992C40.2662 40.6992 41.0408 40.1771 41.4787 39.2004V40.5645H43.1291V32.6157H41.4787V36.4216C41.4787 38.1394 40.8724 39.2677 39.5588 39.2677C38.481 39.2677 37.9421 38.5941 37.9421 37.3647V32.6157H36.2749V37.4489C36.2749 39.4698 37.3359 40.6992 39.121 40.6992ZM47.8441 40.7834C49.646 40.7834 50.9428 39.7056 50.9428 38.2404C50.9428 36.6743 49.4439 36.1522 47.9956 35.8659C46.5473 35.5796 46.0084 35.4617 46.0084 34.8049C46.0084 34.1987 46.5642 33.7945 47.423 33.7945C48.2482 33.7945 48.9724 34.165 49.4271 34.8555L50.8585 34.1482C50.0839 33.1209 48.9219 32.4472 47.423 32.4472C45.739 32.4472 44.4254 33.5082 44.4254 34.906C44.4254 36.4385 45.7221 36.9437 47.1704 37.2468C48.4166 37.5163 49.3429 37.6679 49.3429 38.3583C49.3429 39.0151 48.804 39.4193 47.9114 39.4193C47.0694 39.4193 46.2442 39.0656 45.7558 38.3583L44.3244 39.1162C45.0485 40.1266 46.3116 40.7834 47.8441 40.7834ZM54.5414 40.5645H55.956V39.1162H55.0129C54.5077 39.1162 54.3056 38.8804 54.3056 38.3752V34.0303H56.0234V32.6157H54.3056V30.0727L52.7058 31.0663V32.6157H51.4427V34.0303H52.7058V38.5773C52.7226 39.8403 53.0931 40.4971 54.5414 40.5645ZM60.4535 40.6992C62.7944 40.6992 64.4616 38.9983 64.4616 36.6069C64.4616 34.1818 62.8281 32.4809 60.4872 32.4809C58.1464 32.4809 56.496 34.1818 56.496 36.6069C56.496 39.032 58.1127 40.6992 60.4535 40.6992ZM60.4535 39.3014C59.0389 39.3014 58.1632 38.291 58.1632 36.6574V36.5901C58.1632 34.9228 59.0726 33.8787 60.4872 33.8787C61.9018 33.8787 62.7944 34.9228 62.7944 36.5901V36.6574C62.7944 38.2741 61.885 39.3014 60.4535 39.3014ZM65.7657 40.5645H67.4161V36.1185C67.4161 34.6871 68.1234 33.9124 69.0833 33.9124C70.0264 33.9124 70.5316 34.485 70.5316 35.6638V40.5645H72.1989V36.1185C72.1989 34.7376 72.8051 33.9124 73.8661 33.9124C74.8092 33.9124 75.3144 34.485 75.3144 35.6638V40.5645H76.9816V35.5796C76.9816 33.6093 76.0217 32.4472 74.506 32.4472C73.1588 32.4472 72.3167 33.1377 71.9294 34.1818C71.5589 32.9188 70.6664 32.4472 69.7401 32.4472C68.5949 32.4472 67.8203 33.0198 67.4161 34.0134V32.6157H65.7657V40.5645ZM82.0964 40.6992C84.1342 40.6992 85.2625 39.7224 85.8014 38.493L84.3362 37.9205C84.0331 38.6951 83.4437 39.3519 82.0964 39.3519C80.7492 39.3519 79.8903 38.5267 79.7893 37.1626H85.7677V36.5564C85.7677 34.0471 84.3699 32.4809 82.0291 32.4809C79.7724 32.4809 78.1389 34.1818 78.1389 36.6406C78.1389 39.0825 79.6545 40.6992 82.0964 40.6992ZM79.7556 35.9164C79.924 34.6197 80.7997 33.8282 81.9954 33.8282C83.2416 33.8282 83.9994 34.5523 84.0668 35.9164H79.7556ZM87.0961 40.5645H88.7465V36.489C88.7465 34.8723 89.1339 34.165 90.5485 34.165H91.3063V32.5483H91.0537C89.6054 32.5483 88.9823 33.1546 88.7465 34.0808V32.6157H87.0961V40.5645ZM99.0342 40.6992C100.971 40.6992 102.167 39.6719 102.689 38.0552L101.106 37.5668C100.836 38.6446 100.28 39.3014 99.0005 39.3014C97.6196 39.3014 96.8112 38.1899 96.8112 36.6237V36.5564C96.8112 34.9733 97.6701 33.8787 99.0511 33.8787C100.196 33.8787 100.769 34.5186 101.038 35.5291L102.621 35.0407C102.133 33.4914 100.954 32.4809 99.0847 32.4809C96.7607 32.4809 95.144 34.1987 95.144 36.5732C95.144 38.9983 96.6597 40.6992 99.0342 40.6992ZM103.805 40.5645H105.456V36.489C105.456 34.8723 105.843 34.165 107.258 34.165H108.015V32.5483H107.763C106.315 32.5483 105.691 33.1546 105.456 34.0808V32.6157H103.805V40.5645ZM112.242 40.6992C114.28 40.6992 115.408 39.7224 115.947 38.493L114.482 37.9205C114.179 38.6951 113.589 39.3519 112.242 39.3519C110.895 39.3519 110.036 38.5267 109.935 37.1626H115.913V36.5564C115.913 34.0471 114.515 32.4809 112.175 32.4809C109.918 32.4809 108.284 34.1818 108.284 36.6406C108.284 39.0825 109.8 40.6992 112.242 40.6992ZM109.901 35.9164C110.069 34.6197 110.945 33.8282 112.141 33.8282C113.387 33.8282 114.145 34.5523 114.212 35.9164H109.901ZM120.357 40.7329C121.469 40.7329 122.378 40.2445 122.934 39.4024V40.5645H124.55V29.2138H122.934V33.8113C122.361 32.9693 121.469 32.4472 120.374 32.4472C118.303 32.4472 116.787 34.0976 116.787 36.6237C116.787 39.2004 118.319 40.7329 120.357 40.7329ZM120.778 39.3182C119.414 39.3182 118.522 38.392 118.522 36.6911V36.5732C118.522 34.8555 119.431 33.8619 120.778 33.8619C122.176 33.8619 123.018 34.9228 123.018 36.489V36.6237C123.018 38.2068 122.142 39.3182 120.778 39.3182ZM126.236 31.3358H128.022V29.5843H126.236V31.3358ZM126.287 40.5645H127.954V32.6157H126.287V40.5645ZM132.183 40.5645H133.597V39.1162H132.654C132.149 39.1162 131.947 38.8804 131.947 38.3752V34.0303H133.665V32.6157H131.947V30.0727L130.347 31.0663V32.6157H129.084V34.0303H130.347V38.5773C130.364 39.8403 130.735 40.4971 132.183 40.5645ZM141.58 40.6992C143.517 40.6992 144.712 39.6719 145.234 38.0552L143.651 37.5668C143.382 38.6446 142.826 39.3014 141.546 39.3014C140.165 39.3014 139.357 38.1899 139.357 36.6237V36.5564C139.357 34.9733 140.216 33.8787 141.597 33.8787C142.742 33.8787 143.315 34.5186 143.584 35.5291L145.167 35.0407C144.679 33.4914 143.5 32.4809 141.63 32.4809C139.306 32.4809 137.69 34.1987 137.69 36.5732C137.69 38.9983 139.205 40.6992 141.58 40.6992ZM146.351 40.5645H147.968V36.7585C147.968 34.9397 148.658 33.9124 149.888 33.9124C150.965 33.9124 151.487 34.5692 151.487 35.8154V40.5645H153.155V35.7312C153.155 33.6093 152.111 32.4809 150.393 32.4809C149.163 32.4809 148.372 33.0872 147.968 34.1818V29.2138H146.351V40.5645ZM158.274 40.6992C160.312 40.6992 161.44 39.7224 161.979 38.493L160.514 37.9205C160.211 38.6951 159.621 39.3519 158.274 39.3519C156.927 39.3519 156.068 38.5267 155.967 37.1626H161.945V36.5564C161.945 34.0471 160.548 32.4809 158.207 32.4809C155.95 32.4809 154.317 34.1818 154.317 36.6406C154.317 39.0825 155.832 40.6992 158.274 40.6992ZM155.933 35.9164C156.102 34.6197 156.977 33.8282 158.173 33.8282C159.419 33.8282 160.177 34.5523 160.245 35.9164H155.933ZM166.742 40.6992C168.679 40.6992 169.875 39.6719 170.397 38.0552L168.814 37.5668C168.544 38.6446 167.989 39.3014 166.709 39.3014C165.328 39.3014 164.519 38.1899 164.519 36.6237V36.5564C164.519 34.9733 165.378 33.8787 166.759 33.8787C167.904 33.8787 168.477 34.5186 168.746 35.5291L170.329 35.0407C169.841 33.4914 168.662 32.4809 166.793 32.4809C164.469 32.4809 162.852 34.1987 162.852 36.5732C162.852 38.9983 164.368 40.6992 166.742 40.6992ZM171.513 40.5645H173.13V38.1562L174.376 36.7416L176.65 40.5645H178.469L175.471 35.5965L178.283 32.6157H176.363L173.13 36.3206V29.2138H171.513V40.5645Z" fill="#1F325D"/>
<rect x="24.5645" y="54.1877" width="119.088" height="8.42034" rx="4.21017" fill="#F0F0F0"/>
<rect x="24.5645" y="77.043" width="89.015" height="8.42034" rx="4.21017" fill="#F0F0F0"/>
<path d="M34.8009 105.731H35.8404V98.8291H34.8009V105.731ZM37.002 105.731H38.0207V103.382C38.0207 102.259 38.4572 101.625 39.2161 101.625C39.8813 101.625 40.2035 102.031 40.2035 102.8V105.731H41.2326V102.748C41.2326 101.438 40.5882 100.721 39.5279 100.721C38.7795 100.721 38.2805 101.095 38.0207 101.75V100.825H37.002V105.731ZM42.5752 105.731H43.5835V101.698H44.5814V100.825H43.5835V100.399C43.5835 99.7023 43.6667 99.6503 44.3216 99.6503H44.6958V98.7148H43.9058C42.8975 98.7772 42.5752 99.1929 42.5752 100.326V100.825H41.7541V101.698H42.5752V105.731ZM45.2439 100.035H46.3458V98.9539H45.2439V100.035ZM45.2751 105.731H46.3042V100.825H45.2751V105.731ZM47.3967 105.731H48.4154V103.382C48.4154 102.259 48.8519 101.625 49.6107 101.625C50.276 101.625 50.5982 102.031 50.5982 102.8V105.731H51.6273V102.748C51.6273 101.438 50.9828 100.721 49.9226 100.721C49.1742 100.721 48.6752 101.095 48.4154 101.75V100.825H47.3967V105.731ZM52.5933 100.035H53.6951V98.9539H52.5933V100.035ZM52.6245 105.731H53.6536V100.825H52.6245V105.731ZM56.2637 105.731H57.1368V104.837H56.5547C56.2429 104.837 56.1181 104.692 56.1181 104.38V101.698H57.1784V100.825H56.1181V99.2553L55.1307 99.8686V100.825H54.3511V101.698H55.1307V104.505C55.141 105.284 55.3697 105.69 56.2637 105.731ZM59.923 105.814C61.1808 105.814 61.8772 105.211 62.2098 104.453L61.3055 104.099C61.1184 104.577 60.7546 104.983 59.923 104.983C59.0914 104.983 58.5613 104.473 58.4989 103.631H62.1891V103.257C62.1891 101.708 61.3263 100.742 59.8814 100.742C58.4885 100.742 57.4803 101.792 57.4803 103.309C57.4803 104.816 58.4158 105.814 59.923 105.814ZM58.4781 102.862C58.5821 102.062 59.1226 101.573 59.8606 101.573C60.6298 101.573 61.0976 102.02 61.1392 102.862H58.4781ZM65.0603 105.731H69.3533V104.796H66.0997V98.8291H65.0603V105.731ZM70.1343 100.035H71.2362V98.9539H70.1343V100.035ZM70.1655 105.731H71.1946V100.825H70.1655V105.731ZM74.3556 108.184C75.998 108.184 76.9855 107.571 76.9855 106.552C76.9855 105.554 76.1955 105.045 74.6363 105.045H73.6176C73.1602 105.045 72.8588 104.889 72.8588 104.65C72.8588 104.442 73.0667 104.276 73.4409 104.297H73.5137C73.7216 104.359 73.9398 104.39 74.1685 104.39C75.4159 104.39 76.2371 103.673 76.2371 102.561C76.2371 102.384 76.2059 102.218 76.1643 102.051C76.3826 101.812 76.6944 101.792 76.9543 101.885V100.825C76.4346 100.825 76.1019 101.116 75.9252 101.553C75.5822 101.043 74.9689 100.721 74.2205 100.721C73.0355 100.721 72.152 101.511 72.152 102.571C72.152 103.143 72.4222 103.631 72.8484 103.964C72.2871 104.089 71.9649 104.411 71.9649 104.837C71.9649 105.243 72.2767 105.565 72.7756 105.69C72.2143 105.898 71.8713 106.282 71.8713 106.771C71.8713 107.685 72.7445 108.184 74.3556 108.184ZM74.1997 103.6C73.5345 103.6 73.0979 103.185 73.0979 102.582V102.54C73.0979 101.937 73.5656 101.501 74.1997 101.501C74.8546 101.501 75.3223 101.937 75.3223 102.54V102.582C75.3223 103.195 74.8858 103.6 74.1997 103.6ZM74.3868 107.415C73.337 107.415 72.7652 107.145 72.7652 106.688C72.7652 106.199 73.3266 105.918 73.9918 105.918H74.6051C75.6342 105.918 76.0708 106.137 76.0708 106.625C76.0708 107.114 75.4263 107.415 74.3868 107.415ZM77.5758 105.731H78.5737V103.382C78.5737 102.259 78.9999 101.625 79.7587 101.625C80.4239 101.625 80.7462 102.031 80.7462 102.8V105.731H81.7753V102.748C81.7753 101.438 81.1308 100.742 80.0705 100.742C79.3117 100.742 78.8232 101.116 78.5737 101.792V98.7252H77.5758V105.731ZM84.1385 105.731H85.0117V104.837H84.4296C84.1177 104.837 83.993 104.692 83.993 104.38V101.698H85.0532V100.825H83.993V99.2553L83.0055 99.8686V100.825H82.2259V101.698H83.0055V104.505C83.0159 105.284 83.2446 105.69 84.1385 105.731ZM85.8279 100.035H86.9297V98.9539H85.8279V100.035ZM85.8591 105.731H86.8881V100.825H85.8591V105.731ZM87.9806 105.731H88.9993V103.382C88.9993 102.259 89.4359 101.625 90.1947 101.625C90.86 101.625 91.1822 102.031 91.1822 102.8V105.731H92.2113V102.748C92.2113 101.438 91.5668 100.721 90.5065 100.721C89.7581 100.721 89.2592 101.095 88.9993 101.75V100.825H87.9806V105.731ZM95.2871 108.184C96.9295 108.184 97.917 107.571 97.917 106.552C97.917 105.554 97.127 105.045 95.5678 105.045H94.5491C94.0917 105.045 93.7903 104.889 93.7903 104.65C93.7903 104.442 93.9982 104.276 94.3724 104.297H94.4452C94.6531 104.359 94.8713 104.39 95.1 104.39C96.3474 104.39 97.1686 103.673 97.1686 102.561C97.1686 102.384 97.1374 102.218 97.0958 102.051C97.3141 101.812 97.6259 101.792 97.8858 101.885V100.825C97.3661 100.825 97.0334 101.116 96.8567 101.553C96.5137 101.043 95.9004 100.721 95.152 100.721C93.967 100.721 93.0835 101.511 93.0835 102.571C93.0835 103.143 93.3537 103.631 93.7799 103.964C93.2186 104.089 92.8964 104.411 92.8964 104.837C92.8964 105.243 93.2082 105.565 93.7071 105.69C93.1458 105.898 92.8028 106.282 92.8028 106.771C92.8028 107.685 93.676 108.184 95.2871 108.184ZM95.1312 103.6C94.4659 103.6 94.0294 103.185 94.0294 102.582V102.54C94.0294 101.937 94.4971 101.501 95.1312 101.501C95.7861 101.501 96.2538 101.937 96.2538 102.54V102.582C96.2538 103.195 95.8173 103.6 95.1312 103.6ZM95.3183 107.415C94.2685 107.415 93.6967 107.145 93.6967 106.688C93.6967 106.199 94.2581 105.918 94.9233 105.918H95.5366C96.5657 105.918 97.0023 106.137 97.0023 106.625C97.0023 107.114 96.3578 107.415 95.3183 107.415ZM100.559 105.731H104.852V104.796H101.598V98.8291H100.559V105.731ZM105.736 105.731H110.029V104.796H106.775V98.8291H105.736V105.731ZM113.295 105.856C114.896 105.856 116.112 105.045 116.382 103.205H115.28C115.073 104.463 114.314 104.889 113.316 104.889C112.058 104.889 111.216 103.933 111.216 102.322V102.239C111.216 100.638 112.068 99.6711 113.337 99.6711C114.303 99.6711 115.031 100.066 115.26 101.272H116.372C116.07 99.4944 114.896 98.7044 113.347 98.7044C111.466 98.7044 110.145 100.118 110.145 102.28C110.145 104.432 111.455 105.856 113.295 105.856ZM116.849 105.731H118.107V104.432H116.849V105.731Z" fill="#1F325D"/>
<rect x="24.8652" y="90.5756" width="194.269" height="23.4567" rx="2.10509" stroke="#ACACAC" stroke-width="0.601453"/>
<rect x="24.5646" y="121.55" width="89.015" height="8.42034" rx="4.21017" fill="#F0F0F0"/>
<path d="M37.0776 150.374C38.6784 150.374 39.6971 149.438 39.6971 147.9C39.6971 146.434 38.6888 145.52 37.1919 145.52C36.5475 145.52 36.0069 145.738 35.6327 146.133L35.9134 144.262H39.3021V143.337H35.1754L34.6452 146.777L35.5392 147.318C35.8302 146.829 36.2772 146.414 37.1192 146.414C38.0443 146.414 38.6264 146.954 38.6264 147.89V147.91C38.6264 148.908 38.0547 149.449 37.0672 149.449C36.1109 149.449 35.6327 149.012 35.5704 148.253H34.5413C34.5413 149.511 35.5808 150.374 37.0776 150.374ZM42.9043 150.374C44.5051 150.374 45.5238 149.438 45.5238 147.9C45.5238 146.434 44.5155 145.52 43.0186 145.52C42.3742 145.52 41.8336 145.738 41.4594 146.133L41.7401 144.262H45.1288V143.337H41.0021L40.4719 146.777L41.3659 147.318C41.6569 146.829 42.1039 146.414 42.9459 146.414C43.871 146.414 44.4531 146.954 44.4531 147.89V147.91C44.4531 148.908 43.8814 149.449 42.8939 149.449C41.9376 149.449 41.4594 149.012 41.3971 148.253H40.368C40.368 149.511 41.4075 150.374 42.9043 150.374ZM48.9609 150.364C50.7696 150.364 51.7883 149.075 51.7883 146.788C51.7883 144.511 50.7696 143.212 48.9817 143.212C47.173 143.212 46.1543 144.501 46.1543 146.788C46.144 149.116 47.1522 150.364 48.9609 150.364ZM48.9817 149.438C47.8279 149.438 47.2354 148.576 47.2354 146.881V146.694C47.2354 145 47.8175 144.137 48.9609 144.137C50.1147 144.137 50.6968 145.01 50.6968 146.694V146.881C50.6968 148.576 50.1251 149.438 48.9817 149.438ZM54.7369 150.239H55.7763V148.43L57.1069 146.881L59.1546 150.239H60.3188L57.8033 146.143L60.1733 143.337H58.9987L55.7763 147.12V143.337H54.7369V150.239ZM62.7351 150.322C63.9929 150.322 64.6893 149.719 65.0219 148.96L64.1176 148.607C63.9305 149.085 63.5667 149.49 62.7351 149.49C61.9035 149.49 61.3734 148.981 61.311 148.139H65.0011V147.765C65.0011 146.216 64.1384 145.249 62.6935 145.249C61.3006 145.249 60.2923 146.299 60.2923 147.817C60.2923 149.324 61.2279 150.322 62.7351 150.322ZM61.2902 147.37C61.3942 146.569 61.9347 146.081 62.6727 146.081C63.4419 146.081 63.9097 146.528 63.9513 147.37H61.2902ZM67.2353 150.364C67.9421 150.364 68.5554 150.083 68.888 149.501V150.239H69.8755L69.8651 149.48V147.058C69.8651 145.811 69.1167 145.249 67.859 145.249C66.5596 145.249 65.6865 145.915 65.6553 147.016H66.6844V146.954C66.7259 146.403 67.1209 146.07 67.8486 146.07C68.597 146.07 68.8984 146.382 68.8984 146.788V146.86C68.7945 147.131 68.2851 147.183 67.4536 147.359C66.3621 147.599 65.5409 147.848 65.5409 148.95C65.5409 149.792 66.1854 150.364 67.2353 150.364ZM67.4224 149.584C66.8819 149.584 66.5804 149.314 66.5804 148.908C66.5804 148.389 67.0378 148.212 67.5991 148.066C68.0772 147.952 68.597 147.869 68.8984 147.661V148.264C68.8153 149.22 68.1396 149.584 67.4224 149.584ZM70.8865 150.239H71.9052V147.723C71.9052 146.725 72.1442 146.289 73.0174 146.289H73.4852V145.291H73.3292C72.4353 145.291 72.0507 145.665 71.9052 146.237V145.332H70.8865V150.239ZM74.2059 150.239H75.2246V147.89C75.2246 146.767 75.6611 146.133 76.42 146.133C77.0852 146.133 77.4074 146.538 77.4074 147.307V150.239H78.4365V147.255C78.4365 145.946 77.7921 145.229 76.7318 145.229C75.9834 145.229 75.4844 145.603 75.2246 146.258V145.332H74.2059V150.239ZM78.9498 152.214H79.4695C80.6441 152.214 81.0703 151.756 81.5173 150.592L83.3987 145.332H82.3176L81.1223 148.991L79.8125 145.332H78.7419L80.6337 150.145C80.2491 151.143 80.0932 151.289 79.4175 151.289H78.9498V152.214ZM88.4887 150.353C90.0479 150.353 90.973 149.48 90.973 148.222C90.973 146.871 89.8088 146.517 88.6758 146.299C87.6883 146.112 86.784 145.967 86.784 145.229C86.784 144.563 87.3141 144.127 88.1664 144.127C89.1124 144.127 89.6841 144.511 89.8296 145.52H90.9418C90.7339 143.971 89.7256 143.212 88.1768 143.212C86.7632 143.212 85.7549 144.085 85.7549 145.281C85.7549 146.611 86.9711 146.985 88.1145 147.214C89.1124 147.401 89.9335 147.588 89.9335 148.274C89.9335 149.002 89.393 149.438 88.4575 149.438C87.3972 149.438 86.8567 149.054 86.6488 148.035H85.5262C85.7965 149.532 86.732 150.353 88.4887 150.353ZM93.3255 150.239H94.1986V149.345H93.6165C93.3047 149.345 93.1799 149.199 93.1799 148.887V146.206H94.2402V145.332H93.1799V143.763L92.1924 144.376V145.332H91.4128V146.206H92.1924V149.012C92.2028 149.792 92.4315 150.197 93.3255 150.239ZM94.9941 150.239H96.2518V148.939H94.9941V150.239Z" fill="#1F325D"/>
<rect x="24.8654" y="135.083" width="194.269" height="23.4567" rx="2.10509" stroke="#ACACAC" stroke-width="0.601453"/>
<rect x="24.5646" y="166.058" width="35.4857" height="8.42034" rx="4.21017" fill="#F0F0F0"/>
<path d="M37.3375 194.861C38.8967 194.861 39.8218 193.988 39.8218 192.73C39.8218 191.378 38.6576 191.025 37.5246 190.807C36.5371 190.62 35.6327 190.474 35.6327 189.736C35.6327 189.071 36.1629 188.634 37.0152 188.634C37.9611 188.634 38.5328 189.019 38.6784 190.027H39.7906C39.5827 188.478 38.5744 187.72 37.0256 187.72C35.6119 187.72 34.6037 188.593 34.6037 189.788C34.6037 191.119 35.8198 191.493 36.9632 191.721C37.9611 191.909 38.7823 192.096 38.7823 192.782C38.7823 193.509 38.2418 193.946 37.3063 193.946C36.246 193.946 35.7055 193.561 35.4976 192.543H34.375C34.6452 194.039 35.5808 194.861 37.3375 194.861ZM42.0606 194.871C42.7675 194.871 43.3808 194.59 43.7134 194.008V194.746H44.7009L44.6905 193.988V191.566C44.6905 190.318 43.9421 189.757 42.6843 189.757C41.385 189.757 40.5118 190.422 40.4806 191.524H41.5097V191.462C41.5513 190.911 41.9463 190.578 42.6739 190.578C43.4223 190.578 43.7238 190.89 43.7238 191.295V191.368C43.6198 191.638 43.1105 191.69 42.2789 191.867C41.1875 192.106 40.3663 192.356 40.3663 193.457C40.3663 194.299 41.0108 194.871 42.0606 194.871ZM42.2477 194.091C41.7072 194.091 41.4058 193.821 41.4058 193.416C41.4058 192.896 41.8631 192.719 42.4244 192.574C42.9026 192.46 43.4223 192.376 43.7238 192.168V192.771C43.6406 193.728 42.965 194.091 42.2477 194.091ZM47.8324 194.829C49.0278 194.829 49.7658 194.195 50.088 193.198L49.1109 192.896C48.9446 193.561 48.6016 193.967 47.8116 193.967C46.9592 193.967 46.4603 193.281 46.4603 192.314V192.272C46.4603 191.295 46.9904 190.62 47.8428 190.62C48.5496 190.62 48.903 191.015 49.0693 191.638L50.0464 191.337C49.745 190.381 49.0174 189.757 47.8635 189.757C46.4291 189.757 45.4312 190.817 45.4312 192.283C45.4312 193.78 46.3667 194.829 47.8324 194.829ZM50.7772 194.746H51.7959V192.231C51.7959 191.233 52.035 190.796 52.9081 190.796H53.3759V189.798H53.22C52.326 189.798 51.9414 190.173 51.7959 190.744V189.84H50.7772V194.746ZM55.2976 194.871C56.0045 194.871 56.6177 194.59 56.9504 194.008V194.746H57.9379L57.9275 193.988V191.566C57.9275 190.318 57.1791 189.757 55.9213 189.757C54.622 189.757 53.7488 190.422 53.7176 191.524H54.7467V191.462C54.7883 190.911 55.1833 190.578 55.9109 190.578C56.6593 190.578 56.9608 190.89 56.9608 191.295V191.368C56.8568 191.638 56.3475 191.69 55.5159 191.867C54.4245 192.106 53.6033 192.356 53.6033 193.457C53.6033 194.299 54.2478 194.871 55.2976 194.871ZM55.4847 194.091C54.9442 194.091 54.6428 193.821 54.6428 193.416C54.6428 192.896 55.1001 192.719 55.6614 192.574C56.1396 192.46 56.6593 192.376 56.9608 192.168V192.771C56.8776 193.728 56.202 194.091 55.4847 194.091ZM58.9488 194.746H59.9675V192.002C59.9675 191.119 60.4041 190.64 60.9966 190.64C61.5787 190.64 61.8905 190.994 61.8905 191.721V194.746H62.9196V192.002C62.9196 191.15 63.2938 190.64 63.9487 190.64C64.5308 190.64 64.8426 190.994 64.8426 191.721V194.746H65.8717V191.67C65.8717 190.453 65.2792 189.736 64.3437 189.736C63.5121 189.736 62.9924 190.162 62.7533 190.807C62.5246 190.027 61.9737 189.736 61.402 189.736C60.6951 189.736 60.217 190.09 59.9675 190.703V189.84H58.9488V194.746ZM69.0288 194.829C70.2865 194.829 70.983 194.227 71.3156 193.468L70.4113 193.114C70.2242 193.593 69.8603 193.998 69.0288 193.998C68.1972 193.998 67.6671 193.489 67.6047 192.647H71.2948V192.272C71.2948 190.724 70.432 189.757 68.9872 189.757C67.5943 189.757 66.586 190.807 66.586 192.324C66.586 193.832 67.5215 194.829 69.0288 194.829ZM67.5839 191.877C67.6878 191.077 68.2284 190.588 68.9664 190.588C69.7356 190.588 70.2034 191.035 70.2449 191.877H67.5839ZM72.1148 194.746H73.1334V192.397C73.1334 191.275 73.57 190.64 74.3288 190.64C74.9941 190.64 75.3163 191.046 75.3163 191.815V194.746H76.3454V191.763C76.3454 190.453 75.7009 189.736 74.6407 189.736C73.8923 189.736 73.3933 190.11 73.1334 190.765V189.84H72.1148V194.746ZM78.7079 194.746H79.5811V193.852H78.999C78.6871 193.852 78.5624 193.707 78.5624 193.395V190.713H79.6227V189.84H78.5624V188.27L77.5749 188.884V189.84H76.7953V190.713H77.5749V193.52C77.5853 194.299 77.814 194.705 78.7079 194.746ZM82.3571 194.829C83.802 194.829 84.831 193.78 84.831 192.304C84.831 190.807 83.8228 189.757 82.3779 189.757C80.933 189.757 79.9144 190.807 79.9144 192.304C79.9144 193.8 80.9122 194.829 82.3571 194.829ZM82.3571 193.967C81.484 193.967 80.9434 193.343 80.9434 192.335V192.293C80.9434 191.264 81.5047 190.62 82.3779 190.62C83.2511 190.62 83.802 191.264 83.802 192.293V192.335C83.802 193.333 83.2407 193.967 82.3571 193.967Z" fill="#1F325D"/>
<rect x="24.8654" y="179.591" width="83.602" height="23.4567" rx="2.10509" stroke="#ACACAC" stroke-width="0.601453"/>
<rect x="115.985" y="166.058" width="28.8697" height="8.42034" rx="4.21017" fill="#F0F0F0"/>
<path d="M129.081 194.871C130.682 194.871 131.898 194.06 132.168 192.22H131.066C130.859 193.478 130.1 193.904 129.102 193.904C127.844 193.904 127.002 192.948 127.002 191.337V191.254C127.002 189.653 127.855 188.686 129.123 188.686C130.089 188.686 130.817 189.081 131.046 190.287H132.158C131.856 188.51 130.682 187.72 129.133 187.72C127.252 187.72 125.931 189.133 125.931 191.295C125.931 193.447 127.241 194.871 129.081 194.871ZM132.221 194.746H133.292L134.041 192.74H136.743L137.46 194.746H138.562L136.036 187.844H134.82L132.221 194.746ZM134.352 191.825L135.402 188.977L136.421 191.825H134.352Z" fill="#1F325D"/>
<rect x="116.286" y="179.591" width="47.5148" height="23.4567" rx="2.10509" stroke="#ACACAC" stroke-width="0.601453"/>
<rect x="171.319" y="166.058" width="20.4494" height="8.42034" rx="4.21017" fill="#F0F0F0"/>
<path d="M183.851 194.85C185.629 194.85 186.668 193.613 186.668 191.264C186.668 189.008 185.66 187.709 183.883 187.709C182.427 187.709 181.388 188.769 181.388 190.131C181.388 191.462 182.375 192.366 183.831 192.366C184.683 192.366 185.317 191.961 185.639 191.254V191.649C185.629 193.166 185.026 193.946 183.903 193.946C183.02 193.946 182.583 193.645 182.511 192.969H181.471C181.544 193.967 182.282 194.85 183.851 194.85ZM183.935 191.514C183.02 191.514 182.427 190.931 182.427 190.11V190.079C182.427 189.268 183.009 188.613 183.914 188.613C184.818 188.613 185.473 189.227 185.473 190.027V190.058C185.473 190.828 184.829 191.514 183.935 191.514ZM189.942 194.881C191.542 194.881 192.561 193.946 192.561 192.408C192.561 190.942 191.553 190.027 190.056 190.027C189.411 190.027 188.871 190.245 188.497 190.64L188.777 188.769H192.166V187.844H188.039L187.509 191.285L188.403 191.825C188.694 191.337 189.141 190.921 189.983 190.921C190.908 190.921 191.49 191.462 191.49 192.397V192.418C191.49 193.416 190.919 193.956 189.931 193.956C188.975 193.956 188.497 193.52 188.434 192.761H187.405C187.405 194.019 188.445 194.881 189.942 194.881ZM195.872 194.871C197.587 194.871 198.596 194.102 198.596 192.771C198.596 192.002 198.128 191.42 197.338 191.119C197.993 190.848 198.346 190.349 198.346 189.663C198.346 188.468 197.39 187.72 195.872 187.72C194.355 187.72 193.398 188.468 193.398 189.663C193.398 190.349 193.741 190.848 194.396 191.129C193.617 191.43 193.149 192.013 193.149 192.771C193.149 194.102 194.157 194.871 195.872 194.871ZM195.872 190.744C194.947 190.744 194.469 190.391 194.469 189.684C194.469 189.019 194.989 188.634 195.872 188.634C196.766 188.634 197.286 189.019 197.286 189.684C197.286 190.391 196.797 190.744 195.872 190.744ZM195.872 193.956C194.874 193.956 194.23 193.499 194.23 192.782C194.23 192.002 194.812 191.566 195.872 191.566C196.922 191.566 197.515 192.002 197.515 192.782C197.515 193.509 196.87 193.956 195.872 193.956ZM201.158 194.746H202.177V187.834H201.179C200.919 189.029 200.108 189.695 199.079 190.079V191.067C199.973 190.796 200.649 190.277 201.158 189.611V194.746ZM206.094 194.871C207.809 194.871 208.818 194.102 208.818 192.771C208.818 192.002 208.35 191.42 207.56 191.119C208.215 190.848 208.568 190.349 208.568 189.663C208.568 188.468 207.612 187.72 206.094 187.72C204.577 187.72 203.62 188.468 203.62 189.663C203.62 190.349 203.963 190.848 204.618 191.129C203.839 191.43 203.371 192.013 203.371 192.771C203.371 194.102 204.379 194.871 206.094 194.871ZM206.094 190.744C205.169 190.744 204.691 190.391 204.691 189.684C204.691 189.019 205.211 188.634 206.094 188.634C206.988 188.634 207.508 189.019 207.508 189.684C207.508 190.391 207.019 190.744 206.094 190.744ZM206.094 193.956C205.096 193.956 204.452 193.499 204.452 192.782C204.452 192.002 205.034 191.566 206.094 191.566C207.144 191.566 207.737 192.002 207.737 192.782C207.737 193.509 207.092 193.956 206.094 193.956Z" fill="#1F325D"/>
<rect x="171.62" y="179.591" width="47.5148" height="23.4567" rx="2.10509" stroke="#ACACAC" stroke-width="0.601453"/>
<rect x="24.5646" y="217.783" width="194.871" height="27.935" rx="3.4649" fill="#16C270"/>
<path d="M94.6496 235.066C96.2088 235.066 97.1339 234.193 97.1339 232.935C97.1339 231.584 95.9697 231.23 94.8367 231.012C93.8492 230.825 92.9449 230.679 92.9449 229.941C92.9449 229.276 93.475 228.839 94.3274 228.839C95.2733 228.839 95.845 229.224 95.9905 230.232H97.1027C96.8948 228.683 95.8866 227.925 94.3378 227.925C92.9241 227.925 91.9158 228.798 91.9158 229.993C91.9158 231.324 93.132 231.698 94.2754 231.927C95.2733 232.114 96.0945 232.301 96.0945 232.987C96.0945 233.714 95.5539 234.151 94.6184 234.151C93.5581 234.151 93.0176 233.766 92.8097 232.748H91.6871C91.9574 234.245 92.8929 235.066 94.6496 235.066ZM99.3728 235.076C100.08 235.076 100.693 234.795 101.026 234.213V234.951H102.013L102.003 234.193V231.771C102.003 230.523 101.254 229.962 99.9964 229.962C98.6971 229.962 97.824 230.627 97.7928 231.729H98.8218V231.667C98.8634 231.116 99.2584 230.783 99.986 230.783C100.734 230.783 101.036 231.095 101.036 231.5V231.573C100.932 231.843 100.423 231.895 99.591 232.072C98.4996 232.311 97.6784 232.561 97.6784 233.662C97.6784 234.504 98.3229 235.076 99.3728 235.076ZM99.5599 234.297C99.0193 234.297 98.7179 234.026 98.7179 233.621C98.7179 233.101 99.1753 232.924 99.7366 232.779C100.215 232.665 100.734 232.581 101.036 232.374V232.976C100.953 233.933 100.277 234.297 99.5599 234.297ZM104.123 234.962H105.069L106.899 230.045H105.828L104.591 233.735L103.292 230.045H102.232L104.123 234.962ZM109.358 235.035C110.616 235.035 111.312 234.432 111.645 233.673L110.741 233.319C110.554 233.798 110.19 234.203 109.358 234.203C108.527 234.203 107.996 233.694 107.934 232.852H111.624V232.477C111.624 230.929 110.761 229.962 109.317 229.962C107.924 229.962 106.915 231.012 106.915 232.529C106.915 234.037 107.851 235.035 109.358 235.035ZM107.913 232.082C108.017 231.282 108.558 230.794 109.296 230.794C110.065 230.794 110.533 231.241 110.574 232.082H107.913ZM116.504 235.087C117.398 235.087 118.178 234.733 118.843 234.151L119.56 234.951H120.807C120.807 234.951 120.142 234.224 119.477 233.486C120.069 232.758 120.527 231.854 120.859 230.897H119.81C119.56 231.656 119.248 232.311 118.874 232.821L118.188 232.051C117.938 231.771 117.72 231.521 117.543 231.303C118.635 231.001 119.269 230.409 119.269 229.494C119.269 228.527 118.479 227.883 117.512 227.883C116.431 227.883 115.641 228.6 115.641 229.609C115.641 230.045 115.797 230.461 116.057 230.877C114.976 231.157 114.124 231.781 114.124 232.976C114.124 234.172 115.049 235.087 116.504 235.087ZM117.065 230.7C116.743 230.253 116.618 229.941 116.618 229.588C116.618 229.037 116.972 228.673 117.492 228.673C117.959 228.673 118.292 229.006 118.292 229.494C118.292 230.097 117.866 230.513 117.065 230.7ZM116.598 234.182C115.724 234.182 115.163 233.642 115.163 232.914C115.163 232.103 115.766 231.687 116.525 231.5C116.629 231.636 116.743 231.76 116.868 231.895L118.282 233.507C117.783 233.943 117.211 234.182 116.598 234.182ZM125.43 235.087C126.542 235.087 127.343 234.421 127.343 233.517C127.343 232.55 126.418 232.228 125.524 232.051C124.63 231.875 124.297 231.802 124.297 231.396C124.297 231.022 124.64 230.773 125.17 230.773C125.68 230.773 126.127 231.001 126.407 231.428L127.291 230.991C126.813 230.357 126.095 229.941 125.17 229.941C124.131 229.941 123.32 230.596 123.32 231.459C123.32 232.405 124.12 232.717 125.014 232.904C125.784 233.07 126.355 233.164 126.355 233.59C126.355 233.995 126.023 234.245 125.472 234.245C124.952 234.245 124.443 234.026 124.141 233.59L123.258 234.057C123.705 234.681 124.484 235.087 125.43 235.087ZM129.761 235.035C130.467 235.035 130.946 234.712 131.216 234.109V234.951H132.234V230.045H131.216V232.394C131.216 233.455 130.842 234.151 130.031 234.151C129.366 234.151 129.033 233.735 129.033 232.976V230.045H128.004V233.028C128.004 234.276 128.659 235.035 129.761 235.035ZM135.882 235.055C137.161 235.055 138.096 234.057 138.096 232.477V232.467C138.096 230.887 137.15 229.941 135.893 229.941C135.207 229.941 134.656 230.243 134.313 230.752V227.935H133.315V234.951H134.313V234.234C134.656 234.744 135.207 235.055 135.882 235.055ZM135.643 234.182C134.77 234.182 134.261 233.527 134.261 232.561V232.477C134.261 231.5 134.791 230.814 135.643 230.814C136.485 230.814 137.026 231.386 137.026 232.436V232.509C137.026 233.569 136.464 234.182 135.643 234.182ZM138.898 234.951H139.917V232.207C139.917 231.324 140.353 230.846 140.946 230.846C141.528 230.846 141.84 231.199 141.84 231.927V234.951H142.869V232.207C142.869 231.355 143.243 230.846 143.898 230.846C144.48 230.846 144.792 231.199 144.792 231.927V234.951H145.821V231.875C145.821 230.658 145.228 229.941 144.293 229.941C143.461 229.941 142.941 230.367 142.702 231.012C142.474 230.232 141.923 229.941 141.351 229.941C140.644 229.941 140.166 230.295 139.917 230.908V230.045H138.898V234.951ZM146.784 229.255H147.886V228.174H146.784V229.255ZM146.816 234.951H147.845V230.045H146.816V234.951ZM150.455 234.951H151.328V234.057H150.746C150.434 234.057 150.309 233.912 150.309 233.6V230.918H151.37V230.045H150.309V228.476L149.322 229.089V230.045H148.542V230.918H149.322V233.725C149.332 234.504 149.561 234.91 150.455 234.951Z" fill="white"/>
<rect x="24.5646" y="217.783" width="194.871" height="27.935" rx="3.4649" stroke="#16C270" stroke-width="0.845351"/>
<rect x="7.45709" y="7.45696" width="229.086" height="255.368" rx="9.18459" stroke="#DEDEDE" stroke-width="0.877307"/>
</svg>
