<svg width="264" height="217" viewBox="0 0 264 217" fill="none" xmlns="http://www.w3.org/2000/svg">
<rect x="0.28125" width="263.299" height="216.688" rx="17.7988" fill="white"/>
<rect x="7.84585" y="7.5646" width="248.17" height="201.559" rx="10.3901" fill="white"/>
<path d="M27.2122 42.8574H29.1641V37.275H34.278V35.5379H29.1641V31.6341H35.8981V29.8969H27.2122V42.8574ZM37.3691 32.1611H39.4381V30.1312H37.3691V32.1611ZM37.4277 42.8574H39.3601V33.6446H37.4277V42.8574ZM41.4115 42.8574H43.3244V38.4462C43.3244 36.3381 44.1441 35.1475 45.569 35.1475C46.8182 35.1475 47.4233 35.9087 47.4233 37.3531V42.8574H49.3557V37.2555C49.3557 34.7962 48.1455 33.4494 46.1546 33.4494C44.7492 33.4494 43.8123 34.152 43.3244 35.3817V33.6446H41.4115V42.8574ZM53.9217 43.0916C55.249 43.0916 56.4006 42.5646 57.0252 41.4716V42.8574H58.8795L58.8599 41.4326V36.8847C58.8599 34.5424 57.4546 33.4884 55.0928 33.4884C52.653 33.4884 51.0134 34.7376 50.9548 36.8066H52.8872V36.6895C52.9653 35.655 53.707 35.0304 55.0733 35.0304C56.4786 35.0304 57.0447 35.616 57.0447 36.3772V36.5138C56.8495 37.0213 55.8931 37.1189 54.3316 37.4507C52.2821 37.8996 50.7401 38.3681 50.7401 40.4371C50.7401 42.0181 51.9503 43.0916 53.9217 43.0916ZM54.273 41.6277C53.258 41.6277 52.692 41.1202 52.692 40.359C52.692 39.3831 53.5508 39.0513 54.6048 38.778C55.5027 38.5633 56.4786 38.4071 57.0447 38.0168V39.1489C56.8885 40.9446 55.6198 41.6277 54.273 41.6277ZM60.7778 42.8574H62.7102V29.7018H60.7778V42.8574ZM64.684 32.1611H66.753V30.1312H64.684V32.1611ZM64.7426 42.8574H66.6749V33.6446H64.7426V42.8574ZM72.0864 43.1112C74.1749 43.1112 75.6778 41.862 75.6778 40.1638C75.6778 38.3486 73.9406 37.7435 72.262 37.4117C70.5834 37.0799 69.9588 36.9432 69.9588 36.182C69.9588 35.4793 70.6029 35.0109 71.5984 35.0109C72.5548 35.0109 73.3941 35.4403 73.9211 36.2406L75.5802 35.4208C74.6824 34.2301 73.3356 33.4494 71.5984 33.4494C69.6465 33.4494 68.124 34.679 68.124 36.2991C68.124 38.0753 69.627 38.6609 71.3056 39.0122C72.75 39.3245 73.8235 39.5002 73.8235 40.3005C73.8235 41.0617 73.1989 41.5301 72.1644 41.5301C71.1885 41.5301 70.2321 41.1202 69.666 40.3005L68.0069 41.1788C68.8462 42.3499 70.3102 43.1112 72.0864 43.1112ZM81.1352 43.0136C83.4969 43.0136 84.8047 41.8815 85.4293 40.4566L83.7311 39.793C83.3798 40.6908 82.6967 41.4521 81.1352 41.4521C79.5736 41.4521 78.5782 40.4956 78.4611 38.9146H85.3902V38.2119C85.3902 35.3036 83.7702 33.4884 81.0571 33.4884C78.4416 33.4884 76.5482 35.4598 76.5482 38.3095C76.5482 41.1398 78.3049 43.0136 81.1352 43.0136ZM78.422 37.4702C78.6172 35.9673 79.6322 35.0499 81.018 35.0499C82.4624 35.0499 83.3408 35.8892 83.4188 37.4702H78.422ZM95.5443 43.0526C97.9451 43.0526 99.7018 41.1788 99.7018 38.2119V38.1924C99.7018 35.2256 97.9256 33.4494 95.5638 33.4494C94.2756 33.4494 93.2411 34.0154 92.5969 34.9718V29.6822H90.7231V42.8574H92.5969V41.5106C93.2411 42.467 94.2756 43.0526 95.5443 43.0526ZM95.0954 41.413C93.4558 41.413 92.4994 40.1833 92.4994 38.3681V38.2119C92.4994 36.3772 93.4948 35.0889 95.0954 35.0889C96.6764 35.0889 97.6913 36.1625 97.6913 38.1339V38.2705C97.6913 40.2614 96.6373 41.413 95.0954 41.413ZM104.33 43.0136C105.658 43.0136 106.555 42.4085 107.063 41.2764V42.8574H108.976V33.6446H107.063V38.0558C107.063 40.0467 106.36 41.3545 104.838 41.3545C103.589 41.3545 102.964 40.5737 102.964 39.1489V33.6446H101.032V39.2464C101.032 41.5887 102.261 43.0136 104.33 43.0136ZM110.382 46.566H111.358C113.563 46.566 114.363 45.7072 115.203 43.5211L118.736 33.6446H116.706L114.461 40.5152L112.002 33.6446H109.991L113.544 42.6818C112.821 44.5556 112.529 44.8288 111.26 44.8288H110.382V46.566ZM123.299 43.0136C125.661 43.0136 126.968 41.8815 127.593 40.4566L125.895 39.793C125.543 40.6908 124.86 41.4521 123.299 41.4521C121.737 41.4521 120.742 40.4956 120.625 38.9146H127.554V38.2119C127.554 35.3036 125.934 33.4884 123.221 33.4884C120.605 33.4884 118.712 35.4598 118.712 38.3095C118.712 41.1398 120.469 43.0136 123.299 43.0136ZM120.586 37.4702C120.781 35.9673 121.796 35.0499 123.182 35.0499C124.626 35.0499 125.504 35.8892 125.582 37.4702H120.586ZM129.094 42.8574H131.006V38.1339C131.006 36.2601 131.455 35.4403 133.095 35.4403H133.973V33.5665H133.68C132.002 33.5665 131.28 34.2692 131.006 35.3427V33.6446H129.094V42.8574ZM142.93 43.0136C145.175 43.0136 146.561 41.8229 147.166 39.9491L145.331 39.3831C145.019 40.6323 144.375 41.3935 142.891 41.3935C141.291 41.3935 140.354 40.1053 140.354 38.29V38.2119C140.354 36.3772 141.349 35.1085 142.95 35.1085C144.277 35.1085 144.941 35.8502 145.253 37.0213L147.088 36.4553C146.522 34.6595 145.155 33.4884 142.989 33.4884C140.295 33.4884 138.421 35.4793 138.421 38.2315C138.421 41.0422 140.178 43.0136 142.93 43.0136ZM148.46 42.8574H150.373V38.1339C150.373 36.2601 150.822 35.4403 152.461 35.4403H153.34V33.5665H153.047C151.368 33.5665 150.646 34.2692 150.373 35.3427V33.6446H148.46V42.8574ZM158.238 43.0136C160.6 43.0136 161.908 41.8815 162.532 40.4566L160.834 39.793C160.483 40.6908 159.8 41.4521 158.238 41.4521C156.677 41.4521 155.681 40.4956 155.564 38.9146H162.493V38.2119C162.493 35.3036 160.873 33.4884 158.16 33.4884C155.545 33.4884 153.651 35.4598 153.651 38.3095C153.651 41.1398 155.408 43.0136 158.238 43.0136ZM155.525 37.4702C155.72 35.9673 156.735 35.0499 158.121 35.0499C159.565 35.0499 160.444 35.8892 160.522 37.4702H155.525ZM167.644 43.0526C168.932 43.0526 169.986 42.4866 170.63 41.5106V42.8574H172.504V29.7018H170.63V35.0304C169.967 34.0544 168.932 33.4494 167.663 33.4494C165.263 33.4494 163.506 35.3622 163.506 38.29C163.506 41.2764 165.282 43.0526 167.644 43.0526ZM168.132 41.413C166.551 41.413 165.516 40.3395 165.516 38.3681V38.2315C165.516 36.2406 166.57 35.0889 168.132 35.0889C169.752 35.0889 170.728 36.3186 170.728 38.1339V38.29C170.728 40.1248 169.713 41.413 168.132 41.413ZM174.458 32.1611H176.527V30.1312H174.458V32.1611ZM174.517 42.8574H176.449V33.6446H174.517V42.8574ZM181.35 42.8574H182.99V41.1788H181.897C181.311 41.1788 181.077 40.9055 181.077 40.32V35.2841H183.068V33.6446H181.077V30.6972L179.223 31.8488V33.6446H177.759V35.2841H179.223V40.5542C179.242 42.0181 179.672 42.7793 181.35 42.8574Z" fill="#1F325D"/>
<rect x="26.1387" y="59.4724" width="180.354" height="10.9305" rx="5.46526" fill="#F0F0F0"/>
<rect x="26.1387" y="78.2104" width="128.824" height="10.9305" rx="5.46526" fill="#F0F0F0"/>
<path d="M26.8808 116.756H30.3486C32.5481 116.756 33.6815 115.893 33.6815 114.179C33.6815 113.045 33.0338 112.344 31.9409 111.993C32.7909 111.669 33.2767 111.062 33.2767 110.158C33.2767 108.606 32.2377 107.796 30.2677 107.796H26.8808V116.756ZM28.2302 111.494V108.984H30.2947C31.4416 108.984 31.9004 109.348 31.8599 110.239C31.8599 111.048 31.2257 111.494 30.0113 111.494H28.2302ZM28.2302 115.569V112.654H30.2272C31.5495 112.654 32.2377 113.126 32.2107 114.111C32.2107 115.123 31.5495 115.569 30.2542 115.569H28.2302ZM36.9454 116.864C37.863 116.864 38.4837 116.446 38.8345 115.663V116.756H40.1569V110.387H38.8345V113.437C38.8345 114.813 38.3488 115.717 37.2963 115.717C36.4327 115.717 36.0009 115.177 36.0009 114.192V110.387H34.6651V114.26C34.6651 115.879 35.5151 116.864 36.9454 116.864ZM41.1287 119.32H41.8034C43.3282 119.32 43.8814 118.726 44.4616 117.215L46.9039 110.387H45.5006L43.9489 115.137L42.2487 110.387H40.8589L43.3147 116.635C42.8154 117.93 42.613 118.119 41.7359 118.119H41.1287V119.32ZM50.0584 116.864C51.6911 116.864 52.5952 116.081 53.027 115.096L51.8531 114.638C51.6102 115.258 51.1379 115.785 50.0584 115.785C48.979 115.785 48.2908 115.123 48.2098 114.03H53V113.545C53 111.534 51.8801 110.279 50.0045 110.279C48.1963 110.279 46.8875 111.642 46.8875 113.612C46.8875 115.569 48.1019 116.864 50.0584 116.864ZM48.1828 113.032C48.3178 111.993 49.0194 111.359 49.9775 111.359C50.976 111.359 51.5832 111.939 51.6372 113.032H48.1828ZM54.0644 116.756H55.3868V113.491C55.3868 112.195 55.6971 111.629 56.8306 111.629H57.4378V110.333H57.2354C56.0749 110.333 55.5757 110.819 55.3868 111.561V110.387H54.0644V116.756ZM63.6297 116.864C65.1814 116.864 66.1395 116.041 66.5578 114.746L65.2894 114.354C65.0735 115.218 64.6282 115.744 63.6027 115.744C62.4962 115.744 61.8485 114.854 61.8485 113.599V113.545C61.8485 112.276 62.5367 111.399 63.6432 111.399C64.5607 111.399 65.0195 111.912 65.2354 112.722L66.5038 112.33C66.1125 111.089 65.1679 110.279 63.6702 110.279C61.8081 110.279 60.5127 111.656 60.5127 113.558C60.5127 115.501 61.7271 116.864 63.6297 116.864ZM67.4524 116.756H68.7748V113.491C68.7748 112.195 69.0851 111.629 70.2186 111.629H70.8258V110.333H70.6234C69.463 110.333 68.9637 110.819 68.7748 111.561V110.387H67.4524V116.756ZM74.2122 116.864C75.8449 116.864 76.749 116.081 77.1808 115.096L76.0069 114.638C75.764 115.258 75.2917 115.785 74.2122 115.785C73.1328 115.785 72.4446 115.123 72.3636 114.03H77.1538V113.545C77.1538 111.534 76.0338 110.279 74.1583 110.279C72.3501 110.279 71.0413 111.642 71.0413 113.612C71.0413 115.569 72.2557 116.864 74.2122 116.864ZM72.3366 113.032C72.4716 111.993 73.1732 111.359 74.1313 111.359C75.1298 111.359 75.737 111.939 75.791 113.032H72.3366ZM80.7145 116.891C81.6051 116.891 82.3337 116.5 82.779 115.825V116.756H84.0744V107.662H82.779V111.345C82.3202 110.671 81.6051 110.252 80.728 110.252C79.0683 110.252 77.8539 111.575 77.8539 113.599C77.8539 115.663 79.0818 116.891 80.7145 116.891ZM81.0518 115.758C79.9589 115.758 79.2437 115.015 79.2437 113.653V113.558C79.2437 112.182 79.9724 111.386 81.0518 111.386C82.1718 111.386 82.8465 112.236 82.8465 113.491V113.599C82.8465 114.867 82.1448 115.758 81.0518 115.758ZM85.4252 109.362H86.8555V107.958H85.4252V109.362ZM85.4657 116.756H86.8015V110.387H85.4657V116.756ZM90.1897 116.756H91.3232V115.596H90.5676C90.1627 115.596 90.0008 115.407 90.0008 115.002V111.521H91.3772V110.387H90.0008V108.35L88.7189 109.146V110.387H87.7069V111.521H88.7189V115.164C88.7324 116.176 89.0293 116.702 90.1897 116.756ZM94.9664 116.756H96.3023V107.662H94.9664V116.756ZM97.6668 109.362H99.0971V107.958H97.6668V109.362ZM97.7073 116.756H99.0431V110.387H97.7073V116.756ZM100.461 116.756H101.784V113.707C101.784 112.249 102.35 111.426 103.335 111.426C104.199 111.426 104.617 111.952 104.617 112.951V116.756H105.953V112.883C105.953 111.183 105.117 110.252 103.74 110.252C102.769 110.252 102.121 110.738 101.784 111.588V110.387H100.461V116.756ZM110.054 116.864C111.687 116.864 112.591 116.081 113.023 115.096L111.849 114.638C111.606 115.258 111.134 115.785 110.054 115.785C108.975 115.785 108.287 115.123 108.206 114.03H112.996V113.545C112.996 111.534 111.876 110.279 110 110.279C108.192 110.279 106.883 111.642 106.883 113.612C106.883 115.569 108.098 116.864 110.054 116.864ZM108.179 113.032C108.314 111.993 109.015 111.359 109.973 111.359C110.972 111.359 111.579 111.939 111.633 113.032H108.179Z" fill="#1F325D"/>
<path d="M29.3231 140.908H30.0923V139.788C31.7115 139.693 32.9933 138.816 32.9933 137.332C32.9933 135.645 31.2797 135.281 29.9708 134.984C28.554 134.687 27.6904 134.431 27.6904 133.635C27.6904 132.92 28.4191 132.515 29.512 132.515C30.4836 132.515 31.2257 132.906 32.0353 133.635L32.8719 132.758C32.0623 131.948 31.1043 131.516 30.1192 131.408V130.302H29.3501V131.381C27.7444 131.449 26.449 132.407 26.449 133.77C26.449 135.375 28.0817 135.794 29.3906 136.104C30.7804 136.441 31.6575 136.576 31.6575 137.453C31.6575 138.195 30.9423 138.614 29.8898 138.627C28.7969 138.654 27.8793 138.209 27.0157 137.386L26.1926 138.276C27.0023 139.113 28.0278 139.666 29.3231 139.774V140.908ZM36.4385 140.125H37.7608V131.152H36.4655C36.1281 132.704 35.0757 133.567 33.7398 134.066V135.348C34.9002 134.997 35.7773 134.323 36.4385 133.459V140.125ZM42.7771 140.3C44.8551 140.3 46.1775 139.086 46.1775 137.089C46.1775 135.186 44.8686 133.999 42.9256 133.999C42.089 133.999 41.3873 134.282 40.9016 134.795L41.2659 132.366H45.6647V131.165H40.3078L39.6197 135.632L40.7801 136.333C41.1579 135.699 41.7381 135.159 42.8311 135.159C44.032 135.159 44.7877 135.861 44.7877 137.075V137.102C44.7877 138.398 44.0455 139.099 42.7636 139.099C41.5223 139.099 40.9016 138.533 40.8206 137.548H39.4847C39.4847 139.18 40.8341 140.3 42.7771 140.3ZM47.1159 142.243C48.3978 141.974 48.9105 141.07 48.9105 139.896V138.438H47.2104V140.017H48.02C48.02 140.921 47.7636 141.488 46.927 141.717L47.1159 142.243ZM53.6437 140.287C55.9915 140.287 57.3139 138.614 57.3139 135.645C57.3139 132.69 55.9915 131.003 53.6707 131.003C51.3228 131.003 50.0005 132.677 50.0005 135.645C49.987 138.668 51.2958 140.287 53.6437 140.287ZM53.6707 139.086C52.1729 139.086 51.4038 137.966 51.4038 135.767V135.524C51.4038 133.324 52.1594 132.204 53.6437 132.204C55.1415 132.204 55.8971 133.338 55.8971 135.524V135.767C55.8971 137.966 55.155 139.086 53.6707 139.086ZM61.8926 140.287C64.2405 140.287 65.5628 138.614 65.5628 135.645C65.5628 132.69 64.2405 131.003 61.9196 131.003C59.5717 131.003 58.2494 132.677 58.2494 135.645C58.2359 138.668 59.5448 140.287 61.8926 140.287ZM61.9196 139.086C60.4218 139.086 59.6527 137.966 59.6527 135.767V135.524C59.6527 133.324 60.4083 132.204 61.8926 132.204C63.3904 132.204 64.146 133.338 64.146 135.524V135.767C64.146 137.966 63.4039 139.086 61.9196 139.086ZM70.1415 140.287C72.4894 140.287 73.8117 138.614 73.8117 135.645C73.8117 132.69 72.4894 131.003 70.1685 131.003C67.8207 131.003 66.4983 132.677 66.4983 135.645C66.4848 138.668 67.7937 140.287 70.1415 140.287ZM70.1685 139.086C68.6707 139.086 67.9016 137.966 67.9016 135.767V135.524C67.9016 133.324 68.6573 132.204 70.1415 132.204C71.6393 132.204 72.3949 133.338 72.3949 135.524V135.767C72.3949 137.966 71.6528 139.086 70.1685 139.086Z" fill="#16C270"/>
<rect x="131.54" y="104.756" width="0.780752" height="37.4761" fill="#F0F0F0"/>
<path d="M141.906 116.756H143.296L144.267 114.152H147.775L148.707 116.756H150.137L146.858 107.796H145.279L141.906 116.756ZM144.672 112.964L146.035 109.267L147.357 112.964H144.672ZM153.19 116.891C154.08 116.891 154.809 116.5 155.254 115.825V116.756H156.549V107.662H155.254V111.345C154.795 110.671 154.08 110.252 153.203 110.252C151.543 110.252 150.329 111.575 150.329 113.599C150.329 115.663 151.557 116.891 153.19 116.891ZM153.527 115.758C152.434 115.758 151.719 115.015 151.719 113.653V113.558C151.719 112.182 152.447 111.386 153.527 111.386C154.647 111.386 155.321 112.236 155.321 113.491V113.599C155.321 114.867 154.62 115.758 153.527 115.758ZM159.724 116.77H160.952L163.326 110.387H161.937L160.331 115.177L158.644 110.387H157.268L159.724 116.77ZM165.561 116.918C166.479 116.918 167.275 116.554 167.707 115.798V116.756H168.989L168.975 115.771V112.627C168.975 111.008 168.004 110.279 166.371 110.279C164.684 110.279 163.551 111.143 163.51 112.573H164.846V112.492C164.9 111.777 165.413 111.345 166.357 111.345C167.329 111.345 167.72 111.75 167.72 112.276V112.371C167.585 112.722 166.924 112.789 165.845 113.018C164.428 113.329 163.362 113.653 163.362 115.083C163.362 116.176 164.198 116.918 165.561 116.918ZM165.804 115.906C165.102 115.906 164.711 115.555 164.711 115.029C164.711 114.354 165.305 114.125 166.033 113.936C166.654 113.788 167.329 113.68 167.72 113.41V114.192C167.612 115.434 166.735 115.906 165.804 115.906ZM170.301 116.756H171.623V113.707C171.623 112.249 172.19 111.426 173.175 111.426C174.039 111.426 174.457 111.952 174.457 112.951V116.756H175.793V112.883C175.793 111.183 174.956 110.252 173.58 110.252C172.608 110.252 171.961 110.738 171.623 111.588V110.387H170.301V116.756ZM179.84 116.864C181.392 116.864 182.35 116.041 182.768 114.746L181.5 114.354C181.284 115.218 180.838 115.744 179.813 115.744C178.706 115.744 178.059 114.854 178.059 113.599V113.545C178.059 112.276 178.747 111.399 179.853 111.399C180.771 111.399 181.23 111.912 181.446 112.722L182.714 112.33C182.323 111.089 181.378 110.279 179.88 110.279C178.018 110.279 176.723 111.656 176.723 113.558C176.723 115.501 177.937 116.864 179.84 116.864ZM186.469 116.864C188.102 116.864 189.006 116.081 189.438 115.096L188.264 114.638C188.021 115.258 187.549 115.785 186.469 115.785C185.39 115.785 184.702 115.123 184.621 114.03H189.411V113.545C189.411 111.534 188.291 110.279 186.415 110.279C184.607 110.279 183.298 111.642 183.298 113.612C183.298 115.569 184.513 116.864 186.469 116.864ZM184.594 113.032C184.729 111.993 185.43 111.359 186.388 111.359C187.387 111.359 187.994 111.939 188.048 113.032H184.594ZM193.097 116.756H194.42V113.491C194.42 112.195 194.73 111.629 195.864 111.629H196.471V110.333H196.268C195.108 110.333 194.609 110.819 194.42 111.561V110.387H193.097V116.756ZM198.965 116.918C199.883 116.918 200.679 116.554 201.111 115.798V116.756H202.393L202.379 115.771V112.627C202.379 111.008 201.408 110.279 199.775 110.279C198.088 110.279 196.955 111.143 196.914 112.573H198.25V112.492C198.304 111.777 198.817 111.345 199.762 111.345C200.733 111.345 201.124 111.75 201.124 112.276V112.371C200.989 112.722 200.328 112.789 199.249 113.018C197.832 113.329 196.766 113.653 196.766 115.083C196.766 116.176 197.603 116.918 198.965 116.918ZM199.208 115.906C198.507 115.906 198.115 115.555 198.115 115.029C198.115 114.354 198.709 114.125 199.438 113.936C200.058 113.788 200.733 113.68 201.124 113.41V114.192C201.016 115.434 200.139 115.906 199.208 115.906ZM205.583 116.756H206.716V115.596H205.961C205.556 115.596 205.394 115.407 205.394 115.002V111.521H206.77V110.387H205.394V108.35L204.112 109.146V110.387H203.1V111.521H204.112V115.164C204.126 116.176 204.422 116.702 205.583 116.756ZM210.333 116.864C211.966 116.864 212.87 116.081 213.302 115.096L212.128 114.638C211.885 115.258 211.413 115.785 210.333 115.785C209.254 115.785 208.565 115.123 208.484 114.03H213.275V113.545C213.275 111.534 212.155 110.279 210.279 110.279C208.471 110.279 207.162 111.642 207.162 113.612C207.162 115.569 208.377 116.864 210.333 116.864ZM208.458 113.032C208.592 111.993 209.294 111.359 210.252 111.359C211.251 111.359 211.858 111.939 211.912 113.032H208.458Z" fill="#1F325D"/>
<path d="M142.769 140.125H144.2L148.369 132.474V131.165H142.122V132.366H147.101L142.769 140.125ZM152.438 140.3C154.516 140.3 155.839 139.086 155.839 137.089C155.839 135.186 154.53 133.999 152.587 133.999C151.75 133.999 151.048 134.282 150.563 134.795L150.927 132.366H155.326V131.165H149.969L149.281 135.632L150.441 136.333C150.819 135.699 151.399 135.159 152.492 135.159C153.693 135.159 154.449 135.861 154.449 137.075V137.102C154.449 138.398 153.707 139.099 152.425 139.099C151.183 139.099 150.563 138.533 150.482 137.548H149.146C149.146 139.18 150.495 140.3 152.438 140.3ZM158.545 135.173C159.786 135.173 160.636 134.309 160.636 133.081C160.636 131.84 159.813 130.99 158.599 130.99C157.317 130.99 156.48 131.84 156.48 133.081C156.48 134.336 157.303 135.173 158.545 135.173ZM156.912 140.125H158.018L164.576 131.165H163.47L156.912 140.125ZM158.545 134.363C157.816 134.363 157.384 133.864 157.384 133.095V133.054C157.384 132.312 157.856 131.813 158.572 131.813C159.287 131.813 159.719 132.299 159.719 133.054V133.095C159.719 133.878 159.273 134.363 158.545 134.363ZM162.957 140.3C164.198 140.3 165.048 139.45 165.048 138.209C165.048 136.968 164.225 136.117 163.011 136.117C161.729 136.117 160.892 136.968 160.892 138.209C160.892 139.464 161.716 140.3 162.957 140.3ZM162.957 139.491C162.242 139.491 161.81 139.005 161.81 138.222V138.182C161.81 137.44 162.269 136.954 162.984 136.954C163.699 136.954 164.131 137.426 164.131 138.182V138.222C164.131 139.005 163.699 139.491 162.957 139.491Z" fill="#16C270"/>
<rect x="26.1387" y="157.847" width="102.017" height="32.9835" rx="4.49781" fill="#F0F0F0"/>
<path d="M58.8707 178.451H61.5094C64.1721 178.451 65.6234 177.072 65.6234 174.493C65.6234 171.866 64.2201 170.487 61.6293 170.487H58.8707V178.451ZM60.0701 177.396V171.543H61.6293C63.4884 171.543 64.364 172.454 64.364 174.445V174.517C64.364 176.448 63.4284 177.396 61.5454 177.396H60.0701ZM69.2677 178.547C70.719 178.547 71.5226 177.851 71.9064 176.976L70.8629 176.568C70.647 177.12 70.2272 177.588 69.2677 177.588C68.3082 177.588 67.6965 177 67.6245 176.028H71.8824V175.597C71.8824 173.809 70.8869 172.694 69.2197 172.694C67.6125 172.694 66.4491 173.905 66.4491 175.657C66.4491 177.396 67.5286 178.547 69.2677 178.547ZM67.6005 175.141C67.7205 174.217 68.3442 173.654 69.1957 173.654C70.0833 173.654 70.623 174.169 70.671 175.141H67.6005ZM75.5064 178.547C76.8858 178.547 77.7373 177.815 78.1092 176.664L76.9817 176.316C76.7898 177.084 76.394 177.552 75.4824 177.552C74.4989 177.552 73.9232 176.76 73.9232 175.645V175.597C73.9232 174.469 74.5349 173.689 75.5184 173.689C76.334 173.689 76.7418 174.145 76.9337 174.865L78.0612 174.517C77.7134 173.414 76.8738 172.694 75.5424 172.694C73.8872 172.694 72.7358 173.917 72.7358 175.609C72.7358 177.336 73.8153 178.547 75.5064 178.547ZM79.1121 178.451H80.2995V170.367H79.1121V178.451ZM81.72 171.878H82.9914V170.631H81.72V171.878ZM81.756 178.451H82.9434V172.79H81.756V178.451ZM84.4117 178.451H85.5871V175.74C85.5871 174.445 86.0908 173.713 86.9664 173.713C87.734 173.713 88.1059 174.181 88.1059 175.069V178.451H89.2933V175.009C89.2933 173.498 88.5496 172.67 87.3262 172.67C86.4627 172.67 85.8869 173.102 85.5871 173.857V172.79H84.4117V178.451ZM93.1463 178.547C94.5976 178.547 95.4012 177.851 95.785 176.976L94.7415 176.568C94.5256 177.12 94.1058 177.588 93.1463 177.588C92.1868 177.588 91.5751 177 91.5031 176.028H95.761V175.597C95.761 173.809 94.7655 172.694 93.0983 172.694C91.4911 172.694 90.3277 173.905 90.3277 175.657C90.3277 177.396 91.4071 178.547 93.1463 178.547ZM91.4791 175.141C91.599 174.217 92.2227 173.654 93.0743 173.654C93.9619 173.654 94.5016 174.169 94.5496 175.141H91.4791Z" fill="#747474"/>
<rect x="135.706" y="157.847" width="102.017" height="32.9835" rx="4.49781" fill="#16C270"/>
<path d="M168.847 178.451H170.082L170.946 176.136H174.064L174.892 178.451H176.163L173.249 170.487H171.845L168.847 178.451ZM171.305 175.081L172.517 171.794L173.692 175.081H171.305ZM179.289 178.547C180.668 178.547 181.52 177.815 181.891 176.664L180.764 176.316C180.572 177.084 180.176 177.552 179.265 177.552C178.281 177.552 177.705 176.76 177.705 175.645V175.597C177.705 174.469 178.317 173.689 179.301 173.689C180.116 173.689 180.524 174.145 180.716 174.865L181.843 174.517C181.496 173.414 180.656 172.694 179.325 172.694C177.669 172.694 176.518 173.917 176.518 175.609C176.518 177.336 177.598 178.547 179.289 178.547ZM185.341 178.547C186.72 178.547 187.572 177.815 187.944 176.664L186.816 176.316C186.624 177.084 186.229 177.552 185.317 177.552C184.334 177.552 183.758 176.76 183.758 175.645V175.597C183.758 174.469 184.37 173.689 185.353 173.689C186.169 173.689 186.577 174.145 186.768 174.865L187.896 174.517C187.548 173.414 186.708 172.694 185.377 172.694C183.722 172.694 182.57 173.917 182.57 175.609C182.57 177.336 183.65 178.547 185.341 178.547ZM191.442 178.547C192.893 178.547 193.696 177.851 194.08 176.976L193.037 176.568C192.821 177.12 192.401 177.588 191.442 177.588C190.482 177.588 189.87 177 189.798 176.028H194.056V175.597C194.056 173.809 193.061 172.694 191.394 172.694C189.786 172.694 188.623 173.905 188.623 175.657C188.623 177.396 189.702 178.547 191.442 178.547ZM189.774 175.141C189.894 174.217 190.518 173.654 191.37 173.654C192.257 173.654 192.797 174.169 192.845 175.141H189.774ZM195.21 180.682H196.373V177.636C196.769 178.211 197.405 178.571 198.185 178.571C199.648 178.571 200.739 177.42 200.739 175.597V175.585C200.739 173.773 199.648 172.67 198.197 172.67C197.405 172.67 196.757 173.03 196.361 173.63V172.79H195.21V180.682ZM197.897 177.564C196.901 177.564 196.301 176.808 196.301 175.693V175.597C196.301 174.469 196.913 173.677 197.897 173.677C198.868 173.677 199.504 174.337 199.504 175.549V175.633C199.504 176.856 198.856 177.564 197.897 177.564ZM203.412 178.451H204.419V177.42H203.748C203.388 177.42 203.244 177.252 203.244 176.892V173.797H204.467V172.79H203.244V170.979L202.104 171.686V172.79H201.205V173.797H202.104V177.036C202.116 177.935 202.38 178.403 203.412 178.451Z" fill="white"/>
<rect x="135.706" y="157.847" width="102.017" height="32.9835" rx="4.49781" stroke="#16C270" stroke-width="1.09736"/>
<rect x="7.84585" y="7.5646" width="248.17" height="201.559" rx="10.3901" stroke="#DEDEDE" stroke-width="0.889938"/>
</svg>
