<svg width="584" height="363" viewBox="0 0 584 363" fill="none" xmlns="http://www.w3.org/2000/svg">
<rect y="0.406982" width="584" height="361.768" rx="19.6303" fill="white"/>
<g clip-path="url(#clip0_650_26985)">
<rect x="7.85205" y="8.25903" width="568.296" height="346.063" rx="15.7042" fill="white"/>
<path d="M57.5239 74.5903H59.8826V58.9287H57.5239V74.5903ZM62.5185 74.5903H64.83V69.2597C64.83 66.7123 65.8206 65.2735 67.5425 65.2735C69.052 65.2735 69.7832 66.1934 69.7832 67.9388V74.5903H72.1183V67.8209C72.1183 64.849 70.6559 63.2215 68.2501 63.2215C66.5518 63.2215 65.4196 64.0706 64.83 65.5566V63.4573H62.5185V74.5903ZM76.991 74.6139H79.1374L83.2887 63.4573H80.8593L78.0524 71.8307L75.1041 63.4573H72.6982L76.991 74.6139ZM88.8692 74.779C92.1478 74.779 94.4829 72.3968 94.4829 69.0474C94.4829 65.6509 92.195 63.2686 88.9164 63.2686C85.6378 63.2686 83.3263 65.6509 83.3263 69.0474C83.3263 72.4439 85.5906 74.779 88.8692 74.779ZM88.8692 72.8213C86.8879 72.8213 85.6614 71.4061 85.6614 69.1182V69.0238C85.6614 66.6887 86.9351 65.2264 88.9164 65.2264C90.8977 65.2264 92.1478 66.6887 92.1478 69.0238V69.1182C92.1478 71.3825 90.8741 72.8213 88.8692 72.8213ZM96.2386 61.6647H98.7388V59.2117H96.2386V61.6647ZM96.3094 74.5903H98.6445V63.4573H96.3094V74.5903ZM105.935 74.779C108.648 74.779 110.322 73.3402 111.054 71.0759L108.836 70.3919C108.459 71.9014 107.681 72.8213 105.888 72.8213C103.954 72.8213 102.822 71.2646 102.822 69.071V68.9767C102.822 66.7595 104.025 65.2264 105.959 65.2264C107.563 65.2264 108.365 66.1227 108.742 67.5379L110.959 66.8538C110.275 64.6839 108.624 63.2686 106.006 63.2686C102.751 63.2686 100.487 65.6745 100.487 69.0002C100.487 72.3968 102.609 74.779 105.935 74.779ZM117.524 74.779C120.378 74.779 121.958 73.411 122.713 71.6891L120.661 70.8872C120.236 71.9722 119.411 72.8921 117.524 72.8921C115.637 72.8921 114.434 71.7363 114.292 69.8258H122.666V68.9767C122.666 65.4622 120.708 63.2686 117.429 63.2686C114.269 63.2686 111.981 65.6509 111.981 69.0946C111.981 72.5147 114.103 74.779 117.524 74.779ZM114.245 68.0804C114.481 66.2642 115.707 65.1556 117.382 65.1556C119.127 65.1556 120.189 66.1698 120.283 68.0804H114.245ZM128.655 74.897C131.179 74.897 132.995 73.3874 132.995 71.3353C132.995 69.1418 130.896 68.4106 128.868 68.0096C126.839 67.6086 126.084 67.4435 126.084 66.5236C126.084 65.6745 126.863 65.1084 128.066 65.1084C129.222 65.1084 130.236 65.6273 130.873 66.5944L132.878 65.6037C131.793 64.1649 130.165 63.2215 128.066 63.2215C125.707 63.2215 123.867 64.7074 123.867 66.6651C123.867 68.8116 125.684 69.5192 127.712 69.9437C129.457 70.3211 130.755 70.5334 130.755 71.5005C130.755 72.4203 130 72.9864 128.75 72.9864C127.57 72.9864 126.415 72.4911 125.731 71.5005L123.726 72.5619C124.74 73.9771 126.509 74.897 128.655 74.897Z" fill="#0F2454"/>
<path d="M56.6391 136.405H59.007C60.5088 136.405 61.2827 135.815 61.2827 134.645C61.2827 133.871 60.8405 133.392 60.0942 133.152C60.6746 132.931 61.0063 132.517 61.0063 131.899C61.0063 130.84 60.2969 130.287 58.9517 130.287H56.6391V136.405ZM57.5604 132.811V131.098H58.9701C59.7533 131.098 60.0665 131.347 60.0389 131.955C60.0389 132.507 59.6059 132.811 58.7766 132.811H57.5604ZM57.5604 135.594V133.604H58.9241C59.827 133.604 60.2969 133.926 60.2785 134.599C60.2785 135.29 59.827 135.594 58.9425 135.594H57.5604ZM63.5114 136.478C64.1379 136.478 64.5618 136.193 64.8013 135.658V136.405H65.7043V132.056H64.8013V134.138C64.8013 135.078 64.4696 135.695 63.751 135.695C63.1613 135.695 62.8665 135.327 62.8665 134.654V132.056H61.9543V134.7C61.9543 135.806 62.5348 136.478 63.5114 136.478ZM68.2839 136.525C69.2697 136.525 69.9792 135.935 69.9792 135.133C69.9792 134.276 69.1592 133.991 68.3668 133.834C67.5744 133.678 67.2796 133.613 67.2796 133.254C67.2796 132.922 67.5836 132.701 68.0535 132.701C68.505 132.701 68.9012 132.904 69.1499 133.281L69.9331 132.894C69.5093 132.332 68.8735 131.964 68.0535 131.964C67.1322 131.964 66.4135 132.544 66.4135 133.309C66.4135 134.147 67.1229 134.424 67.9153 134.59C68.5971 134.737 69.1039 134.82 69.1039 135.198C69.1039 135.557 68.809 135.778 68.3207 135.778C67.86 135.778 67.4086 135.585 67.1414 135.198L66.3582 135.612C66.7544 136.165 67.4454 136.525 68.2839 136.525ZM70.6112 131.356H71.5878V130.398H70.6112V131.356ZM70.6388 136.405H71.551V132.056H70.6388V136.405ZM72.5193 136.405H73.4223V134.323C73.4223 133.327 73.8092 132.765 74.4818 132.765C75.0715 132.765 75.3571 133.125 75.3571 133.807V136.405H76.2693V133.76C76.2693 132.6 75.698 131.964 74.7582 131.964C74.0948 131.964 73.6526 132.296 73.4223 132.876V132.056H72.5193V136.405ZM79.0695 136.478C80.1844 136.478 80.8017 135.944 81.0965 135.272L80.295 134.958C80.1291 135.382 79.8066 135.741 79.0695 135.741C78.3325 135.741 77.8626 135.29 77.8073 134.544H81.0781V134.212C81.0781 132.839 80.3134 131.982 79.0327 131.982C77.7981 131.982 76.9043 132.913 76.9043 134.258C76.9043 135.594 77.7336 136.478 79.0695 136.478ZM77.7889 133.862C77.881 133.152 78.3601 132.719 79.0143 132.719C79.6961 132.719 80.1107 133.116 80.1475 133.862H77.7889ZM83.4179 136.525C84.4038 136.525 85.1133 135.935 85.1133 135.133C85.1133 134.276 84.2932 133.991 83.5009 133.834C82.7085 133.678 82.4137 133.613 82.4137 133.254C82.4137 132.922 82.7177 132.701 83.1876 132.701C83.6391 132.701 84.0353 132.904 84.284 133.281L85.0672 132.894C84.6434 132.332 84.0076 131.964 83.1876 131.964C82.2662 131.964 81.5476 132.544 81.5476 133.309C81.5476 134.147 82.257 134.424 83.0494 134.59C83.7312 134.737 84.238 134.82 84.238 135.198C84.238 135.557 83.9431 135.778 83.4548 135.778C82.9941 135.778 82.5427 135.585 82.2755 135.198L81.4923 135.612C81.8885 136.165 82.5795 136.525 83.4179 136.525ZM87.3589 136.525C88.3448 136.525 89.0542 135.935 89.0542 135.133C89.0542 134.276 88.2342 133.991 87.4418 133.834C86.6495 133.678 86.3546 133.613 86.3546 133.254C86.3546 132.922 86.6587 132.701 87.1286 132.701C87.5801 132.701 87.9762 132.904 88.225 133.281L89.0082 132.894C88.5843 132.332 87.9486 131.964 87.1286 131.964C86.2072 131.964 85.4886 132.544 85.4886 133.309C85.4886 134.147 86.198 134.424 86.9904 134.59C87.6722 134.737 88.1789 134.82 88.1789 135.198C88.1789 135.557 87.8841 135.778 87.3958 135.778C86.9351 135.778 86.4836 135.585 86.2164 135.198L85.4333 135.612C85.8295 136.165 86.5205 136.525 87.3589 136.525ZM91.5494 136.405H92.4523V134.323C92.4523 133.327 92.8393 132.765 93.5119 132.765C94.1016 132.765 94.3872 133.125 94.3872 133.807V136.405H95.2993V133.76C95.2993 132.6 94.7281 131.964 93.7883 131.964C93.1249 131.964 92.6827 132.296 92.4523 132.876V132.056H91.5494V136.405ZM97.4547 136.515C98.0812 136.515 98.6248 136.267 98.9196 135.751V136.405H99.7949L99.7857 135.732V133.585C99.7857 132.48 99.1223 131.982 98.0075 131.982C96.8558 131.982 96.0818 132.572 96.0542 133.549H96.9664V133.493C97.0032 133.005 97.3533 132.71 97.9983 132.71C98.6617 132.71 98.9289 132.987 98.9289 133.346V133.41C98.8367 133.65 98.3852 133.696 97.6482 133.853C96.6807 134.065 95.9529 134.286 95.9529 135.262C95.9529 136.009 96.5241 136.515 97.4547 136.515ZM97.6205 135.824C97.1414 135.824 96.8742 135.585 96.8742 135.225C96.8742 134.765 97.2796 134.608 97.7772 134.479C98.201 134.378 98.6617 134.304 98.9289 134.12V134.654C98.8551 135.502 98.2563 135.824 97.6205 135.824ZM100.691 136.405H101.594V133.972C101.594 133.189 101.981 132.765 102.506 132.765C103.022 132.765 103.298 133.079 103.298 133.724V136.405H104.211V133.972C104.211 133.217 104.542 132.765 105.123 132.765C105.639 132.765 105.915 133.079 105.915 133.724V136.405H106.827V133.678C106.827 132.6 106.302 131.964 105.473 131.964C104.736 131.964 104.275 132.342 104.063 132.913C103.861 132.222 103.372 131.964 102.865 131.964C102.239 131.964 101.815 132.277 101.594 132.821V132.056H100.691V136.405ZM109.626 136.478C110.74 136.478 111.358 135.944 111.653 135.272L110.851 134.958C110.685 135.382 110.363 135.741 109.626 135.741C108.889 135.741 108.419 135.29 108.363 134.544H111.634V134.212C111.634 132.839 110.869 131.982 109.589 131.982C108.354 131.982 107.46 132.913 107.46 134.258C107.46 135.594 108.29 136.478 109.626 136.478ZM108.345 133.862C108.437 133.152 108.916 132.719 109.57 132.719C110.252 132.719 110.667 133.116 110.704 133.862H108.345Z" fill="#1F325D"/>
<path d="M248.556 136.405H249.505L250.168 134.627H252.564L253.2 136.405H254.176L251.937 130.287H250.859L248.556 136.405ZM250.445 133.816L251.375 131.291L252.278 133.816H250.445ZM255.432 136.414H256.27L257.892 132.056H256.943L255.846 135.327L254.695 132.056H253.755L255.432 136.414ZM259.418 136.515C260.044 136.515 260.588 136.267 260.883 135.751V136.405H261.758L261.749 135.732V133.585C261.749 132.48 261.085 131.982 259.971 131.982C258.819 131.982 258.045 132.572 258.017 133.549H258.929V133.493C258.966 133.005 259.316 132.71 259.961 132.71C260.625 132.71 260.892 132.987 260.892 133.346V133.41C260.8 133.65 260.348 133.696 259.611 133.853C258.644 134.065 257.916 134.286 257.916 135.262C257.916 136.009 258.487 136.515 259.418 136.515ZM259.584 135.824C259.104 135.824 258.837 135.585 258.837 135.225C258.837 134.765 259.243 134.608 259.74 134.479C260.164 134.378 260.625 134.304 260.892 134.12V134.654C260.818 135.502 260.219 135.824 259.584 135.824ZM262.626 131.356H263.603V130.398H262.626V131.356ZM262.654 136.405H263.566V132.056H262.654V136.405ZM264.535 136.405H265.447V130.195H264.535V136.405ZM267.678 136.515C268.304 136.515 268.848 136.267 269.143 135.751V136.405H270.018L270.009 135.732V133.585C270.009 132.48 269.345 131.982 268.23 131.982C267.079 131.982 266.305 132.572 266.277 133.549H267.189V133.493C267.226 133.005 267.576 132.71 268.221 132.71C268.885 132.71 269.152 132.987 269.152 133.346V133.41C269.06 133.65 268.608 133.696 267.871 133.853C266.904 134.065 266.176 134.286 266.176 135.262C266.176 136.009 266.747 136.515 267.678 136.515ZM267.843 135.824C267.364 135.824 267.097 135.585 267.097 135.225C267.097 134.765 267.502 134.608 268 134.479C268.424 134.378 268.885 134.304 269.152 134.12V134.654C269.078 135.502 268.479 135.824 267.843 135.824ZM273.19 136.497C274.323 136.497 275.152 135.612 275.152 134.212V134.203C275.152 132.802 274.314 131.964 273.199 131.964C272.591 131.964 272.102 132.231 271.798 132.682V130.186H270.914V136.405H271.798V135.769C272.102 136.221 272.591 136.497 273.19 136.497ZM272.978 135.723C272.204 135.723 271.752 135.143 271.752 134.286V134.212C271.752 133.346 272.222 132.738 272.978 132.738C273.724 132.738 274.203 133.245 274.203 134.175V134.24C274.203 135.179 273.706 135.723 272.978 135.723ZM275.863 136.405H276.775V130.195H275.863V136.405ZM279.651 136.478C280.765 136.478 281.383 135.944 281.678 135.272L280.876 134.958C280.71 135.382 280.388 135.741 279.651 135.741C278.913 135.741 278.444 135.29 278.388 134.544H281.659V134.212C281.659 132.839 280.894 131.982 279.614 131.982C278.379 131.982 277.485 132.913 277.485 134.258C277.485 135.594 278.315 136.478 279.651 136.478ZM278.37 133.862C278.462 133.152 278.941 132.719 279.595 132.719C280.277 132.719 280.692 133.116 280.729 133.862H278.37ZM286.056 136.478C287.116 136.478 287.77 135.916 288.055 135.032L287.189 134.765C287.042 135.354 286.738 135.714 286.038 135.714C285.282 135.714 284.84 135.106 284.84 134.249V134.212C284.84 133.346 285.31 132.747 286.065 132.747C286.692 132.747 287.005 133.097 287.152 133.65L288.019 133.383C287.751 132.535 287.106 131.982 286.084 131.982C284.812 131.982 283.928 132.922 283.928 134.221C283.928 135.548 284.757 136.478 286.056 136.478ZM288.666 136.405H289.569V134.175C289.569 133.291 289.781 132.904 290.555 132.904H290.97V132.019H290.832C290.039 132.019 289.698 132.351 289.569 132.858V132.056H288.666V136.405ZM293.282 136.478C294.397 136.478 295.014 135.944 295.309 135.272L294.507 134.958C294.342 135.382 294.019 135.741 293.282 135.741C292.545 135.741 292.075 135.29 292.02 134.544H295.291V134.212C295.291 132.839 294.526 131.982 293.245 131.982C292.011 131.982 291.117 132.913 291.117 134.258C291.117 135.594 291.946 136.478 293.282 136.478ZM292.001 133.862C292.093 133.152 292.573 132.719 293.227 132.719C293.909 132.719 294.323 133.116 294.36 133.862H292.001ZM297.722 136.497C298.33 136.497 298.828 136.23 299.132 135.769V136.405H300.016V130.195H299.132V132.71C298.818 132.249 298.33 131.964 297.731 131.964C296.598 131.964 295.769 132.867 295.769 134.249C295.769 135.658 296.607 136.497 297.722 136.497ZM297.952 135.723C297.206 135.723 296.718 135.216 296.718 134.286V134.221C296.718 133.281 297.215 132.738 297.952 132.738C298.717 132.738 299.178 133.318 299.178 134.175V134.249C299.178 135.115 298.699 135.723 297.952 135.723ZM300.938 131.356H301.915V130.398H300.938V131.356ZM300.966 136.405H301.878V132.056H300.966V136.405ZM304.192 136.405H304.966V135.612H304.45C304.173 135.612 304.063 135.483 304.063 135.207V132.83H305.003V132.056H304.063V130.665L303.188 131.208V132.056H302.497V132.83H303.188V135.318C303.197 136.009 303.399 136.368 304.192 136.405Z" fill="#1F325D"/>
<path d="M341.897 136.405H342.846L343.509 134.627H345.905L346.54 136.405H347.517L345.278 130.287H344.2L341.897 136.405ZM343.785 133.816L344.716 131.291L345.619 133.816H343.785ZM349.601 136.497C350.209 136.497 350.707 136.23 351.011 135.769V136.405H351.896V130.195H351.011V132.71C350.698 132.249 350.209 131.964 349.611 131.964C348.477 131.964 347.648 132.867 347.648 134.249C347.648 135.658 348.486 136.497 349.601 136.497ZM349.832 135.723C349.085 135.723 348.597 135.216 348.597 134.286V134.221C348.597 133.281 349.095 132.738 349.832 132.738C350.596 132.738 351.057 133.318 351.057 134.175V134.249C351.057 135.115 350.578 135.723 349.832 135.723ZM354.063 136.414H354.901L356.523 132.056H355.574L354.478 135.327L353.326 132.056H352.386L354.063 136.414ZM358.049 136.515C358.676 136.515 359.219 136.267 359.514 135.751V136.405H360.389L360.38 135.732V133.585C360.38 132.48 359.717 131.982 358.602 131.982C357.45 131.982 356.676 132.572 356.649 133.549H357.561V133.493C357.598 133.005 357.948 132.71 358.593 132.71C359.256 132.71 359.523 132.987 359.523 133.346V133.41C359.431 133.65 358.98 133.696 358.242 133.853C357.275 134.065 356.547 134.286 356.547 135.262C356.547 136.009 357.118 136.515 358.049 136.515ZM358.215 135.824C357.736 135.824 357.469 135.585 357.469 135.225C357.469 134.765 357.874 134.608 358.371 134.479C358.795 134.378 359.256 134.304 359.523 134.12V134.654C359.449 135.502 358.851 135.824 358.215 135.824ZM361.285 136.405H362.188V134.323C362.188 133.327 362.575 132.765 363.248 132.765C363.838 132.765 364.123 133.125 364.123 133.807V136.405H365.035V133.76C365.035 132.6 364.464 131.964 363.524 131.964C362.861 131.964 362.419 132.296 362.188 132.876V132.056H361.285V136.405ZM367.799 136.478C368.858 136.478 369.512 135.916 369.798 135.032L368.932 134.765C368.785 135.354 368.481 135.714 367.78 135.714C367.025 135.714 366.583 135.106 366.583 134.249V134.212C366.583 133.346 367.052 132.747 367.808 132.747C368.434 132.747 368.748 133.097 368.895 133.65L369.761 133.383C369.494 132.535 368.849 131.982 367.826 131.982C366.555 131.982 365.67 132.922 365.67 134.221C365.67 135.548 366.5 136.478 367.799 136.478ZM372.325 136.478C373.44 136.478 374.058 135.944 374.352 135.272L373.551 134.958C373.385 135.382 373.063 135.741 372.325 135.741C371.588 135.741 371.118 135.29 371.063 134.544H374.334V134.212C374.334 132.839 373.569 131.982 372.289 131.982C371.054 131.982 370.16 132.913 370.16 134.258C370.16 135.594 370.989 136.478 372.325 136.478ZM371.045 133.862C371.137 133.152 371.616 132.719 372.27 132.719C372.952 132.719 373.367 133.116 373.403 133.862H371.045ZM376.851 136.405H377.754V134.175C377.754 133.291 377.966 132.904 378.74 132.904H379.155V132.019H379.017C378.224 132.019 377.883 132.351 377.754 132.858V132.056H376.851V136.405ZM380.858 136.515C381.485 136.515 382.028 136.267 382.323 135.751V136.405H383.198L383.189 135.732V133.585C383.189 132.48 382.526 131.982 381.411 131.982C380.259 131.982 379.485 132.572 379.458 133.549H380.37V133.493C380.407 133.005 380.757 132.71 381.402 132.71C382.065 132.71 382.332 132.987 382.332 133.346V133.41C382.24 133.65 381.789 133.696 381.052 133.853C380.084 134.065 379.356 134.286 379.356 135.262C379.356 136.009 379.928 136.515 380.858 136.515ZM381.024 135.824C380.545 135.824 380.278 135.585 380.278 135.225C380.278 134.765 380.683 134.608 381.181 134.479C381.604 134.378 382.065 134.304 382.332 134.12V134.654C382.259 135.502 381.66 135.824 381.024 135.824ZM385.377 136.405H386.151V135.612H385.635C385.358 135.612 385.248 135.483 385.248 135.207V132.83H386.187V132.056H385.248V130.665L384.372 131.208V132.056H383.681V132.83H384.372V135.318C384.382 136.009 384.584 136.368 385.377 136.405ZM388.62 136.478C389.735 136.478 390.352 135.944 390.647 135.272L389.846 134.958C389.68 135.382 389.357 135.741 388.62 135.741C387.883 135.741 387.413 135.29 387.358 134.544H390.629V134.212C390.629 132.839 389.864 131.982 388.583 131.982C387.349 131.982 386.455 132.913 386.455 134.258C386.455 135.594 387.284 136.478 388.62 136.478ZM387.34 133.862C387.432 133.152 387.911 132.719 388.565 132.719C389.247 132.719 389.661 133.116 389.698 133.862H387.34Z" fill="#1F325D"/>
<path d="M443.684 136.506C445.066 136.506 445.886 135.732 445.886 134.617C445.886 133.42 444.854 133.106 443.85 132.913C442.974 132.747 442.173 132.618 442.173 131.964C442.173 131.374 442.643 130.987 443.398 130.987C444.237 130.987 444.743 131.328 444.872 132.222H445.858C445.674 130.849 444.78 130.176 443.407 130.176C442.154 130.176 441.261 130.95 441.261 132.01C441.261 133.189 442.339 133.521 443.352 133.724C444.237 133.889 444.965 134.055 444.965 134.663C444.965 135.308 444.485 135.695 443.656 135.695C442.716 135.695 442.237 135.354 442.053 134.451H441.058C441.297 135.778 442.127 136.506 443.684 136.506ZM447.971 136.405H448.745V135.612H448.229C447.953 135.612 447.842 135.483 447.842 135.207V132.83H448.782V132.056H447.842V130.665L446.967 131.208V132.056H446.276V132.83H446.967V135.318C446.976 136.009 447.179 136.368 447.971 136.405ZM450.714 136.515C451.34 136.515 451.884 136.267 452.179 135.751V136.405H453.054L453.045 135.732V133.585C453.045 132.48 452.381 131.982 451.266 131.982C450.115 131.982 449.341 132.572 449.313 133.549H450.225V133.493C450.262 133.005 450.612 132.71 451.257 132.71C451.921 132.71 452.188 132.987 452.188 133.346V133.41C452.096 133.65 451.644 133.696 450.907 133.853C449.94 134.065 449.212 134.286 449.212 135.262C449.212 136.009 449.783 136.515 450.714 136.515ZM450.879 135.824C450.4 135.824 450.133 135.585 450.133 135.225C450.133 134.765 450.539 134.608 451.036 134.479C451.46 134.378 451.921 134.304 452.188 134.12V134.654C452.114 135.502 451.515 135.824 450.879 135.824ZM455.232 136.405H456.006V135.612H455.49C455.214 135.612 455.103 135.483 455.103 135.207V132.83H456.043V132.056H455.103V130.665L454.228 131.208V132.056H453.537V132.83H454.228V135.318C454.237 136.009 454.44 136.368 455.232 136.405ZM458.178 136.478C458.804 136.478 459.228 136.193 459.468 135.658V136.405H460.37V132.056H459.468V134.138C459.468 135.078 459.136 135.695 458.417 135.695C457.828 135.695 457.533 135.327 457.533 134.654V132.056H456.621V134.7C456.621 135.806 457.201 136.478 458.178 136.478ZM462.95 136.525C463.936 136.525 464.645 135.935 464.645 135.133C464.645 134.276 463.825 133.991 463.033 133.834C462.241 133.678 461.946 133.613 461.946 133.254C461.946 132.922 462.25 132.701 462.72 132.701C463.171 132.701 463.567 132.904 463.816 133.281L464.599 132.894C464.175 132.332 463.54 131.964 462.72 131.964C461.798 131.964 461.08 132.544 461.08 133.309C461.08 134.147 461.789 134.424 462.582 134.59C463.263 134.737 463.77 134.82 463.77 135.198C463.77 135.557 463.475 135.778 462.987 135.778C462.526 135.778 462.075 135.585 461.808 135.198L461.024 135.612C461.421 136.165 462.112 136.525 462.95 136.525Z" fill="#1F325D"/>
<path d="M56.1323 148.491H527.869" stroke="#0F2454" stroke-width="0.368545" stroke-dasharray="1.47 1.84"/>
<path d="M265.934 166.526H266.438V165.792C267.5 165.73 268.34 165.155 268.34 164.182C268.34 163.076 267.217 162.837 266.359 162.643C265.43 162.448 264.864 162.28 264.864 161.758C264.864 161.289 265.342 161.024 266.058 161.024C266.695 161.024 267.181 161.281 267.712 161.758L268.26 161.183C267.73 160.653 267.102 160.37 266.456 160.299V159.573H265.952V160.281C264.899 160.325 264.05 160.953 264.05 161.847C264.05 162.899 265.12 163.173 265.978 163.377C266.89 163.598 267.464 163.686 267.464 164.261C267.464 164.748 266.996 165.022 266.306 165.031C265.589 165.049 264.988 164.757 264.422 164.217L263.882 164.801C264.413 165.349 265.085 165.712 265.934 165.783V166.526ZM271.076 166.119C272.474 166.119 273.278 165.464 273.278 164.35C273.278 163.616 272.889 163.103 272.173 162.899C272.845 162.705 273.155 162.271 273.155 161.687C273.155 160.635 272.429 160.033 271.076 160.033C269.829 160.033 269.042 160.697 268.936 161.909H269.811C269.891 161.228 270.218 160.812 271.067 160.812C271.828 160.812 272.252 161.148 272.252 161.714V161.732C272.252 162.289 271.881 162.59 271.138 162.59H270.634V163.377H271.147C272.022 163.377 272.367 163.669 272.367 164.323V164.35C272.367 164.987 271.925 165.34 271.085 165.34C270.192 165.34 269.802 164.969 269.74 164.279H268.847C268.927 165.597 269.785 166.119 271.076 166.119ZM273.961 167.401C274.801 167.224 275.137 166.632 275.137 165.862V164.907H274.023V165.942H274.554C274.554 166.535 274.386 166.906 273.837 167.056L273.961 167.401ZM278.24 166.119C279.779 166.119 280.646 165.022 280.646 163.076C280.646 161.139 279.779 160.033 278.258 160.033C276.719 160.033 275.852 161.13 275.852 163.076C275.843 165.057 276.701 166.119 278.24 166.119ZM278.258 165.332C277.276 165.332 276.772 164.597 276.772 163.156V162.997C276.772 161.555 277.267 160.821 278.24 160.821C279.222 160.821 279.717 161.564 279.717 162.997V163.156C279.717 164.597 279.231 165.332 278.258 165.332ZM283.647 166.119C285.186 166.119 286.053 165.022 286.053 163.076C286.053 161.139 285.186 160.033 283.665 160.033C282.126 160.033 281.259 161.13 281.259 163.076C281.25 165.057 282.108 166.119 283.647 166.119ZM283.665 165.332C282.683 165.332 282.179 164.597 282.179 163.156V162.997C282.179 161.555 282.674 160.821 283.647 160.821C284.629 160.821 285.124 161.564 285.124 162.997V163.156C285.124 164.597 284.638 165.332 283.665 165.332ZM289.055 166.119C290.594 166.119 291.46 165.022 291.46 163.076C291.46 161.139 290.594 160.033 289.072 160.033C287.533 160.033 286.666 161.13 286.666 163.076C286.658 165.057 287.516 166.119 289.055 166.119ZM289.072 165.332C288.09 165.332 287.586 164.597 287.586 163.156V162.997C287.586 161.555 288.082 160.821 289.055 160.821C290.036 160.821 290.532 161.564 290.532 162.997V163.156C290.532 164.597 290.045 165.332 289.072 165.332ZM292.18 166.013H293.25V164.907H292.18V166.013ZM296.353 166.119C297.893 166.119 298.759 165.022 298.759 163.076C298.759 161.139 297.893 160.033 296.371 160.033C294.832 160.033 293.965 161.13 293.965 163.076C293.956 165.057 294.814 166.119 296.353 166.119ZM296.371 165.332C295.389 165.332 294.885 164.597 294.885 163.156V162.997C294.885 161.555 295.381 160.821 296.353 160.821C297.335 160.821 297.831 161.564 297.831 162.997V163.156C297.831 164.597 297.344 165.332 296.371 165.332ZM301.761 166.119C303.3 166.119 304.167 165.022 304.167 163.076C304.167 161.139 303.3 160.033 301.778 160.033C300.239 160.033 299.373 161.13 299.373 163.076C299.364 165.057 300.222 166.119 301.761 166.119ZM301.778 165.332C300.797 165.332 300.292 164.597 300.292 163.156V162.997C300.292 161.555 300.788 160.821 301.761 160.821C302.743 160.821 303.238 161.564 303.238 162.997V163.156C303.238 164.597 302.751 165.332 301.778 165.332Z" fill="#0F2454"/>
<path d="M376.008 166.013H376.946L379.679 160.998V160.14H375.584V160.927H378.848L376.008 166.013ZM382.346 166.128C383.708 166.128 384.575 165.332 384.575 164.023C384.575 162.775 383.717 161.997 382.444 161.997C381.895 161.997 381.435 162.183 381.117 162.519L381.356 160.927H384.239V160.14H380.728L380.277 163.067L381.037 163.527C381.285 163.112 381.665 162.758 382.382 162.758C383.169 162.758 383.664 163.218 383.664 164.014V164.031C383.664 164.881 383.178 165.34 382.337 165.34C381.524 165.34 381.117 164.969 381.064 164.323H380.188C380.188 165.394 381.073 166.128 382.346 166.128ZM386.349 162.767C387.163 162.767 387.72 162.2 387.72 161.396C387.72 160.582 387.181 160.025 386.385 160.025C385.544 160.025 384.996 160.582 384.996 161.396C384.996 162.218 385.535 162.767 386.349 162.767ZM385.279 166.013H386.004L390.303 160.14H389.578L385.279 166.013ZM386.349 162.236C385.872 162.236 385.588 161.909 385.588 161.404V161.378C385.588 160.891 385.898 160.564 386.367 160.564C386.836 160.564 387.119 160.883 387.119 161.378V161.404C387.119 161.917 386.827 162.236 386.349 162.236ZM389.241 166.128C390.055 166.128 390.612 165.57 390.612 164.757C390.612 163.943 390.073 163.386 389.277 163.386C388.437 163.386 387.888 163.943 387.888 164.757C387.888 165.579 388.428 166.128 389.241 166.128ZM389.241 165.597C388.773 165.597 388.49 165.279 388.49 164.766V164.739C388.49 164.253 388.79 163.934 389.259 163.934C389.728 163.934 390.011 164.244 390.011 164.739V164.766C390.011 165.279 389.728 165.597 389.241 165.597Z" fill="#0F2454"/>
<path fill-rule="evenodd" clip-rule="evenodd" d="M521.236 160.469C521.236 160.876 520.906 161.206 520.498 161.206C520.091 161.206 519.761 160.876 519.761 160.469C519.761 160.061 520.091 159.731 520.498 159.731C520.906 159.731 521.236 160.061 521.236 160.469ZM521.235 163.417C521.235 163.824 520.905 164.154 520.498 164.154C520.091 164.154 519.761 163.824 519.761 163.417C519.761 163.01 520.091 162.68 520.498 162.68C520.905 162.68 521.235 163.01 521.235 163.417ZM520.498 167.102C520.905 167.102 521.235 166.772 521.235 166.365C521.235 165.958 520.905 165.628 520.498 165.628C520.091 165.628 519.761 165.958 519.761 166.365C519.761 166.772 520.091 167.102 520.498 167.102Z" fill="#0F2454"/>
<rect x="56.1323" y="178.158" width="471.737" height="0.368545" fill="#EEEEEE"/>
<path d="M260.548 196.378H261.052V195.644C262.114 195.582 262.954 195.007 262.954 194.034C262.954 192.928 261.831 192.689 260.973 192.495C260.044 192.3 259.478 192.132 259.478 191.61C259.478 191.141 259.956 190.876 260.672 190.876C261.309 190.876 261.795 191.133 262.326 191.61L262.874 191.035C262.344 190.505 261.716 190.222 261.07 190.151V189.426H260.566V190.133C259.513 190.177 258.664 190.805 258.664 191.699C258.664 192.751 259.734 193.025 260.592 193.229C261.504 193.45 262.078 193.538 262.078 194.113C262.078 194.6 261.61 194.874 260.92 194.883C260.203 194.901 259.602 194.609 259.036 194.069L258.496 194.653C259.027 195.201 259.699 195.564 260.548 195.635V196.378ZM265.593 195.98C266.955 195.98 267.822 195.184 267.822 193.875C267.822 192.627 266.964 191.849 265.69 191.849C265.142 191.849 264.682 192.035 264.363 192.371L264.602 190.779H267.486V189.992H263.974L263.523 192.919L264.284 193.379C264.531 192.964 264.912 192.61 265.628 192.61C266.415 192.61 266.911 193.07 266.911 193.866V193.883C266.911 194.733 266.424 195.193 265.584 195.193C264.77 195.193 264.363 194.821 264.31 194.175H263.435C263.435 195.246 264.319 195.98 265.593 195.98ZM270.746 195.971C272.286 195.971 273.152 194.874 273.152 192.928C273.152 190.991 272.286 189.885 270.764 189.885C269.225 189.885 268.358 190.982 268.358 192.928C268.349 194.909 269.207 195.971 270.746 195.971ZM270.764 195.184C269.782 195.184 269.278 194.45 269.278 193.008V192.849C269.278 191.407 269.774 190.673 270.746 190.673C271.728 190.673 272.224 191.416 272.224 192.849V193.008C272.224 194.45 271.737 195.184 270.764 195.184ZM273.801 197.253C274.641 197.077 274.977 196.484 274.977 195.714V194.759H273.863V195.794H274.394C274.394 196.387 274.225 196.758 273.677 196.908L273.801 197.253ZM278.08 195.971C279.619 195.971 280.486 194.874 280.486 192.928C280.486 190.991 279.619 189.885 278.098 189.885C276.559 189.885 275.692 190.982 275.692 192.928C275.683 194.909 276.541 195.971 278.08 195.971ZM278.098 195.184C277.116 195.184 276.612 194.45 276.612 193.008V192.849C276.612 191.407 277.107 190.673 278.08 190.673C279.062 190.673 279.557 191.416 279.557 192.849V193.008C279.557 194.45 279.071 195.184 278.098 195.184ZM283.487 195.971C285.026 195.971 285.893 194.874 285.893 192.928C285.893 190.991 285.026 189.885 283.505 189.885C281.966 189.885 281.099 190.982 281.099 192.928C281.09 194.909 281.948 195.971 283.487 195.971ZM283.505 195.184C282.523 195.184 282.019 194.45 282.019 193.008V192.849C282.019 191.407 282.514 190.673 283.487 190.673C284.469 190.673 284.964 191.416 284.964 192.849V193.008C284.964 194.45 284.478 195.184 283.505 195.184ZM288.894 195.971C290.433 195.971 291.3 194.874 291.3 192.928C291.3 190.991 290.433 189.885 288.912 189.885C287.373 189.885 286.506 190.982 286.506 192.928C286.497 194.909 287.355 195.971 288.894 195.971ZM288.912 195.184C287.93 195.184 287.426 194.45 287.426 193.008V192.849C287.426 191.407 287.921 190.673 288.894 190.673C289.876 190.673 290.372 191.416 290.372 192.849V193.008C290.372 194.45 289.885 195.184 288.912 195.184ZM292.02 195.865H293.09V194.759H292.02V195.865ZM296.193 195.971C297.732 195.971 298.599 194.874 298.599 192.928C298.599 190.991 297.732 189.885 296.211 189.885C294.672 189.885 293.805 190.982 293.805 192.928C293.796 194.909 294.654 195.971 296.193 195.971ZM296.211 195.184C295.229 195.184 294.725 194.45 294.725 193.008V192.849C294.725 191.407 295.22 190.673 296.193 190.673C297.175 190.673 297.67 191.416 297.67 192.849V193.008C297.67 194.45 297.184 195.184 296.211 195.184ZM301.601 195.971C303.14 195.971 304.006 194.874 304.006 192.928C304.006 190.991 303.14 189.885 301.618 189.885C300.079 189.885 299.212 190.982 299.212 192.928C299.204 194.909 300.062 195.971 301.601 195.971ZM301.618 195.184C300.636 195.184 300.132 194.45 300.132 193.008V192.849C300.132 191.407 300.628 190.673 301.601 190.673C302.582 190.673 303.078 191.416 303.078 192.849V193.008C303.078 194.45 302.591 195.184 301.618 195.184Z" fill="#0F2454"/>
<path d="M376.876 195.98C378.238 195.98 379.105 195.184 379.105 193.875C379.105 192.627 378.247 191.849 376.973 191.849C376.425 191.849 375.965 192.035 375.646 192.371L375.885 190.779H378.769V189.992H375.257L374.806 192.919L375.567 193.379C375.814 192.964 376.195 192.61 376.911 192.61C377.698 192.61 378.194 193.07 378.194 193.866V193.883C378.194 194.733 377.707 195.193 376.867 195.193C376.053 195.193 375.646 194.821 375.593 194.175H374.718C374.718 195.246 375.602 195.98 376.876 195.98ZM382.03 195.971C383.569 195.971 384.435 194.874 384.435 192.928C384.435 190.991 383.569 189.885 382.047 189.885C380.508 189.885 379.641 190.982 379.641 192.928C379.633 194.909 380.491 195.971 382.03 195.971ZM382.047 195.184C381.065 195.184 380.561 194.45 380.561 193.008V192.849C380.561 191.407 381.057 190.673 382.03 190.673C383.011 190.673 383.507 191.416 383.507 192.849V193.008C383.507 194.45 383.02 195.184 382.047 195.184ZM386.243 192.619C387.056 192.619 387.614 192.053 387.614 191.248C387.614 190.434 387.074 189.877 386.278 189.877C385.438 189.877 384.889 190.434 384.889 191.248C384.889 192.07 385.429 192.619 386.243 192.619ZM385.172 195.865H385.898L390.196 189.992H389.471L385.172 195.865ZM386.243 192.088C385.765 192.088 385.482 191.761 385.482 191.256V191.23C385.482 190.743 385.792 190.416 386.26 190.416C386.729 190.416 387.012 190.735 387.012 191.23V191.256C387.012 191.769 386.72 192.088 386.243 192.088ZM389.135 195.98C389.949 195.98 390.506 195.422 390.506 194.609C390.506 193.795 389.966 193.238 389.17 193.238C388.33 193.238 387.782 193.795 387.782 194.609C387.782 195.431 388.321 195.98 389.135 195.98ZM389.135 195.449C388.666 195.449 388.383 195.131 388.383 194.618V194.591C388.383 194.105 388.684 193.786 389.153 193.786C389.622 193.786 389.905 194.096 389.905 194.591V194.618C389.905 195.131 389.622 195.449 389.135 195.449Z" fill="#0F2454"/>
<path fill-rule="evenodd" clip-rule="evenodd" d="M521.236 190.32C521.236 190.727 520.906 191.057 520.499 191.057C520.092 191.057 519.762 190.727 519.762 190.32C519.762 189.913 520.092 189.583 520.499 189.583C520.906 189.583 521.236 189.913 521.236 190.32ZM521.237 193.269C521.237 193.676 520.907 194.006 520.499 194.006C520.092 194.006 519.762 193.676 519.762 193.269C519.762 192.862 520.092 192.532 520.499 192.532C520.907 192.532 521.237 192.862 521.237 193.269ZM520.499 196.954C520.907 196.954 521.237 196.624 521.237 196.217C521.237 195.81 520.907 195.48 520.499 195.48C520.092 195.48 519.762 195.81 519.762 196.217C519.762 196.624 520.092 196.954 520.499 196.954Z" fill="#0F2454"/>
<rect x="56.1323" y="208.011" width="471.737" height="0.368545" fill="#EEEEEE"/>
<path d="M260.367 226.23H260.871V225.496C261.932 225.434 262.773 224.859 262.773 223.886C262.773 222.78 261.649 222.541 260.791 222.347C259.863 222.152 259.297 221.984 259.297 221.462C259.297 220.994 259.774 220.728 260.491 220.728C261.128 220.728 261.614 220.985 262.145 221.462L262.693 220.887C262.162 220.357 261.534 220.074 260.889 220.003V219.278H260.385V219.985C259.332 220.029 258.483 220.657 258.483 221.551C258.483 222.603 259.553 222.878 260.411 223.081C261.322 223.302 261.897 223.391 261.897 223.965C261.897 224.452 261.428 224.726 260.738 224.735C260.022 224.753 259.42 224.461 258.854 223.921L258.315 224.505C258.845 225.053 259.518 225.416 260.367 225.487V226.23ZM266.137 225.717H266.986V224.346H267.932V223.594H266.986V221.878L266.137 222.418V223.594H263.961L266.959 219.844H265.88L263.2 223.452V224.346H266.137V225.717ZM270.746 225.823C272.286 225.823 273.152 224.726 273.152 222.78C273.152 220.843 272.286 219.738 270.764 219.738C269.225 219.738 268.358 220.834 268.358 222.78C268.349 224.762 269.207 225.823 270.746 225.823ZM270.764 225.036C269.782 225.036 269.278 224.302 269.278 222.86V222.701C269.278 221.259 269.774 220.525 270.746 220.525C271.728 220.525 272.224 221.268 272.224 222.701V222.86C272.224 224.302 271.737 225.036 270.764 225.036ZM273.801 227.105C274.641 226.929 274.977 226.336 274.977 225.566V224.611H273.863V225.646H274.394C274.394 226.239 274.225 226.61 273.677 226.761L273.801 227.105ZM278.08 225.823C279.619 225.823 280.486 224.726 280.486 222.78C280.486 220.843 279.619 219.738 278.098 219.738C276.559 219.738 275.692 220.834 275.692 222.78C275.683 224.762 276.541 225.823 278.08 225.823ZM278.098 225.036C277.116 225.036 276.612 224.302 276.612 222.86V222.701C276.612 221.259 277.107 220.525 278.08 220.525C279.062 220.525 279.557 221.268 279.557 222.701V222.86C279.557 224.302 279.071 225.036 278.098 225.036ZM283.487 225.823C285.026 225.823 285.893 224.726 285.893 222.78C285.893 220.843 285.026 219.738 283.505 219.738C281.966 219.738 281.099 220.834 281.099 222.78C281.09 224.762 281.948 225.823 283.487 225.823ZM283.505 225.036C282.523 225.036 282.019 224.302 282.019 222.86V222.701C282.019 221.259 282.514 220.525 283.487 220.525C284.469 220.525 284.964 221.268 284.964 222.701V222.86C284.964 224.302 284.478 225.036 283.505 225.036ZM288.894 225.823C290.433 225.823 291.3 224.726 291.3 222.78C291.3 220.843 290.433 219.738 288.912 219.738C287.373 219.738 286.506 220.834 286.506 222.78C286.497 224.762 287.355 225.823 288.894 225.823ZM288.912 225.036C287.93 225.036 287.426 224.302 287.426 222.86V222.701C287.426 221.259 287.921 220.525 288.894 220.525C289.876 220.525 290.372 221.268 290.372 222.701V222.86C290.372 224.302 289.885 225.036 288.912 225.036ZM292.02 225.717H293.09V224.611H292.02V225.717ZM296.193 225.823C297.732 225.823 298.599 224.726 298.599 222.78C298.599 220.843 297.732 219.738 296.211 219.738C294.672 219.738 293.805 220.834 293.805 222.78C293.796 224.762 294.654 225.823 296.193 225.823ZM296.211 225.036C295.229 225.036 294.725 224.302 294.725 222.86V222.701C294.725 221.259 295.22 220.525 296.193 220.525C297.175 220.525 297.67 221.268 297.67 222.701V222.86C297.67 224.302 297.184 225.036 296.211 225.036ZM301.601 225.823C303.14 225.823 304.006 224.726 304.006 222.78C304.006 220.843 303.14 219.738 301.618 219.738C300.079 219.738 299.212 220.834 299.212 222.78C299.204 224.762 300.062 225.823 301.601 225.823ZM301.618 225.036C300.636 225.036 300.132 224.302 300.132 222.86V222.701C300.132 221.259 300.628 220.525 301.601 220.525C302.582 220.525 303.078 221.268 303.078 222.701V222.86C303.078 224.302 302.591 225.036 301.618 225.036Z" fill="#0F2454"/>
<path d="M376.876 225.832C378.238 225.832 379.105 225.036 379.105 223.727C379.105 222.48 378.247 221.701 376.973 221.701C376.425 221.701 375.965 221.887 375.646 222.223L375.885 220.631H378.769V219.844H375.257L374.806 222.771L375.567 223.231C375.814 222.816 376.195 222.462 376.911 222.462C377.698 222.462 378.194 222.922 378.194 223.718V223.736C378.194 224.585 377.707 225.045 376.867 225.045C376.053 225.045 375.646 224.673 375.593 224.027H374.718C374.718 225.098 375.602 225.832 376.876 225.832ZM382.03 225.823C383.569 225.823 384.435 224.726 384.435 222.78C384.435 220.843 383.569 219.738 382.047 219.738C380.508 219.738 379.641 220.834 379.641 222.78C379.633 224.762 380.491 225.823 382.03 225.823ZM382.047 225.036C381.065 225.036 380.561 224.302 380.561 222.86V222.701C380.561 221.259 381.057 220.525 382.03 220.525C383.011 220.525 383.507 221.268 383.507 222.701V222.86C383.507 224.302 383.02 225.036 382.047 225.036ZM386.243 222.471C387.056 222.471 387.614 221.905 387.614 221.1C387.614 220.286 387.074 219.729 386.278 219.729C385.438 219.729 384.889 220.286 384.889 221.1C384.889 221.922 385.429 222.471 386.243 222.471ZM385.172 225.717H385.898L390.196 219.844H389.471L385.172 225.717ZM386.243 221.94C385.765 221.94 385.482 221.613 385.482 221.109V221.082C385.482 220.596 385.792 220.268 386.26 220.268C386.729 220.268 387.012 220.587 387.012 221.082V221.109C387.012 221.622 386.72 221.94 386.243 221.94ZM389.135 225.832C389.949 225.832 390.506 225.275 390.506 224.461C390.506 223.647 389.966 223.09 389.17 223.09C388.33 223.09 387.782 223.647 387.782 224.461C387.782 225.283 388.321 225.832 389.135 225.832ZM389.135 225.301C388.666 225.301 388.383 224.983 388.383 224.47V224.443C388.383 223.957 388.684 223.638 389.153 223.638C389.622 223.638 389.905 223.948 389.905 224.443V224.47C389.905 224.983 389.622 225.301 389.135 225.301Z" fill="#0F2454"/>
<path fill-rule="evenodd" clip-rule="evenodd" d="M521.236 220.172C521.236 220.579 520.906 220.909 520.499 220.909C520.092 220.909 519.762 220.579 519.762 220.172C519.762 219.765 520.092 219.435 520.499 219.435C520.906 219.435 521.236 219.765 521.236 220.172ZM521.237 223.121C521.237 223.528 520.907 223.858 520.499 223.858C520.092 223.858 519.762 223.528 519.762 223.121C519.762 222.714 520.092 222.384 520.499 222.384C520.907 222.384 521.237 222.714 521.237 223.121ZM520.499 226.806C520.907 226.806 521.237 226.476 521.237 226.069C521.237 225.662 520.907 225.332 520.499 225.332C520.092 225.332 519.762 225.662 519.762 226.069C519.762 226.476 520.092 226.806 520.499 226.806Z" fill="#0F2454"/>
<rect x="56.1323" y="237.863" width="471.737" height="0.368545" fill="#EEEEEE"/>
<path d="M267.742 256.082H268.246V255.348C269.308 255.286 270.148 254.711 270.148 253.738C270.148 252.633 269.025 252.394 268.167 252.199C267.238 252.005 266.672 251.836 266.672 251.315C266.672 250.846 267.15 250.58 267.866 250.58C268.503 250.58 268.989 250.837 269.52 251.315L270.068 250.74C269.538 250.209 268.91 249.926 268.264 249.855V249.13H267.76V249.837C266.707 249.882 265.858 250.51 265.858 251.403C265.858 252.456 266.928 252.73 267.786 252.933C268.697 253.154 269.272 253.243 269.272 253.818C269.272 254.304 268.804 254.578 268.114 254.587C267.397 254.605 266.796 254.313 266.23 253.774L265.69 254.357C266.221 254.906 266.893 255.268 267.742 255.339V256.082ZM272.406 255.569H273.273V249.687H272.424C272.203 250.704 271.513 251.27 270.637 251.598V252.438C271.398 252.208 271.973 251.766 272.406 251.2V255.569ZM274.447 256.958C275.288 256.781 275.624 256.188 275.624 255.419V254.463H274.509V255.498H275.04C275.04 256.091 274.872 256.462 274.324 256.613L274.447 256.958ZM278.726 255.675C280.265 255.675 281.132 254.578 281.132 252.633C281.132 250.695 280.265 249.59 278.744 249.59C277.205 249.59 276.338 250.687 276.338 252.633C276.329 254.614 277.187 255.675 278.726 255.675ZM278.744 254.888C277.762 254.888 277.258 254.154 277.258 252.712V252.553C277.258 251.111 277.753 250.377 278.726 250.377C279.708 250.377 280.204 251.12 280.204 252.553V252.712C280.204 254.154 279.717 254.888 278.744 254.888ZM284.134 255.675C285.673 255.675 286.54 254.578 286.54 252.633C286.54 250.695 285.673 249.59 284.151 249.59C282.612 249.59 281.745 250.687 281.745 252.633C281.737 254.614 282.595 255.675 284.134 255.675ZM284.151 254.888C283.17 254.888 282.665 254.154 282.665 252.712V252.553C282.665 251.111 283.161 250.377 284.134 250.377C285.115 250.377 285.611 251.12 285.611 252.553V252.712C285.611 254.154 285.124 254.888 284.151 254.888ZM289.541 255.675C291.08 255.675 291.947 254.578 291.947 252.633C291.947 250.695 291.08 249.59 289.559 249.59C288.02 249.59 287.153 250.687 287.153 252.633C287.144 254.614 288.002 255.675 289.541 255.675ZM289.559 254.888C288.577 254.888 288.073 254.154 288.073 252.712V252.553C288.073 251.111 288.568 250.377 289.541 250.377C290.523 250.377 291.018 251.12 291.018 252.553V252.712C291.018 254.154 290.532 254.888 289.559 254.888ZM292.666 255.569H293.736V254.463H292.666V255.569ZM296.84 255.675C298.379 255.675 299.246 254.578 299.246 252.633C299.246 250.695 298.379 249.59 296.857 249.59C295.318 249.59 294.452 250.687 294.452 252.633C294.443 254.614 295.301 255.675 296.84 255.675ZM296.857 254.888C295.876 254.888 295.372 254.154 295.372 252.712V252.553C295.372 251.111 295.867 250.377 296.84 250.377C297.822 250.377 298.317 251.12 298.317 252.553V252.712C298.317 254.154 297.83 254.888 296.857 254.888ZM302.247 255.675C303.786 255.675 304.653 254.578 304.653 252.633C304.653 250.695 303.786 249.59 302.265 249.59C300.726 249.59 299.859 250.687 299.859 252.633C299.85 254.614 300.708 255.675 302.247 255.675ZM302.265 254.888C301.283 254.888 300.779 254.154 300.779 252.712V252.553C300.779 251.111 301.274 250.377 302.247 250.377C303.229 250.377 303.724 251.12 303.724 252.553V252.712C303.724 254.154 303.238 254.888 302.265 254.888Z" fill="#0F2454"/>
<path d="M376.008 255.569H376.946L379.679 250.554V249.696H375.584V250.483H378.848L376.008 255.569ZM382.346 255.684C383.708 255.684 384.575 254.888 384.575 253.579C384.575 252.332 383.717 251.553 382.444 251.553C381.895 251.553 381.435 251.739 381.117 252.075L381.356 250.483H384.239V249.696H380.728L380.277 252.624L381.037 253.084C381.285 252.668 381.665 252.314 382.382 252.314C383.169 252.314 383.664 252.774 383.664 253.57V253.588C383.664 254.437 383.178 254.897 382.337 254.897C381.524 254.897 381.117 254.525 381.064 253.88H380.188C380.188 254.95 381.073 255.684 382.346 255.684ZM386.349 252.323C387.163 252.323 387.72 251.757 387.72 250.952C387.72 250.138 387.181 249.581 386.385 249.581C385.544 249.581 384.996 250.138 384.996 250.952C384.996 251.775 385.535 252.323 386.349 252.323ZM385.279 255.569H386.004L390.303 249.696H389.578L385.279 255.569ZM386.349 251.792C385.872 251.792 385.588 251.465 385.588 250.961V250.934C385.588 250.448 385.898 250.121 386.367 250.121C386.836 250.121 387.119 250.439 387.119 250.934V250.961C387.119 251.474 386.827 251.792 386.349 251.792ZM389.241 255.684C390.055 255.684 390.612 255.127 390.612 254.313C390.612 253.499 390.073 252.942 389.277 252.942C388.437 252.942 387.888 253.499 387.888 254.313C387.888 255.136 388.428 255.684 389.241 255.684ZM389.241 255.153C388.773 255.153 388.49 254.835 388.49 254.322V254.295C388.49 253.809 388.79 253.491 389.259 253.491C389.728 253.491 390.011 253.8 390.011 254.295V254.322C390.011 254.835 389.728 255.153 389.241 255.153Z" fill="#0F2454"/>
<path fill-rule="evenodd" clip-rule="evenodd" d="M521.236 250.025C521.236 250.432 520.906 250.762 520.499 250.762C520.092 250.762 519.762 250.432 519.762 250.025C519.762 249.618 520.092 249.288 520.499 249.288C520.906 249.288 521.236 249.618 521.236 250.025ZM521.237 252.973C521.237 253.38 520.907 253.71 520.499 253.71C520.092 253.71 519.762 253.38 519.762 252.973C519.762 252.566 520.092 252.236 520.499 252.236C520.907 252.236 521.237 252.566 521.237 252.973ZM520.499 256.659C520.907 256.659 521.237 256.329 521.237 255.921C521.237 255.514 520.907 255.184 520.499 255.184C520.092 255.184 519.762 255.514 519.762 255.921C519.762 256.329 520.092 256.659 520.499 256.659Z" fill="#0F2454"/>
<rect x="56.1323" y="267.715" width="471.737" height="0.368545" fill="#EEEEEE"/>
<path d="M266.441 285.934H266.945V285.2C268.006 285.138 268.846 284.563 268.846 283.59C268.846 282.484 267.723 282.246 266.865 282.051C265.936 281.856 265.37 281.688 265.37 281.166C265.37 280.698 265.848 280.432 266.564 280.432C267.201 280.432 267.688 280.689 268.218 281.166L268.767 280.591C268.236 280.061 267.608 279.778 266.962 279.707V278.982H266.458V279.689C265.406 279.734 264.557 280.362 264.557 281.255C264.557 282.307 265.627 282.582 266.485 282.785C267.396 283.006 267.971 283.095 267.971 283.67C267.971 284.156 267.502 284.43 266.812 284.439C266.096 284.457 265.494 284.165 264.928 283.625L264.389 284.209C264.919 284.758 265.591 285.12 266.441 285.191V285.934ZM271.485 285.536C272.847 285.536 273.714 284.74 273.714 283.431C273.714 282.184 272.856 281.405 271.582 281.405C271.034 281.405 270.574 281.591 270.256 281.927L270.494 280.335H273.378V279.548H269.866L269.415 282.475L270.176 282.935C270.424 282.52 270.804 282.166 271.521 282.166C272.308 282.166 272.803 282.626 272.803 283.422V283.44C272.803 284.289 272.317 284.749 271.476 284.749C270.663 284.749 270.256 284.377 270.203 283.731H269.327C269.327 284.802 270.211 285.536 271.485 285.536ZM274.329 286.81C275.17 286.633 275.506 286.04 275.506 285.271V284.315H274.391V285.35H274.922C274.922 285.943 274.754 286.314 274.205 286.465L274.329 286.81ZM278.608 285.527C280.147 285.527 281.014 284.43 281.014 282.484C281.014 280.547 280.147 279.442 278.626 279.442C277.087 279.442 276.22 280.538 276.22 282.484C276.211 284.466 277.069 285.527 278.608 285.527ZM278.626 284.74C277.644 284.74 277.14 284.006 277.14 282.564V282.405C277.14 280.963 277.635 280.229 278.608 280.229C279.59 280.229 280.085 280.972 280.085 282.405V282.564C280.085 284.006 279.599 284.74 278.626 284.74ZM284.015 285.527C285.555 285.527 286.421 284.43 286.421 282.484C286.421 280.547 285.555 279.442 284.033 279.442C282.494 279.442 281.627 280.538 281.627 282.484C281.618 284.466 282.476 285.527 284.015 285.527ZM284.033 284.74C283.051 284.74 282.547 284.006 282.547 282.564V282.405C282.547 280.963 283.043 280.229 284.015 280.229C284.997 280.229 285.493 280.972 285.493 282.405V282.564C285.493 284.006 285.006 284.74 284.033 284.74ZM289.423 285.527C290.962 285.527 291.829 284.43 291.829 282.484C291.829 280.547 290.962 279.442 289.44 279.442C287.901 279.442 287.035 280.538 287.035 282.484C287.026 284.466 287.884 285.527 289.423 285.527ZM289.44 284.74C288.459 284.74 287.954 284.006 287.954 282.564V282.405C287.954 280.963 288.45 280.229 289.423 280.229C290.405 280.229 290.9 280.972 290.9 282.405V282.564C290.9 284.006 290.413 284.74 289.44 284.74ZM292.548 285.421H293.618V284.315H292.548V285.421ZM296.722 285.527C298.261 285.527 299.128 284.43 299.128 282.484C299.128 280.547 298.261 279.442 296.739 279.442C295.2 279.442 294.333 280.538 294.333 282.484C294.325 284.466 295.183 285.527 296.722 285.527ZM296.739 284.74C295.758 284.74 295.253 284.006 295.253 282.564V282.405C295.253 280.963 295.749 280.229 296.722 280.229C297.703 280.229 298.199 280.972 298.199 282.405V282.564C298.199 284.006 297.712 284.74 296.739 284.74ZM302.129 285.527C303.668 285.527 304.535 284.43 304.535 282.484C304.535 280.547 303.668 279.442 302.147 279.442C300.608 279.442 299.741 280.538 299.741 282.484C299.732 284.466 300.59 285.527 302.129 285.527ZM302.147 284.74C301.165 284.74 300.661 284.006 300.661 282.564V282.405C300.661 280.963 301.156 280.229 302.129 280.229C303.111 280.229 303.606 280.972 303.606 282.405V282.564C303.606 284.006 303.12 284.74 302.147 284.74Z" fill="#0F2454"/>
<path d="M376.876 285.536C378.238 285.536 379.105 284.74 379.105 283.431C379.105 282.184 378.247 281.405 376.973 281.405C376.425 281.405 375.965 281.591 375.646 281.927L375.885 280.335H378.769V279.548H375.257L374.806 282.475L375.567 282.935C375.814 282.52 376.195 282.166 376.911 282.166C377.698 282.166 378.194 282.626 378.194 283.422V283.44C378.194 284.289 377.707 284.749 376.867 284.749C376.053 284.749 375.646 284.377 375.593 283.731H374.718C374.718 284.802 375.602 285.536 376.876 285.536ZM382.03 285.527C383.569 285.527 384.435 284.43 384.435 282.484C384.435 280.547 383.569 279.442 382.047 279.442C380.508 279.442 379.641 280.538 379.641 282.484C379.633 284.466 380.491 285.527 382.03 285.527ZM382.047 284.74C381.065 284.74 380.561 284.006 380.561 282.564V282.405C380.561 280.963 381.057 280.229 382.03 280.229C383.011 280.229 383.507 280.972 383.507 282.405V282.564C383.507 284.006 383.02 284.74 382.047 284.74ZM386.243 282.175C387.056 282.175 387.614 281.609 387.614 280.804C387.614 279.99 387.074 279.433 386.278 279.433C385.438 279.433 384.889 279.99 384.889 280.804C384.889 281.626 385.429 282.175 386.243 282.175ZM385.172 285.421H385.898L390.196 279.548H389.471L385.172 285.421ZM386.243 281.644C385.765 281.644 385.482 281.317 385.482 280.813V280.786C385.482 280.3 385.792 279.972 386.26 279.972C386.729 279.972 387.012 280.291 387.012 280.786V280.813C387.012 281.326 386.72 281.644 386.243 281.644ZM389.135 285.536C389.949 285.536 390.506 284.979 390.506 284.165C390.506 283.351 389.966 282.794 389.17 282.794C388.33 282.794 387.782 283.351 387.782 284.165C387.782 284.987 388.321 285.536 389.135 285.536ZM389.135 285.005C388.666 285.005 388.383 284.687 388.383 284.174V284.147C388.383 283.661 388.684 283.342 389.153 283.342C389.622 283.342 389.905 283.652 389.905 284.147V284.174C389.905 284.687 389.622 285.005 389.135 285.005Z" fill="#0F2454"/>
<path fill-rule="evenodd" clip-rule="evenodd" d="M521.236 279.876C521.236 280.284 520.906 280.614 520.499 280.614C520.092 280.614 519.762 280.284 519.762 279.876C519.762 279.469 520.092 279.139 520.499 279.139C520.906 279.139 521.236 279.469 521.236 279.876ZM521.237 282.825C521.237 283.232 520.907 283.562 520.499 283.562C520.092 283.562 519.762 283.232 519.762 282.825C519.762 282.418 520.092 282.088 520.499 282.088C520.907 282.088 521.237 282.418 521.237 282.825ZM520.499 286.51C520.907 286.51 521.237 286.18 521.237 285.773C521.237 285.366 520.907 285.036 520.499 285.036C520.092 285.036 519.762 285.366 519.762 285.773C519.762 286.18 520.092 286.51 520.499 286.51Z" fill="#0F2454"/>
<rect x="56.1323" y="297.567" width="471.737" height="0.368545" fill="#EEEEEE"/>
<path d="M261.987 315.786H262.491V315.052C263.552 314.99 264.393 314.415 264.393 313.443C264.393 312.337 263.269 312.098 262.411 311.903C261.483 311.709 260.917 311.541 260.917 311.019C260.917 310.55 261.394 310.285 262.111 310.285C262.748 310.285 263.234 310.541 263.765 311.019L264.313 310.444C263.782 309.913 263.154 309.63 262.509 309.56V308.834H262.005V309.542C260.952 309.586 260.103 310.214 260.103 311.107C260.103 312.16 261.173 312.434 262.031 312.638C262.942 312.859 263.517 312.947 263.517 313.522C263.517 314.009 263.048 314.283 262.358 314.292C261.642 314.309 261.04 314.017 260.474 313.478L259.935 314.062C260.466 314.61 261.138 314.973 261.987 315.043V315.786ZM264.864 315.273H269.03V314.46H265.846C266.156 312.894 269.048 312.956 269.048 311.063C269.048 309.975 268.243 309.294 267.067 309.294C266.005 309.294 265.289 309.807 264.855 310.86L265.66 311.196C265.97 310.426 266.377 310.117 267.058 310.117C267.783 310.117 268.128 310.515 268.128 311.081C268.128 312.443 264.864 312.337 264.864 315.043V315.273ZM271.678 315.388C273.041 315.388 273.907 314.592 273.907 313.283C273.907 312.036 273.049 311.258 271.776 311.258C271.227 311.258 270.767 311.444 270.449 311.78L270.688 310.188H273.571V309.4H270.06L269.609 312.328L270.369 312.788C270.617 312.372 270.997 312.018 271.714 312.018C272.501 312.018 272.996 312.478 272.996 313.274V313.292C272.996 314.141 272.51 314.601 271.67 314.601C270.856 314.601 270.449 314.23 270.396 313.584H269.52C269.52 314.654 270.405 315.388 271.678 315.388ZM274.523 316.662C275.363 316.485 275.699 315.893 275.699 315.123V314.168H274.585V315.203H275.115C275.115 315.795 274.947 316.167 274.399 316.317L274.523 316.662ZM278.802 315.38C280.341 315.38 281.207 314.283 281.207 312.337C281.207 310.4 280.341 309.294 278.819 309.294C277.28 309.294 276.413 310.391 276.413 312.337C276.405 314.318 277.263 315.38 278.802 315.38ZM278.819 314.592C277.838 314.592 277.333 313.858 277.333 312.416V312.257C277.333 310.816 277.829 310.081 278.802 310.081C279.783 310.081 280.279 310.824 280.279 312.257V312.416C280.279 313.858 279.792 314.592 278.819 314.592ZM284.209 315.38C285.748 315.38 286.615 314.283 286.615 312.337C286.615 310.4 285.748 309.294 284.227 309.294C282.688 309.294 281.821 310.391 281.821 312.337C281.812 314.318 282.67 315.38 284.209 315.38ZM284.227 314.592C283.245 314.592 282.741 313.858 282.741 312.416V312.257C282.741 310.816 283.236 310.081 284.209 310.081C285.191 310.081 285.686 310.824 285.686 312.257V312.416C285.686 313.858 285.2 314.592 284.227 314.592ZM289.616 315.38C291.155 315.38 292.022 314.283 292.022 312.337C292.022 310.4 291.155 309.294 289.634 309.294C288.095 309.294 287.228 310.391 287.228 312.337C287.219 314.318 288.077 315.38 289.616 315.38ZM289.634 314.592C288.652 314.592 288.148 313.858 288.148 312.416V312.257C288.148 310.816 288.643 310.081 289.616 310.081C290.598 310.081 291.093 310.824 291.093 312.257V312.416C291.093 313.858 290.607 314.592 289.634 314.592ZM292.741 315.273H293.812V314.168H292.741V315.273ZM296.915 315.38C298.454 315.38 299.321 314.283 299.321 312.337C299.321 310.4 298.454 309.294 296.933 309.294C295.394 309.294 294.527 310.391 294.527 312.337C294.518 314.318 295.376 315.38 296.915 315.38ZM296.933 314.592C295.951 314.592 295.447 313.858 295.447 312.416V312.257C295.447 310.816 295.942 310.081 296.915 310.081C297.897 310.081 298.392 310.824 298.392 312.257V312.416C298.392 313.858 297.906 314.592 296.933 314.592ZM302.322 315.38C303.861 315.38 304.728 314.283 304.728 312.337C304.728 310.4 303.861 309.294 302.34 309.294C300.801 309.294 299.934 310.391 299.934 312.337C299.925 314.318 300.783 315.38 302.322 315.38ZM302.34 314.592C301.358 314.592 300.854 313.858 300.854 312.416V312.257C300.854 310.816 301.349 310.081 302.322 310.081C303.304 310.081 303.799 310.824 303.799 312.257V312.416C303.799 313.858 303.313 314.592 302.34 314.592Z" fill="#0F2454"/>
<path d="M376.008 315.273H376.946L379.679 310.258V309.4H375.584V310.188H378.848L376.008 315.273ZM382.346 315.388C383.708 315.388 384.575 314.592 384.575 313.283C384.575 312.036 383.717 311.258 382.444 311.258C381.895 311.258 381.435 311.444 381.117 311.78L381.356 310.188H384.239V309.4H380.728L380.277 312.328L381.037 312.788C381.285 312.372 381.665 312.018 382.382 312.018C383.169 312.018 383.664 312.478 383.664 313.274V313.292C383.664 314.141 383.178 314.601 382.337 314.601C381.524 314.601 381.117 314.23 381.064 313.584H380.188C380.188 314.654 381.073 315.388 382.346 315.388ZM386.349 312.027C387.163 312.027 387.72 311.461 387.72 310.656C387.72 309.843 387.181 309.285 386.385 309.285C385.544 309.285 384.996 309.843 384.996 310.656C384.996 311.479 385.535 312.027 386.349 312.027ZM385.279 315.273H386.004L390.303 309.4H389.578L385.279 315.273ZM386.349 311.497C385.872 311.497 385.588 311.169 385.588 310.665V310.639C385.588 310.152 385.898 309.825 386.367 309.825C386.836 309.825 387.119 310.143 387.119 310.639V310.665C387.119 311.178 386.827 311.497 386.349 311.497ZM389.241 315.388C390.055 315.388 390.612 314.831 390.612 314.017C390.612 313.204 390.073 312.646 389.277 312.646C388.437 312.646 387.888 313.204 387.888 314.017C387.888 314.84 388.428 315.388 389.241 315.388ZM389.241 314.858C388.773 314.858 388.49 314.539 388.49 314.026V314C388.49 313.513 388.79 313.195 389.259 313.195C389.728 313.195 390.011 313.504 390.011 314V314.026C390.011 314.539 389.728 314.858 389.241 314.858Z" fill="#0F2454"/>
<path fill-rule="evenodd" clip-rule="evenodd" d="M521.236 309.729C521.236 310.136 520.906 310.466 520.499 310.466C520.092 310.466 519.762 310.136 519.762 309.729C519.762 309.322 520.092 308.992 520.499 308.992C520.906 308.992 521.236 309.322 521.236 309.729ZM521.237 312.677C521.237 313.084 520.907 313.414 520.499 313.414C520.092 313.414 519.762 313.084 519.762 312.677C519.762 312.27 520.092 311.94 520.499 311.94C520.907 311.94 521.237 312.27 521.237 312.677ZM520.499 316.363C520.907 316.363 521.237 316.033 521.237 315.626C521.237 315.219 520.907 314.889 520.499 314.889C520.092 314.889 519.762 315.219 519.762 315.626C519.762 316.033 520.092 316.363 520.499 316.363Z" fill="#0F2454"/>
<rect x="56.1323" y="327.419" width="471.737" height="0.368545" fill="#EEEEEE"/>
<rect x="437.944" y="153.436" width="51.0067" height="15.2649" rx="7.63246" fill="#E4FBE3"/>
<path d="M443.709 163.542H448.059V162.732H444.61V160.803H446.821V159.993H444.61V158.31H447.922V157.5H443.709V163.542ZM448.774 163.542H449.665V161.485C449.665 160.503 450.048 159.948 450.712 159.948C451.294 159.948 451.576 160.302 451.576 160.976V163.542H452.477V160.93C452.477 159.784 451.913 159.156 450.985 159.156C450.33 159.156 449.893 159.484 449.665 160.057V159.247H448.774V163.542ZM453.35 163.542H454.242V161.34C454.242 160.466 454.451 160.084 455.215 160.084H455.625V159.211H455.488C454.706 159.211 454.369 159.538 454.242 160.039V159.247H453.35V163.542ZM457.855 163.615C459.12 163.615 460.021 162.696 460.021 161.403C460.021 160.093 459.138 159.174 457.873 159.174C456.609 159.174 455.717 160.093 455.717 161.403C455.717 162.714 456.59 163.615 457.855 163.615ZM457.855 162.859C457.091 162.859 456.618 162.313 456.618 161.431V161.394C456.618 160.494 457.109 159.929 457.873 159.929C458.638 159.929 459.12 160.494 459.12 161.394V161.431C459.12 162.304 458.629 162.859 457.855 162.859ZM460.725 163.542H461.626V157.409H460.725V163.542ZM462.574 163.542H463.474V157.409H462.574V163.542ZM466.314 163.615C467.415 163.615 468.025 163.087 468.316 162.423L467.525 162.113C467.361 162.532 467.042 162.887 466.314 162.887C465.587 162.887 465.123 162.441 465.068 161.704H468.298V161.376C468.298 160.02 467.543 159.174 466.278 159.174C465.059 159.174 464.176 160.093 464.176 161.422C464.176 162.741 464.995 163.615 466.314 163.615ZM465.05 161.03C465.141 160.33 465.614 159.902 466.26 159.902C466.933 159.902 467.343 160.293 467.379 161.03H465.05ZM470.699 163.633C471.3 163.633 471.791 163.369 472.091 162.914V163.542H472.965V157.409H472.091V159.893C471.782 159.438 471.3 159.156 470.708 159.156C469.589 159.156 468.77 160.048 468.77 161.413C468.77 162.805 469.598 163.633 470.699 163.633ZM470.927 162.868C470.19 162.868 469.707 162.368 469.707 161.449V161.385C469.707 160.457 470.199 159.92 470.927 159.92C471.682 159.92 472.137 160.494 472.137 161.34V161.413C472.137 162.268 471.664 162.868 470.927 162.868Z" fill="#16C270"/>
<path d="M476.841 160.28L478.816 162.254L483.159 157.516" stroke="#16C270" stroke-width="0.789739" stroke-miterlimit="10"/>
<rect x="437.944" y="183.419" width="43.5298" height="15.2649" rx="7.63246" fill="#FFCBCB"/>
<path d="M443.709 193.525H445.711C447.731 193.525 448.832 192.479 448.832 190.523C448.832 188.53 447.768 187.484 445.802 187.484H443.709V193.525ZM444.619 192.725V188.284H445.802C447.213 188.284 447.877 188.976 447.877 190.486V190.541C447.877 192.006 447.167 192.725 445.739 192.725H444.619ZM451.439 193.598C452.54 193.598 453.15 193.07 453.441 192.406L452.65 192.097C452.486 192.515 452.167 192.87 451.439 192.87C450.712 192.87 450.247 192.424 450.193 191.687H453.423V191.36C453.423 190.004 452.668 189.158 451.403 189.158C450.184 189.158 449.301 190.077 449.301 191.405C449.301 192.725 450.12 193.598 451.439 193.598ZM450.175 191.014C450.266 190.313 450.739 189.886 451.385 189.886C452.058 189.886 452.468 190.277 452.504 191.014H450.175ZM456.015 193.598C457.061 193.598 457.707 193.043 457.989 192.17L457.134 191.906C456.988 192.488 456.688 192.843 455.997 192.843C455.251 192.843 454.814 192.242 454.814 191.396V191.36C454.814 190.504 455.278 189.913 456.024 189.913C456.643 189.913 456.952 190.259 457.098 190.805L457.953 190.541C457.689 189.704 457.052 189.158 456.042 189.158C454.786 189.158 453.913 190.086 453.913 191.369C453.913 192.679 454.732 193.598 456.015 193.598ZM458.593 193.525H459.494V187.393H458.593V193.525ZM460.414 188.539H461.378V187.593H460.414V188.539ZM460.441 193.525H461.342V189.231H460.441V193.525ZM462.298 193.525H463.19V191.469C463.19 190.486 463.572 189.931 464.236 189.931C464.819 189.931 465.101 190.286 465.101 190.959V193.525H466.001V190.914C466.001 189.767 465.437 189.14 464.509 189.14C463.854 189.14 463.417 189.467 463.19 190.04V189.231H462.298V193.525ZM468.767 193.598C469.868 193.598 470.478 193.07 470.769 192.406L469.977 192.097C469.813 192.515 469.495 192.87 468.767 192.87C468.039 192.87 467.575 192.424 467.52 191.687H470.751V191.36C470.751 190.004 469.995 189.158 468.731 189.158C467.511 189.158 466.629 190.077 466.629 191.405C466.629 192.725 467.448 193.598 468.767 193.598ZM467.502 191.014C467.593 190.313 468.066 189.886 468.712 189.886C469.386 189.886 469.795 190.277 469.832 191.014H467.502ZM473.152 193.616C473.752 193.616 474.244 193.353 474.544 192.898V193.525H475.417V187.393H474.544V189.877C474.235 189.422 473.752 189.14 473.161 189.14C472.042 189.14 471.223 190.031 471.223 191.396C471.223 192.788 472.051 193.616 473.152 193.616ZM473.379 192.852C472.642 192.852 472.16 192.352 472.16 191.433V191.369C472.16 190.441 472.651 189.904 473.379 189.904C474.134 189.904 474.589 190.477 474.589 191.323V191.396C474.589 192.252 474.116 192.852 473.379 192.852Z" fill="#D02424"/>
<rect x="437.944" y="213.272" width="39.5298" height="15.2649" rx="7.63246" fill="#F4F4F4"/>
<path d="M446.403 223.487C448.186 223.487 449.36 222.222 449.36 220.357C449.36 218.491 448.195 217.227 446.448 217.227C444.665 217.227 443.491 218.491 443.491 220.357C443.491 222.222 444.656 223.487 446.403 223.487ZM446.412 222.668C445.193 222.668 444.437 221.794 444.437 220.375V220.329C444.437 218.901 445.211 218.046 446.439 218.046C447.658 218.046 448.414 218.919 448.414 220.329V220.375C448.414 221.813 447.64 222.668 446.412 222.668ZM450.08 223.378H450.972V221.321C450.972 220.339 451.354 219.784 452.018 219.784C452.6 219.784 452.883 220.138 452.883 220.812V223.378H453.783V220.766C453.783 219.62 453.219 218.992 452.291 218.992C451.636 218.992 451.199 219.319 450.972 219.893V219.083H450.08V223.378ZM456.425 223.378H457.298V221.321C457.298 220.339 457.671 219.784 458.335 219.784C458.918 219.784 459.2 220.138 459.2 220.812V223.378H460.101V220.766C460.101 219.62 459.536 219.01 458.608 219.01C457.944 219.01 457.516 219.338 457.298 219.929V217.245H456.425V223.378ZM462.867 223.45C464.132 223.45 465.032 222.531 465.032 221.239C465.032 219.929 464.15 219.01 462.885 219.01C461.62 219.01 460.728 219.929 460.728 221.239C460.728 222.55 461.602 223.45 462.867 223.45ZM462.867 222.695C462.102 222.695 461.629 222.149 461.629 221.267V221.23C461.629 220.329 462.121 219.765 462.885 219.765C463.649 219.765 464.132 220.329 464.132 221.23V221.267C464.132 222.14 463.64 222.695 462.867 222.695ZM465.737 223.378H466.638V217.245H465.737V223.378ZM469.269 223.469C469.869 223.469 470.36 223.205 470.661 222.75V223.378H471.534V217.245H470.661V219.729C470.351 219.274 469.869 218.992 469.278 218.992C468.158 218.992 467.34 219.884 467.34 221.248C467.34 222.641 468.168 223.469 469.269 223.469ZM469.496 222.704C468.759 222.704 468.277 222.204 468.277 221.285V221.221C468.277 220.293 468.768 219.756 469.496 219.756C470.251 219.756 470.706 220.329 470.706 221.176V221.248C470.706 222.104 470.233 222.704 469.496 222.704Z" fill="#9C9C9C"/>
<rect x="437.944" y="242.992" width="51.0067" height="15.2649" rx="7.63246" fill="#E4FBE3"/>
<path d="M443.709 253.098H448.059V252.288H444.61V250.359H446.821V249.549H444.61V247.866H447.922V247.056H443.709V253.098ZM448.774 253.098H449.665V251.042C449.665 250.059 450.048 249.504 450.712 249.504C451.294 249.504 451.576 249.859 451.576 250.532V253.098H452.477V250.487C452.477 249.34 451.913 248.712 450.985 248.712C450.33 248.712 449.893 249.04 449.665 249.613V248.803H448.774V253.098ZM453.35 253.098H454.242V250.896C454.242 250.023 454.451 249.64 455.215 249.64H455.625V248.767H455.488C454.706 248.767 454.369 249.095 454.242 249.595V248.803H453.35V253.098ZM457.855 253.171C459.12 253.171 460.021 252.252 460.021 250.96C460.021 249.65 459.138 248.731 457.873 248.731C456.609 248.731 455.717 249.65 455.717 250.96C455.717 252.27 456.59 253.171 457.855 253.171ZM457.855 252.416C457.091 252.416 456.618 251.87 456.618 250.987V250.951C456.618 250.05 457.109 249.486 457.873 249.486C458.638 249.486 459.12 250.05 459.12 250.951V250.987C459.12 251.861 458.629 252.416 457.855 252.416ZM460.725 253.098H461.626V246.965H460.725V253.098ZM462.574 253.098H463.474V246.965H462.574V253.098ZM466.314 253.171C467.415 253.171 468.025 252.643 468.316 251.979L467.525 251.67C467.361 252.088 467.042 252.443 466.314 252.443C465.587 252.443 465.123 251.997 465.068 251.26H468.298V250.933C468.298 249.577 467.543 248.731 466.278 248.731C465.059 248.731 464.176 249.65 464.176 250.978C464.176 252.297 464.995 253.171 466.314 253.171ZM465.05 250.587C465.141 249.886 465.614 249.458 466.26 249.458C466.933 249.458 467.343 249.85 467.379 250.587H465.05ZM470.699 253.189C471.3 253.189 471.791 252.925 472.091 252.47V253.098H472.965V246.965H472.091V249.449C471.782 248.994 471.3 248.712 470.708 248.712C469.589 248.712 468.77 249.604 468.77 250.969C468.77 252.361 469.598 253.189 470.699 253.189ZM470.927 252.425C470.19 252.425 469.707 251.924 469.707 251.005V250.942C469.707 250.014 470.199 249.477 470.927 249.477C471.682 249.477 472.137 250.05 472.137 250.896V250.969C472.137 251.824 471.664 252.425 470.927 252.425Z" fill="#16C270"/>
<path d="M476.841 249.836L478.816 251.81L483.159 247.072" stroke="#16C270" stroke-width="0.789739" stroke-miterlimit="10"/>
<rect x="437.944" y="272.844" width="51.0067" height="15.2649" rx="7.63246" fill="#E4FBE3"/>
<path d="M443.709 282.95H448.059V282.14H444.61V280.211H446.821V279.402H444.61V277.718H447.922V276.908H443.709V282.95ZM448.774 282.95H449.665V280.894C449.665 279.911 450.048 279.356 450.712 279.356C451.294 279.356 451.576 279.711 451.576 280.384V282.95H452.477V280.339C452.477 279.192 451.913 278.564 450.985 278.564C450.33 278.564 449.893 278.892 449.665 279.465V278.655H448.774V282.95ZM453.35 282.95H454.242V280.748C454.242 279.875 454.451 279.493 455.215 279.493H455.625V278.619H455.488C454.706 278.619 454.369 278.947 454.242 279.447V278.655H453.35V282.95ZM457.855 283.023C459.12 283.023 460.021 282.104 460.021 280.812C460.021 279.502 459.138 278.583 457.873 278.583C456.609 278.583 455.717 279.502 455.717 280.812C455.717 282.122 456.59 283.023 457.855 283.023ZM457.855 282.268C457.091 282.268 456.618 281.722 456.618 280.839V280.803C456.618 279.902 457.109 279.338 457.873 279.338C458.638 279.338 459.12 279.902 459.12 280.803V280.839C459.12 281.713 458.629 282.268 457.855 282.268ZM460.725 282.95H461.626V276.817H460.725V282.95ZM462.574 282.95H463.474V276.817H462.574V282.95ZM466.314 283.023C467.415 283.023 468.025 282.495 468.316 281.831L467.525 281.522C467.361 281.94 467.042 282.295 466.314 282.295C465.587 282.295 465.123 281.849 465.068 281.112H468.298V280.785C468.298 279.429 467.543 278.583 466.278 278.583C465.059 278.583 464.176 279.502 464.176 280.83C464.176 282.149 464.995 283.023 466.314 283.023ZM465.05 280.439C465.141 279.738 465.614 279.311 466.26 279.311C466.933 279.311 467.343 279.702 467.379 280.439H465.05ZM470.699 283.041C471.3 283.041 471.791 282.777 472.091 282.322V282.95H472.965V276.817H472.091V279.301C471.782 278.846 471.3 278.564 470.708 278.564C469.589 278.564 468.77 279.456 468.77 280.821C468.77 282.213 469.598 283.041 470.699 283.041ZM470.927 282.277C470.19 282.277 469.707 281.776 469.707 280.857V280.794C469.707 279.866 470.199 279.329 470.927 279.329C471.682 279.329 472.137 279.902 472.137 280.748V280.821C472.137 281.676 471.664 282.277 470.927 282.277Z" fill="#16C270"/>
<path d="M476.841 279.688L478.816 281.663L483.159 276.924" stroke="#16C270" stroke-width="0.789739" stroke-miterlimit="10"/>
<rect x="437.944" y="302.828" width="39.5298" height="15.2649" rx="7.63246" fill="#F4F4F4"/>
<path d="M446.403 313.043C448.186 313.043 449.36 311.778 449.36 309.913C449.36 308.048 448.195 306.783 446.448 306.783C444.665 306.783 443.491 308.048 443.491 309.913C443.491 311.778 444.656 313.043 446.403 313.043ZM446.412 312.224C445.193 312.224 444.437 311.351 444.437 309.931V309.886C444.437 308.457 445.211 307.602 446.439 307.602C447.658 307.602 448.414 308.475 448.414 309.886V309.931C448.414 311.369 447.64 312.224 446.412 312.224ZM450.08 312.934H450.972V310.877C450.972 309.895 451.354 309.34 452.018 309.34C452.6 309.34 452.883 309.695 452.883 310.368V312.934H453.783V310.322C453.783 309.176 453.219 308.548 452.291 308.548C451.636 308.548 451.199 308.876 450.972 309.449V308.639H450.08V312.934ZM456.425 312.934H457.298V310.877C457.298 309.895 457.671 309.34 458.335 309.34C458.918 309.34 459.2 309.695 459.2 310.368V312.934H460.101V310.322C460.101 309.176 459.536 308.566 458.608 308.566C457.944 308.566 457.516 308.894 457.298 309.485V306.801H456.425V312.934ZM462.867 313.007C464.132 313.007 465.032 312.088 465.032 310.796C465.032 309.485 464.15 308.566 462.885 308.566C461.62 308.566 460.728 309.485 460.728 310.796C460.728 312.106 461.602 313.007 462.867 313.007ZM462.867 312.251C462.102 312.251 461.629 311.705 461.629 310.823V310.786C461.629 309.886 462.121 309.321 462.885 309.321C463.649 309.321 464.132 309.886 464.132 310.786V310.823C464.132 311.696 463.64 312.251 462.867 312.251ZM465.737 312.934H466.638V306.801H465.737V312.934ZM469.269 313.025C469.869 313.025 470.36 312.761 470.661 312.306V312.934H471.534V306.801H470.661V309.285C470.351 308.83 469.869 308.548 469.278 308.548C468.158 308.548 467.34 309.44 467.34 310.805C467.34 312.197 468.168 313.025 469.269 313.025ZM469.496 312.26C468.759 312.26 468.277 311.76 468.277 310.841V310.777C468.277 309.849 468.768 309.312 469.496 309.312C470.251 309.312 470.706 309.886 470.706 310.732V310.805C470.706 311.66 470.233 312.26 469.496 312.26Z" fill="#9C9C9C"/>
<rect x="56.1323" y="159.731" width="103.93" height="7.37089" rx="3.68545" fill="#F0F0F0"/>
<rect x="56.1323" y="98.9214" width="197.171" height="7.37089" rx="3.68545" fill="#F0F0F0"/>
<rect x="56.1323" y="189.583" width="123.831" height="7.37089" rx="3.68545" fill="#F0F0F0"/>
<rect x="56.1323" y="219.436" width="98.77" height="7.37089" rx="3.68545" fill="#F0F0F0"/>
<rect x="56.1323" y="249.288" width="110.195" height="7.37089" rx="3.68545" fill="#F0F0F0"/>
<rect x="56.1323" y="279.14" width="142.627" height="7.37089" rx="3.68545" fill="#F0F0F0"/>
<rect x="56.1323" y="308.992" width="91.7676" height="7.37089" rx="3.68545" fill="#F0F0F0"/>
<rect x="7.85205" y="37.3745" width="567.927" height="0.368545" fill="#E3E5EA" fill-opacity="0.676328"/>
<circle cx="497.65" cy="23.0014" r="4.42253" fill="#EEEEEE"/>
<circle cx="512.391" cy="23.0014" r="4.42253" fill="#EEEEEE"/>
<circle cx="527.133" cy="23.0014" r="4.42253" fill="#EEEEEE"/>
<circle cx="541.875" cy="23.0014" r="4.42253" fill="#EEEEEE"/>
<rect x="37.3354" y="17.8418" width="68.9178" height="10.3192" rx="5.15962" fill="#F0F0F0"/>
<path d="M171.013 26.0446C172.603 26.0446 173.648 24.9176 173.648 23.2554C173.648 21.5933 172.611 20.4663 171.054 20.4663C169.465 20.4663 168.419 21.5933 168.419 23.2554C168.419 24.9176 169.457 26.0446 171.013 26.0446ZM171.021 25.3148C169.935 25.3148 169.262 24.5365 169.262 23.2716V23.2311C169.262 21.9581 169.951 21.196 171.046 21.196C172.132 21.196 172.805 21.9744 172.805 23.2311V23.2716C172.805 24.5527 172.116 25.3148 171.021 25.3148ZM175.401 25.9554H176.139L177.566 22.1203H176.731L175.766 24.9986L174.752 22.1203H173.925L175.401 25.9554ZM179.484 26.0121C180.465 26.0121 181.008 25.5419 181.268 24.95L180.562 24.6743C180.417 25.0473 180.133 25.3635 179.484 25.3635C178.835 25.3635 178.422 24.9662 178.373 24.3095H181.252V24.0176C181.252 22.8095 180.579 22.0554 179.452 22.0554C178.365 22.0554 177.579 22.8743 177.579 24.0581C177.579 25.2338 178.308 26.0121 179.484 26.0121ZM178.357 23.7095C178.438 23.0851 178.86 22.7041 179.435 22.7041C180.035 22.7041 180.4 23.0527 180.433 23.7095H178.357ZM181.891 25.9473H182.686V23.9851C182.686 23.2068 182.872 22.8662 183.553 22.8662H183.918V22.0879H183.797C183.099 22.0879 182.799 22.3798 182.686 22.8257V22.1203H181.891V25.9473ZM185.686 25.9554H186.424L187.851 22.1203H187.016L186.051 24.9986L185.038 22.1203H184.211L185.686 25.9554ZM188.249 21.5041H189.108V20.6609H188.249V21.5041ZM188.273 25.9473H189.076V22.1203H188.273V25.9473ZM191.614 26.0121C192.595 26.0121 193.139 25.5419 193.398 24.95L192.693 24.6743C192.547 25.0473 192.263 25.3635 191.614 25.3635C190.966 25.3635 190.552 24.9662 190.504 24.3095H193.382V24.0176C193.382 22.8095 192.709 22.0554 191.582 22.0554C190.496 22.0554 189.709 22.8743 189.709 24.0581C189.709 25.2338 190.439 26.0121 191.614 26.0121ZM190.487 23.7095C190.569 23.0851 190.99 22.7041 191.566 22.7041C192.166 22.7041 192.531 23.0527 192.563 23.7095H190.487ZM194.731 25.9473H195.445L196.272 23.0933L197.107 25.9473H197.82L199.012 22.1203H198.193L197.464 24.804L196.661 22.1203H195.891L195.088 24.7959L194.35 22.1203H193.523L194.731 25.9473Z" fill="#1F325D"/>
<path d="M213.669 26.0446C214.918 26.0446 215.866 25.4121 216.077 23.977H215.218C215.055 24.9581 214.464 25.2905 213.685 25.2905C212.704 25.2905 212.047 24.5446 212.047 23.2878V23.223C212.047 21.9744 212.712 21.2203 213.701 21.2203C214.455 21.2203 215.023 21.5284 215.201 22.4689H216.069C215.834 21.0825 214.918 20.4663 213.71 20.4663C212.242 20.4663 211.212 21.569 211.212 23.2554C211.212 24.9338 212.234 26.0446 213.669 26.0446ZM217.969 26.0121C218.521 26.0121 218.894 25.7608 219.104 25.2905V25.9473H219.899V22.1203H219.104V23.9527C219.104 24.7797 218.812 25.323 218.18 25.323C217.661 25.323 217.402 24.9986 217.402 24.4067V22.1203H216.599V24.4473C216.599 25.4202 217.11 26.0121 217.969 26.0121ZM222.169 26.0527C223.037 26.0527 223.661 25.5338 223.661 24.8284C223.661 24.0743 222.939 23.823 222.242 23.6851C221.545 23.5473 221.285 23.4905 221.285 23.1743C221.285 22.8824 221.553 22.6879 221.966 22.6879C222.364 22.6879 222.712 22.8662 222.931 23.1987L223.62 22.8581C223.247 22.3635 222.688 22.0392 221.966 22.0392C221.155 22.0392 220.523 22.55 220.523 23.223C220.523 23.9608 221.147 24.204 221.845 24.35C222.445 24.4797 222.891 24.5527 222.891 24.8851C222.891 25.2013 222.631 25.3959 222.201 25.3959C221.796 25.3959 221.399 25.2257 221.164 24.8851L220.474 25.25C220.823 25.7365 221.431 26.0527 222.169 26.0527ZM225.393 25.9473H226.074V25.25H225.62C225.377 25.25 225.28 25.1365 225.28 24.8932V22.8014H226.107V22.1203H225.28V20.896L224.51 21.3744V22.1203H223.902V22.8014H224.51V24.9905C224.518 25.5986 224.696 25.9148 225.393 25.9473ZM228.24 26.0121C229.367 26.0121 230.17 25.1932 230.17 24.0419C230.17 22.8743 229.383 22.0554 228.256 22.0554C227.129 22.0554 226.334 22.8743 226.334 24.0419C226.334 25.2094 227.113 26.0121 228.24 26.0121ZM228.24 25.3392C227.559 25.3392 227.137 24.8527 227.137 24.0662V24.0338C227.137 23.2311 227.575 22.7284 228.256 22.7284C228.937 22.7284 229.367 23.2311 229.367 24.0338V24.0662C229.367 24.8446 228.929 25.3392 228.24 25.3392ZM230.797 25.9473H231.592V23.8068C231.592 23.1176 231.932 22.7446 232.395 22.7446C232.849 22.7446 233.092 23.0203 233.092 23.5878V25.9473H233.895V23.8068C233.895 23.1419 234.187 22.7446 234.697 22.7446C235.151 22.7446 235.395 23.0203 235.395 23.5878V25.9473H236.197V23.5473C236.197 22.5987 235.735 22.0392 235.005 22.0392C234.357 22.0392 233.951 22.3716 233.765 22.8743C233.587 22.2662 233.157 22.0392 232.711 22.0392C232.16 22.0392 231.787 22.3149 231.592 22.7933V22.1203H230.797V25.9473ZM238.66 26.0121C239.641 26.0121 240.184 25.5419 240.444 24.95L239.738 24.6743C239.592 25.0473 239.308 25.3635 238.66 25.3635C238.011 25.3635 237.598 24.9662 237.549 24.3095H240.427V24.0176C240.427 22.8095 239.754 22.0554 238.627 22.0554C237.541 22.0554 236.754 22.8743 236.754 24.0581C236.754 25.2338 237.484 26.0121 238.66 26.0121ZM237.533 23.7095C237.614 23.0851 238.036 22.7041 238.611 22.7041C239.211 22.7041 239.576 23.0527 239.608 23.7095H237.533ZM241.067 25.9473H241.862V23.9851C241.862 23.2068 242.048 22.8662 242.729 22.8662H243.094V22.0879H242.972C242.275 22.0879 241.975 22.3798 241.862 22.8257V22.1203H241.067V25.9473ZM245.028 26.0527C245.896 26.0527 246.52 25.5338 246.52 24.8284C246.52 24.0743 245.798 23.823 245.101 23.6851C244.404 23.5473 244.144 23.4905 244.144 23.1743C244.144 22.8824 244.412 22.6879 244.825 22.6879C245.223 22.6879 245.571 22.8662 245.79 23.1987L246.479 22.8581C246.106 22.3635 245.547 22.0392 244.825 22.0392C244.015 22.0392 243.382 22.55 243.382 23.223C243.382 23.9608 244.006 24.204 244.704 24.35C245.304 24.4797 245.75 24.5527 245.75 24.8851C245.75 25.2013 245.49 25.3959 245.061 25.3959C244.655 25.3959 244.258 25.2257 244.023 24.8851L243.334 25.25C243.682 25.7365 244.29 26.0527 245.028 26.0527Z" fill="#1F325D"/>
<path d="M259.233 25.9473H260.044V20.5636H259.233V25.9473ZM260.95 25.9473H261.744V24.1149C261.744 23.2392 262.085 22.7446 262.677 22.7446C263.196 22.7446 263.447 23.0608 263.447 23.6608V25.9473H264.25V23.6203C264.25 22.5987 263.747 22.0392 262.92 22.0392C262.336 22.0392 261.947 22.3311 261.744 22.8419V22.1203H260.95V25.9473ZM265.925 25.9554H266.662L268.089 22.1203H267.254L266.289 24.9986L265.276 22.1203H264.449L265.925 25.9554ZM270.008 26.0121C271.135 26.0121 271.937 25.1932 271.937 24.0419C271.937 22.8743 271.151 22.0554 270.024 22.0554C268.897 22.0554 268.102 22.8743 268.102 24.0419C268.102 25.2094 268.881 26.0121 270.008 26.0121ZM270.008 25.3392C269.327 25.3392 268.905 24.8527 268.905 24.0662V24.0338C268.905 23.2311 269.343 22.7284 270.024 22.7284C270.705 22.7284 271.135 23.2311 271.135 24.0338V24.0662C271.135 24.8446 270.697 25.3392 270.008 25.3392ZM272.541 21.5041H273.4V20.6609H272.541V21.5041ZM272.565 25.9473H273.368V22.1203H272.565V25.9473ZM275.874 26.0121C276.807 26.0121 277.382 25.5175 277.634 24.7392L276.871 24.504C276.742 25.023 276.474 25.3392 275.858 25.3392C275.193 25.3392 274.804 24.804 274.804 24.05V24.0176C274.804 23.2554 275.217 22.7284 275.882 22.7284C276.434 22.7284 276.709 23.0365 276.839 23.523L277.601 23.2878C277.366 22.5419 276.798 22.0554 275.898 22.0554C274.78 22.0554 274.001 22.8824 274.001 24.0257C274.001 25.1932 274.731 26.0121 275.874 26.0121ZM279.858 26.0121C280.839 26.0121 281.382 25.5419 281.641 24.95L280.936 24.6743C280.79 25.0473 280.506 25.3635 279.858 25.3635C279.209 25.3635 278.795 24.9662 278.747 24.3095H281.625V24.0176C281.625 22.8095 280.952 22.0554 279.825 22.0554C278.739 22.0554 277.952 22.8743 277.952 24.0581C277.952 25.2338 278.682 26.0121 279.858 26.0121ZM278.731 23.7095C278.812 23.0851 279.233 22.7041 279.809 22.7041C280.409 22.7041 280.774 23.0527 280.806 23.7095H278.731ZM283.684 26.0527C284.552 26.0527 285.176 25.5338 285.176 24.8284C285.176 24.0743 284.454 23.823 283.757 23.6851C283.06 23.5473 282.8 23.4905 282.8 23.1743C282.8 22.8824 283.068 22.6879 283.482 22.6879C283.879 22.6879 284.227 22.8662 284.446 23.1987L285.136 22.8581C284.763 22.3635 284.203 22.0392 283.482 22.0392C282.671 22.0392 282.038 22.55 282.038 23.223C282.038 23.9608 282.663 24.204 283.36 24.35C283.96 24.4797 284.406 24.5527 284.406 24.8851C284.406 25.2013 284.146 25.3959 283.717 25.3959C283.311 25.3959 282.914 25.2257 282.679 24.8851L281.99 25.25C282.338 25.7365 282.946 26.0527 283.684 26.0527Z" fill="#FB835E"/>
<path d="M297.994 25.9473H298.805V23.9608H299.672C301.148 23.9608 301.886 23.4095 301.886 22.25C301.886 21.1149 301.172 20.5636 299.696 20.5636H297.994V25.9473ZM298.805 23.2716V21.2527H299.696C300.669 21.2527 301.059 21.5365 301.059 22.25C301.059 22.9879 300.645 23.2716 299.672 23.2716H298.805ZM303.435 26.0446C303.987 26.0446 304.465 25.8256 304.724 25.3716V25.9473H305.495L305.487 25.3554V23.4662C305.487 22.4933 304.903 22.0554 303.922 22.0554C302.908 22.0554 302.227 22.5743 302.203 23.4338H303.006V23.3851C303.038 22.9554 303.346 22.696 303.914 22.696C304.497 22.696 304.733 22.9392 304.733 23.2554V23.3122C304.652 23.523 304.254 23.5635 303.606 23.7014C302.754 23.8878 302.114 24.0824 302.114 24.9419C302.114 25.5986 302.616 26.0446 303.435 26.0446ZM303.581 25.4365C303.16 25.4365 302.925 25.2257 302.925 24.9094C302.925 24.504 303.281 24.3662 303.719 24.2527C304.092 24.1635 304.497 24.0986 304.733 23.9365V24.4067C304.668 25.1527 304.141 25.4365 303.581 25.4365ZM305.882 27.4878H306.287C307.204 27.4878 307.536 27.131 307.885 26.2229L309.352 22.1203H308.509L307.577 24.9743L306.555 22.1203H305.72L307.196 25.8743C306.896 26.6527 306.774 26.7662 306.247 26.7662H305.882V27.4878ZM309.751 25.9473H310.546V23.8068C310.546 23.1176 310.886 22.7446 311.349 22.7446C311.803 22.7446 312.046 23.0203 312.046 23.5878V25.9473H312.849V23.8068C312.849 23.1419 313.141 22.7446 313.651 22.7446C314.105 22.7446 314.349 23.0203 314.349 23.5878V25.9473H315.151V23.5473C315.151 22.5987 314.689 22.0392 313.959 22.0392C313.311 22.0392 312.905 22.3716 312.719 22.8743C312.541 22.2662 312.111 22.0392 311.665 22.0392C311.114 22.0392 310.741 22.3149 310.546 22.7933V22.1203H309.751V25.9473ZM317.614 26.0121C318.595 26.0121 319.138 25.5419 319.398 24.95L318.692 24.6743C318.546 25.0473 318.262 25.3635 317.614 25.3635C316.965 25.3635 316.552 24.9662 316.503 24.3095H319.381V24.0176C319.381 22.8095 318.708 22.0554 317.581 22.0554C316.495 22.0554 315.708 22.8743 315.708 24.0581C315.708 25.2338 316.438 26.0121 317.614 26.0121ZM316.487 23.7095C316.568 23.0851 316.99 22.7041 317.565 22.7041C318.165 22.7041 318.53 23.0527 318.562 23.7095H316.487ZM320.021 25.9473H320.816V24.1149C320.816 23.2392 321.156 22.7446 321.748 22.7446C322.267 22.7446 322.518 23.0608 322.518 23.6608V25.9473H323.321V23.6203C323.321 22.5987 322.818 22.0392 321.991 22.0392C321.407 22.0392 321.018 22.3311 320.816 22.8419V22.1203H320.021V25.9473ZM325.164 25.9473H325.845V25.25H325.391C325.147 25.25 325.05 25.1365 325.05 24.8932V22.8014H325.877V22.1203H325.05V20.896L324.28 21.3744V22.1203H323.672V22.8014H324.28V24.9905C324.288 25.5986 324.466 25.9148 325.164 25.9473ZM327.87 26.0527C328.737 26.0527 329.362 25.5338 329.362 24.8284C329.362 24.0743 328.64 23.823 327.943 23.6851C327.245 23.5473 326.986 23.4905 326.986 23.1743C326.986 22.8824 327.254 22.6879 327.667 22.6879C328.064 22.6879 328.413 22.8662 328.632 23.1987L329.321 22.8581C328.948 22.3635 328.389 22.0392 327.667 22.0392C326.856 22.0392 326.224 22.55 326.224 23.223C326.224 23.9608 326.848 24.204 327.545 24.35C328.145 24.4797 328.591 24.5527 328.591 24.8851C328.591 25.2013 328.332 25.3959 327.902 25.3959C327.497 25.3959 327.1 25.2257 326.864 24.8851L326.175 25.25C326.524 25.7365 327.132 26.0527 327.87 26.0527Z" fill="#1F325D"/>
<path d="M342.787 25.9473H343.59V23.8716H344.312C345.471 23.8716 345.901 24.6176 346.047 25.777L346.055 25.9473H346.914L346.89 25.7446C346.736 24.4716 346.347 23.7743 345.479 23.523C346.347 23.377 346.793 22.7852 346.793 22.0311C346.793 21.1311 346.16 20.5636 344.733 20.5636H342.787V25.9473ZM343.59 23.1987V21.2527H344.717C345.601 21.2527 345.974 21.5284 345.974 22.1122C345.974 22.6392 345.617 23.1987 344.612 23.1987H343.59ZM349.089 26.0121C350.07 26.0121 350.614 25.5419 350.873 24.95L350.168 24.6743C350.022 25.0473 349.738 25.3635 349.089 25.3635C348.441 25.3635 348.027 24.9662 347.979 24.3095H350.857V24.0176C350.857 22.8095 350.184 22.0554 349.057 22.0554C347.97 22.0554 347.184 22.8743 347.184 24.0581C347.184 25.2338 347.914 26.0121 349.089 26.0121ZM347.962 23.7095C348.043 23.0851 348.465 22.7041 349.041 22.7041C349.641 22.7041 350.006 23.0527 350.038 23.7095H347.962ZM352.916 26.0527C353.783 26.0527 354.408 25.5338 354.408 24.8284C354.408 24.0743 353.686 23.823 352.989 23.6851C352.292 23.5473 352.032 23.4905 352.032 23.1743C352.032 22.8824 352.3 22.6879 352.713 22.6879C353.11 22.6879 353.459 22.8662 353.678 23.1987L354.367 22.8581C353.994 22.3635 353.435 22.0392 352.713 22.0392C351.902 22.0392 351.27 22.55 351.27 23.223C351.27 23.9608 351.894 24.204 352.592 24.35C353.192 24.4797 353.638 24.5527 353.638 24.8851C353.638 25.2013 353.378 25.3959 352.948 25.3959C352.543 25.3959 352.146 25.2257 351.911 24.8851L351.221 25.25C351.57 25.7365 352.178 26.0527 352.916 26.0527ZM356.667 26.0121C357.794 26.0121 358.596 25.1932 358.596 24.0419C358.596 22.8743 357.81 22.0554 356.683 22.0554C355.556 22.0554 354.761 22.8743 354.761 24.0419C354.761 25.2094 355.54 26.0121 356.667 26.0121ZM356.667 25.3392C355.986 25.3392 355.564 24.8527 355.564 24.0662V24.0338C355.564 23.2311 356.002 22.7284 356.683 22.7284C357.364 22.7284 357.794 23.2311 357.794 24.0338V24.0662C357.794 24.8446 357.356 25.3392 356.667 25.3392ZM360.522 26.0121C361.073 26.0121 361.446 25.7608 361.657 25.2905V25.9473H362.452V22.1203H361.657V23.9527C361.657 24.7797 361.365 25.323 360.733 25.323C360.214 25.323 359.954 24.9986 359.954 24.4067V22.1203H359.152V24.4473C359.152 25.4202 359.662 26.0121 360.522 26.0121ZM363.294 25.9473H364.089V23.9851C364.089 23.2068 364.275 22.8662 364.956 22.8662H365.321V22.0879H365.2C364.502 22.0879 364.202 22.3798 364.089 22.8257V22.1203H363.294V25.9473ZM367.324 26.0121C368.256 26.0121 368.832 25.5175 369.083 24.7392L368.321 24.504C368.191 25.023 367.924 25.3392 367.307 25.3392C366.643 25.3392 366.253 24.804 366.253 24.05V24.0176C366.253 23.2554 366.667 22.7284 367.332 22.7284C367.883 22.7284 368.159 23.0365 368.288 23.523L369.051 23.2878C368.815 22.5419 368.248 22.0554 367.348 22.0554C366.229 22.0554 365.451 22.8824 365.451 24.0257C365.451 25.1932 366.18 26.0121 367.324 26.0121ZM371.307 26.0121C372.288 26.0121 372.831 25.5419 373.091 24.95L372.385 24.6743C372.239 25.0473 371.956 25.3635 371.307 25.3635C370.658 25.3635 370.245 24.9662 370.196 24.3095H373.075V24.0176C373.075 22.8095 372.402 22.0554 371.275 22.0554C370.188 22.0554 369.402 22.8743 369.402 24.0581C369.402 25.2338 370.131 26.0121 371.307 26.0121ZM370.18 23.7095C370.261 23.0851 370.683 22.7041 371.258 22.7041C371.858 22.7041 372.223 23.0527 372.256 23.7095H370.18ZM375.134 26.0527C376.001 26.0527 376.626 25.5338 376.626 24.8284C376.626 24.0743 375.904 23.823 375.207 23.6851C374.509 23.5473 374.25 23.4905 374.25 23.1743C374.25 22.8824 374.517 22.6879 374.931 22.6879C375.328 22.6879 375.677 22.8662 375.896 23.1987L376.585 22.8581C376.212 22.3635 375.653 22.0392 374.931 22.0392C374.12 22.0392 373.488 22.55 373.488 23.223C373.488 23.9608 374.112 24.204 374.809 24.35C375.409 24.4797 375.855 24.5527 375.855 24.8851C375.855 25.2013 375.596 25.3959 375.166 25.3959C374.761 25.3959 374.363 25.2257 374.128 24.8851L373.439 25.25C373.788 25.7365 374.396 26.0527 375.134 26.0527Z" fill="#1F325D"/>
<path d="M391.591 26.0365C392.808 26.0365 393.529 25.3554 393.529 24.3743C393.529 23.3203 392.621 23.0446 391.737 22.8743C390.967 22.7284 390.262 22.6149 390.262 22.0392C390.262 21.5203 390.675 21.1798 391.34 21.1798C392.078 21.1798 392.524 21.4798 392.637 22.2662H393.505C393.343 21.0582 392.556 20.4663 391.348 20.4663C390.246 20.4663 389.459 21.1473 389.459 22.0798C389.459 23.1176 390.408 23.4095 391.3 23.5878C392.078 23.7338 392.718 23.8797 392.718 24.4149C392.718 24.9824 392.297 25.323 391.567 25.323C390.74 25.323 390.319 25.023 390.156 24.2284H389.281C389.492 25.3959 390.221 26.0365 391.591 26.0365ZM395.867 26.0121C396.848 26.0121 397.391 25.5419 397.651 24.95L396.945 24.6743C396.799 25.0473 396.516 25.3635 395.867 25.3635C395.218 25.3635 394.805 24.9662 394.756 24.3095H397.634V24.0176C397.634 22.8095 396.962 22.0554 395.834 22.0554C394.748 22.0554 393.962 22.8743 393.962 24.0581C393.962 25.2338 394.691 26.0121 395.867 26.0121ZM394.74 23.7095C394.821 23.0851 395.243 22.7041 395.818 22.7041C396.418 22.7041 396.783 23.0527 396.816 23.7095H394.74ZM399.371 25.9473H400.052V25.25H399.598C399.354 25.25 399.257 25.1365 399.257 24.8932V22.8014H400.084V22.1203H399.257V20.896L398.487 21.3744V22.1203H397.879V22.8014H398.487V24.9905C398.495 25.5986 398.673 25.9148 399.371 25.9473ZM401.904 25.9473H402.586V25.25H402.131C401.888 25.25 401.791 25.1365 401.791 24.8932V22.8014H402.618V22.1203H401.791V20.896L401.021 21.3744V22.1203H400.413V22.8014H401.021V24.9905C401.029 25.5986 401.207 25.9148 401.904 25.9473ZM403.222 21.5041H404.082V20.6609H403.222V21.5041ZM403.247 25.9473H404.049V22.1203H403.247V25.9473ZM404.901 25.9473H405.696V24.1149C405.696 23.2392 406.036 22.7446 406.628 22.7446C407.147 22.7446 407.399 23.0608 407.399 23.6608V25.9473H408.201V23.6203C408.201 22.5987 407.699 22.0392 406.872 22.0392C406.288 22.0392 405.899 22.3311 405.696 22.8419V22.1203H404.901V25.9473ZM410.601 27.8607C411.882 27.8607 412.652 27.3824 412.652 26.5878C412.652 25.8094 412.036 25.4121 410.819 25.4121H410.025C409.668 25.4121 409.433 25.2905 409.433 25.104C409.433 24.9419 409.595 24.8121 409.887 24.8284H409.944C410.106 24.877 410.276 24.9013 410.455 24.9013C411.428 24.9013 412.068 24.3419 412.068 23.4743C412.068 23.3365 412.044 23.2068 412.011 23.077C412.182 22.8906 412.425 22.8743 412.628 22.9473V22.1203C412.222 22.1203 411.963 22.3473 411.825 22.6879C411.557 22.2906 411.079 22.0392 410.495 22.0392C409.571 22.0392 408.882 22.6554 408.882 23.4824C408.882 23.9284 409.092 24.3095 409.425 24.5689C408.987 24.6662 408.736 24.9176 408.736 25.25C408.736 25.5662 408.979 25.8175 409.368 25.9148C408.93 26.077 408.663 26.377 408.663 26.7581C408.663 27.4716 409.344 27.8607 410.601 27.8607ZM410.479 24.2851C409.96 24.2851 409.619 23.9608 409.619 23.4905V23.4581C409.619 22.9879 409.984 22.6473 410.479 22.6473C410.99 22.6473 411.355 22.9879 411.355 23.4581V23.4905C411.355 23.9689 411.014 24.2851 410.479 24.2851ZM410.625 27.2608C409.806 27.2608 409.36 27.05 409.36 26.6932C409.36 26.3121 409.798 26.0932 410.317 26.0932H410.795C411.598 26.0932 411.938 26.2635 411.938 26.6446C411.938 27.0256 411.436 27.2608 410.625 27.2608ZM414.54 26.0527C415.407 26.0527 416.032 25.5338 416.032 24.8284C416.032 24.0743 415.31 23.823 414.613 23.6851C413.915 23.5473 413.656 23.4905 413.656 23.1743C413.656 22.8824 413.923 22.6879 414.337 22.6879C414.734 22.6879 415.083 22.8662 415.302 23.1987L415.991 22.8581C415.618 22.3635 415.059 22.0392 414.337 22.0392C413.526 22.0392 412.894 22.55 412.894 23.223C412.894 23.9608 413.518 24.204 414.215 24.35C414.815 24.4797 415.261 24.5527 415.261 24.8851C415.261 25.2013 415.002 25.3959 414.572 25.3959C414.167 25.3959 413.769 25.2257 413.534 24.8851L412.845 25.25C413.194 25.7365 413.802 26.0527 414.54 26.0527Z" fill="#1F325D"/>
<rect x="254.777" y="36.6372" width="35.0117" height="1.10563" fill="#FB835E"/>
<g clip-path="url(#clip1_650_26985)">
<line x1="467.459" y1="64.8687" x2="467.459" y2="70.7654" stroke="#1F325D" stroke-width="0.737089"/>
<line x1="470.334" y1="67.8908" x2="464.437" y2="67.8908" stroke="#1F325D" stroke-width="0.737089"/>
</g>
<path d="M473.563 71.3169H474.512L475.175 69.5387H477.571L478.207 71.3169H479.183L476.944 65.1991H475.866L473.563 71.3169ZM475.452 68.7279L476.382 66.2033L477.285 68.7279H475.452ZM481.268 71.409C481.876 71.409 482.373 71.1418 482.677 70.6812V71.3169H483.562V65.1069H482.677V67.6222C482.364 67.1616 481.876 66.8759 481.277 66.8759C480.144 66.8759 479.314 67.7789 479.314 69.1609C479.314 70.5706 480.153 71.409 481.268 71.409ZM481.498 70.6351C480.752 70.6351 480.263 70.1283 480.263 69.1978V69.1333C480.263 68.1935 480.761 67.6499 481.498 67.6499C482.263 67.6499 482.723 68.2303 482.723 69.0872V69.1609C482.723 70.027 482.244 70.6351 481.498 70.6351ZM486.216 71.409C486.824 71.409 487.322 71.1418 487.626 70.6812V71.3169H488.511V65.1069H487.626V67.6222C487.313 67.1616 486.824 66.8759 486.226 66.8759C485.092 66.8759 484.263 67.7789 484.263 69.1609C484.263 70.5706 485.102 71.409 486.216 71.409ZM486.447 70.6351C485.7 70.6351 485.212 70.1283 485.212 69.1978V69.1333C485.212 68.1935 485.71 67.6499 486.447 67.6499C487.211 67.6499 487.672 68.2303 487.672 69.0872V69.1609C487.672 70.027 487.193 70.6351 486.447 70.6351ZM491.223 66.2678H492.2V65.3096H491.223V66.2678ZM491.251 71.3169H492.163V66.9681H491.251V71.3169ZM493.132 71.3169H494.035V69.2346C494.035 68.2395 494.422 67.6775 495.094 67.6775C495.684 67.6775 495.969 68.0368 495.969 68.7187V71.3169H496.882V68.6726C496.882 67.5117 496.31 66.8759 495.371 66.8759C494.707 66.8759 494.265 67.2076 494.035 67.7881V66.9681H493.132V71.3169ZM498.785 71.3261H499.623L501.245 66.9681H500.296L499.2 70.2389L498.048 66.9681H497.108L498.785 71.3261ZM503.425 71.3906C504.706 71.3906 505.618 70.46 505.618 69.1517C505.618 67.8249 504.724 66.8944 503.443 66.8944C502.163 66.8944 501.26 67.8249 501.26 69.1517C501.26 70.4785 502.144 71.3906 503.425 71.3906ZM503.425 70.6259C502.651 70.6259 502.172 70.0731 502.172 69.1793V69.1425C502.172 68.2303 502.669 67.6591 503.443 67.6591C504.217 67.6591 504.706 68.2303 504.706 69.1425V69.1793C504.706 70.0638 504.208 70.6259 503.425 70.6259ZM506.304 66.2678H507.28V65.3096H506.304V66.2678ZM506.331 71.3169H507.243V66.9681H506.331V71.3169ZM510.091 71.3906C511.151 71.3906 511.805 70.8286 512.091 69.9441L511.225 69.6769C511.077 70.2665 510.773 70.6259 510.073 70.6259C509.317 70.6259 508.875 70.0178 508.875 69.1609V69.1241C508.875 68.258 509.345 67.6591 510.101 67.6591C510.727 67.6591 511.04 68.0092 511.188 68.562L512.054 68.2948C511.787 67.4472 511.142 66.8944 510.119 66.8944C508.847 66.8944 507.963 67.8341 507.963 69.1333C507.963 70.46 508.792 71.3906 510.091 71.3906ZM514.618 71.3906C515.733 71.3906 516.35 70.8562 516.645 70.1836L515.843 69.8704C515.678 70.2942 515.355 70.6535 514.618 70.6535C513.881 70.6535 513.411 70.202 513.356 69.4557H516.627V69.1241C516.627 67.7512 515.862 66.8944 514.581 66.8944C513.347 66.8944 512.453 67.8249 512.453 69.1701C512.453 70.5061 513.282 71.3906 514.618 71.3906ZM513.337 68.7739C513.429 68.0645 513.909 67.6314 514.563 67.6314C515.245 67.6314 515.659 68.0276 515.696 68.7739H513.337ZM518.966 71.4367C519.952 71.4367 520.662 70.847 520.662 70.0454C520.662 69.1885 519.842 68.9029 519.049 68.7463C518.257 68.5897 517.962 68.5252 517.962 68.1658C517.962 67.8341 518.266 67.613 518.736 67.613C519.188 67.613 519.584 67.8157 519.832 68.1935L520.616 67.8065C520.192 67.2445 519.556 66.8759 518.736 66.8759C517.815 66.8759 517.096 67.4564 517.096 68.2211C517.096 69.0596 517.805 69.336 518.598 69.5018C519.28 69.6492 519.786 69.7322 519.786 70.1099C519.786 70.4692 519.492 70.6904 519.003 70.6904C518.543 70.6904 518.091 70.4969 517.824 70.1099L517.041 70.5245C517.437 71.0773 518.128 71.4367 518.966 71.4367Z" fill="#1F325D"/>
<rect x="457" y="58" width="71" height="20" rx="2.12314" stroke="#1F325D" stroke-width="0.517995"/>
</g>
<rect x="7.36129" y="7.76828" width="569.277" height="347.045" rx="16.195" stroke="#DEDEDE" stroke-width="0.981513"/>
<defs>
<clipPath id="clip0_650_26985">
<rect x="7.85205" y="8.25903" width="568.296" height="346.063" rx="15.7042" fill="white"/>
</clipPath>
<clipPath id="clip1_650_26985">
<rect width="7.07606" height="7.07606" fill="white" transform="translate(463.848 64.2791)"/>
</clipPath>
</defs>
</svg>
