<svg width="254" height="136" viewBox="0 0 254 136" fill="none" xmlns="http://www.w3.org/2000/svg">
<rect width="253.402" height="135.867" rx="20.7469" fill="white"/>
<rect x="9.48133" y="9.48133" width="234.44" height="116.905" rx="14.5366" fill="white"/>
<path d="M27.4625 40.5977H29.0039V31.6482L32.1024 40.5977H33.4865L36.7265 31.5538V40.5977H38.2679V30.154H35.6885L32.8259 38.4271L30.1363 30.154H27.4625V40.5977ZM43.2204 40.7235C45.1236 40.7235 46.1774 39.8112 46.6807 38.6631L45.3123 38.1283C45.0292 38.8518 44.4787 39.4652 43.2204 39.4652C41.9621 39.4652 41.16 38.6945 41.0656 37.4205H46.6492V36.8543C46.6492 34.5107 45.3438 33.048 43.1575 33.048C41.0499 33.048 39.5242 34.6366 39.5242 36.9329C39.5242 39.2136 40.9398 40.7235 43.2204 40.7235ZM41.0342 36.2566C41.1914 35.0455 42.0093 34.3063 43.126 34.3063C44.2899 34.3063 44.9977 34.9826 45.0606 36.2566H41.0342ZM50.0173 40.5977H51.3385V39.245H50.4577C49.9859 39.245 49.7971 39.0248 49.7971 38.553V34.495H51.4014V33.1738H49.7971V30.7988L48.3029 31.7268V33.1738H47.1233V34.495H48.3029V38.7417C48.3186 39.9213 48.6647 40.5347 50.0173 40.5977ZM52.6207 40.5977H54.1621V36.7914C54.1621 35.2814 54.5239 34.6208 55.8451 34.6208H56.5529V33.1109H56.3169C54.9643 33.1109 54.3823 33.6771 54.1621 34.5422V33.1738H52.6207V40.5977ZM57.6116 31.9785H59.2788V30.3427H57.6116V31.9785ZM57.6588 40.5977H59.2159V33.1738H57.6588V40.5977ZM64.0776 40.7235C65.8863 40.7235 67.0031 39.764 67.4906 38.2541L66.0122 37.798C65.7605 38.8046 65.2415 39.418 64.0461 39.418C62.7564 39.418 62.0014 38.3799 62.0014 36.9172V36.8543C62.0014 35.3758 62.8036 34.3535 64.0933 34.3535C65.1628 34.3535 65.6976 34.9511 65.9493 35.8948L67.4277 35.4387C66.9716 33.9917 65.8706 33.048 64.1248 33.048C61.9542 33.048 60.4443 34.6523 60.4443 36.87C60.4443 39.1349 61.8599 40.7235 64.0776 40.7235Z" fill="#1F325D"/>
<path d="M201.067 40.5977H202.624V36.5712H204.024C206.273 36.5712 207.106 38.0182 207.39 40.2674L207.405 40.5977H209.072L209.025 40.2044C208.726 37.7351 207.971 36.3824 206.289 35.8948C207.971 35.6117 208.837 34.4636 208.837 33.0008C208.837 31.255 207.61 30.154 204.842 30.154H201.067V40.5977ZM202.624 35.2657V31.4909H204.81C206.524 31.4909 207.248 32.0257 207.248 33.1581C207.248 34.1804 206.556 35.2657 204.606 35.2657H202.624ZM210.357 31.9785H212.024V30.3427H210.357V31.9785ZM210.404 40.5977H211.961V33.1738H210.404V40.5977ZM216.322 40.8021C218.005 40.8021 219.216 39.7955 219.216 38.4271C219.216 36.9644 217.816 36.4768 216.464 36.2094C215.111 35.942 214.608 35.8319 214.608 35.2185C214.608 34.6523 215.127 34.2748 215.929 34.2748C216.7 34.2748 217.376 34.6208 217.801 35.2657L219.137 34.6051C218.414 33.6457 217.329 33.0165 215.929 33.0165C214.356 33.0165 213.129 34.0074 213.129 35.3129C213.129 36.7442 214.34 37.216 215.693 37.4992C216.857 37.7508 217.722 37.8924 217.722 38.5372C217.722 39.1506 217.219 39.5281 216.385 39.5281C215.599 39.5281 214.828 39.1978 214.372 38.5372L213.035 39.245C213.711 40.1887 214.891 40.8021 216.322 40.8021ZM220.311 40.5977H221.821V38.3485L222.985 37.0273L225.109 40.5977H226.807L224.008 35.9578L226.634 33.1738H224.841L221.821 36.6341V29.9967H220.311V40.5977Z" fill="#1F325D"/>
<rect x="26.5974" y="50.0791" width="96.473" height="13.4855" rx="6.74274" fill="#E9EDF3"/>
<path d="M200.67 62.8218H207.166V61.4062H202.243V52.3781H200.67V62.8218ZM211.282 62.9476C213.469 62.9476 215.026 61.359 215.026 59.1256C215.026 56.8607 213.5 55.2721 211.314 55.2721C209.128 55.2721 207.586 56.8607 207.586 59.1256C207.586 61.3905 209.096 62.9476 211.282 62.9476ZM211.282 61.6421C209.961 61.6421 209.143 60.6984 209.143 59.1728V59.1099C209.143 57.5527 209.993 56.5776 211.314 56.5776C212.635 56.5776 213.469 57.5527 213.469 59.1099V59.1728C213.469 60.6827 212.619 61.6421 211.282 61.6421ZM217.636 62.8218H219.02L220.624 57.2854L222.244 62.8218H223.628L225.941 55.3979H224.352L222.936 60.6041L221.379 55.3979H219.885L218.328 60.5883L216.897 55.3979H215.292L217.636 62.8218Z" fill="#16C270"/>
<rect x="26.5974" y="72.3032" width="110.996" height="13.4855" rx="6.74274" fill="#E9EDF3"/>
<path d="M165.67 85.0459H167.211V76.0964L170.31 85.0459H171.694L174.934 76.002V85.0459H176.475V74.6022H173.896L171.033 82.8754L168.344 74.6022H165.67V85.0459ZM181.351 85.1717C183.537 85.1717 185.095 83.5832 185.095 81.3497C185.095 79.0848 183.569 77.4962 181.383 77.4962C179.196 77.4962 177.655 79.0848 177.655 81.3497C177.655 83.6146 179.165 85.1717 181.351 85.1717ZM181.351 83.8663C180.03 83.8663 179.212 82.9226 179.212 81.3969V81.334C179.212 79.7769 180.061 78.8017 181.383 78.8017C182.704 78.8017 183.537 79.7769 183.537 81.334V81.3969C183.537 82.9068 182.688 83.8663 181.351 83.8663ZM189.222 85.2032C190.26 85.2032 191.11 84.7471 191.629 83.9606V85.0459H193.139V74.4449H191.629V78.7388C191.094 77.9524 190.26 77.4648 189.238 77.4648C187.303 77.4648 185.888 79.0062 185.888 81.3654C185.888 83.7719 187.319 85.2032 189.222 85.2032ZM189.615 83.882C188.341 83.882 187.508 83.0169 187.508 81.4284V81.3183C187.508 79.714 188.357 78.786 189.615 78.786C190.921 78.786 191.707 79.7769 191.707 81.2396V81.3654C191.707 82.8439 190.889 83.882 189.615 83.882ZM198.032 85.1717C199.935 85.1717 200.989 84.2595 201.492 83.1113L200.124 82.5765C199.841 83.3 199.29 83.9135 198.032 83.9135C196.774 83.9135 195.971 83.1428 195.877 81.8688H201.461V81.3025C201.461 78.959 200.155 77.4962 197.969 77.4962C195.861 77.4962 194.336 79.0848 194.336 81.3812C194.336 83.6618 195.751 85.1717 198.032 85.1717ZM195.846 80.7048C196.003 79.4938 196.821 78.7545 197.938 78.7545C199.101 78.7545 199.809 79.4308 199.872 80.7048H195.846ZM202.701 85.0459H204.243V81.2396C204.243 79.7297 204.605 79.0691 205.926 79.0691H206.634V77.5592H206.398C205.045 77.5592 204.463 78.1254 204.243 78.9904V77.6221H202.701V85.0459ZM209.541 85.2346C210.611 85.2346 211.539 84.81 212.042 83.9292V85.0459H213.536L213.521 83.8977V80.233C213.521 78.3456 212.388 77.4962 210.485 77.4962C208.519 77.4962 207.198 78.5029 207.151 80.1701H208.708V80.0757C208.771 79.2421 209.368 78.7388 210.469 78.7388C211.602 78.7388 212.058 79.2106 212.058 79.8241V79.9342C211.901 80.3431 211.13 80.4217 209.872 80.6891C208.22 81.0509 206.978 81.4284 206.978 83.0956C206.978 84.3696 207.953 85.2346 209.541 85.2346ZM209.824 84.055C209.007 84.055 208.55 83.6461 208.55 83.0327C208.55 82.2462 209.242 81.9789 210.092 81.7587C210.815 81.5856 211.602 81.4598 212.058 81.1452V82.0575C211.932 83.5045 210.91 84.055 209.824 84.055ZM217.255 85.0459H218.576V83.6933H217.695C217.223 83.6933 217.035 83.4731 217.035 83.0012V78.9433H218.639V77.6221H217.035V75.2471L215.54 76.1751V77.6221H214.361V78.9433H215.54V83.1899C215.556 84.3696 215.902 84.983 217.255 85.0459ZM222.792 85.1717C224.695 85.1717 225.749 84.2595 226.252 83.1113L224.884 82.5765C224.601 83.3 224.05 83.9135 222.792 83.9135C221.534 83.9135 220.731 83.1428 220.637 81.8688H226.221V81.3025C226.221 78.959 224.915 77.4962 222.729 77.4962C220.621 77.4962 219.096 79.0848 219.096 81.3812C219.096 83.6618 220.511 85.1717 222.792 85.1717ZM220.606 80.7048C220.763 79.4938 221.581 78.7545 222.698 78.7545C223.861 78.7545 224.569 79.4308 224.632 80.7048H220.606Z" fill="#FFA800"/>
<rect x="26.5974" y="94.8994" width="74.6259" height="12.741" rx="6.37051" fill="#E9EDF3"/>
<path d="M197.67 107.27H199.243V102.662H204.528V107.27H206.1V96.8263H204.528V101.262H199.243V96.8263H197.67V107.27ZM207.744 98.6508H209.411V97.0151H207.744V98.6508ZM207.791 107.27H209.348V99.8462H207.791V107.27ZM214.131 110.982C216.616 110.982 218.11 110.054 218.11 108.513C218.11 107.003 216.915 106.232 214.556 106.232H213.014C212.322 106.232 211.866 105.996 211.866 105.634C211.866 105.32 212.181 105.068 212.747 105.099H212.857C213.172 105.194 213.502 105.241 213.848 105.241C215.735 105.241 216.978 104.156 216.978 102.473C216.978 102.205 216.931 101.954 216.868 101.702C217.198 101.34 217.67 101.309 218.063 101.45V99.8462C217.277 99.8462 216.774 100.287 216.506 100.947C215.987 100.176 215.059 99.6889 213.927 99.6889C212.134 99.6889 210.797 100.884 210.797 102.489C210.797 103.354 211.206 104.093 211.851 104.596C211.001 104.785 210.514 105.273 210.514 105.917C210.514 106.531 210.985 107.018 211.74 107.207C210.891 107.522 210.372 108.104 210.372 108.843C210.372 110.227 211.693 110.982 214.131 110.982ZM213.895 104.046C212.889 104.046 212.228 103.417 212.228 102.504V102.441C212.228 101.529 212.936 100.869 213.895 100.869C214.886 100.869 215.594 101.529 215.594 102.441V102.504C215.594 103.432 214.933 104.046 213.895 104.046ZM214.178 109.818C212.59 109.818 211.725 109.409 211.725 108.717C211.725 107.978 212.574 107.553 213.581 107.553H214.509C216.066 107.553 216.726 107.883 216.726 108.623C216.726 109.362 215.751 109.818 214.178 109.818ZM219.004 107.27H220.514V103.715C220.514 102.017 221.158 101.057 222.307 101.057C223.313 101.057 223.801 101.671 223.801 102.835V107.27H225.358V102.756C225.358 100.774 224.383 99.7204 222.778 99.7204C221.63 99.7204 220.891 100.287 220.514 101.309V96.669H219.004V107.27Z" fill="#EB5757"/>
<rect x="9.48133" y="9.48133" width="234.44" height="116.905" rx="14.5366" stroke="#BABABA" stroke-width="1.03734"/>
</svg>
