<svg width="22" height="13" viewBox="0 0 22 13" fill="none" xmlns="http://www.w3.org/2000/svg">
<path d="M13.9206 0.519749C13.5887 0.840544 13.5887 1.35671 13.9206 1.6775L17.8576 5.44624H1.29989C0.827245 5.44624 0.443848 5.81407 0.443848 6.26752C0.443848 6.72098 0.827245 7.0888 1.29989 7.0888H17.8325L13.9206 10.8419C13.5824 11.1639 13.5812 11.6873 13.9168 12.0117C14.2524 12.3361 14.798 12.3373 15.1361 12.0153L20.5791 6.78489C20.8783 6.49666 20.8783 6.02994 20.5791 5.74171L15.1361 0.519749C14.803 0.197748 14.2612 0.195336 13.9256 0.514925C13.9244 0.517337 13.9218 0.518543 13.9206 0.519749Z" fill="white" stroke="white" stroke-width="0.5" stroke-miterlimit="10"/>
</svg>
